<?xml version="1.0" encoding="utf-8"?>
<svg version="1.1" xmlns="http://www.w3.org/2000/svg" width="30px" height="30px" viewBox="0 0 30 30">

 <g transform="translate(5,9)" opacity="0.4">
  <rect height="2" width="11"/>
  <rect height="2" width= "7" y= "5"/>
  <rect height="2" width= "5" y="10"/>
 </g>
 
 <path d="M27.6,13.4L27.6,13.4l0-0.2c-0.1-0.9-0.5-1.7-0.9-2.3c-0.5-0.6-1-1-1.6-1.4C24.5,9.2,24,9,23.4,8.8c-0.5-0.2-1.1-0.3-1.5-0.3c-0.5-0.1-0.9-0.1-1.3-0.1c-0.4,0-0.7,0-1,0c-0.5,0-0.9,0.1-0.9,0.1s0.3,0,0.8,0.1c0.3,0.1,0.6,0.1,0.9,0.2c0.4,0.1,0.8,0.2,1.2,0.4c0.4,0.2,0.8,0.4,1.3,0.7c0.4,0.3,0.8,0.6,1.2,0.9c0.3,0.4,0.6,0.8,0.8,1.2c0.2,0.4,0.2,0.8,0.1,1.2c0-0.2,0-0.1,0-0.1l0,0l0,0.1l0,0.1l0,0.2c0,0.1-0.1,0.1-0.1,0.2c-0.1,0.1-0.2,0.3-0.3,0.4c-0.3,0.3-0.6,0.5-1,0.7c-0.4,0.2-0.8,0.3-1.2,0.4c-0.4,0.1-0.8,0.2-1.2,0.2c-0.4,0-0.7,0.1-1,0c-0.1,0-0.1,0-0.2,0v-2.9c0-0.5-0.3-0.7-0.7-0.3L14,17.6c-0.2,0.2-0.2,0.5,0,0.7l5.3,5.3c0.4,0.4,0.7,0.3,0.7-0.3v-3c0.3-0.1,0.6-0.1,0.9-0.2c0.4-0.1,0.9-0.3,1.5-0.5c0.5-0.2,1.1-0.5,1.6-0.8c0.6-0.3,1.1-0.7,1.7-1.2c0.5-0.5,1.1-1.1,1.4-1.9c0.2-0.4,0.3-0.8,0.4-1.2c0-0.2,0.1-0.5,0.1-0.7L27.6,13.4z"/>
</svg>
