<?xml version="1.0" encoding="utf-8"?>
<svg version="1.1" xmlns="http://www.w3.org/2000/svg" width="30px" height="30px" viewBox="0 0 30 30">

 <g transform="translate(4,10.25)" stroke="black" stroke-width="1.5" stroke-linecap="round">
  <line x2="11"/>
  <line x2="7" y1="5" y2="5"/>
  <line x2="5" y1="10" y2="10"/>
 </g>
 <path transform="translate(13,11)" d="M7.1,0.7c-0.3,0-0.7,0.1-1,0.4L0.7,6.2C0.4,6.6,0.3,6.8,0.3,7c0,0.2,0.1,0.4,0.3,0.8l5.4,5.1c0.3,0.3,0.6,0.4,0.9,0.4c0.4,0,0.9-0.3,0.9-0.9V9.9h0.2c5,0,7.2-3.2,7.2-8.3c0-0.6-0.3-0.9-0.7-0.9c-0.3,0-0.7,0.1-0.9,0.6c-1.2,2.2-2.9,3-5.6,3H8V1.4C8,1,7.6,0.7,7.1,0.7z"/>
</svg>
