<?xml version="1.0" encoding="utf-8"?>
<!DOCTYPE svg
PUBLIC "-//W3C//DTD SVG 1.1//EN"
       "http://www.w3.org/Graphics/SVG/1.1/DTD/svg11.dtd">
<svg version="1.1" xmlns="http://www.w3.org/2000/svg" width="3300" height="2200">
 
 <g id="Notes">
  <style>
   text { font-family: -apple-system, sans-serif; }
   .separator { fill: none; stroke: black; stroke-width: 0.5; }
  </style>
  
  <rect height="2200" id="artboard" style="fill:white" width="3300"/>
  
  <g title="header" transform="translate(263 292)">
   <line class="separator" x1="0" x2="2773"/>
   
   <g transform="translate(0 30)">
    <text style="font-weight:bold;">Weight/Scale Variations</text>
    
    <g style="text-anchor:middle;">
     <text x="296.711">Ultralight</text>
     <text x="593.422">Thin</text>
     <text x="890.13">Light</text>
     <text x="1186.84">Regular</text>
     <text x="1483.56">Medium</text>
     <text x="1780.27">Semibold</text>
     <text x="2076.98">Bold</text>
     <text x="2373.69">Heavy</text>
     <text x="2670.4">Black</text>
    </g>
   </g>
  </g>
  
  <g title="footer" transform="translate(263 1903)">
   <line class="separator" x1="0" x2="2773"/>
   
   <g transform="translate(2773 0)" style="text-anchor:end;">
    <text id="template-version" y="30">Template v.2.0</text>
    <text y="48">Requires Xcode 12 or greater</text>
    <text y="66">Generated from lines.wrap</text>
    <text y="84">Typeset at 100 points</text>
   </g>
  </g>
  
  <g transform="translate(263 0)">
   <text y="726">Small</text>
   <text y="1156">Medium</text>
   <text y="1586">Large</text>
  </g>
 </g>
 
 <g id="Guides">
  <style>
   #H-reference      { fill:#27AAE1; stroke:none; }
   [id^="Baseline"],
   [id^="Capline"]   { fill:none; stroke:#27AAE1; stroke-width:0.5; }
   [id$="-margin"]   { fill:none; stroke:#00AEEF; stroke-width:0.5; }
  </style>
  
  <g id="H-reference" transform="translate(339 696)">
   <path d="M1,0h2.7L13-24.5h32.7L55.1,0h2.6L30.6-70.5h-2.5L1,0z M29.3-67.1L29.3-67.1l15.6,40.4h-31L29.3-67.1z"/>
  </g>
  <line id="Baseline-S" x1="263" y1="696" x2="3036" y2="696"/>
  <line id="Capline-S" x1="263" y1="625.5" x2="3036" y2="625.5"/>
  <g id="H-reference" transform="translate(339 1126)">
   <path class="st6" d="M1,0h2.7L13-24.5h32.7L55.1,0h2.6L30.6-70.5h-2.5L1,0z M29.3-67.1L29.3-67.1l15.6,40.4h-31L29.3-67.1z"/>
  </g>
  <line id="Baseline-M" x1="263" y1="1126" x2="3036" y2="1126"/>
  <line id="Capline-M" x1="263" y1="1055.5" x2="3036" y2="1055.5"/>
  <g id="H-reference" transform="translate(339 1556)">
   <path d="M1,0h2.7L13-24.5h32.7L55.1,0h2.6L30.6-70.5h-2.5L1,0z M29.3-67.1L29.3-67.1l15.6,40.4h-31L29.3-67.1z"/>
  </g>
  <line id="Baseline-L" x1="263" y1="1556" x2="3036" y2="1556"/>
  <line id="Capline-L" x1="263" y1="1485.5" x2="3036" y2="1485.5"/>
  <line id="left-margin" x1="1379.8" y1="1030.8" x2="1379.8" y2="1150.1"/>
  <line id="right-margin" x1="1519.8" y1="1030.8" x2="1519.8" y2="1150.1"/>
 </g>
 
 <g id="Symbols">
  <g id="Regular-L" transform="matrix(1 0 0 1 1370.99 1556)">
   <path d="M20.2-80.9h117.3c2.3,0,4.1-1.8,4.1-4.1c0-2.3-1.9-4.1-4.1-4.1H20.2c-2.3,0-4.1,1.8-4.1,4.1C16.1-82.6,17.8-80.9,20.2-80.9z M20.2-47.8h39c2.3,0,4.1-1.8,4.1-4.1S61.4-56,59.1-56h-39c-2.3,0-4.1,1.8-4.1,4.1S17.8-47.8,20.2-47.8z M20.2-14.8h19c2.3,0,4.1-1.8,4.1-4.1c0-2.3-1.9-4.1-4.1-4.1h-19c-2.3,0-4.1,1.8-4.1,4.1C16.1-16.6,17.8-14.8,20.2-14.8z M20.2,18.3h39c2.3,0,4.2-1.8,4.2-4.1c0-2.3-1.9-4.1-4.2-4.1h-39c-2.3,0-4.1,1.8-4.1,4.1C16.1,16.5,17.8,18.3,20.2,18.3z"/>
   <path d="M103.5-64.5c-2.2,0-4.1,0.9-6.2,2.9L57.6-24.2c-2.1,2-2.7,3.8-2.7,5.3c0,1.6,0.6,3.4,2.7,5.4l39.7,37.1c2.3,2.1,3.9,3.2,6.1,3.2c3.2,0,5.4-2.5,5.4-5.6V1.4h1.6c35,0,51.8-21.8,51.8-59.8c0-3.9-2.2-6-4.7-6c-2,0-4,0.5-5.5,3.5c-8.4,16.4-21.1,21.6-41.6,21.6h-1.6v-19.8C108.8-62.2,106.6-64.5,103.5-64.5z"/>
  </g>
  <g id="Regular-M" transform="matrix(1 0 0 1 1388.2 1126)">
   <path d="M16.1-70.1h91c2.1,0,3.8-1.6,3.8-3.7c0-2.1-1.7-3.7-3.8-3.7h-91c-2.1,0-3.7,1.6-3.7,3.7C12.5-71.7,14.1-70.1,16.1-70.1z M16.1-44.5h28.2c2.1,0,3.8-1.6,3.8-3.7c0-2.1-1.7-3.7-3.8-3.7H16.1c-2.1,0-3.7,1.6-3.7,3.7C12.5-46.1,14.1-44.5,16.1-44.5z M16.1-18.9h11.2c2.1,0,3.8-1.7,3.8-3.7s-1.7-3.7-3.8-3.7H16.1c-2.1,0-3.7,1.6-3.7,3.7S14.1-18.9,16.1-18.9z M16.1,6.6h28.2c2.1,0,3.7-1.6,3.7-3.7c0-2.1-1.7-3.7-3.7-3.7H16.1c-2.1,0-3.7,1.7-3.7,3.7C12.5,5,14.1,6.6,16.1,6.6z"/>
   <path d="M77.2-58.4c-1.9,0-3.5,0.8-5.4,2.5L41.1-26.8c-1.5,1.4-2,2.9-2,4.2c0,1.3,0.5,2.8,2,4.2l30.8,28.8c2.1,2,3.4,2.8,5.3,2.8c2.7,0,4.7-2.1,4.7-4.8V-6.3H83c28.1,0,40.3-18,40.3-46.9c0-3.4-1.9-5.2-4-5.2c-1.6,0-3.4,0.4-4.8,2.9C107.7-42.7,98.1-38.9,83-38.9h-1.1v-14.9C81.8-56.5,79.9-58.4,77.2-58.4z"/>
  </g>
  <g id="Regular-S" transform="matrix(1 0 0 1 1401.14 696)">
   <path d="M13-62.2h71.2c1.9,0,3.4-1.4,3.4-3.3c0-1.9-1.5-3.3-3.4-3.3H13c-1.8,0-3.3,1.4-3.3,3.3C9.8-63.6,11.2-62.2,13-62.2z M13-42.1H34c1.9,0,3.4-1.5,3.4-3.3c0-1.8-1.5-3.3-3.4-3.3H13c-1.8,0-3.3,1.5-3.3,3.3C9.8-43.6,11.2-42.1,13-42.1z M13-22.1h8.7c1.9,0,3.4-1.5,3.4-3.3c0-1.8-1.5-3.3-3.4-3.3H13c-1.8,0-3.3,1.5-3.3,3.3C9.8-23.5,11.2-22.1,13-22.1z M13-2.1h20.7c1.9,0,3.3-1.5,3.3-3.3c0-1.8-1.5-3.3-3.3-3.3H13c-1.8,0-3.3,1.5-3.3,3.3C9.8-3.5,11.2-2.1,13-2.1z"/>
   <path d="M62.5-53.8c-1.6,0-3,0.7-4.6,2.2L33.7-28.7c-1.1,1-1.5,2.3-1.5,3.3c0,1.1,0.4,2.3,1.5,3.4L57.9,0.6c1.8,1.7,2.9,2.4,4.5,2.4c2.3,0,4-1.9,4-4.1v-11.2h0.8c22.8,0,31.7-14.9,31.7-37.1c0-2.9-1.7-4.5-3.4-4.5c-1.4,0-3,0.3-4.1,2.4c-5.6,10.1-12.9,12.9-24.1,12.9h-0.8v-11.4C66.4-52.2,64.8-53.8,62.5-53.8z"/>
  </g>
 </g>
</svg>
