<?xml version="1.0" encoding="UTF-8"?>
<!--Generator: Apple Native CoreSVG 175.5-->
<!DOCTYPE svg
PUBLIC "-//W3C//DTD SVG 1.1//EN"
       "http://www.w3.org/Graphics/SVG/1.1/DTD/svg11.dtd">
<svg version="1.1" xmlns="http://www.w3.org/2000/svg" xmlns:xlink="http://www.w3.org/1999/xlink" width="3300" height="2200">
 <!--glyph: "uni10068C.medium", point size: 100.0, font version: "18.0d9e1", template writer version: "84"-->
 <g id="Notes">
  <rect height="2200" id="artboard" style="fill:white;opacity:1" width="3300" x="0" y="0"/>
  <line style="fill:none;stroke:black;opacity:1;stroke-width:0.5;" x1="263" x2="3036" y1="292" y2="292"/>
  <text style="stroke:none;fill:black;font-family:sans-serif;font-size:13;font-weight:bold;" transform="matrix(1 0 0 1 263 322)">Weight/Scale Variations</text>
  <text style="stroke:none;fill:black;font-family:sans-serif;font-size:13;text-anchor:middle;" transform="matrix(1 0 0 1 559.711 322)">Ultralight</text>
  <text style="stroke:none;fill:black;font-family:sans-serif;font-size:13;text-anchor:middle;" transform="matrix(1 0 0 1 856.422 322)">Thin</text>
  <text style="stroke:none;fill:black;font-family:sans-serif;font-size:13;text-anchor:middle;" transform="matrix(1 0 0 1 1153.13 322)">Light</text>
  <text style="stroke:none;fill:black;font-family:sans-serif;font-size:13;text-anchor:middle;" transform="matrix(1 0 0 1 1449.84 322)">Regular</text>
  <text style="stroke:none;fill:black;font-family:sans-serif;font-size:13;text-anchor:middle;" transform="matrix(1 0 0 1 1746.56 322)">Medium</text>
  <text style="stroke:none;fill:black;font-family:sans-serif;font-size:13;text-anchor:middle;" transform="matrix(1 0 0 1 2043.27 322)">Semibold</text>
  <text style="stroke:none;fill:black;font-family:sans-serif;font-size:13;text-anchor:middle;" transform="matrix(1 0 0 1 2339.98 322)">Bold</text>
  <text style="stroke:none;fill:black;font-family:sans-serif;font-size:13;text-anchor:middle;" transform="matrix(1 0 0 1 2636.69 322)">Heavy</text>
  <text style="stroke:none;fill:black;font-family:sans-serif;font-size:13;text-anchor:middle;" transform="matrix(1 0 0 1 2933.4 322)">Black</text>
  <line style="fill:none;stroke:black;opacity:1;stroke-width:0.5;" x1="263" x2="3036" y1="1903" y2="1903"/>
  <g transform="matrix(1 0 0 1 263 1933)">
   <path d="M9.24805 0.830078Q10.8691 0.830078 12.2949 0.214844Q13.7207-0.400391 14.8096-1.49414Q15.8984-2.58789 16.5186-4.01367Q17.1387-5.43945 17.1387-7.05078Q17.1387-8.66211 16.5186-10.0879Q15.8984-11.5137 14.8047-12.6074Q13.7109-13.7012 12.2852-14.3164Q10.8594-14.9316 9.23828-14.9316Q7.62695-14.9316 6.20117-14.3164Q4.77539-13.7012 3.69141-12.6074Q2.60742-11.5137 1.9873-10.0879Q1.36719-8.66211 1.36719-7.05078Q1.36719-5.43945 1.9873-4.01367Q2.60742-2.58789 3.69629-1.49414Q4.78516-0.400391 6.21094 0.214844Q7.63672 0.830078 9.24805 0.830078ZM9.24805-0.654297Q7.91992-0.654297 6.7627-1.14746Q5.60547-1.64062 4.73145-2.51953Q3.85742-3.39844 3.36426-4.56055Q2.87109-5.72266 2.87109-7.05078Q2.87109-8.37891 3.35938-9.54102Q3.84766-10.7031 4.72168-11.582Q5.5957-12.4609 6.75293-12.9541Q7.91016-13.4473 9.23828-13.4473Q10.5762-13.4473 11.7383-12.9541Q12.9004-12.4609 13.7793-11.582Q14.6582-10.7031 15.1514-9.54102Q15.6445-8.37891 15.6445-7.05078Q15.6445-5.72266 15.1514-4.56055Q14.6582-3.39844 13.7793-2.51953Q12.9004-1.64062 11.7432-1.14746Q10.5859-0.654297 9.24805-0.654297ZM5.6543-7.05078Q5.6543-6.72852 5.85938-6.52832Q6.06445-6.32812 6.40625-6.32812L8.51562-6.32812L8.51562-4.20898Q8.51562-3.88672 8.71094-3.67676Q8.90625-3.4668 9.23828-3.4668Q9.56055-3.4668 9.77051-3.67676Q9.98047-3.88672 9.98047-4.20898L9.98047-6.32812L12.0898-6.32812Q12.4219-6.32812 12.627-6.52832Q12.832-6.72852 12.832-7.05078Q12.832-7.38281 12.627-7.58789Q12.4219-7.79297 12.0898-7.79297L9.98047-7.79297L9.98047-9.90234Q9.98047-10.2344 9.77051-10.4443Q9.56055-10.6543 9.23828-10.6543Q8.90625-10.6543 8.71094-10.4443Q8.51562-10.2344 8.51562-9.90234L8.51562-7.79297L6.40625-7.79297Q6.06445-7.79297 5.85938-7.58789Q5.6543-7.38281 5.6543-7.05078Z"/>
  </g>
  <g transform="matrix(1 0 0 1 281.867 1933)">
   <path d="M11.709 2.91016Q13.75 2.91016 15.5518 2.12891Q17.3535 1.34766 18.7305-0.0292969Q20.1074-1.40625 20.8887-3.20801Q21.6699-5.00977 21.6699-7.05078Q21.6699-9.0918 20.8887-10.8936Q20.1074-12.6953 18.7305-14.0723Q17.3535-15.4492 15.5469-16.2305Q13.7402-17.0117 11.6992-17.0117Q9.6582-17.0117 7.85645-16.2305Q6.05469-15.4492 4.68262-14.0723Q3.31055-12.6953 2.5293-10.8936Q1.74805-9.0918 1.74805-7.05078Q1.74805-5.00977 2.5293-3.20801Q3.31055-1.40625 4.6875-0.0292969Q6.06445 1.34766 7.86621 2.12891Q9.66797 2.91016 11.709 2.91016ZM11.709 1.25Q9.98047 1.25 8.47656 0.605469Q6.97266-0.0390625 5.83496-1.17676Q4.69727-2.31445 4.05762-3.81836Q3.41797-5.32227 3.41797-7.05078Q3.41797-8.7793 4.05762-10.2832Q4.69727-11.7871 5.83008-12.9297Q6.96289-14.0723 8.4668-14.7119Q9.9707-15.3516 11.6992-15.3516Q13.4277-15.3516 14.9365-14.7119Q16.4453-14.0723 17.583-12.9297Q18.7207-11.7871 19.3652-10.2832Q20.0098-8.7793 20.0098-7.05078Q20.0098-5.32227 19.3701-3.81836Q18.7305-2.31445 17.5879-1.17676Q16.4453-0.0390625 14.9414 0.605469Q13.4375 1.25 11.709 1.25ZM7.17773-7.05078Q7.17773-6.69922 7.41211-6.47461Q7.64648-6.25 8.01758-6.25L10.8887-6.25L10.8887-3.36914Q10.8887-2.99805 11.1133-2.76855Q11.3379-2.53906 11.6895-2.53906Q12.0605-2.53906 12.29-2.76855Q12.5195-2.99805 12.5195-3.36914L12.5195-6.25L15.4004-6.25Q15.7715-6.25 16.001-6.47461Q16.2305-6.69922 16.2305-7.05078Q16.2305-7.42188 16.001-7.65137Q15.7715-7.88086 15.4004-7.88086L12.5195-7.88086L12.5195-10.752Q12.5195-11.1328 12.29-11.3623Q12.0605-11.5918 11.6895-11.5918Q11.3379-11.5918 11.1133-11.3574Q10.8887-11.123 10.8887-10.752L10.8887-7.88086L8.01758-7.88086Q7.63672-7.88086 7.40723-7.65137Q7.17773-7.42188 7.17773-7.05078Z"/>
  </g>
  <g transform="matrix(1 0 0 1 305.646 1933)">
   <path d="M14.9707 5.66406Q17.0605 5.66406 18.96 5.01465Q20.8594 4.36523 22.4512 3.19336Q24.043 2.02148 25.2197 0.429688Q26.3965-1.16211 27.0459-3.06641Q27.6953-4.9707 27.6953-7.05078Q27.6953-9.14062 27.0459-11.04Q26.3965-12.9395 25.2197-14.5312Q24.043-16.123 22.4512-17.2998Q20.8594-18.4766 18.9551-19.126Q17.0508-19.7754 14.9609-19.7754Q12.8711-19.7754 10.9717-19.126Q9.07227-18.4766 7.48535-17.2998Q5.89844-16.123 4.72168-14.5312Q3.54492-12.9395 2.90039-11.04Q2.25586-9.14062 2.25586-7.05078Q2.25586-4.9707 2.90527-3.06641Q3.55469-1.16211 4.72656 0.429688Q5.89844 2.02148 7.49023 3.19336Q9.08203 4.36523 10.9814 5.01465Q12.8809 5.66406 14.9707 5.66406ZM14.9707 3.84766Q13.1641 3.84766 11.5283 3.2959Q9.89258 2.74414 8.53516 1.74805Q7.17773 0.751953 6.17676-0.610352Q5.17578-1.97266 4.62891-3.6084Q4.08203-5.24414 4.08203-7.05078Q4.08203-8.86719 4.62891-10.5029Q5.17578-12.1387 6.17188-13.501Q7.16797-14.8633 8.52539-15.8594Q9.88281-16.8555 11.5186-17.4023Q13.1543-17.9492 14.9609-17.9492Q16.7773-17.9492 18.4131-17.4023Q20.0488-16.8555 21.4111-15.8594Q22.7734-14.8633 23.7744-13.501Q24.7754-12.1387 25.3223-10.5029Q25.8691-8.86719 25.8691-7.05078Q25.8691-5.24414 25.3223-3.6084Q24.7754-1.97266 23.7793-0.610352Q22.7832 0.751953 21.4209 1.74805Q20.0586 2.74414 18.4229 3.2959Q16.7871 3.84766 14.9707 3.84766ZM9.19922-7.05078Q9.19922-6.66992 9.45801-6.4209Q9.7168-6.17188 10.1172-6.17188L14.0625-6.17188L14.0625-2.2168Q14.0625-1.81641 14.3115-1.55762Q14.5605-1.29883 14.9512-1.29883Q15.3516-1.29883 15.6104-1.55273Q15.8691-1.80664 15.8691-2.2168L15.8691-6.17188L19.8242-6.17188Q20.2246-6.17188 20.4785-6.4209Q20.7324-6.66992 20.7324-7.05078Q20.7324-7.46094 20.4785-7.71484Q20.2246-7.96875 19.8242-7.96875L15.8691-7.96875L15.8691-11.9141Q15.8691-12.3242 15.6104-12.583Q15.3516-12.8418 14.9512-12.8418Q14.5605-12.8418 14.3115-12.583Q14.0625-12.3242 14.0625-11.9141L14.0625-7.96875L10.1172-7.96875Q9.70703-7.96875 9.45312-7.71484Q9.19922-7.46094 9.19922-7.05078Z"/>
  </g>
  <text style="stroke:none;fill:black;font-family:sans-serif;font-size:13;font-weight:bold;" transform="matrix(1 0 0 1 263 1953)">Design Variations</text>
  <text style="stroke:none;fill:black;font-family:sans-serif;font-size:13;" transform="matrix(1 0 0 1 263 1971)">Symbols are supported in up to nine weights and three scales.</text>
  <text style="stroke:none;fill:black;font-family:sans-serif;font-size:13;" transform="matrix(1 0 0 1 263 1989)">For optimal layout with text and other symbols, vertically align</text>
  <text style="stroke:none;fill:black;font-family:sans-serif;font-size:13;" transform="matrix(1 0 0 1 263 2007)">symbols with the adjacent text.</text>
  <line style="fill:none;stroke:#00AEEF;stroke-width:0.5;opacity:1.0;" x1="776" x2="776" y1="1919" y2="1933"/>
  <g transform="matrix(1 0 0 1 776 1933)">
   <path d="M3.31055 0.15625Q3.70117 0.15625 3.91602-0.00976562Q4.13086-0.175781 4.26758-0.585938L5.52734-4.0332L11.2891-4.0332L12.5488-0.585938Q12.6855-0.175781 12.9004-0.00976562Q13.1152 0.15625 13.4961 0.15625Q13.8867 0.15625 14.1162-0.0585938Q14.3457-0.273438 14.3457-0.644531Q14.3457-0.869141 14.2383-1.17188L9.6582-13.3691Q9.48242-13.8184 9.17969-14.043Q8.87695-14.2676 8.4082-14.2676Q7.5-14.2676 7.17773-13.3789L2.59766-1.16211Q2.49023-0.859375 2.49023-0.634766Q2.49023-0.263672 2.70996-0.0537109Q2.92969 0.15625 3.31055 0.15625ZM6.00586-5.51758L8.37891-12.0898L8.42773-12.0898L10.8008-5.51758Z"/>
  </g>
  <line style="fill:none;stroke:#00AEEF;stroke-width:0.5;opacity:1.0;" x1="793.197" x2="793.197" y1="1919" y2="1933"/>
  <text style="stroke:none;fill:black;font-family:sans-serif;font-size:13;font-weight:bold;" transform="matrix(1 0 0 1 776 1953)">Margins</text>
  <text style="stroke:none;fill:black;font-family:sans-serif;font-size:13;" transform="matrix(1 0 0 1 776 1971)">Leading and trailing margins on the left and right side of each symbol</text>
  <text style="stroke:none;fill:black;font-family:sans-serif;font-size:13;" transform="matrix(1 0 0 1 776 1989)">can be adjusted by modifying the x-location of the margin guidelines.</text>
  <text style="stroke:none;fill:black;font-family:sans-serif;font-size:13;" transform="matrix(1 0 0 1 776 2007)">Modifications are automatically applied proportionally to all</text>
  <text style="stroke:none;fill:black;font-family:sans-serif;font-size:13;" transform="matrix(1 0 0 1 776 2025)">scales and weights.</text>
  <g transform="matrix(1 0 0 1 1289 1933)">
   <path d="M2.8418 1.86523L4.54102 3.57422Q5.18555 4.22852 5.90332 4.17969Q6.62109 4.13086 7.31445 3.35938L18.0078-8.42773L17.041-9.4043L6.42578 2.27539Q6.16211 2.57812 5.89355 2.61719Q5.625 2.65625 5.27344 2.30469L4.10156 1.14258Q3.75 0.791016 3.79395 0.522461Q3.83789 0.253906 4.14062-0.0195312L15.6152-10.8203L14.6387-11.7871L3.04688-0.898438Q2.30469-0.214844 2.25098 0.498047Q2.19727 1.21094 2.8418 1.86523ZM9.25781-16.3281Q8.94531-16.0254 8.90625-15.6348Q8.86719-15.2441 9.04297-14.9512Q9.21875-14.6777 9.55566-14.541Q9.89258-14.4043 10.3809-14.5215Q11.4746-14.7754 12.5977-14.7314Q13.7207-14.6875 14.7949-13.9844L14.209-12.5293Q13.9551-11.9043 14.0674-11.4404Q14.1797-10.9766 14.5801-10.5664L16.875-8.25195Q17.2363-7.88086 17.5781-7.82227Q17.9199-7.76367 18.3398-7.8418L19.4043-8.03711L20.0684-7.36328L20.0293-6.80664Q20-6.43555 20.1221-6.12305Q20.2441-5.81055 20.6055-5.44922L21.3672-4.70703Q21.7285-4.3457 22.1533-4.33105Q22.5781-4.31641 22.9297-4.66797L25.8398-7.58789Q26.1914-7.93945 26.1816-8.35449Q26.1719-8.76953 25.8105-9.13086L25.0391-9.89258Q24.6875-10.2539 24.3799-10.3857Q24.0723-10.5176 23.7109-10.4883L23.1348-10.4395L22.4902-11.0742L22.7344-12.1973Q22.832-12.6172 22.6953-12.9834Q22.5586-13.3496 22.1191-13.7891L19.9219-15.9766Q18.6719-17.2168 17.2607-17.8369Q15.8496-18.457 14.4189-18.4814Q12.9883-18.5059 11.665-17.959Q10.3418-17.4121 9.25781-16.3281ZM10.752-15.957Q11.6602-16.6211 12.7002-16.9043Q13.7402-17.1875 14.8047-17.085Q15.8691-16.9824 16.8701-16.5137Q17.8711-16.0449 18.7012-15.2051L21.1328-12.793Q21.3086-12.6172 21.3525-12.4512Q21.3965-12.2852 21.3379-12.0312L21.0156-10.5469L22.5195-9.0625L23.5059-9.12109Q23.6914-9.13086 23.7891-9.09668Q23.8867-9.0625 24.0332-8.91602L24.6094-8.33984L22.168-5.89844L21.5918-6.47461Q21.4453-6.62109 21.4062-6.71875Q21.3672-6.81641 21.377-7.01172L21.4453-7.98828L19.9512-9.47266L18.4277-9.21875Q18.1836-9.16992 18.042-9.2041Q17.9004-9.23828 17.7148-9.41406L15.7129-11.416Q15.5176-11.5918 15.4932-11.7529Q15.4688-11.9141 15.5859-12.1875L16.4648-14.2773Q15.293-15.3711 13.8281-15.791Q12.3633-16.2109 10.8398-15.7617Q10.7227-15.7324 10.6885-15.8057Q10.6543-15.8789 10.752-15.957Z"/>
  </g>
  <text style="stroke:none;fill:black;font-family:sans-serif;font-size:13;font-weight:bold;" transform="matrix(1 0 0 1 1289 1953)">Exporting</text>
  <text style="stroke:none;fill:black;font-family:sans-serif;font-size:13;" transform="matrix(1 0 0 1 1289 1971)">Symbols should be outlined when exporting to ensure the</text>
  <text style="stroke:none;fill:black;font-family:sans-serif;font-size:13;" transform="matrix(1 0 0 1 1289 1989)">design is preserved when submitting to Xcode.</text>
  <text id="template-version" style="stroke:none;fill:black;font-family:sans-serif;font-size:13;text-anchor:end;" transform="matrix(1 0 0 1 3036 1933)">Template v.2.0</text>
  <text style="stroke:none;fill:black;font-family:sans-serif;font-size:13;text-anchor:end;" transform="matrix(1 0 0 1 3036 1951)">Requires Xcode 12 or greater</text>
  <text id="descriptive-name" style="stroke:none;fill:black;font-family:sans-serif;font-size:13;text-anchor:end;" transform="matrix(1 0 0 1 3036 1969)">Generated from arrow.right.and.line.vertical.and.arrow.left</text>
  <text style="stroke:none;fill:black;font-family:sans-serif;font-size:13;text-anchor:end;" transform="matrix(1 0 0 1 3036 1987)">Typeset at 100 points</text>
  <text style="stroke:none;fill:black;font-family:sans-serif;font-size:13;" transform="matrix(1 0 0 1 263 726)">Small</text>
  <text style="stroke:none;fill:black;font-family:sans-serif;font-size:13;" transform="matrix(1 0 0 1 263 1156)">Medium</text>
  <text style="stroke:none;fill:black;font-family:sans-serif;font-size:13;" transform="matrix(1 0 0 1 263 1586)">Large</text>
 </g>
 <g id="Guides">
  <g id="H-reference" style="fill:#27AAE1;stroke:none;" transform="matrix(1 0 0 1 339 696)">
   <path d="M0.993347 0L3.6377 0L29.3282-67.1326L30.0301-67.1326L30.0301-70.459L28.1227-70.459ZM11.6882-24.4797L46.9818-24.4797L46.2311-26.7288L12.4382-26.7288ZM55.1193 0L57.7637 0L30.6381-70.459L29.4327-70.459L29.4327-67.1326Z"/>
  </g>
  <line id="Baseline-S" style="fill:none;stroke:#27AAE1;opacity:1;stroke-width:0.5;" x1="263" x2="3036" y1="696" y2="696"/>
  <line id="Capline-S" style="fill:none;stroke:#27AAE1;opacity:1;stroke-width:0.5;" x1="263" x2="3036" y1="625.541" y2="625.541"/>
  <g id="H-reference" style="fill:#27AAE1;stroke:none;" transform="matrix(1 0 0 1 339 1126)">
   <path d="M0.993347 0L3.6377 0L29.3282-67.1326L30.0301-67.1326L30.0301-70.459L28.1227-70.459ZM11.6882-24.4797L46.9818-24.4797L46.2311-26.7288L12.4382-26.7288ZM55.1193 0L57.7637 0L30.6381-70.459L29.4327-70.459L29.4327-67.1326Z"/>
  </g>
  <line id="Baseline-M" style="fill:none;stroke:#27AAE1;opacity:1;stroke-width:0.5;" x1="263" x2="3036" y1="1126" y2="1126"/>
  <line id="Capline-M" style="fill:none;stroke:#27AAE1;opacity:1;stroke-width:0.5;" x1="263" x2="3036" y1="1055.54" y2="1055.54"/>
  <g id="H-reference" style="fill:#27AAE1;stroke:none;" transform="matrix(1 0 0 1 339 1556)">
   <path d="M0.993347 0L3.6377 0L29.3282-67.1326L30.0301-67.1326L30.0301-70.459L28.1227-70.459ZM11.6882-24.4797L46.9818-24.4797L46.2311-26.7288L12.4382-26.7288ZM55.1193 0L57.7637 0L30.6381-70.459L29.4327-70.459L29.4327-67.1326Z"/>
  </g>
  <line id="Baseline-L" style="fill:none;stroke:#27AAE1;opacity:1;stroke-width:0.5;" x1="263" x2="3036" y1="1556" y2="1556"/>
  <line id="Capline-L" style="fill:none;stroke:#27AAE1;opacity:1;stroke-width:0.5;" x1="263" x2="3036" y1="1485.54" y2="1485.54"/>
  <line id="left-margin" style="fill:none;stroke:#00AEEF;stroke-width:0.5;opacity:1.0;" x1="1363.09" x2="1363.09" y1="1030.79" y2="1150.12"/>
  <line id="right-margin" style="fill:none;stroke:#00AEEF;stroke-width:0.5;opacity:1.0;" x1="1536.6" x2="1536.6" y1="1030.79" y2="1150.12"/>
 </g>
 <g id="Symbols">
  <g id="Black-L" transform="matrix(1 0 0 1 2807.01 1556)">
   <path d="M16.084-35.5631Q16.084-30.5028 19.3222-27.3995Q22.5605-24.2963 27.9348-24.2963L61.8333-24.2963L72.9921-25.2789L58.1904-10.4577Q56.5925-8.88057 55.5411-6.92754Q54.4897-4.9745 54.4897-2.3576Q54.4897 2.15737 57.545 5.22102Q60.6002 8.28467 65.6188 8.28467Q67.6541 8.28467 69.6953 7.39569Q71.7365 6.50672 73.4149 4.76995L103.506-27.2885Q104.947-28.8477 105.894-30.9559Q106.841-33.0641 106.841-35.5631Q106.841-38.0828 105.894-40.191Q104.947-42.2993 103.506-43.8584L73.4149-75.8984Q71.7365-77.6936 69.6953-78.5632Q67.6541-79.4328 65.6188-79.4328Q60.6002-79.4328 57.545-76.3691Q54.4897-73.3055 54.4897-68.7917Q54.4897-66.1748 55.5411-64.2212Q56.5925-62.2676 58.1904-60.6904L72.9921-45.8472L61.8333-46.8506L27.9348-46.8506Q22.5605-46.8506 19.3222-43.748Q16.084-40.6453 16.084-35.5631ZM126.383 25.6533Q130.88 25.6533 134.012 22.5208Q137.145 19.3884 137.145 14.9122L137.145-85.47Q137.145-89.9838 134.012-93.0766Q130.88-96.1695 126.383-96.1695Q121.908-96.1695 118.776-93.0766Q115.643-89.9838 115.643-85.47L115.643 14.9122Q115.643 19.3884 118.776 22.5208Q121.908 25.6533 126.383 25.6533ZM236.704-35.5631Q236.704-40.6453 233.455-43.748Q230.205-46.8506 224.853-46.8506L190.955-46.8506L179.795-45.8472L194.597-60.6904Q196.194-62.2676 197.235-64.2212Q198.276-66.1748 198.276-68.7917Q198.276-73.3055 195.232-76.3691Q192.188-79.4328 187.169-79.4328Q185.191-79.4328 183.121-78.5632Q181.051-77.6936 179.372-75.8984L149.261-43.8584Q147.819-42.2993 146.883-40.191Q145.947-38.0828 145.947-35.5631Q145.947-33.0641 146.883-30.9559Q147.819-28.8477 149.261-27.2885L179.372 4.76995Q181.051 6.50672 183.121 7.39569Q185.191 8.28467 187.169 8.28467Q192.188 8.28467 195.232 5.22102Q198.276 2.15737 198.276-2.3576Q198.276-4.9745 197.235-6.92754Q196.194-8.88057 194.597-10.4577L179.795-25.2789L190.955-24.2963L224.853-24.2963Q230.205-24.2963 233.455-27.3995Q236.704-30.5028 236.704-35.5631Z"/>
  </g>
  <g id="Heavy-L" transform="matrix(1 0 0 1 2514.01 1556)">
   <path d="M16.084-35.7687Q16.084-31.3653 18.8957-28.6473Q21.7073-25.9293 26.3697-25.9293L62.4856-25.9293L74.004-26.7607L57.7023-10.6104Q56.2913-9.22962 55.4-7.50212Q54.5088-5.77462 54.5088-3.52335Q54.5088 0.453904 57.1973 3.13454Q59.8858 5.81519 64.2289 5.81519Q66.0452 5.81519 67.8424 5.03153Q69.6396 4.24787 71.131 2.71183L100.869-28.5244Q102.165-29.9153 103.005-31.7638Q103.845-33.6123 103.845-35.7687Q103.845-37.9553 103.005-39.8038Q102.165-41.6524 100.869-43.0433L71.131-74.2605Q69.6396-75.8412 67.8424-76.6148Q66.0452-77.3884 64.2289-77.3884Q59.8858-77.3884 57.1973-74.7078Q54.5088-72.0272 54.5088-68.0556Q54.5088-65.8042 55.4-64.074Q56.2913-62.3437 57.7023-60.9629L74.004-44.7768L62.4856-45.6384L26.3697-45.6384Q21.7073-45.6384 18.8957-42.9232Q16.084-40.208 16.084-35.7687ZM122.658 25.4151Q126.645 25.4151 129.386 22.6747Q132.126 19.9344 132.126 15.9772L132.126-86.5355Q132.126-90.5072 129.386-93.2101Q126.645-95.913 122.658-95.913Q118.706-95.913 115.966-93.2101Q113.226-90.5072 113.226-86.5355L113.226 15.9772Q113.226 19.9344 115.966 22.6747Q118.706 25.4151 122.658 25.4151ZM229.268-35.7687Q229.268-40.208 226.438-42.9232Q223.608-45.6384 218.982-45.6384L182.866-45.6384L171.342-44.7768L187.649-60.9629Q189.055-62.3437 189.931-64.074Q190.807-65.8042 190.807-68.0556Q190.807-72.0272 188.136-74.7078Q185.466-77.3884 181.123-77.3884Q179.345-77.3884 177.529-76.6148Q175.712-75.8412 174.215-74.2605L144.452-43.0433Q143.151-41.6524 142.329-39.8038Q141.506-37.9553 141.506-35.7687Q141.506-33.6123 142.329-31.7638Q143.151-29.9153 144.452-28.5244L174.215 2.71183Q175.712 4.24787 177.529 5.03153Q179.345 5.81519 181.123 5.81519Q185.466 5.81519 188.136 3.13454Q190.807 0.453904 190.807-3.52335Q190.807-5.77462 189.931-7.50212Q189.055-9.22962 187.649-10.6104L171.342-26.7607L182.866-25.9293L218.982-25.9293Q223.608-25.9293 226.438-28.6473Q229.268-31.3653 229.268-35.7687Z"/>
  </g>
  <g id="Bold-L" transform="matrix(1 0 0 1 2222.03 1556)">
   <path d="M16.084-36.0149Q16.084-32.4185 18.373-30.1769Q20.6619-27.9353 24.4556-27.9353L63.218-27.9353L75.1893-28.5897L57.0357-10.7651Q55.8553-9.62278 55.1525-8.17565Q54.4498-6.72853 54.4498-4.91573Q54.4498-1.60691 56.6813 0.601124Q58.9127 2.80916 62.4331 2.80916Q63.9805 2.80916 65.4779 2.14866Q66.9753 1.48817 68.2362 0.198081L97.4989-30.0461Q98.6034-31.2221 99.309-32.7479Q100.015-34.2736 100.015-36.0149Q100.015-37.794 99.309-39.3199Q98.6034-40.8457 97.4989-42.0218L68.2362-72.2543Q66.9753-73.5736 65.4779-74.2318Q63.9805-74.8901 62.4331-74.8901Q58.9127-74.8901 56.6813-72.6821Q54.4498-70.4741 54.4498-67.1786Q54.4498-65.3655 55.1525-63.912Q55.8553-62.4584 57.0357-61.3158L75.1893-43.4401L63.218-44.1325L24.4556-44.1325Q20.6619-44.1325 18.373-41.8975Q16.084-39.6625 16.084-36.0149ZM117.921 25.1379Q121.263 25.1379 123.519 22.8817Q125.775 20.6256 125.775 17.3212L125.775-87.872Q125.775-91.1677 123.519-93.3902Q121.263-95.6128 117.921-95.6128Q114.63-95.6128 112.373-93.3902Q110.117-91.1677 110.117-87.872L110.117 17.3212Q110.117 20.6256 112.373 22.8817Q114.63 25.1379 117.921 25.1379ZM219.809-36.0149Q219.809-39.6625 217.494-41.8975Q215.179-44.1325 211.437-44.1325L172.675-44.1325L160.69-43.4401L178.857-61.3158Q180.024-62.4584 180.708-63.912Q181.391-65.3655 181.391-67.1786Q181.391-70.4741 179.186-72.6821Q176.98-74.8901 173.459-74.8901Q171.928-74.8901 170.423-74.2318Q168.917-73.5736 167.643-72.2543L138.356-42.0218Q137.238-40.8457 136.558-39.3199Q135.878-37.794 135.878-36.0149Q135.878-34.2736 136.558-32.7479Q137.238-31.2221 138.356-30.0461L167.643 0.198081Q168.917 1.48817 170.423 2.14866Q171.928 2.80916 173.459 2.80916Q176.98 2.80916 179.186 0.601124Q181.391-1.60691 181.391-4.91573Q181.391-6.72853 180.708-8.17565Q180.024-9.62278 178.857-10.7651L160.69-28.5897L172.675-27.9353L211.437-27.9353Q215.179-27.9353 217.494-30.1769Q219.809-32.4185 219.809-36.0149Z"/>
  </g>
  <g id="Semibold-L" transform="matrix(1 0 0 1 1928.58 1556)">
   <path d="M16.084-36.1846Q16.084-33.1445 18.0126-31.2314Q19.9412-29.3183 23.136-29.3183L63.7229-29.3183L76.0065-29.8505L56.5762-10.8718Q55.5547-9.89382 54.9819-8.63999Q54.4092-7.38615 54.4092-5.87563Q54.4092-3.02762 56.3255-1.1454Q58.2418 0.736816 61.1951 0.736816Q62.5572 0.736816 63.8479 0.161234Q65.1386-0.414348 66.2405-1.53488L95.1756-31.0951Q96.148-32.123 96.7609-33.4263Q97.3738-34.7295 97.3738-36.1846Q97.3738-37.6828 96.7609-38.9862Q96.148-40.2896 95.1756-41.3175L66.2405-70.8712Q65.1386-72.0103 63.8479-72.589Q62.5572-73.1678 61.1951-73.1678Q58.2418-73.1678 56.3255-71.2856Q54.4092-69.4034 54.4092-66.574Q54.4092-65.0631 54.9819-63.8003Q55.5547-62.5375 56.5762-61.5591L76.0065-42.5186L63.7229-43.0944L23.136-43.0944Q19.9412-43.0944 18.0126-41.1904Q16.084-39.2865 16.084-36.1846ZM114.655 24.9468Q117.553 24.9468 119.475 23.0244Q121.397 21.102 121.397 18.2477L121.397-88.7934Q121.397-91.6231 119.475-93.5144Q117.553-95.4058 114.655-95.4058Q111.819-95.4058 109.897-93.5144Q107.974-91.6231 107.974-88.7934L107.974 18.2477Q107.974 21.102 109.897 23.0244Q111.819 24.9468 114.655 24.9468ZM213.288-36.1846Q213.288-39.2865 211.328-41.1904Q209.368-43.0944 206.235-43.0944L165.649-43.0944L153.347-42.5186L172.796-61.5591Q173.798-62.5375 174.349-63.8003Q174.9-65.0631 174.9-66.574Q174.9-69.4034 173.015-71.2856Q171.13-73.1678 168.176-73.1678Q166.815-73.1678 165.524-72.589Q164.233-72.0103 163.113-70.8712L134.153-41.3175Q133.162-40.2896 132.58-38.9862Q131.998-37.6828 131.998-36.1846Q131.998-34.7295 132.58-33.4263Q133.162-32.123 134.153-31.0951L163.113-1.53488Q164.233-0.414348 165.524 0.161234Q166.815 0.736816 168.176 0.736816Q171.13 0.736816 173.015-1.1454Q174.9-3.02762 174.9-5.87563Q174.9-7.38615 174.349-8.63999Q173.798-9.89382 172.796-10.8718L153.347-29.8505L165.649-29.3183L206.235-29.3183Q209.368-29.3183 211.328-31.2314Q213.288-33.1445 213.288-36.1846Z"/>
  </g>
  <g id="Medium-L" transform="matrix(1 0 0 1 1634.34 1556)">
   <path d="M16.084-36.3132Q16.084-33.695 17.7394-32.0309Q19.3948-30.3669 22.1355-30.3669L64.1057-30.3669L76.6262-30.8066L56.2278-10.9527Q55.3268-10.0993 54.8526-8.99206Q54.3784-7.88478 54.3784-6.60346Q54.3784-4.10486 56.0557-2.46969Q57.7331-0.834518 60.2564-0.834518Q61.4779-0.834518 62.6119-1.34572Q63.7459-1.85692 64.7273-2.84889L93.4139-31.8906Q94.2862-32.8061 94.8288-33.9406Q95.3714-35.0752 95.3714-36.3132Q95.3714-37.5985 94.8288-38.7333Q94.2862-39.868 93.4139-40.7835L64.7273-69.8225Q63.7459-70.825 62.6119-71.3434Q61.4779-71.8618 60.2564-71.8618Q57.7331-71.8618 56.0557-70.2267Q54.3784-68.5915 54.3784-66.1155Q54.3784-64.8338 54.8526-63.7156Q55.3268-62.5974 56.2278-61.7436L76.6262-41.8199L64.1057-42.3072L22.1355-42.3072Q19.3948-42.3072 17.7394-40.6543Q16.084-39.0013 16.084-36.3132ZM112.179 24.8019Q114.739 24.8019 116.409 23.1326Q118.078 21.4633 118.078 18.9502L118.078-89.492Q118.078-91.9683 116.409-93.6086Q114.739-95.2488 112.179-95.2488Q109.688-95.2488 108.019-93.6086Q106.349-91.9683 106.349-89.492L106.349 18.9502Q106.349 21.4633 108.019 23.1326Q109.688 24.8019 112.179 24.8019ZM208.343-36.3132Q208.343-39.0013 206.653-40.6543Q204.962-42.3072 202.292-42.3072L160.322-42.3072L147.779-41.8199L168.2-61.7436Q169.078-62.5974 169.528-63.7156Q169.979-64.8338 169.979-66.1155Q169.979-68.5915 168.336-70.2267Q166.694-71.8618 164.171-71.8618Q162.938-71.8618 161.81-71.3434Q160.681-70.825 159.677-69.8225L130.966-40.7835Q130.071-39.868 129.564-38.7333Q129.056-37.5985 129.056-36.3132Q129.056-35.0752 129.564-33.9406Q130.071-32.8061 130.966-31.8906L159.677-2.84889Q160.681-1.85692 161.81-1.34572Q162.938-0.834518 164.171-0.834518Q166.694-0.834518 168.336-2.46969Q169.979-4.10486 169.979-6.60346Q169.979-7.88478 169.528-8.99206Q169.078-10.0993 168.2-10.9527L147.779-30.8066L160.322-30.3669L202.292-30.3669Q204.962-30.3669 206.653-32.0309Q208.343-33.695 208.343-36.3132Z"/>
  </g>
  <g id="Regular-L" transform="matrix(1 0 0 1 1340.86 1556)">
   <path d="M16.084-36.481Q16.084-34.4131 17.383-33.0739Q18.682-31.7347 20.8304-31.7347L64.6051-31.7347L77.4344-32.0536L55.7734-11.0583Q55.0295-10.3674 54.6838-9.45129Q54.3382-8.53518 54.3382-7.55281Q54.3382-5.50996 55.7039-4.19702Q57.0696-2.88408 59.032-2.88408Q60.0702-2.88408 60.9997-3.31131Q61.9293-3.73853 62.7536-4.56281L91.1161-32.9281Q91.8577-33.6971 92.3087-34.6116Q92.7597-35.5261 92.7597-36.481Q92.7597-37.4885 92.3087-38.4033Q91.8577-39.318 91.1161-40.087L62.7536-68.4546Q61.9293-69.2789 60.9997-69.7186Q60.0702-70.1584 59.032-70.1584Q57.0696-70.1584 55.7039-68.8455Q54.3382-67.5326 54.3382-65.5176Q54.3382-64.5348 54.6838-63.6052Q55.0295-62.6756 55.7734-61.9843L77.4344-40.9085L64.6051-41.2804L20.8304-41.2804Q18.682-41.2804 17.383-39.9549Q16.084-38.6294 16.084-36.481ZM108.949 24.613Q111.07 24.613 112.409 23.2738Q113.748 21.9346 113.748 19.8666L113.748-90.4032Q113.748-92.4187 112.409-93.7314Q111.07-95.0441 108.949-95.0441Q106.909-95.0441 105.569-93.7314Q104.23-92.4187 104.23-90.4032L104.23 19.8666Q104.23 21.9346 105.569 23.2738Q106.909 24.613 108.949 24.613ZM201.894-36.481Q201.894-38.6294 200.555-39.9549Q199.215-41.2804 197.147-41.2804L153.373-41.2804L140.516-40.9085L162.205-61.9843Q162.921-62.6756 163.24-63.6052Q163.559-64.5348 163.559-65.5176Q163.559-67.5326 162.234-68.8455Q160.908-70.1584 158.946-70.1584Q157.881-70.1584 156.965-69.7186Q156.049-69.2789 155.197-68.4546L126.809-40.087Q126.04-39.318 125.629-38.4033Q125.218-37.4885 125.218-36.481Q125.218-35.5261 125.629-34.6116Q126.04-33.6971 126.809-32.9281L155.197-4.56281Q156.049-3.73853 156.965-3.31131Q157.881-2.88408 158.946-2.88408Q160.908-2.88408 162.234-4.19702Q163.559-5.50996 163.559-7.55281Q163.559-8.53518 163.24-9.45129Q162.921-10.3674 162.205-11.0583L140.516-32.0536L153.373-31.7347L197.147-31.7347Q199.215-31.7347 200.555-33.0739Q201.894-34.4131 201.894-36.481Z"/>
  </g>
  <g id="Light-L" transform="matrix(1 0 0 1 1048.21 1556)">
   <path d="M16.084-36.5955Q16.084-35.0428 17.0585-34.0281Q18.033-33.0134 19.6661-33.0134L64.6243-33.0134L77.816-33.275L54.9146-10.9438Q54.3234-10.3866 54.0444-9.67078Q53.7655-8.95491 53.7655-8.18258Q53.7655-6.61686 54.7972-5.61881Q55.829-4.62076 57.3143-4.62076Q58.1808-4.62076 58.9195-5.00982Q59.6581-5.39889 60.3298-6.07053L88.1196-33.9205Q88.6515-34.4987 88.9974-35.1841Q89.3434-35.8695 89.3434-36.5955Q89.3434-37.3548 88.9974-38.0406Q88.6515-38.7264 88.1196-39.3046L60.3298-67.214Q59.6581-67.8856 58.9195-68.2682Q58.1808-68.6507 57.3143-68.6507Q55.829-68.6507 54.7972-67.6527Q53.7655-66.6546 53.7655-65.136Q53.7655-64.3629 54.0444-63.6242Q54.3234-62.8856 54.9146-62.3277L77.816-39.9161L64.6243-40.2117L19.6661-40.2117Q18.033-40.2117 17.0585-39.2202Q16.084-38.2286 16.084-36.5955ZM104.883 24.5367Q106.47 24.5367 107.485 23.5219Q108.5 22.5072 108.5 20.9546L108.5-91.4338Q108.5-92.9532 107.485-93.9509Q106.47-94.9485 104.883-94.9485Q103.378-94.9485 102.363-93.9509Q101.348-92.9532 101.348-91.4338L101.348 20.9546Q101.348 22.5072 102.363 23.5219Q103.378 24.5367 104.883 24.5367ZM193.764-36.5955Q193.764-38.2286 192.749-39.2202Q191.734-40.2117 190.181-40.2117L145.224-40.2117L131.985-39.9161L154.933-62.3277Q155.477-62.8856 155.739-63.6242Q156.001-64.3629 156.001-65.136Q156.001-66.6546 155.01-67.6527Q154.018-68.6507 152.533-68.6507Q151.621-68.6507 150.905-68.2682Q150.19-67.8856 149.471-67.214L121.694-39.3046Q121.116-38.7264 120.81-38.0406Q120.505-37.3548 120.505-36.5955Q120.505-35.8695 120.81-35.1841Q121.116-34.4987 121.694-33.9205L149.471-6.07053Q150.19-5.39889 150.905-5.00982Q151.621-4.62076 152.533-4.62076Q154.018-4.62076 155.01-5.61881Q156.001-6.61686 156.001-8.18258Q156.001-8.95491 155.739-9.67078Q155.477-10.3866 154.933-10.9438L131.985-33.275L145.224-33.0134L190.181-33.0134Q191.734-33.0134 192.749-34.0281Q193.764-35.0428 193.764-36.5955Z"/>
  </g>
  <g id="Thin-L" transform="matrix(1 0 0 1 756.875 1556)">
   <path d="M16.084-36.7469Q16.084-35.8758 16.6293-35.2902Q17.1746-34.7047 18.1262-34.7047L64.6498-34.7047L78.3206-34.8903L53.7789-10.7924Q53.3896-10.4121 53.1988-9.96107Q53.0081-9.51005 53.0081-9.0155Q53.0081-8.08083 53.5981-7.49924Q54.1882-6.91764 55.0424-6.91764Q55.6821-6.91764 56.1682-7.25624Q56.6543-7.59484 57.1241-8.06462L84.1565-35.2331Q84.411-35.559 84.618-35.9413Q84.8251-36.3237 84.8251-36.7469Q84.8251-37.178 84.618-37.561Q84.411-37.9439 84.1565-38.2698L57.1241-65.5731Q56.6543-66.0429 56.1682-66.3498Q55.6821-66.6566 55.0424-66.6566Q54.1882-66.6566 53.5981-66.075Q53.0081-65.4934 53.0081-64.6313Q53.0081-64.1356 53.1988-63.6495Q53.3896-63.1634 53.7789-62.7819L78.3206-38.6035L64.6498-38.7982L18.1262-38.7982Q17.1746-38.7982 16.6293-38.2484Q16.084-37.6985 16.084-36.7469ZM99.5067 24.4357Q100.387 24.4357 100.972 23.8502Q101.558 23.2647 101.558 22.3935L101.558-92.7968Q101.558-93.6602 100.972-94.2411Q100.387-94.8221 99.5067-94.8221Q98.7081-94.8221 98.1226-94.2411Q97.537-93.6602 97.537-92.7968L97.537 22.3935Q97.537 23.2647 98.1226 23.8502Q98.7081 24.4357 99.5067 24.4357ZM183.011-36.7469Q183.011-37.6985 182.425-38.2484Q181.839-38.7982 180.968-38.7982L134.445-38.7982L120.702-38.6035L145.316-62.7819Q145.633-63.1634 145.819-63.6495Q146.005-64.1356 146.005-64.6313Q146.005-65.4934 145.455-66.075Q144.906-66.6566 144.051-66.6566Q143.342-66.6566 142.891-66.3498Q142.441-66.0429 141.898-65.5731L114.929-38.2698Q114.604-37.9439 114.437-37.561Q114.27-37.178 114.27-36.7469Q114.27-36.3237 114.437-35.9413Q114.604-35.559 114.929-35.2331L141.898-8.06462Q142.441-7.59484 142.891-7.25624Q143.342-6.91764 144.051-6.91764Q144.906-6.91764 145.455-7.49924Q146.005-8.08083 146.005-9.0155Q146.005-9.51005 145.819-9.96107Q145.633-10.4121 145.316-10.7924L120.702-34.8903L134.445-34.7047L180.968-34.7047Q181.839-34.7047 182.425-35.2902Q183.011-35.8758 183.011-36.7469Z"/>
  </g>
  <g id="Ultralight-L" transform="matrix(1 0 0 1 462.918 1556)">
   <path d="M16.084-36.8245Q16.084-36.3024 16.4095-35.9367Q16.735-35.571 17.3375-35.571L64.6628-35.571L78.5791-35.7177L53.1972-10.7148Q52.9112-10.4251 52.7657-10.1098Q52.6201-9.79439 52.6201-9.44212Q52.6201-8.83067 52.9839-8.46238Q53.3477-8.0941 53.8788-8.0941Q54.4022-8.0941 54.759-8.40685Q55.1157-8.7196 55.4821-9.08598L82.1266-35.9054Q82.239-36.102 82.3749-36.3292Q82.5109-36.5564 82.5109-36.8245Q82.5109-37.0874 82.3749-37.3153Q82.239-37.5432 82.1266-37.7398L55.4821-64.7327Q55.1157-65.0991 54.759-65.3672Q54.4022-65.6353 53.8788-65.6353Q53.3477-65.6353 52.9839-65.267Q52.6201-64.8987 52.6201-64.3728Q52.6201-64.0191 52.7657-63.6624Q52.9112-63.3057 53.1972-63.0145L78.5791-37.9312L64.6628-38.0742L17.3375-38.0742Q16.735-38.0742 16.4095-37.7506Q16.084-37.427 16.084-36.8245ZM96.7528 24.384Q97.2711 24.384 97.6368 24.0183Q98.0025 23.6526 98.0025 23.1305L98.0025-93.495Q98.0025-94.0223 97.6368-94.3898Q97.2711-94.7574 96.7528-94.7574Q96.3163-94.7574 95.9506-94.3898Q95.5849-94.0223 95.5849-93.495L95.5849 23.1305Q95.5849 23.6526 95.9506 24.0183Q96.3163 24.384 96.7528 24.384ZM177.503-36.8245Q177.503-37.427 177.137-37.7506Q176.771-38.0742 176.249-38.0742L128.925-38.0742L114.923-37.9312L140.39-63.0145Q140.591-63.3057 140.738-63.6624Q140.886-64.0191 140.886-64.3728Q140.886-64.8987 140.562-65.267Q140.238-65.6353 139.707-65.6353Q139.101-65.6353 138.786-65.3672Q138.472-65.0991 138.02-64.7327L111.465-37.7398Q111.268-37.5432 111.172-37.3153Q111.077-37.0874 111.077-36.8245Q111.077-36.5564 111.172-36.3292Q111.268-36.102 111.465-35.9054L138.02-9.08598Q138.472-8.7196 138.786-8.40685Q139.101-8.0941 139.707-8.0941Q140.238-8.0941 140.562-8.46238Q140.886-8.83067 140.886-9.44212Q140.886-9.79439 140.738-10.1098Q140.591-10.4251 140.39-10.7148L114.923-35.7177L128.925-35.571L176.249-35.571Q176.771-35.571 177.137-35.9367Q177.503-36.3024 177.503-36.8245Z"/>
  </g>
  <g id="Black-M" transform="matrix(1 0 0 1 2832.83 1126)">
   <path d="M12.4609-35.3267Q12.4609-30.9116 15.2924-28.2203Q18.1239-25.5289 22.8296-25.5289L47.3469-25.5289L55.7322-26.4123L45.3858-15.891Q44.0078-14.5185 43.0646-12.8387Q42.1214-11.1589 42.1214-8.84571Q42.1214-4.95028 44.7584-2.29024Q47.3954 0.3698 51.7995 0.3698Q53.5412 0.3698 55.3065-0.404268Q57.0718-1.17834 58.5121-2.67572L82.0507-28.1496Q83.2634-29.4762 84.0749-31.3018Q84.8863-33.1274 84.8863-35.3267Q84.8863-37.5314 84.0749-39.357Q83.2634-41.1826 82.0507-42.5092L58.5121-67.977Q57.0718-69.5315 55.3065-70.2799Q53.5412-71.0283 51.7995-71.0283Q47.3954-71.0283 44.7584-68.3683Q42.1214-65.7082 42.1214-61.8125Q42.1214-59.4993 43.0646-57.8197Q44.0078-56.14 45.3858-54.7675L55.7322-44.2411L47.3469-45.1299L22.8296-45.1299Q18.1239-45.1299 15.2924-42.4384Q12.4609-39.7469 12.4609-35.3267ZM100.565 12.1333Q104.414 12.1333 107.134 9.41344Q109.854 6.69356 109.854 2.84946L109.854-73.3768Q109.854-77.2725 107.134-79.9611Q104.414-82.6497 100.565-82.6497Q96.7205-82.6497 94.0006-79.9611Q91.2807-77.2725 91.2807-73.3768L91.2807 2.84946Q91.2807 6.69356 94.0006 9.41344Q96.7205 12.1333 100.565 12.1333ZM188.674-35.3267Q188.674-39.7469 185.84-42.4384Q183.006-45.1299 178.305-45.1299L153.788-45.1299L145.403-44.2411L155.749-54.7675Q157.127-56.14 158.068-57.8197Q159.008-59.4993 159.008-61.8125Q159.008-65.7082 156.374-68.3683Q153.739-71.0283 149.335-71.0283Q147.651-71.0283 145.857-70.2799Q144.063-69.5315 142.623-67.977L119.079-42.5092Q117.866-41.1826 117.057-39.357Q116.249-37.5314 116.249-35.3267Q116.249-33.1274 117.057-31.3018Q117.866-29.4762 119.079-28.1496L142.623-2.67572Q144.063-1.17834 145.857-0.404268Q147.651 0.3698 149.335 0.3698Q153.739 0.3698 156.374-2.29024Q159.008-4.95028 159.008-8.84571Q159.008-11.1589 158.068-12.8387Q157.127-14.5185 155.749-15.891L145.403-26.4123L153.788-25.5289L178.305-25.5289Q183.006-25.5289 185.84-28.2203Q188.674-30.9116 188.674-35.3267Z"/>
  </g>
  <g id="Heavy-M" transform="matrix(1 0 0 1 2539.38 1126)">
   <path d="M12.4609-35.5172Q12.4609-31.6966 14.9053-29.352Q17.3497-27.0073 21.407-27.0073L47.9827-27.0073L56.6861-27.7482L44.9878-16.0508Q43.7785-14.8579 42.9857-13.3801Q42.1929-11.9024 42.1929-9.92721Q42.1929-6.51342 44.5022-4.19875Q46.8115-1.88407 50.5992-1.88407Q52.1427-1.88407 53.687-2.55871Q55.2314-3.23334 56.503-4.54857L79.7493-29.2662Q80.8396-30.446 81.5561-32.0388Q82.2726-33.6315 82.2726-35.5172Q82.2726-37.4192 81.5561-39.012Q80.8396-40.6047 79.7493-41.7846L56.503-66.4903Q55.2314-67.8492 53.687-68.509Q52.1427-69.1689 50.5992-69.1689Q46.8115-69.1689 44.5022-66.8543Q42.1929-64.5396 42.1929-61.1281Q42.1929-59.1529 42.9857-57.674Q43.7785-56.1951 44.9878-55.0022L56.6861-43.2861L47.9827-44.0435L21.407-44.0435Q17.3497-44.0435 14.9053-41.6999Q12.4609-39.3564 12.4609-35.5172ZM97.2983 11.9075Q100.699 11.9075 103.066 9.54101Q105.432 7.17452 105.432 3.79022L105.432-74.3234Q105.432-77.7349 103.066-80.0714Q100.699-82.4078 97.2983-82.4078Q93.9163-82.4078 91.5498-80.0714Q89.1833-77.7349 89.1833-74.3234L89.1833 3.79022Q89.1833 7.17452 91.5498 9.54101Q93.9163 11.9075 97.2983 11.9075ZM182.154-35.5172Q182.154-39.3564 179.701-41.6999Q177.247-44.0435 173.208-44.0435L146.633-44.0435L137.927-43.2861L149.628-55.0022Q150.835-56.1951 151.619-57.674Q152.404-59.1529 152.404-61.1281Q152.404-64.5396 150.104-66.8543Q147.804-69.1689 144.016-69.1689Q142.514-69.1689 140.949-68.509Q139.384-67.8492 138.11-66.4903L114.85-41.7846Q113.757-40.6047 113.05-39.012Q112.343-37.4192 112.343-35.5172Q112.343-33.6315 113.05-32.0388Q113.757-30.446 114.85-29.2662L138.11-4.54857Q139.384-3.23334 140.949-2.55871Q142.514-1.88407 144.016-1.88407Q147.804-1.88407 150.104-4.19875Q152.404-6.51342 152.404-9.92721Q152.404-11.9024 151.619-13.3801Q150.835-14.8579 149.628-16.0508L137.927-27.7482L146.633-27.0073L173.208-27.0073Q177.247-27.0073 179.701-29.352Q182.154-31.6966 182.154-35.5172Z"/>
  </g>
  <g id="Bold-M" transform="matrix(1 0 0 1 2246.32 1126)">
   <path d="M12.4609-35.7303Q12.4609-32.5748 14.4723-30.6179Q16.4837-28.6611 19.8156-28.6611L48.6941-28.6611L57.7532-29.2426L44.5425-16.2296Q43.5219-15.2377 42.8974-13.9858Q42.2729-12.734 42.2729-11.137Q42.2729-8.26202 44.2156-6.33369Q46.1583-4.40535 49.2565-4.40535Q50.5783-4.40535 51.8755-4.96875Q53.1726-5.53215 54.2556-6.64363L77.1749-30.5153Q78.1283-31.5308 78.7386-32.8632Q79.3489-34.1955 79.3489-35.7303Q79.3489-37.2937 78.7386-38.626Q78.1283-39.9584 77.1749-40.9739L54.2556-64.8272Q53.1726-65.9672 51.8755-66.5281Q50.5783-67.0889 49.2565-67.0889Q46.1583-67.0889 44.2156-65.1606Q42.2729-63.2323 42.2729-60.3625Q42.2729-58.7654 42.8974-57.5111Q43.5219-56.2567 44.5425-55.2647L57.7532-42.2179L48.6941-42.8282L19.8156-42.8282Q16.4837-42.8282 14.4723-40.8738Q12.4609-38.9195 12.4609-35.7303ZM93.6443 11.6549Q96.5429 11.6549 98.514 9.68372Q100.485 7.71255 100.485 4.84261L100.485-75.3822Q100.485-78.2521 98.514-80.1947Q96.5429-82.1373 93.6443-82.1373Q90.7795-82.1373 88.8083-80.1947Q86.8371-78.2521 86.8371-75.3822L86.8371 4.84261Q86.8371 7.71255 88.8083 9.68372Q90.7795 11.6549 93.6443 11.6549ZM174.861-35.7303Q174.861-38.9195 172.833-40.8738Q170.805-42.8282 167.507-42.8282L138.628-42.8282L129.564-42.2179L142.78-55.2647Q143.795-56.2567 144.405-57.5111Q145.016-58.7654 145.016-60.3625Q145.016-63.2323 143.09-65.1606Q141.164-67.0889 138.066-67.0889Q136.767-67.0889 135.459-66.5281Q134.15-65.9672 133.062-64.8272L110.119-40.9739Q109.16-39.9584 108.567-38.626Q107.973-37.2937 107.973-35.7303Q107.973-34.1955 108.567-32.8632Q109.16-31.5308 110.119-30.5153L133.062-6.64363Q134.15-5.53215 135.459-4.96875Q136.767-4.40535 138.066-4.40535Q141.164-4.40535 143.09-6.33369Q145.016-8.26202 145.016-11.137Q145.016-12.734 144.405-13.9858Q143.795-15.2377 142.78-16.2296L129.564-29.2426L138.628-28.6611L167.507-28.6611Q170.805-28.6611 172.833-30.6179Q174.861-32.5748 174.861-35.7303Z"/>
  </g>
  <g id="Semibold-M" transform="matrix(1 0 0 1 1952.12 1126)">
   <path d="M12.4609-35.8772Q12.4609-33.1803 14.1738-31.4907Q15.8867-29.8011 18.7185-29.8011L49.1845-29.8011L58.4889-30.2729L44.2356-16.3529Q43.345-15.4994 42.8366-14.4034Q42.3281-13.3073 42.3281-11.9711Q42.3281-9.46749 44.018-7.8055Q45.708-6.14351 48.3308-6.14351Q49.4999-6.14351 50.6266-6.63023Q51.7533-7.11694 52.7062-8.08796L75.4001-31.3764Q76.2591-32.2787 76.7962-33.4315Q77.3333-34.5843 77.3333-35.8772Q77.3333-37.2071 76.7962-38.3599Q76.2591-39.5128 75.4001-40.4151L52.7062-63.6806Q51.7533-64.6698 50.6266-65.1624Q49.4999-65.655 48.3308-65.655Q45.708-65.655 44.018-63.993Q42.3281-62.331 42.3281-59.8346Q42.3281-58.4982 42.8366-57.3987Q43.345-56.2992 44.2356-55.4456L58.4889-41.4815L49.1845-41.9903L18.7185-41.9903Q15.8867-41.9903 14.1738-40.3043Q12.4609-38.6183 12.4609-35.8772ZM91.1252 11.4807Q93.6776 11.4807 95.3763 9.78211Q97.0749 8.08347 97.0749 5.56811L97.0749-76.1122Q97.0749-78.6087 95.3763-80.2797Q93.6776-81.9507 91.1252-81.9507Q88.617-81.9507 86.9183-80.2797Q85.2197-78.6087 85.2197-76.1122L85.2197 5.56811Q85.2197 8.08347 86.9183 9.78211Q88.617 11.4807 91.1252 11.4807ZM169.834-35.8772Q169.834-38.6183 168.099-40.3043Q166.364-41.9903 163.576-41.9903L133.11-41.9903L123.799-41.4815L138.059-55.4456Q138.942-56.2992 139.432-57.3987Q139.922-58.4982 139.922-59.8346Q139.922-62.331 138.254-63.993Q136.586-65.655 133.964-65.655Q132.806-65.655 131.674-65.1624Q130.541-64.6698 129.581-63.6806L106.857-40.4151Q105.991-39.5128 105.476-38.3599Q104.961-37.2071 104.961-35.8772Q104.961-34.5843 105.476-33.4315Q105.991-32.2787 106.857-31.3764L129.581-8.08796Q130.541-7.11694 131.674-6.63023Q132.806-6.14351 133.964-6.14351Q136.586-6.14351 138.254-7.8055Q139.922-9.46749 139.922-11.9711Q139.922-13.3073 139.432-14.4034Q138.942-15.4994 138.059-16.3529L123.799-30.2729L133.11-29.8011L163.576-29.8011Q166.364-29.8011 168.099-31.4907Q169.834-33.1803 169.834-35.8772Z"/>
  </g>
  <g id="Medium-M" transform="matrix(1 0 0 1 1657.31 1126)">
   <path d="M12.4609-35.9886Q12.4609-33.6393 13.9475-32.1525Q15.434-30.6656 17.8867-30.6656L49.5563-30.6656L59.0467-31.054L44.0029-16.4463Q43.2109-15.6979 42.7904-14.72Q42.3699-13.7421 42.3699-12.6035Q42.3699-10.3815 43.8682-8.92149Q45.3665-7.46145 47.6289-7.46145Q48.6821-7.46145 49.6796-7.89002Q50.6772-8.3186 51.5314-9.1831L74.0544-32.0293Q74.8418-32.8458 75.3234-33.8624Q75.805-34.8791 75.805-35.9886Q75.805-37.1415 75.3234-38.1582Q74.8418-39.1749 74.0544-39.9914L51.5314-62.8113Q50.6772-63.6861 49.6796-64.1269Q48.6821-64.5678 47.6289-64.5678Q45.3665-64.5678 43.8682-63.1077Q42.3699-61.6477 42.3699-59.4344Q42.3699-58.2957 42.7904-57.3135Q43.2109-56.3314 44.0029-55.5829L59.0467-40.9231L49.5563-41.3551L17.8867-41.3551Q15.434-41.3551 13.9475-39.8725Q12.4609-38.3899 12.4609-35.9886ZM89.2151 11.3487Q91.5051 11.3487 92.9971 9.8567Q94.4891 8.36471 94.4891 6.11822L94.4891-76.6657Q94.4891-78.8791 92.9971-80.3442Q91.5051-81.8093 89.2151-81.8093Q86.9773-81.8093 85.4853-80.3442Q83.9933-78.8791 83.9933-76.6657L83.9933 6.11822Q83.9933 8.36471 85.4853 9.8567Q86.9773 11.3487 89.2151 11.3487ZM166.021-35.9886Q166.021-38.3899 164.509-39.8725Q162.996-41.3551 160.595-41.3551L128.926-41.3551L119.427-40.9231L134.479-55.5829Q135.263-56.3314 135.661-57.3135Q136.06-58.2957 136.06-59.4344Q136.06-61.6477 134.588-63.1077Q133.116-64.5678 130.853-64.5678Q129.802-64.5678 128.804-64.1269Q127.805-63.6861 126.942-62.8113L104.384-39.9914Q103.589-39.1749 103.133-38.1582Q102.677-37.1415 102.677-35.9886Q102.677-34.8791 103.133-33.8624Q103.589-32.8458 104.384-32.0293L126.942-9.1831Q127.805-8.3186 128.804-7.89002Q129.802-7.46145 130.853-7.46145Q133.116-7.46145 134.588-8.92149Q136.06-10.3815 136.06-12.6035Q136.06-13.7421 135.661-14.72Q135.263-15.6979 134.479-16.4463L119.427-31.054L128.926-30.6656L160.595-30.6656Q162.996-30.6656 164.509-32.1525Q166.021-33.6393 166.021-35.9886Z"/>
  </g>
  <g id="Regular-M" transform="matrix(1 0 0 1 1363.09 1126)">
   <path d="M12.4609-36.1339Q12.4609-34.2381 13.6522-33.0156Q14.8435-31.7932 16.8016-31.7932L50.0413-31.7932L59.7742-32.073L43.6993-16.5683Q43.036-15.9568 42.7302-15.133Q42.4244-14.3091 42.4244-13.4283Q42.4244-11.5738 43.6728-10.3771Q44.9212-9.18051 46.7134-9.18051Q47.6155-9.18051 48.4445-9.53324Q49.2735-9.88597 49.9991-10.6116L72.2991-32.881Q72.9931-33.5855 73.4023-34.4245Q73.8116-35.2636 73.8116-36.1339Q73.8116-37.0559 73.4023-37.895Q72.9931-38.7342 72.2991-39.4387L49.9991-61.6773Q49.2735-62.4029 48.4445-62.7762Q47.6155-63.1496 46.7134-63.1496Q44.9212-63.1496 43.6728-61.953Q42.4244-60.7563 42.4244-58.9124Q42.4244-58.0314 42.7302-57.2024Q43.036-56.3734 43.6993-55.7618L59.7742-40.1948L50.0413-40.5264L16.8016-40.5264Q14.8435-40.5264 13.6522-39.3092Q12.4609-38.092 12.4609-36.1339ZM86.7237 11.1765Q88.6713 11.1765 89.8938 9.954Q91.1162 8.73155 91.1162 6.83576L91.1162-77.3876Q91.1162-79.2317 89.8938-80.4283Q88.6713-81.6248 86.7237-81.6248Q84.8385-81.6248 83.616-80.4283Q82.3936-79.2317 82.3936-77.3876L82.3936 6.83576Q82.3936 8.73155 83.616 9.954Q84.8385 11.1765 86.7237 11.1765ZM161.049-36.1339Q161.049-38.092 159.826-39.3092Q158.604-40.5264 156.708-40.5264L123.469-40.5264L113.725-40.1948L129.811-55.7618Q130.463-56.3734 130.743-57.2024Q131.023-58.0314 131.023-58.9124Q131.023-60.7563 129.806-61.953Q128.588-63.1496 126.796-63.1496Q125.884-63.1496 125.06-62.7762Q124.236-62.4029 123.5-61.6773L101.159-39.4387Q100.454-38.7342 100.076-37.895Q99.6982-37.0559 99.6982-36.1339Q99.6982-35.2636 100.076-34.4245Q100.454-33.5855 101.159-32.881L123.5-10.6116Q124.236-9.88597 125.06-9.53324Q125.884-9.18051 126.796-9.18051Q128.588-9.18051 129.806-10.3771Q131.023-11.5738 131.023-13.4283Q131.023-14.3091 130.743-15.133Q130.463-15.9568 129.811-16.5683L113.725-32.073L123.469-31.7932L156.708-31.7932Q158.604-31.7932 159.826-33.0156Q161.049-34.2381 161.049-36.1339Z"/>
  </g>
  <g id="Light-M" transform="matrix(1 0 0 1 1070.02 1126)">
   <path d="M12.4609-36.2365Q12.4609-34.8027 13.3613-33.8712Q14.2617-32.9397 15.7578-32.9397L50.0585-32.9397L60.1163-33.168L42.9294-16.4656Q42.403-15.9741 42.157-15.3297Q41.911-14.6854 41.911-13.993Q41.911-12.5661 42.8599-11.6518Q43.8089-10.7375 45.1734-10.7375Q45.9216-10.7375 46.5794-11.056Q47.2372-11.3746 47.826-11.9633L69.6125-33.7707Q70.1185-34.3042 70.4336-34.9378Q70.7487-35.5715 70.7487-36.2365Q70.7487-36.936 70.4336-37.5699Q70.1185-38.2038 69.6125-38.7372L47.826-60.565Q47.2372-61.1538 46.5794-61.4758Q45.9216-61.7978 45.1734-61.7978Q43.8089-61.7978 42.8599-60.8835Q41.911-59.9692 41.911-58.5703Q41.911-57.8774 42.157-57.2195Q42.403-56.5617 42.9294-56.0697L60.1163-39.305L50.0585-39.5683L15.7578-39.5683Q14.2617-39.5683 13.3613-38.6504Q12.4609-37.7326 12.4609-36.2365ZM83.0789 11.108Q84.5476 11.108 85.4791 10.1765Q86.4107 9.24499 86.4107 7.81119L86.4107-78.3116Q86.4107-79.711 85.4791-80.6251Q84.5476-81.5391 83.0789-81.5391Q81.673-81.5391 80.7415-80.6251Q79.81-79.711 79.81-78.3116L79.81 7.81119Q79.81 9.24499 80.7415 10.1765Q81.673 11.108 83.0789 11.108ZM153.76-36.2365Q153.76-37.7326 152.828-38.6504Q151.896-39.5683 150.462-39.5683L116.162-39.5683L106.076-39.305L123.291-56.0697Q123.79-56.5617 124.018-57.2195Q124.247-57.8774 124.247-58.5703Q124.247-59.9692 123.329-60.8835Q122.411-61.7978 121.047-61.7978Q120.272-61.7978 119.627-61.4758Q118.983-61.1538 118.367-60.565L96.5732-38.7372Q96.0398-38.2038 95.7559-37.5699Q95.4719-36.936 95.4719-36.2365Q95.4719-35.5715 95.7559-34.9378Q96.0398-34.3042 96.5732-33.7707L118.367-11.9633Q118.983-11.3746 119.627-11.056Q120.272-10.7375 121.047-10.7375Q122.411-10.7375 123.329-11.6518Q124.247-12.5661 124.247-13.993Q124.247-14.6854 124.018-15.3297Q123.79-15.9741 123.291-16.4656L106.076-33.168L116.162-32.9397L150.462-32.9397Q151.896-32.9397 152.828-33.8712Q153.76-34.8027 153.76-36.2365Z"/>
  </g>
  <g id="Thin-M" transform="matrix(1 0 0 1 778.132 1126)">
   <path d="M12.4609-36.3723Q12.4609-35.5495 12.9765-35.0027Q13.4921-34.456 14.3772-34.456L50.0814-34.456L60.5688-34.6163L41.9112-16.3299Q41.5657-15.9969 41.3988-15.59Q41.2319-15.1831 41.2319-14.7397Q41.2319-13.8787 41.7849-13.3377Q42.3378-12.7968 43.1365-12.7968Q43.6814-12.7968 44.1127-13.0701Q44.5441-13.3434 44.9519-13.7511L66.0594-34.9475Q66.3167-35.2547 66.5073-35.6167Q66.6978-35.9787 66.6978-36.3723Q66.6978-36.7774 66.5073-37.1398Q66.3167-37.5022 66.0594-37.8095L44.9519-59.094Q44.5441-59.5017 44.1127-59.7559Q43.6814-60.01 43.1365-60.01Q42.3378-60.01 41.7849-59.4691Q41.2319-58.9282 41.2319-58.1178Q41.2319-57.6736 41.3988-57.2422Q41.5657-56.8108 41.9112-56.4769L60.5688-38.1283L50.0814-38.301L14.3772-38.301Q13.4921-38.301 12.9765-37.7792Q12.4609-37.2574 12.4609-36.3723ZM78.2585 11.0175Q79.0937 11.0175 79.6405 10.4708Q80.1872 9.92407 80.1872 9.10128L80.1872-79.5336Q80.1872-80.3448 79.6405-80.8853Q79.0937-81.4258 78.2585-81.4258Q77.4864-81.4258 76.9397-80.8853Q76.3929-80.3448 76.3929-79.5336L76.3929 9.10128Q76.3929 9.92407 76.9397 10.4708Q77.4864 11.0175 78.2585 11.0175ZM144.119-36.3723Q144.119-37.2574 143.572-37.7792Q143.025-38.301 142.202-38.301L106.499-38.301L95.9606-38.1283L114.669-56.4769Q114.964-56.8108 115.124-57.2422Q115.285-57.6736 115.285-58.1178Q115.285-58.9282 114.763-59.4691Q114.241-60.01 113.443-60.01Q112.849-60.01 112.442-59.7559Q112.036-59.5017 111.578-59.094L90.5083-37.8095Q90.2011-37.5022 90.0417-37.1398Q89.8823-36.7774 89.8823-36.3723Q89.8823-35.9787 90.0417-35.6167Q90.2011-35.2547 90.5083-34.9475L111.578-13.7511Q112.036-13.3434 112.442-13.0701Q112.849-12.7968 113.443-12.7968Q114.241-12.7968 114.763-13.3377Q115.285-13.8787 115.285-14.7397Q115.285-15.1831 115.124-15.59Q114.964-15.9969 114.669-16.3299L95.9606-34.6163L106.499-34.456L142.202-34.456Q143.025-34.456 143.572-35.0027Q144.119-35.5495 144.119-36.3723Z"/>
  </g>
  <g id="Ultralight-M" transform="matrix(1 0 0 1 483.89 1126)">
   <path d="M12.4609-36.4418Q12.4609-35.932 12.7794-35.5823Q13.0979-35.2326 13.6701-35.2326L50.093-35.2326L60.8006-35.3581L41.3896-16.2604Q41.1369-16.0086 41.0105-15.7233Q40.8841-15.438 40.8841-15.1222Q40.8841-14.5509 41.2342-14.2012Q41.5843-13.8516 42.0933-13.8516Q42.5339-13.8516 42.8493-14.1017Q43.1647-14.3518 43.4798-14.6668L64.2394-35.5503Q64.3694-35.7416 64.4962-35.9644Q64.623-36.1873 64.623-36.4418Q64.623-36.6962 64.4962-36.9196Q64.3694-37.1429 64.2394-37.3343L43.4798-58.3405Q43.1647-58.6555 42.8493-58.8749Q42.5339-59.0943 42.0933-59.0943Q41.5843-59.0943 41.2342-58.7446Q40.8841-58.3949 40.8841-57.8861Q40.8841-57.5692 41.0105-57.2538Q41.1369-56.9383 41.3896-56.6855L60.8006-37.5255L50.093-37.6519L13.6701-37.6519Q13.0979-37.6519 12.7794-37.3329Q12.4609-37.0139 12.4609-36.4418ZM75.7895 10.9712Q76.3003 10.9712 76.6499 10.6215Q76.9996 10.2719 76.9996 9.76206L76.9996-80.1595Q76.9996-80.6694 76.6499-81.0186Q76.3003-81.3678 75.7895-81.3678Q75.342-81.3678 74.9924-81.0186Q74.6427-80.6694 74.6427-80.1595L74.6427 9.76206Q74.6427 10.2719 74.9924 10.6215Q75.342 10.9712 75.7895 10.9712ZM139.181-36.4418Q139.181-37.0139 138.831-37.3329Q138.481-37.6519 137.971-37.6519L101.549-37.6519L90.7794-37.5255L110.253-56.6855Q110.443-56.9383 110.569-57.2538Q110.695-57.5692 110.695-57.8861Q110.695-58.3949 110.376-58.7446Q110.057-59.0943 109.548-59.0943Q109.047-59.0943 108.762-58.8749Q108.478-58.6555 108.1-58.3405L87.4019-37.3343Q87.2106-37.1429 87.1149-36.9196Q87.0193-36.6962 87.0193-36.4418Q87.0193-36.1873 87.1149-35.9644Q87.2106-35.7416 87.4019-35.5503L108.1-14.6668Q108.478-14.3518 108.762-14.1017Q109.047-13.8516 109.548-13.8516Q110.057-13.8516 110.376-14.2012Q110.695-14.5509 110.695-15.1222Q110.695-15.438 110.569-15.7233Q110.443-16.0086 110.253-16.2604L90.7794-35.3581L101.549-35.2326L137.971-35.2326Q138.481-35.2326 138.831-35.5823Q139.181-35.932 139.181-36.4418Z"/>
  </g>
  <g id="Black-S" transform="matrix(1 0 0 1 2853.81 696)">
   <path d="M9.76562-35.2539Q9.76562-31.6406 12.085-29.4434Q14.4043-27.2461 18.2617-27.2461L36.9141-27.2461L43.4082-27.9785L35.6445-20.0195Q34.5215-18.8965 33.7402-17.5293Q32.959-16.1621 32.959-14.2578Q32.959-11.084 35.1074-8.91113Q37.2559-6.73828 40.8691-6.73828Q42.2852-6.73828 43.7256-7.37305Q45.166-8.00781 46.3379-9.22852L64.8438-29.3945Q65.8203-30.4688 66.4795-31.958Q67.1387-33.4473 67.1387-35.2539Q67.1387-37.0605 66.4795-38.5498Q65.8203-40.0391 64.8438-41.1133L46.3379-61.2793Q45.166-62.5488 43.7256-63.1592Q42.2852-63.7695 40.8691-63.7695Q37.2559-63.7695 35.1074-61.5967Q32.959-59.4238 32.959-56.25Q32.959-54.3457 33.7402-52.9785Q34.5215-51.6113 35.6445-50.4883L43.4082-42.5293L36.9141-43.2617L18.2617-43.2617Q14.4043-43.2617 12.085-41.0645Q9.76562-38.8672 9.76562-35.2539ZM79.5898 1.95312Q82.7148 1.95312 84.9365-0.268555Q87.1582-2.49023 87.1582-5.61523L87.1582-64.8926Q87.1582-68.0664 84.9365-70.2637Q82.7148-72.4609 79.5898-72.4609Q76.4648-72.4609 74.2432-70.2637Q72.0215-68.0664 72.0215-64.8926L72.0215-5.61523Q72.0215-2.49023 74.2432-0.268555Q76.4648 1.95312 79.5898 1.95312ZM149.414-35.2539Q149.414-38.8672 147.095-41.0645Q144.775-43.2617 140.918-43.2617L122.266-43.2617L115.771-42.5293L123.535-50.4883Q124.658-51.6113 125.439-52.9785Q126.221-54.3457 126.221-56.25Q126.221-59.4238 124.072-61.5967Q121.924-63.7695 118.311-63.7695Q116.943-63.7695 115.479-63.1592Q114.014-62.5488 112.842-61.2793L94.3359-41.1133Q93.3594-40.0391 92.7002-38.5498Q92.041-37.0605 92.041-35.2539Q92.041-33.4473 92.7002-31.958Q93.3594-30.4688 94.3359-29.3945L112.842-9.22852Q114.014-8.00781 115.479-7.37305Q116.943-6.73828 118.311-6.73828Q121.924-6.73828 124.072-8.91113Q126.221-11.084 126.221-14.2578Q126.221-16.1621 125.439-17.5293Q124.658-18.8965 123.535-20.0195L115.771-27.9785L122.266-27.2461L140.918-27.2461Q144.775-27.2461 147.095-29.4434Q149.414-31.6406 149.414-35.2539Z"/>
  </g>
  <g id="Heavy-S" transform="matrix(1 0 0 1 2559.42 696)">
   <path d="M9.76562-35.4037Q9.76562-32.2399 11.7911-30.3019Q13.8165-28.364 17.1784-28.364L37.4557-28.364L44.1803-28.9811L35.4025-20.1693Q34.4062-19.1846 33.746-17.9672Q33.0858-16.7499 33.0858-15.1106Q33.0858-12.2941 34.9922-10.3805Q36.8986-8.46695 40.0394-8.46695Q41.3056-8.46695 42.5789-9.02105Q43.8522-9.57514 44.8973-10.6575L63.2188-30.2358Q64.1147-31.2063 64.7047-32.5227Q65.2948-33.8391 65.2948-35.4037Q65.2948-36.9799 64.7047-38.2963Q64.1147-39.6127 63.2188-40.5832L44.8973-60.1499Q43.8522-61.2696 42.5789-61.8108Q41.3056-62.352 40.0394-62.352Q36.8986-62.352 34.9922-60.4385Q33.0858-58.5249 33.0858-55.7084Q33.0858-54.0691 33.746-52.8517Q34.4062-51.6344 35.4025-50.6496L44.1803-41.8263L37.4557-42.455L17.1784-42.455Q13.8165-42.455 11.7911-40.517Q9.76562-38.5791 9.76562-35.4037ZM77.2619 1.76873Q80.0642 1.76873 82.0208-0.187883Q83.9775-2.1445 83.9775-4.93529L83.9775-65.584Q83.9775-68.4006 82.0208-70.3328Q80.0642-72.265 77.2619-72.265Q74.4711-72.265 72.5145-70.3328Q70.5579-68.4006 70.5579-65.584L70.5579-4.93529Q70.5579-2.1445 72.5145-0.187883Q74.4711 1.76873 77.2619 1.76873ZM144.77-35.4037Q144.77-38.5791 142.738-40.517Q140.707-42.455 137.357-42.455L117.08-42.455L110.355-41.8263L119.133-50.6496Q120.129-51.6344 120.784-52.8517Q121.438-54.0691 121.438-55.7084Q121.438-58.5249 119.537-60.4385Q117.637-62.352 114.496-62.352Q113.267-62.352 111.975-61.8108Q110.683-61.2696 109.638-60.1499L91.305-40.5832Q90.4091-39.6127 89.8248-38.2963Q89.2406-36.9799 89.2406-35.4037Q89.2406-33.8391 89.8248-32.5227Q90.4091-31.2063 91.305-30.2358L109.638-10.6575Q110.683-9.57514 111.975-9.02105Q113.267-8.46695 114.496-8.46695Q117.637-8.46695 119.537-10.3805Q121.438-12.2941 121.438-15.1106Q121.438-16.7499 120.784-17.9672Q120.129-19.1846 119.133-20.1693L110.355-28.9811L117.08-28.364L137.357-28.364Q140.707-28.364 142.738-30.3019Q144.77-32.2399 144.77-35.4037Z"/>
  </g>
  <g id="Bold-S" transform="matrix(1 0 0 1 2265.31 696)">
   <path d="M9.76562-35.5713Q9.76562-32.9102 11.4624-31.2622Q13.1592-29.6143 15.9668-29.6143L38.0615-29.6143L45.0439-30.1025L35.1318-20.3369Q34.2773-19.5068 33.7524-18.457Q33.2275-17.4072 33.2275-16.0645Q33.2275-13.6475 34.8633-12.0239Q36.499-10.4004 39.1113-10.4004Q40.21-10.4004 41.2964-10.8643Q42.3828-11.3281 43.2861-12.2559L61.4014-31.1768Q62.207-32.0312 62.7197-33.1543Q63.2324-34.2773 63.2324-35.5713Q63.2324-36.8896 62.7197-38.0127Q62.207-39.1357 61.4014-39.9902L43.2861-58.8867Q42.3828-59.8389 41.2964-60.3027Q40.21-60.7666 39.1113-60.7666Q36.499-60.7666 34.8633-59.1431Q33.2275-57.5195 33.2275-55.1025Q33.2275-53.7598 33.7524-52.71Q34.2773-51.6602 35.1318-50.8301L45.0439-41.04L38.0615-41.5527L15.9668-41.5527Q13.1592-41.5527 11.4624-39.9048Q9.76562-38.2568 9.76562-35.5713ZM74.6582 1.5625Q77.0996 1.5625 78.7598-0.0976562Q80.4199-1.75781 80.4199-4.1748L80.4199-66.3574Q80.4199-68.7744 78.7598-70.4102Q77.0996-72.0459 74.6582-72.0459Q72.2412-72.0459 70.5811-70.4102Q68.9209-68.7744 68.9209-66.3574L68.9209-4.1748Q68.9209-1.75781 70.5811-0.0976562Q72.2412 1.5625 74.6582 1.5625ZM139.575-35.5713Q139.575-38.2568 137.866-39.9048Q136.157-41.5527 133.374-41.5527L111.279-41.5527L104.297-41.04L114.209-50.8301Q115.063-51.6602 115.576-52.71Q116.089-53.7598 116.089-55.1025Q116.089-57.5195 114.465-59.1431Q112.842-60.7666 110.229-60.7666Q109.155-60.7666 108.057-60.3027Q106.958-59.8389 106.055-58.8867L87.915-39.9902Q87.1094-39.1357 86.6089-38.0127Q86.1084-36.8896 86.1084-35.5713Q86.1084-34.2773 86.6089-33.1543Q87.1094-32.0312 87.915-31.1768L106.055-12.2559Q106.958-11.3281 108.057-10.8643Q109.155-10.4004 110.229-10.4004Q112.842-10.4004 114.465-12.0239Q116.089-13.6475 116.089-16.0645Q116.089-17.4072 115.576-18.457Q115.063-19.5068 114.209-20.3369L104.297-30.1025L111.279-29.6143L133.374-29.6143Q136.157-29.6143 137.866-31.2622Q139.575-32.9102 139.575-35.5713Z"/>
  </g>
  <g id="Semibold-S" transform="matrix(1 0 0 1 1970.39 696)">
   <path d="M9.76562-35.6868Q9.76562-33.3723 11.2358-31.9243Q12.706-30.4763 15.1314-30.4763L38.4792-30.4763L45.6394-30.8757L34.9452-20.4524Q34.1885-19.729 33.7569-18.7947Q33.3253-17.8604 33.3253-16.7221Q33.3253-14.5806 34.7744-13.157Q36.2235-11.7334 38.4715-11.7334Q39.4546-11.7334 40.4122-12.1351Q41.3697-12.5367 42.1753-13.3578L60.1483-31.8255Q60.8918-32.6 61.3512-33.5897Q61.8105-34.5795 61.8105-35.6868Q61.8105-36.8274 61.3512-37.8172Q60.8918-38.8069 60.1483-39.5814L42.1753-58.0158Q41.3697-58.8524 40.4122-59.263Q39.4546-59.6735 38.4715-59.6735Q36.2235-59.6735 34.7744-58.25Q33.3253-56.8264 33.3253-54.6849Q33.3253-53.5465 33.7569-52.6122Q34.1885-51.6779 34.9452-50.9545L45.6394-40.4979L38.4792-40.9307L15.1314-40.9307Q12.706-40.9307 11.2358-39.4827Q9.76562-38.0347 9.76562-35.6868ZM72.8631 1.42031Q75.0557 1.42031 76.5114-0.0354492Q77.9672-1.49121 77.9672-3.65049L77.9672-66.8906Q77.9672-69.0321 76.5114-70.4635Q75.0557-71.8948 72.8631-71.8948Q70.7038-71.8948 69.248-70.4635Q67.7923-69.0321 67.7923-66.8906L67.7923-3.65049Q67.7923-1.49121 69.248-0.0354492Q70.7038 1.42031 72.8631 1.42031ZM135.994-35.6868Q135.994-38.0347 134.507-39.4827Q133.02-40.9307 130.628-40.9307L107.28-40.9307L100.12-40.4979L110.814-50.9545Q111.571-51.6779 111.986-52.6122Q112.401-53.5465 112.401-54.6849Q112.401-56.8264 110.968-58.25Q109.536-59.6735 107.288-59.6735Q106.32-59.6735 105.355-59.263Q104.39-58.8524 103.584-58.0158L85.5778-39.5814Q84.8344-38.8069 84.3917-37.8172Q83.9489-36.8274 83.9489-35.6868Q83.9489-34.5795 84.3917-33.5897Q84.8344-32.6 85.5778-31.8255L103.584-13.3578Q104.39-12.5367 105.355-12.1351Q106.32-11.7334 107.288-11.7334Q109.536-11.7334 110.968-13.157Q112.401-14.5806 112.401-16.7221Q112.401-17.8604 111.986-18.7947Q111.571-19.729 110.814-20.4524L100.12-30.8757L107.28-30.4763L130.628-30.4763Q133.02-30.4763 134.507-31.9243Q135.994-33.3723 135.994-35.6868Z"/>
  </g>
  <g id="Medium-S" transform="matrix(1 0 0 1 1675.03 696)">
   <path d="M9.76562-35.7744Q9.76562-33.7227 11.064-32.4263Q12.3623-31.1299 14.498-31.1299L38.7959-31.1299L46.0908-31.4619L34.8037-20.54Q34.1211-19.8975 33.7603-19.0508Q33.3994-18.2041 33.3994-17.2207Q33.3994-15.2881 34.707-14.0161Q36.0146-12.7441 37.9863-12.7441Q38.8818-12.7441 39.7417-13.0986Q40.6016-13.4531 41.333-14.1934L59.1982-32.3174Q59.8945-33.0312 60.3135-33.9199Q60.7324-34.8086 60.7324-35.7744Q60.7324-36.7803 60.3135-37.6689Q59.8945-38.5576 59.1982-39.2715L41.333-57.3555Q40.6016-58.1045 39.7417-58.4746Q38.8818-58.8447 37.9863-58.8447Q36.0146-58.8447 34.707-57.5728Q33.3994-56.3008 33.3994-54.3682Q33.3994-53.3848 33.7603-52.5381Q34.1211-51.6914 34.8037-51.0488L46.0908-40.0869L38.7959-40.459L14.498-40.459Q12.3623-40.459 11.064-39.1626Q9.76562-37.8662 9.76562-35.7744ZM71.502 1.3125Q73.5059 1.3125 74.8066 0.0117188Q76.1074-1.28906 76.1074-3.25293L76.1074-67.2949Q76.1074-69.2275 74.8066-70.5039Q73.5059-71.7803 71.502-71.7803Q69.5381-71.7803 68.2373-70.5039Q66.9365-69.2275 66.9365-67.2949L66.9365-3.25293Q66.9365-1.28906 68.2373 0.0117188Q69.5381 1.3125 71.502 1.3125ZM133.278-35.7744Q133.278-37.8662 131.96-39.1626Q130.642-40.459 128.546-40.459L104.248-40.459L96.9531-40.0869L108.24-51.0488Q108.923-51.6914 109.264-52.5381Q109.604-53.3848 109.604-54.3682Q109.604-56.3008 108.317-57.5728Q107.029-58.8447 105.058-58.8447Q104.171-58.8447 103.307-58.4746Q102.442-58.1045 101.711-57.3555L83.8057-39.2715Q83.1094-38.5576 82.7104-37.6689Q82.3115-36.7803 82.3115-35.7744Q82.3115-34.8086 82.7104-33.9199Q83.1094-33.0312 83.8057-32.3174L101.711-14.1934Q102.442-13.4531 103.307-13.0986Q104.171-12.7441 105.058-12.7441Q107.029-12.7441 108.317-14.0161Q109.604-15.2881 109.604-17.2207Q109.604-18.2041 109.264-19.0508Q108.923-19.8975 108.24-20.54L96.9531-31.4619L104.248-31.1299L128.546-31.1299Q130.642-31.1299 131.96-32.4263Q133.278-33.7227 133.278-35.7744Z"/>
  </g>
  <g id="Regular-S" transform="matrix(1 0 0 1 1380.09 696)">
   <path d="M9.76562-35.8887Q9.76562-34.1797 10.8398-33.0811Q11.9141-31.9824 13.6719-31.9824L39.209-31.9824L46.6797-32.2266L34.6191-20.6543Q34.0332-20.1172 33.7646-19.3848Q33.4961-18.6523 33.4961-17.8711Q33.4961-16.2109 34.6191-15.1367Q35.7422-14.0625 37.3535-14.0625Q38.1348-14.0625 38.8672-14.3555Q39.5996-14.6484 40.2344-15.2832L57.959-32.959Q58.5938-33.5938 58.96-34.3506Q59.3262-35.1074 59.3262-35.8887Q59.3262-36.7188 58.96-37.4756Q58.5938-38.2324 57.959-38.8672L40.2344-56.4941Q39.5996-57.1289 38.8672-57.4463Q38.1348-57.7637 37.3535-57.7637Q35.7422-57.7637 34.6191-56.6895Q33.4961-55.6152 33.4961-53.9551Q33.4961-53.1738 33.7646-52.4414Q34.0332-51.709 34.6191-51.1719L46.6797-39.5508L39.209-39.8438L13.6719-39.8438Q11.9141-39.8438 10.8398-38.7451Q9.76562-37.6465 9.76562-35.8887ZM69.7266 1.17188Q71.4844 1.17188 72.583 0.0732422Q73.6816-1.02539 73.6816-2.73438L73.6816-67.8223Q73.6816-69.4824 72.583-70.5566Q71.4844-71.6309 69.7266-71.6309Q68.0176-71.6309 66.9189-70.5566Q65.8203-69.4824 65.8203-67.8223L65.8203-2.73438Q65.8203-1.02539 66.9189 0.0732422Q68.0176 1.17188 69.7266 1.17188ZM129.736-35.8887Q129.736-37.6465 128.638-38.7451Q127.539-39.8438 125.83-39.8438L100.293-39.8438L92.8223-39.5508L104.883-51.1719Q105.469-51.709 105.713-52.4414Q105.957-53.1738 105.957-53.9551Q105.957-55.6152 104.858-56.6895Q103.76-57.7637 102.148-57.7637Q101.367-57.7637 100.635-57.4463Q99.9023-57.1289 99.2676-56.4941L81.4941-38.8672Q80.8594-38.2324 80.5176-37.4756Q80.1758-36.7188 80.1758-35.8887Q80.1758-35.1074 80.5176-34.3506Q80.8594-33.5938 81.4941-32.959L99.2676-15.2832Q99.9023-14.6484 100.635-14.3555Q101.367-14.0625 102.148-14.0625Q103.76-14.0625 104.858-15.1367Q105.957-16.2109 105.957-17.8711Q105.957-18.6523 105.713-19.3848Q105.469-20.1172 104.883-20.6543L92.8223-32.2266L100.293-31.9824L125.83-31.9824Q127.539-31.9824 128.638-33.0811Q129.736-34.1797 129.736-35.8887Z"/>
  </g>
  <g id="Light-S" transform="matrix(1 0 0 1 1086.61 696)">
   <path d="M9.76562-35.9795Q9.76562-34.6792 10.5825-33.8379Q11.3993-32.9966 12.7485-32.9966L39.2242-32.9966L46.9823-33.1952L33.9381-20.5635Q33.4732-20.1324 33.2575-19.5588Q33.0419-18.9852 33.0419-18.3706Q33.0419-17.0888 33.9001-16.2643Q34.7582-15.4399 35.9912-15.4399Q36.6364-15.4399 37.2173-15.7026Q37.7983-15.9653 38.312-16.479L55.5824-33.7461Q56.0509-34.2295 56.3338-34.8047Q56.6167-35.3798 56.6167-35.9795Q56.6167-36.6127 56.3338-37.188Q56.0509-37.7632 55.5824-38.2467L38.312-55.5102Q37.7983-56.0239 37.2173-56.2959Q36.6364-56.5679 35.9912-56.5679Q34.7582-56.5679 33.9001-55.7434Q33.0419-54.9189 33.0419-53.6524Q33.0419-53.0375 33.2575-52.4565Q33.4732-51.8756 33.9381-51.4442L46.9823-38.7637L39.2242-38.9961L12.7485-38.9961Q11.3993-38.9961 10.5825-38.1624Q9.76562-37.3286 9.76562-35.9795ZM66.5024 1.11135Q67.8365 1.11135 68.6778 0.270081Q69.519-0.571187 69.519-1.87149L69.519-68.6396Q69.519-69.9064 68.6778-70.7307Q67.8365-71.5551 66.5024-71.5551Q65.2173-71.5551 64.3761-70.7307Q63.5348-69.9064 63.5348-68.6396L63.5348-1.87149Q63.5348-0.571187 64.3761 0.270081Q65.2173 1.11135 66.5024 1.11135ZM123.288-35.9795Q123.288-37.3286 122.447-38.1624Q121.605-38.9961 120.305-38.9961L93.8296-38.9961L86.0563-38.7637L99.1158-51.4442Q99.5654-51.8756 99.7641-52.4565Q99.9629-53.0375 99.9629-53.6524Q99.9629-54.9189 99.1291-55.7434Q98.2953-56.5679 97.0624-56.5679Q96.4025-56.5679 95.829-56.2959Q95.2555-56.0239 94.7266-55.5102L77.4376-38.2467Q76.9541-37.7632 76.6956-37.188Q76.4371-36.6127 76.4371-35.9795Q76.4371-35.3798 76.6956-34.8047Q76.9541-34.2295 77.4376-33.7461L94.7266-16.479Q95.2555-15.9653 95.829-15.7026Q96.4025-15.4399 97.0624-15.4399Q98.2953-15.4399 99.1291-16.2643Q99.9629-17.0888 99.9629-18.3706Q99.9629-18.9852 99.7641-19.5588Q99.5654-20.1324 99.1158-20.5635L86.0563-33.1952L93.8296-32.9966L120.305-32.9966Q121.605-32.9966 122.447-33.8379Q123.288-34.6792 123.288-35.9795Z"/>
  </g>
  <g id="Thin-S" transform="matrix(1 0 0 1 794.159 696)">
   <path d="M9.76562-36.0995Q9.76562-35.3397 10.2421-34.8389Q10.7186-34.338 11.5272-34.338L39.2444-34.338L47.3826-34.4764L33.0373-20.4434Q32.7326-20.1526 32.5869-19.7891Q32.4412-19.4255 32.4412-19.0312Q32.4412-18.2499 32.949-17.7557Q33.4569-17.2615 34.1893-17.2615Q34.6546-17.2615 35.0353-17.4842Q35.4159-17.7069 35.7696-18.0605L52.4392-34.7871Q52.6877-35.0704 52.8605-35.4052Q53.0333-35.74 53.0333-36.0995Q53.0333-36.4724 52.8605-36.8075Q52.6877-37.1426 52.4392-37.426L35.7696-54.2089Q35.4159-54.5625 35.0353-54.7744Q34.6546-54.9864 34.1893-54.9864Q33.4569-54.9864 32.949-54.4922Q32.4412-53.998 32.4412-53.2522Q32.4412-52.8572 32.5869-52.4766Q32.7326-52.0959 33.0373-51.8045L47.3826-37.7227L39.2444-37.8751L11.5272-37.8751Q10.7186-37.8751 10.2421-37.3916Q9.76562-36.9082 9.76562-36.0995ZM62.2381 1.0313Q63.0119 1.0313 63.5128 0.530415Q64.0137 0.0295331 64.0137-0.730256L64.0137-69.7207Q64.0137-70.4671 63.5128-70.9609Q63.0119-71.4548 62.2381-71.4548Q61.5138-71.4548 61.0129-70.9609Q60.512-70.4671 60.512-69.7207L60.512-0.730256Q60.512 0.0295331 61.0129 0.530415Q61.5138 1.0313 62.2381 1.0313ZM114.76-36.0995Q114.76-36.9082 114.259-37.3916Q113.758-37.8751 112.998-37.8751L85.2813-37.8751L77.1077-37.7227L91.4884-51.8045Q91.7577-52.0959 91.8964-52.4766Q92.0351-52.8572 92.0351-53.2522Q92.0351-53.998 91.5517-54.4922Q91.0682-54.9864 90.3358-54.9864Q89.8363-54.9864 89.473-54.7744Q89.1098-54.5625 88.7207-54.2089L72.0725-37.426Q71.7892-37.1426 71.6408-36.8075Q71.4924-36.4724 71.4924-36.0995Q71.4924-35.74 71.6408-35.4052Q71.7892-35.0704 72.0725-34.7871L88.7207-18.0605Q89.1098-17.7069 89.473-17.4842Q89.8363-17.2615 90.3358-17.2615Q91.0682-17.2615 91.5517-17.7557Q92.0351-18.2499 92.0351-19.0312Q92.0351-19.4255 91.8964-19.7891Q91.7577-20.1526 91.4884-20.4434L77.1077-34.4764L85.2813-34.338L112.998-34.338Q113.758-34.338 114.259-34.8389Q114.76-35.3397 114.76-36.0995Z"/>
  </g>
  <g id="Ultralight-S" transform="matrix(1 0 0 1 499.632 696)">
   <path d="M9.76562-36.161Q9.76562-35.6781 10.0677-35.3516Q10.3699-35.025 10.9016-35.025L39.2548-35.025L47.5876-35.1326L32.576-20.3819Q32.3532-20.163 32.2433-19.907Q32.1335-19.651 32.1335-19.3695Q32.1335-18.8446 32.4619-18.5196Q32.7904-18.1946 33.2664-18.1946Q33.6395-18.1946 33.9176-18.3968Q34.1957-18.5989 34.4673-18.8705L50.8293-35.3203Q50.9651-35.5011 51.0815-35.7128Q51.1978-35.9245 51.1978-36.161Q51.1978-36.4006 51.0815-36.6127Q50.9651-36.8248 50.8293-37.0056L34.4673-53.5423Q34.1957-53.8139 33.9176-53.9951Q33.6395-54.1763 33.2664-54.1763Q32.7904-54.1763 32.4619-53.8513Q32.1335-53.5263 32.1335-53.0472Q32.1335-52.7649 32.2433-52.4868Q32.3532-52.2087 32.576-51.989L47.5876-37.1895L39.2548-37.3009L10.9016-37.3009Q10.3699-37.3009 10.0677-36.9968Q9.76562-36.6928 9.76562-36.161ZM60.054 0.990295Q60.5408 0.990295 60.8673 0.663757Q61.1938 0.337219 61.1938-0.145721L61.1938-70.2744Q61.1938-70.7542 60.8673-71.0789Q60.5408-71.4035 60.054-71.4035Q59.6169-71.4035 59.2903-71.0789Q58.9638-70.7542 58.9638-70.2744L58.9638-0.145721Q58.9638 0.337219 59.2903 0.663757Q59.6169 0.990295 60.054 0.990295ZM110.392-36.161Q110.392-36.6928 110.065-36.9968Q109.738-37.3009 109.255-37.3009L80.9029-37.3009L72.5243-37.1895L87.5816-51.989Q87.7586-52.2087 87.8666-52.4868Q87.9745-52.7649 87.9745-53.0472Q87.9745-53.5263 87.6705-53.8513Q87.3665-54.1763 86.8904-54.1763Q86.4731-54.1763 86.2175-53.9951Q85.9619-53.8139 85.6445-53.5423L69.3245-37.0056Q69.1437-36.8248 69.0517-36.6127Q68.9598-36.4006 68.9598-36.161Q68.9598-35.9245 69.0517-35.7128Q69.1437-35.5011 69.3245-35.3203L85.6445-18.8705Q85.9619-18.5989 86.2175-18.3968Q86.4731-18.1946 86.8904-18.1946Q87.3665-18.1946 87.6705-18.5196Q87.9745-18.8446 87.9745-19.3695Q87.9745-19.651 87.8666-19.907Q87.7586-20.163 87.5816-20.3819L72.5243-35.1326L80.9029-35.025L109.255-35.025Q109.738-35.025 110.065-35.3516Q110.392-35.6781 110.392-36.161Z"/>
  </g>
 </g>
</svg>
