<?xml version="1.0" encoding="utf-8"?>
<!DOCTYPE svg
PUBLIC "-//W3C//DTD SVG 1.1//EN"
       "http://www.w3.org/Graphics/SVG/1.1/DTD/svg11.dtd">
<svg version="1.1" xmlns="http://www.w3.org/2000/svg" xmlns:xlink="http://www.w3.org/1999/xlink" width="3300" height="2200">
 <!--glyph: "uni100141.medium", point size: 100.000000, font version: "Version 16.0d11e1", template writer version: "8"-->


<g id="Notes">
 <style>
  text { fill: black; stroke: none;
         font-family: -apple-system,&quot;SF Pro Display&quot;,&quot;SF Pro Text&quot;,Helvetica,sans-serif; }
  .separator { fill: none; stroke: black; stroke-width: 0.5; }
 </style>
 
 <rect height="2200" id="artboard" style="fill:white" width="3300"/>
 
 <g title="header" transform="translate(263 292)">
  <line class="separator" x1="0" x2="2773"/>
  
  <g transform="translate(0 30)">
   <text style="font-weight:bold;">Weight/Scale Variations</text>
   
   <g style="text-anchor:middle;">
    <text x="296.711">Ultralight</text>
    <text x="593.422">Thin</text>
    <text x="890.13">Light</text>
    <text x="1449.84">Regular</text>
    <text x="1186.56">Medium</text>
    <text x="1780.27">Semibold</text>
    <text x="2076.98">Bold</text>
    <text x="2373.69">Heavy</text>
    <text x="2670.4">Black</text>
   </g>
  </g>
 </g>
 
 <g title="footer" transform="translate(263 1903)">
  <line class="separator" x1="0" x2="2773"/>
  
  <g>
   <g title="Circled Plus S" transform="translate(0 30)">
    <path d="M 9.24805 0.830078 C 13.5547 0.830078 17.1387 -2.74414 17.1387 -7.05078 C 17.1387 -11.3574 13.5449 -14.9316 9.23828 -14.9316 C 4.94141 -14.9316 1.36719 -11.3574 1.36719 -7.05078 C 1.36719 -2.74414 4.95117 0.830078 9.24805 0.830078 Z M 9.24805 -0.654297 C 5.70312 -0.654297 2.87109 -3.49609 2.87109 -7.05078 C 2.87109 -10.6055 5.69336 -13.4473 9.23828 -13.4473 C 12.793 -13.4473 15.6348 -10.6055 15.6445 -7.05078 C 15.6543 -3.49609 12.8027 -0.654297 9.24805 -0.654297 Z M 9.22852 -3.62305 C 9.69727 -3.62305 9.9707 -3.93555 9.9707 -4.45312 L 9.9707 -6.31836 L 12.002 -6.31836 C 12.5 -6.31836 12.832 -6.57227 12.832 -7.04102 C 12.832 -7.51953 12.5195 -7.7832 12.002 -7.7832 L 9.9707 -7.7832 L 9.9707 -9.81445 C 9.9707 -10.332 9.69727 -10.6543 9.22852 -10.6543 C 8.75977 -10.6543 8.50586 -10.3125 8.50586 -9.81445 L 8.50586 -7.7832 L 6.49414 -7.7832 C 5.97656 -7.7832 5.64453 -7.51953 5.64453 -7.04102 C 5.64453 -6.57227 5.99609 -6.31836 6.49414 -6.31836 L 8.50586 -6.31836 L 8.50586 -4.45312 C 8.50586 -3.95508 8.75977 -3.62305 9.22852 -3.62305 Z"/>
   </g>
   <g title="Circled Plus M" transform="translate(18.506 30)">
    <path d="M 11.709 2.91016 C 17.1582 2.91016 21.6699 -1.61133 21.6699 -7.05078 C 21.6699 -12.5 17.1484 -17.0117 11.6992 -17.0117 C 6.25977 -17.0117 1.74805 -12.5 1.74805 -7.05078 C 1.74805 -1.61133 6.26953 2.91016 11.709 2.91016 Z M 11.709 1.25 C 7.09961 1.25 3.41797 -2.44141 3.41797 -7.05078 C 3.41797 -11.6602 7.08984 -15.3516 11.6992 -15.3516 C 16.3086 -15.3516 20 -11.6602 20.0098 -7.05078 C 20.0195 -2.44141 16.3184 1.25 11.709 1.25 Z M 11.6797 -2.66602 C 12.207 -2.66602 12.5098 -3.01758 12.5098 -3.59375 L 12.5098 -6.23047 L 15.3223 -6.23047 C 15.8691 -6.23047 16.25 -6.51367 16.25 -7.03125 C 16.25 -7.55859 15.8887 -7.86133 15.3223 -7.86133 L 12.5098 -7.86133 L 12.5098 -10.6836 C 12.5098 -11.25 12.207 -11.6113 11.6797 -11.6113 C 11.1621 -11.6113 10.8789 -11.2305 10.8789 -10.6836 L 10.8789 -7.86133 L 8.07617 -7.86133 C 7.50977 -7.86133 7.13867 -7.55859 7.13867 -7.03125 C 7.13867 -6.51367 7.5293 -6.23047 8.07617 -6.23047 L 10.8789 -6.23047 L 10.8789 -3.59375 C 10.8789 -3.03711 11.1621 -2.66602 11.6797 -2.66602 Z"/>
   </g>
   <g title="Circled Plus L" transform="translate(41.924 30)">
    <path d="M 14.9707 5.66406 C 21.9336 5.66406 27.6953 -0.0976562 27.6953 -7.05078 C 27.6953 -14.0137 21.9238 -19.7754 14.9609 -19.7754 C 8.00781 -19.7754 2.25586 -14.0137 2.25586 -7.05078 C 2.25586 -0.0976562 8.01758 5.66406 14.9707 5.66406 Z M 14.9707 3.84766 C 8.93555 3.84766 4.08203 -1.01562 4.08203 -7.05078 C 4.08203 -13.0957 8.92578 -17.9492 14.9609 -17.9492 C 21.0059 -17.9492 25.8594 -13.0957 25.8691 -7.05078 C 25.8789 -1.01562 21.0156 3.84766 14.9707 3.84766 Z M 14.9414 -1.38672 C 15.5176 -1.38672 15.8594 -1.77734 15.8594 -2.38281 L 15.8594 -6.13281 L 19.7754 -6.13281 C 20.3711 -6.13281 20.7812 -6.46484 20.7812 -7.02148 C 20.7812 -7.59766 20.3906 -7.93945 19.7754 -7.93945 L 15.8594 -7.93945 L 15.8594 -11.8652 C 15.8594 -12.4805 15.5176 -12.8711 14.9414 -12.8711 C 14.375 -12.8711 14.0527 -12.4609 14.0527 -11.8652 L 14.0527 -7.93945 L 10.1465 -7.93945 C 9.53125 -7.93945 9.13086 -7.59766 9.13086 -7.02148 C 9.13086 -6.46484 9.55078 -6.13281 10.1465 -6.13281 L 14.0527 -6.13281 L 14.0527 -2.38281 C 14.0527 -1.79688 14.375 -1.38672 14.9414 -1.38672 Z"/>
   </g>
   <text style="font-weight:bold;" y="50">Design Variations</text>
   <text y="68">Symbols are supported in up to nine weights and three scales.</text>
   <text y="86">For optimal layout with text and other symbols, vertically align</text>
   <text y="104">symbols with the adjacent text.</text>
  </g>
  
  <g transform="translate(513 0)">
   <g title="A" transform="translate(0 30)">
       <path d="M 3.31055 0.126953 C 3.82812 0.126953 4.08203 -0.0683594 4.26758 -0.605469 L 5.52734 -4.0625 L 11.2891 -4.0625 L 12.5488 -0.605469 C 12.7344 -0.0683594 12.9883 0.126953 13.4961 0.126953 C 14.0137 0.126953 14.3457 -0.185547 14.3457 -0.673828 C 14.3457 -0.839844 14.3164 -0.986328 14.2383 -1.20117 L 9.6582 -13.3887 C 9.43359 -13.9941 9.0332 -14.2871 8.4082 -14.2871 C 7.80273 -14.2871 7.39258 -13.9941 7.17773 -13.3984 L 2.59766 -1.19141 C 2.51953 -0.976562 2.49023 -0.830078 2.49023 -0.664062 C 2.49023 -0.175781 2.80273 0.126953 3.31055 0.126953 Z M 6.00586 -5.53711 L 8.37891 -12.1094 L 8.42773 -12.1094 L 10.8008 -5.53711 Z"/>
   </g>
   <line style="fill:none;stroke:#00AEEF;stroke-width:0.5;opacity:1.0;" x1="0" x2="0" y1="19" y2="33"/>
   <line style="fill:none;stroke:#00AEEF;stroke-width:0.5;opacity:1.0;" x1="16.836" x2="16.836" y1="19" y2="33"/>
   <text style="font-weight:bold;" y="53">Margins</text>
   <text y="68">Leading and trailing margins on the left and right side of each symbol</text>
   <text y="86">can be adjusted by modifying the x-location of the margin guidelines.</text>
   <text y="104">Modifications are automatically applied proportionally to all</text>
   <text y="122">scales and weights.</text>
  </g>
  
  <g transform="translate(1026 0)">
   <g title="Hammer" transform="translate(0 30)">
    <path d="M 2.8418 1.86523 L 4.54102 3.57422 C 5.40039 4.44336 6.38672 4.38477 7.31445 3.35938 L 17.4902 -7.85156 C 17.7539 -7.76367 18.0273 -7.7832 18.3398 -7.8418 L 19.4043 -8.03711 L 20.0684 -7.36328 L 20.0293 -6.80664 C 19.9902 -6.30859 20.1172 -5.92773 20.6055 -5.44922 L 21.3672 -4.70703 C 21.8457 -4.22852 22.4609 -4.19922 22.9297 -4.66797 L 25.8398 -7.58789 C 26.3086 -8.05664 26.2891 -8.65234 25.8105 -9.13086 L 25.0391 -9.89258 C 24.5605 -10.3711 24.1895 -10.5273 23.7109 -10.4883 L 23.1348 -10.4395 L 22.4902 -11.0742 L 22.7344 -12.1973 C 22.8613 -12.7637 22.7051 -13.2031 22.1191 -13.7891 L 19.9219 -15.9766 C 16.582 -19.2969 12.1484 -19.2188 9.25781 -16.3281 C 8.83789 -15.918 8.80859 -15.3418 9.04297 -14.9512 C 9.27734 -14.5898 9.73633 -14.3555 10.3809 -14.5215 C 11.8457 -14.8633 13.3691 -14.9219 14.7949 -13.9844 L 14.209 -12.5293 C 14.0137 -12.0508 13.9844 -11.6504 14.1113 -11.2891 L 3.04688 -0.898438 C 2.06055 0.0195312 1.98242 0.996094 2.8418 1.86523 Z M 10.752 -15.957 C 13.1836 -17.7344 16.4746 -17.4316 18.7012 -15.2051 L 21.1328 -12.793 C 21.3672 -12.5586 21.4062 -12.373 21.3379 -12.0312 L 21.0156 -10.5469 L 22.5195 -9.0625 L 23.5059 -9.12109 C 23.7598 -9.13086 23.8379 -9.11133 24.0332 -8.91602 L 24.6094 -8.33984 L 22.168 -5.89844 L 21.5918 -6.47461 C 21.3965 -6.66992 21.3672 -6.74805 21.377 -7.01172 L 21.4453 -7.98828 L 19.9512 -9.47266 L 18.4277 -9.21875 C 18.1055 -9.15039 17.959 -9.17969 17.7148 -9.41406 L 15.7129 -11.416 C 15.459 -11.6504 15.4297 -11.8164 15.5859 -12.1875 L 16.4648 -14.2773 C 14.9023 -15.7324 12.8711 -16.3574 10.8398 -15.7617 C 10.6836 -15.7227 10.625 -15.8496 10.752 -15.957 Z M 5.27344 2.30469 L 4.10156 1.14258 C 3.63281 0.683594 3.74023 0.341797 4.14062 -0.0195312 L 14.9512 -10.1953 L 16.416 -8.71094 L 6.42578 2.27539 C 6.07422 2.67578 5.74219 2.77344 5.27344 2.30469 Z"/>
   </g>
   <text style="font-weight:bold;" y="50">Exporting</text>
   <text y="68">Symbols should be outlined when exporting to ensure the</text>
   <text y="86">design is preserved when submitting to Xcode.</text>
  </g>
  
  <g transform="translate(2773 0)" style="text-anchor:end;">
   <text id="template-version" y="30">Template v.2.0</text>
   <text y="48">Requires Xcode 12 or greater</text>
   <text y="66">Generated from arrow.left.to.line</text>
   <text y="84">Typeset at 100 points</text>
  </g>
 </g>
 
 <g transform="translate(263 0)">
  <text y="726">Small</text>
  <text y="1156">Medium</text>
  <text y="1586">Large</text>
 </g>
 </g>
 
 <g id="Guides">
 <style>
  #H-reference { fill:#27AAE1; stroke:none; }
  .baseline,
  .capline     { fill:none; stroke:#27AAE1; stroke-width:0.5; }
  .margin      { fill:none; stroke:#00AEEF; stroke-width:0.5; }
 </style>
 
 <g id="H-reference" transform="matrix(1 0 0 1 339 696)">
  <path d="M1,0h2.7L13-24.5h32.7L55.1,0h2.6L30.6-70.5h-2.5L1,0z M29.3-67.1L29.3-67.1l15.6,40.4h-31L29.3-67.1z"/>
 </g>
 <line id="Baseline-S" class="baseline" x1="263" y1="696" x2="3036" y2="696"/>
 <line id="Capline-S" class="capline" x1="263" y1="625.5" x2="3036" y2="625.5"/>
 <g id="H-reference" transform="matrix(1 0 0 1 339 1126)">
  <path class="st6" d="M1,0h2.7L13-24.5h32.7L55.1,0h2.6L30.6-70.5h-2.5L1,0z M29.3-67.1L29.3-67.1l15.6,40.4h-31L29.3-67.1z"/>
 </g>
 <line id="Baseline-M" class="baseline" x1="263" y1="1126" x2="3036" y2="1126"/>
 <line id="Capline-M" class="capline" x1="263" y1="1055.5" x2="3036" y2="1055.5"/>
 <g id="H-reference" transform="matrix(1 0 0 1 339 1556)">
  <path d="M1,0h2.7L13-24.5h32.7L55.1,0h2.6L30.6-70.5h-2.5L1,0z M29.3-67.1L29.3-67.1l15.6,40.4h-31L29.3-67.1z"/>
 </g>
 <line id="Baseline-L" class="baseline" x1="263" y1="1556" x2="3036" y2="1556"/>
 <line id="Capline-L" class="capline" x1="263" y1="1485.5" x2="3036" y2="1485.5"/>
  <line id="left-margin" class="margin" x1="1388.2" y1="1030.8" x2="1388.2" y2="1150.1"/>
  <line id="right-margin" class="margin" x1="1511.5" y1="1030.8" x2="1511.5" y2="1150.1"/>
 </g>
 
 <g id="Symbols">
  <g id="Regular-L" transform="translate(1370.99 1556)">
   <path class="st8" d="M113.9,14.2l-33.5,0 M117.9,14.2c0-2.2-1.8-4-4-4H80.4c-2.2,0-4,1.8-4,4s1.8,4,4,4h33.5C116.1,18.2,117.9,16.4,117.9,14.2z M89.2-18.9h57.1 M150.4-18.9c0-2.2-1.8-4-4-4H89.2c-2.2,0-4,1.8-4,4s1.8,4,4,4h57.1C148.6-14.9,150.4-16.7,150.4-18.9z M98.1-51.9l48.3,0 M150.4-51.9c0-2.2-1.8-4-4-4H98.1c-2.2,0-4,1.8-4,4s1.8,4,4,4h48.3C148.6-47.9,150.4-49.7,150.4-51.9z M106.9-84.9h39.4 M150.4-84.9c0-2.2-1.8-4-4-4h-39.4c-2.2,0-4,1.8-4,4s1.8,4,4,4h39.4C148.6-80.9,150.4-82.7,150.4-84.9z M80.8-93.4L49.7,22.6 M55.5,24.2L86.6-91.9c0.9-3.2-1-6.5-4.2-7.3c-3.2-0.9-6.5,1-7.3,4.2L43.9,21.1c-0.9,3.2,1,6.5,4.2,7.3c0.5,0.1,1,0.2,1.6,0.2C52.4,28.7,54.8,26.9,55.5,24.2z M44.9-93.4L13.8,22.6 M19.6,24.2L50.7-91.9c0.9-3.2-1-6.5-4.2-7.3c-3.2-0.9-6.5,1-7.3,4.2L8,21.1c-0.9,3.2,1,6.5,4.2,7.3c0.5,0.1,1,0.2,1.6,0.2C16.4,28.7,18.8,26.9,19.6,24.2z"/>
  </g>
  <g id="Regular-M" transform="translate(1388.2 1126)">
   <path class="st8" d="M63.1,3l26,0 M92.7,3c0-2-1.6-3.6-3.6-3.6h-26c-2,0-3.6,1.6-3.6,3.6s1.6,3.6,3.6,3.6h26C91.1,6.6,92.7,4.9,92.7,3z M70-22.6h44.3 M117.8-22.6c0-2-1.6-3.6-3.6-3.6H70c-2,0-3.6,1.6-3.6,3.6S68-19,70-19h44.3C116.2-19,117.8-20.6,117.8-22.6z M76.8-48.2l37.4,0 M117.8-48.2c0-2-1.6-3.6-3.6-3.6H76.8c-2,0-3.6,1.6-3.6,3.6s1.6,3.6,3.6,3.6h37.4C116.2-44.6,117.8-46.2,117.8-48.2z M83.7-73.8h30.6 M117.8-73.8c0-2-1.6-3.6-3.6-3.6H83.7c-2,0-3.6,1.6-3.6,3.6s1.6,3.6,3.6,3.6h30.6C116.2-70.1,117.8-71.8,117.8-73.8z M39.3,9.6l24.1-90 M44.6,11l24.1-90c0.8-2.9-0.9-5.8-3.8-6.6c-2.9-0.8-5.8,0.9-6.6,3.8l-24.1,90c-0.8,2.9,0.9,5.8,3.8,6.6c0.5,0.1,0.9,0.2,1.4,0.2C41.7,15,43.9,13.4,44.6,11z M35.6-80.4l-24.1,90 M16.7,11l24.1-90c0.8-2.9-0.9-5.8-3.8-6.6c-2.9-0.8-5.8,0.9-6.6,3.8L6.2,8.2c-0.8,2.9,0.9,5.8,3.8,6.6c0.5,0.1,0.9,0.2,1.4,0.2C13.8,15,16,13.4,16.7,11z"/>
  </g>
  <g id="Regular-S" transform="translate(1401.14 696)">
   <path class="st8" d="M50.1-5.3l20.2,0 M73.6-5.3c0-1.8-1.5-3.3-3.3-3.3H50.1c-1.8,0-3.3,1.5-3.3,3.3S48.3-2,50.1-2h20.2C72.1-2,73.6-3.5,73.6-5.3z M55.5-25.3h34.4 M93.2-25.3c0-1.8-1.5-3.3-3.3-3.3H55.5c-1.8,0-3.3,1.5-3.3,3.3s1.5,3.3,3.3,3.3h34.4C91.7-22,93.2-23.5,93.2-25.3z M89.9-45.2l-29.1,0 M93.2-45.2c0-1.8-1.5-3.3-3.3-3.3H60.8c-1.8,0-3.3,1.5-3.3,3.3s1.5,3.3,3.3,3.3h29.1C91.7-41.9,93.2-43.4,93.2-45.2z M66.1-65.4h23.8 M93.2-65.4c0-1.8-1.5-3.3-3.3-3.3H66.1c-1.8,0-3.3,1.5-3.3,3.3s1.5,3.3,3.3,3.3h23.8C91.7-62.1,93.2-63.6,93.2-65.4z M50.4-70.2l-18.8,70 M36.4,1.1l18.8-70c0.7-2.6-0.9-5.4-3.5-6.1c-2.6-0.7-5.4,0.9-6.1,3.5l-18.8,70c-0.7,2.6,0.9,5.4,3.5,6.1c0.4,0.1,0.9,0.2,1.3,0.2C33.8,4.7,35.8,3.3,36.4,1.1z M28.7-70.2L9.9-0.2 M14.7,1.1l18.8-70c0.7-2.6-0.9-5.4-3.5-6.1c-2.6-0.7-5.4,0.9-6.1,3.5L5.2-1.5C4.4,1.1,6,3.8,8.7,4.6c0.4,0.1,0.9,0.2,1.3,0.2C12.1,4.7,14.1,3.3,14.7,1.1z"/>
  </g>
 </g>
</svg>
