<?xml version="1.0" encoding="utf-8"?>
<!DOCTYPE svg
PUBLIC "-//W3C//DTD SVG 1.1//EN"
       "http://www.w3.org/Graphics/SVG/1.1/DTD/svg11.dtd">
<svg version="1.1" xmlns="http://www.w3.org/2000/svg" xmlns:xlink="http://www.w3.org/1999/xlink" width="3300" height="2200">
 <!--glyph: "uni100202.medium", point size: 100.0, font version: "18.0d12e2", template writer version: "101"-->
<style>
  .hierarchical-0:secondary {fill:#4D4D4D}
  .hierarchical-1:primary {fill:#212121}
</style>
 
 <g id="Notes">
  <style>
   text { font-family: -apple-system, sans-serif; }
   .separator { fill: none; stroke: black; stroke-width: 0.5; }
  </style>
  
  <rect height="2200" id="artboard" style="fill:white" width="3300"/>
  
  <g title="header" transform="translate(263 292)">
   <line class="separator" x1="0" x2="2773"/>
   
   <g transform="translate(0 30)">
    <text style="font-weight:bold;">Weight/Scale Variations</text>
    
    <g style="text-anchor:middle;">
     <text x="296.711">Ultralight</text>
     <text x="593.422">Thin</text>
     <text x="890.13">Light</text>
     <text x="1186.84">Regular</text>
     <text x="1483.56">Medium</text>
     <text x="1780.27">Semibold</text>
     <text x="2076.98">Bold</text>
     <text x="2373.69">Heavy</text>
     <text x="2670.4">Black</text>
    </g>
   </g>
  </g>
  
  <g title="footer" transform="translate(263 1903)">
   <line class="separator" x1="0" x2="2773"/>
   
   <g transform="translate(2773 0)" style="text-anchor:end;">
    <text id="template-version" y="30">Template v.3.0</text>
    <text y="48">Requires Xcode 13 or greater</text>
    <text y="66">Generated from paragraphsign</text>
    <text y="84">Typeset at 100 points</text>
   </g>
  </g>
  
  <g transform="translate(263 0)">
   <text y="726">Small</text>
   <text y="1156">Medium</text>
   <text y="1586">Large</text>
  </g>
 </g>
 
 <g id="Guides">
  <style>
   #H-reference      { fill:#27AAE1; stroke:none; }
   [id^="Baseline"],
   [id^="Capline"]   { fill:none; stroke:#27AAE1; stroke-width:0.5; }
   [id$="-margin"]   { fill:none; stroke:#00AEEF; stroke-width:0.5; }
  </style>
  
  <g id="H-reference" transform="matrix(1 0 0 1 339 696)">
   <path d="M0.993654 0L3.63775 0L29.3281-67.1323L30.0303-67.1323L30.0303-70.459L28.1226-70.459ZM11.6885-24.4799L46.9815-24.4799L46.2315-26.7285L12.4385-26.7285ZM55.1196 0L57.7637 0L30.6382-70.459L29.4326-70.459L29.4326-67.1323Z"/>
  </g>
  <line id="Baseline-S" x1="263" x2="3036" y1="696" y2="696"/>
  <line id="Capline-S" x1="263" x2="3036" y1="625.541" y2="625.541"/>
  <g id="H-reference" transform="matrix(1 0 0 1 339 1126)">
   <path d="M0.993654 0L3.63775 0L29.3281-67.1323L30.0303-67.1323L30.0303-70.459L28.1226-70.459ZM11.6885-24.4799L46.9815-24.4799L46.2315-26.7285L12.4385-26.7285ZM55.1196 0L57.7637 0L30.6382-70.459L29.4326-70.459L29.4326-67.1323Z"/>
  </g>
  <line id="Baseline-M" x1="263" x2="3036" y1="1126" y2="1126"/>
  <line id="Capline-M" x1="263" x2="3036" y1="1055.54" y2="1055.54"/>
  <g id="H-reference" transform="matrix(1 0 0 1 339 1556)">
   <path d="M0.993654 0L3.63775 0L29.3281-67.1323L30.0303-67.1323L30.0303-70.459L28.1226-70.459ZM11.6885-24.4799L46.9815-24.4799L46.2315-26.7285L12.4385-26.7285ZM55.1196 0L57.7637 0L30.6382-70.459L29.4326-70.459L29.4326-67.1323Z"/>
  </g>
  <line id="Baseline-L" x1="263" x2="3036" y1="1556" y2="1556"/>
  <line id="Capline-L" x1="263" x2="3036" y1="1485.54" y2="1485.54"/>
  <line id="left-margin-Ultralight-S" x1="525.959" x2="525.959" y1="600.785" y2="720.121"/>
  <line id="right-margin-Ultralight-S" x1="593.463" x2="593.463" y1="600.785" y2="720.121"/>
  <line id="left-margin-Regular-S" x1="1411.07" x2="1411.07" y1="600.785" y2="720.121"/>
  <line id="right-margin-Regular-S" x1="1488.61" x2="1488.61" y1="600.785" y2="720.121"/>
  <line id="left-margin-Black-S" x1="2887.55" x2="2887.55" y1="600.785" y2="720.121"/>
  <line id="right-margin-Black-S" x1="2979.25" x2="2979.25" y1="600.785" y2="720.121"/>
 </g>
 
 <g id="Symbols">
  <g id="Black-S" transform="translate(2885.5 696)">
   <path d="M82.8,4.6c1.4,1.3,3.6,1.4,4.9,0c1.3-1.4,1.4-3.6,0-4.9L13-75c-1.4-1.4-3.6-1.4-5,0c-1.3,1.3-1.3,3.6,0,4.9L82.8,4.6z M24-72.2c2.5-0.7,5.3-1.2,8.4-1.2h42.8c5.5,0,8.8,3,8.8,8.1c0,5.1-3.3,8.2-8.8,8.2h-3.1v33L55.9-40.3v-16.7h-5.6v11.2L24-72.2z M50.3-19.7V0c0,5.5-3,8.8-8.2,8.8C37.1,8.8,34,5.5,34,0v-30.5h-0.2c-15,0-25-8.6-25-21.6c0-2.8,0.5-5.3,1.3-7.6L50.3-19.7z M72,2c-0.7,4.3-3.5,6.8-8,6.8c-5.1,0-8.2-3.3-8.2-8.8v-14.1L72,2z"/>
  </g>
  <g id="Regular-S" transform="translate(1404.48 696)">
   <path d="M79.1,3.1c1.3,1.3,3.5,1.3,4.7,0c1.3-1.3,1.3-3.4,0-4.7L11.7-73.7c-1.3-1.3-3.5-1.3-4.8,0c-1.3,1.3-1.3,3.5,0,4.7L79.1,3.1z"/>
   <path d="M23.8-68.4c2.8-1.3,6.1-2,9.8-2h36.7c2.5,0,4.1,1.6,4.1,4.1c0,2.4-1.6,4.1-4.1,4.1H64v34.1l-8.2-8.2v-25.9H48v18.1L23.8-68.4z"/>
   <path d="M37-32h-3.2c-12.2,0-20.4-7.7-20.4-19.2c0-1.4,0.1-2.7,0.3-4L37-32z"/>
   <path d="M64-5.1V-3c0,2.5-1.7,4.1-4.2,4.1c-2.5,0-4-1.6-4-4.1v-10.3L64-5.1z"/>
   <path d="M48-21V-3c0,2.5-1.6,4.1-4.1,4.1c-2.5,0-4.1-1.6-4.1-4.1v-26.2L48-21z"/>
  </g>
  <g id="Ultralight-S" transform="translate(516.327 696)">
   <path d="M77.5,0.6c0.4,0.4,1.1,0.4,1.6,0c0.5-0.5,0.4-1.2,0-1.6l-69.9-70c-0.4-0.4-1.1-0.5-1.6,0c-0.4,0.4-0.4,1.2,0,1.6L77.5,0.6z M59.1-13v11.9C59.1-0.4,58.7,0,58,0c-0.7,0-1.1-0.4-1.1-1.2v-14.1L59.1-13z M20.8-64.2c3.6-4,9.2-6.3,16.3-6.3h29.1c0.7,0,1.2,0.4,1.2,1.1s-0.5,1.1-1.2,1.1h-7.1v42.3l-2.2-2.2v-40.1H46.3v29.5L20.8-64.2z M38.6-33.4h-1.4c-12.7,0-20.8-7.2-20.8-18.5c0-1.2,0.1-2.3,0.3-3.4L38.6-33.4z M46.3-25.8v24.7c0,0.7-0.4,1.2-1.1,1.2C44.5,0,44-0.4,44-1.1v-26.9L46.3-25.8z"/>
  </g>
 </g>
</svg>
