<?xml version="1.0" encoding="utf-8"?>
<!DOCTYPE svg
PUBLIC "-//W3C//DTD SVG 1.1//EN"
       "http://www.w3.org/Graphics/SVG/1.1/DTD/svg11.dtd">
<svg version="1.1" xmlns="http://www.w3.org/2000/svg" xmlns:xlink="http://www.w3.org/1999/xlink" width="3300" height="2200">
 
 <g id="Notes">
  <style>
   text { fill: black; stroke: none;
          font-family: -apple-system,&quot;SF Pro Display&quot;,&quot;SF Pro Text&quot;,Helvetica,sans-serif; }
   .separator { fill: none; stroke: black; stroke-width: 0.5; }
  </style>
  
  <rect height="2200" id="artboard" style="fill:white" width="3300"/>
  
  <g title="header" transform="translate(263 292)">
   <line class="separator" x1="0" x2="2773"/>
   
   <g transform="translate(0 30)">
    <text style="font-weight:bold;">Weight/Scale Variations</text>
    
    <g style="text-anchor:middle;">
     <text x="296.711">Ultralight</text>
     <text x="593.422">Thin</text>
     <text x="890.13">Light</text>
     <text x="1186.84">Regular</text>
     <text x="1483.56">Medium</text>
     <text x="1780.27">Semibold</text>
     <text x="2076.98">Bold</text>
     <text x="2373.69">Heavy</text>
     <text x="2670.4">Black</text>
    </g>
   </g>
  </g>
  
  <g title="footer" transform="translate(263 1903)">
   <line class="separator" x1="0" x2="2773"/>
   
   <g transform="translate(2773 0)" style="text-anchor:end;">
    <text id="template-version" y="30">Template v.2.0</text>
    <text y="48">Requires Xcode 12 or greater</text>
    <text y="66">Generated from paragraphsign</text>
    <text y="84">Typeset at 100 points</text>
   </g>
  </g>
  
  <g transform="translate(263 0)">
   <text y="726">Small</text>
   <text y="1156">Medium</text>
   <text y="1586">Large</text>
  </g>
 </g>
 
 <g id="Guides">
  <style>
   #H-reference      { fill:#27AAE1; stroke:none; }
   [id^="Baseline"],
   [id^="Capline"]   { fill:none; stroke:#27AAE1; stroke-width:0.5; }
   [id$="-margin"]   { fill:none; stroke:#00AEEF; stroke-width:0.5; }
  </style>
  
  <g id="H-reference" transform="translate(339 696)">
   <path d="M1,0h2.7L13-24.5h32.7L55.1,0h2.6L30.6-70.5h-2.5L1,0z M29.3-67.1L29.3-67.1l15.6,40.4h-31L29.3-67.1z"/>
  </g>
  <line id="Baseline-S" x1="263" y1="696" x2="3036" y2="696"/>
  <line id="Capline-S" x1="263" y1="625.5" x2="3036" y2="625.5"/>
  <g id="H-reference" transform="translate(339 1126)">
   <path class="st6" d="M1,0h2.7L13-24.5h32.7L55.1,0h2.6L30.6-70.5h-2.5L1,0z M29.3-67.1L29.3-67.1l15.6,40.4h-31L29.3-67.1z"/>
  </g>
  <line id="Baseline-M" x1="263" y1="1126" x2="3036" y2="1126"/>
  <line id="Capline-M" x1="263" y1="1055.5" x2="3036" y2="1055.5"/>
  <g id="H-reference" transform="translate(339 1556)">
   <path d="M1,0h2.7L13-24.5h32.7L55.1,0h2.6L30.6-70.5h-2.5L1,0z M29.3-67.1L29.3-67.1l15.6,40.4h-31L29.3-67.1z"/>
  </g>
  <line id="Baseline-L" x1="263" y1="1556" x2="3036" y2="1556"/>
  <line id="Capline-L" x1="263" y1="1485.5" x2="3036" y2="1485.5"/>
  <line id="left-margin" x1="1401.53" x2="1401.53" y1="1030.79" y2="1150.12"/>
  <line id="right-margin" x1="1498.16" x2="1498.16" y1="1030.79" y2="1150.12"/>
 </g>
 
 <g id="Symbols">
  <g id="Black-L" transform="translate(2855.64 1556)">
   <path d="M134.7,29.7c2.2,2.2,6,2.3,8.1,0c2.2-2.2,2.3-5.9,0-8.1l-122-121.9c-2.2-2.2-6-2.2-8.2,0c-2.1,2.1-2.1,6,0,8.1L134.7,29.7z"/>
   <path d="M81.8-52.2v-21.3h10.1v31.4l23.2,23.2v-54.6h6.5c7.8,0,12.4-4.4,12.4-11.7c0-7.2-4.6-11.6-12.4-11.6h-68 c-5.2,0-10,0.7-14.3,2.1L81.8-52.2z"/><path d="M91.9,0v21.4c0,7.8,4.3,12.5,11.6,12.5c6.7,0,10.9-4,11.5-10.7L91.9,0z"/>
   <path d="M18.2-73.6c-1.1,3.4-1.6,7.1-1.6,11.1c0,20.7,15.6,34.5,39,34.5h2.9v49.5c0,7.8,4.3,12.5,11.6,12.5 c7.3,0,11.7-4.7,11.7-12.5v-31.5L18.2-73.6z"/>
   
  </g>
  <g id="Heavy-L" transform="translate(2559.93 1556)">
   <path d="M133.4,29c2.1,2.1,5.6,2.1,7.6,0c2-2.1,2.1-5.5,0-7.6L20.1-99.5c-2.1-2.1-5.5-2.1-7.7,0c-2.1,2.1-2.1,5.6,0,7.6L133.4,29z M38.7-93.1c4.7-1.8,10-2.8,15.9-2.8h65.1c6.6,0,10.7,3.8,10.7,10c0,6.3-4.1,10.1-10.7,10.1h-7.5v56.2L92.1-39.7v-36.1H80.9v24.9L38.7-93.1z M112.2,20.1v0.8c0,6.6-3.9,10.6-10.1,10.6c-6.3,0-10.1-4-10.1-10.6V0L112.2,20.1z M80.9-11.2v32c0,6.6-3.8,10.6-10.1,10.6c-6.2,0-10-4-10-10.6v-49.6h-4.7c-22.7,0-37.7-13.5-37.7-33.7c0-3.5,0.5-6.9,1.3-9.9L80.9-11.2z"/>
  </g>
  <g id="Bold-L" transform="translate(2264.34 1556)">
   <path d="M132,28.1c2,1.9,5.1,2,7,0c1.9-2,1.9-5.1,0-7L19.3-98.6c-1.9-1.9-5.1-2-7.1,0c-1.9,1.9-1.9,5.1,0,7L132,28.1z M62.9-29.4h-6.2c-21.9,0-36.4-13.1-36.4-32.9c0-3.1,0.3-6,1-8.7L62.9-29.4z M38-91.4c5-2.3,11-3.6,17.7-3.6h61.9c5.4,0,8.7,3.1,8.7,8.2c0,5.2-3.3,8.3-8.7,8.3h-8.7v57.9L92.3-37.1v-41.4H79.9v29L38-91.4z M108.8,16.4v3.8c0,5.4-3.2,8.7-8.3,8.7c-5.2,0-8.3-3.3-8.3-8.7V-0.1L108.8,16.4z M79.9-12.4v32.7c0,5.4-3.2,8.7-8.3,8.7s-8.3-3.3-8.3-8.7V-29L79.9-12.4z"/>
  </g>
  <g id="Semibold-L" transform="translate(1968.41 1556)">
   <path d="M131,27.5c1.8,1.8,4.8,1.8,6.6,0c1.8-1.9,1.8-4.8,0-6.6L18.7-97.9c-1.8-1.8-4.8-1.9-6.6,0c-1.8,1.8-1.8,4.8,0,6.6L131,27.5z M62.5-29.9h-5.4c-21.4,0-35.4-12.8-35.4-32.2c0-2.7,0.3-5.3,0.8-7.8L62.5-29.9z M37.6-90.1c5.2-2.8,11.6-4.3,18.7-4.3H116c4.5,0,7.3,2.6,7.3,7c0,4.4-2.8,7.1-7.3,7.1h-9.5v59.1L92.3-35.3v-44.9H79.2v31.9L37.6-90.1z M79.2-13.2v33c0,4.5-2.7,7.3-7.1,7.3c-4.3,0-7-2.8-7-7.3v-47.1L79.2-13.2z M106.4,13.9v5.8c0,4.5-2.7,7.3-7.1,7.3s-7-2.8-7-7.3V-0.2L106.4,13.9z"/>
  </g>
  <g id="Medium-L" transform="translate(1672.31 1556)">
   <path d="M130.2,27c1.8,1.8,4.6,1.8,6.3,0c1.8-1.8,1.8-4.5,0-6.3L18.3-97.5c-1.8-1.7-4.6-1.8-6.3,0c-1.7,1.7-1.7,4.6,0,6.3L130.2,27z M62.3-30.3h-4.9c-20.9,0-34.7-12.6-34.7-31.8c0-2.5,0.2-4.9,0.7-7.1L62.3-30.3z M37.2-89.1c5.3-3.1,12-4.8,19.6-4.8h58c3.9,0,6.3,2.3,6.3,6.1c0,3.8-2.4,6.2-6.3,6.2h-10.1v59.9L92.4-33.9v-47.7H78.7v34L37.2-89.1z M78.7-13.9v33.3c0,3.9-2.4,6.3-6.2,6.3c-3.8,0-6.1-2.4-6.1-6.3v-45.6L78.7-13.9z M104.7,12.1v7.3c0,3.9-2.4,6.3-6.2,6.3s-6.1-2.4-6.1-6.3V-0.2L104.7,12.1z"/>
  </g>
  <g id="Regular-L" transform="translate(1376.36 1556)">
   <path d="M129.2,26.4c1.7,1.6,4.3,1.6,5.9,0c1.6-1.7,1.6-4.2,0-5.9L17.7-96.9c-1.6-1.6-4.2-1.7-6,0c-1.6,1.6-1.6,4.3,0,5.9L129.2,26.4z"/>
   <path d="M36.9-87.7c5.5-3.6,12.4-5.6,20.5-5.6h55.8c3,0,4.9,1.9,4.9,4.9s-2,5-4.9,5h-10.9v61.2l-9.8-9.8v-51.3H78v36.8 L36.9-87.7z"/>
   <path d="M61.9-30.8h-4.2C37.3-30.8,24-43.2,24-62c0-2.2,0.2-4.2,0.5-6.2L61.9-30.8z"/>
   <path d="M78-14.7V19c0,3-2,4.9-5,4.9s-4.9-1.9-4.9-4.9v-43.6L78-14.7z"/>
   <path d="M102.4,9.6V19c0,3-2,4.9-5,4.9s-4.8-1.9-4.8-4.9V-0.2L102.4,9.6z"/>
  </g>
  <g id="Light-L" transform="translate(1080.48 1556)">
   <path d="M128.6,25.3c1.3,1.3,3.3,1.3,4.6,0c1.3-1.3,1.2-3.3,0-4.5L16.7-95.8c-1.2-1.2-3.2-1.3-4.6,0c-1.2,1.3-1.2,3.4,0,4.6L128.6,25.3z M35.7-85.9c5.8-4.7,13.7-7.3,23.3-7.3h52.5c2.3,0,3.8,1.4,3.8,3.7s-1.5,3.7-3.8,3.7h-11.1v64.6L93-28.6v-57.3H77.3v41.5L35.7-85.9z M62.6-31.4h-3.5c-20.6,0-33.9-12.2-33.9-30.9c0-2.1,0.2-4.1,0.5-6L62.6-31.4z M77.3-16.7v36.6c0,2.2-1.5,3.7-3.7,3.7s-3.7-1.5-3.7-3.7v-43.9L77.3-16.7z M100.4,6.3v13.5c0,2.2-1.5,3.7-3.7,3.7c-2.2,0-3.7-1.5-3.7-3.7V-1L100.4,6.3z"/>
  </g>
  <g id="Thin-L" transform="translate(784.865 1556)">
   <path d="M127.8,24c0.8,0.8,2.1,0.8,2.8,0c0.9-0.9,0.7-2.1,0-2.8L15.3-94.2c-0.7-0.7-1.9-0.8-2.8,0c-0.7,0.8-0.7,2.1,0,2.8L127.8,24z M63.5-32.2H61c-20.8,0-34.1-11.9-34.1-30.4c0-2,0.2-3.9,0.5-5.7L63.5-32.2z M34.4-83.2c5.9-6.4,15.1-10,26.6-10h48.2c1.3,0,2.1,0.8,2.1,2.1s-0.8,2.1-2.1,2.1H97.7V-20L93.6-24v-65.1H76.3v47.9L34.4-83.2z M76.3-19.4v40.2c0,1.3-0.8,2.1-2.1,2.1s-2.1-0.8-2.1-2.1v-44.3L76.3-19.4z M97.7,2v18.9c0,1.3-0.8,2.1-2,2.1c-1.3,0-2.1-0.8-2.1-2.1V-2.1L97.7,2z"/>
  </g>
  <g id="Ultralight-L" transform="translate(488.715 1556)">
   <path d="M127.4,23.2c0.5,0.5,1.4,0.5,1.9,0c0.7-0.6,0.5-1.4,0-1.9L14.6-93.5c-0.4-0.4-1.2-0.6-1.9,0c-0.5,0.5-0.5,1.4,0,1.9L127.4,23.2z M33.9-81.7c5.8-7.3,15.6-11.5,28.1-11.5h46.1c0.8,0,1.3,0.5,1.3,1.2c0,0.7-0.5,1.2-1.3,1.2H96.4v71.6L94-21.7v-69.2H75.9v51.1L33.9-81.7z M63.9-32.7H62c-21,0-34.2-11.8-34.2-30.2c0-1.9,0.1-3.7,0.4-5.5L63.9-32.7z M75.9-20.7v42.1c0,0.8-0.5,1.3-1.2,1.3c-0.7,0-1.2-0.5-1.2-1.3v-44.5L75.9-20.7z M96.4-0.2v21.6c0,0.8-0.5,1.3-1.2,1.3c-0.7,0-1.2-0.5-1.2-1.3v-24L96.4-0.2z"/>
  </g>
  <g id="Black-M" transform="translate(2872.17 1126)">
   <path d="M105.9,15.6c1.8,1.7,4.6,1.8,6.3,0c1.7-1.7,1.8-4.5,0-6.3L16.7-86.1c-1.8-1.8-4.6-1.8-6.3,0c-1.7,1.7-1.7,4.6,0,6.3L105.9,15.6z"/>
   <path d="M105.9,15.6c1.8,1.7,4.6,1.8,6.3,0c1.7-1.7,1.8-4.5,0-6.3L16.7-86.1c-1.8-1.8-4.6-1.8-6.3,0c-1.7,1.7-1.7,4.6,0,6.3L105.9,15.6z"/>
   <path d="M30.6-82.5c3.2-0.9,6.8-1.4,10.7-1.4h54.8c7.1,0,11.3,3.9,11.3,10.5S103.3-63,96.1-63h-3.9v42.1l-21-21V-63h-7v14.1 L30.6-82.5z"/>
   <path d="M92.1,12.4c-0.9,5.5-4.6,8.7-10.2,8.7c-6.6,0-10.5-4.2-10.5-11.4V-8.3L92.1,12.4z"/>
   <path d="M64.3-15.4V9.8c0,7.1-3.9,11.4-10.5,11.4S43.3,16.9,43.3,9.8v-39h0c-19.2,0-32-11.1-32-27.6c0-3.6,0.6-6.9,1.7-9.9 L64.3-15.4z"/>
  </g>
  <g id="Heavy-M" transform="translate(2576.36 1126)">
   <path d="M104.6,15c1.7,1.7,4.4,1.7,6.1,0c1.7-1.7,1.7-4.4,0-6.1L16.1-85.5c-1.7-1.7-4.4-1.7-6.2,0c-1.6,1.6-1.6,4.4,0,6.1L104.6,15z M89.5,10c-0.3,5.5-3.7,8.8-9,8.8c-5.7,0-9.1-3.6-9.1-9.7V-8.2L89.5,10z M30.3-81.3c3.5-1.2,7.3-1.8,11.6-1.8h52.5c6.1,0,9.8,3.4,9.8,9c0,5.7-3.7,9.1-9.8,9.1h-4.9v42.8L71.3-40.2v-24.7h-7.9v16.8L30.3-81.3z M63.5-16V9c0,6.1-3.4,9.7-9.1,9.7c-5.7,0-9-3.6-9-9.7v-38.7h-2c-18.4,0-30.6-10.7-30.6-26.9c0-3.2,0.5-6.1,1.3-8.8L63.5-16z"/>
  </g>
  <g id="Bold-M" transform="translate(2280.65 1126)">
   <path d="M103.2,14.4c1.6,1.6,4.2,1.6,5.8,0c1.6-1.6,1.6-4.2,0-5.8L15.5-84.9c-1.6-1.6-4.2-1.6-5.9,0c-1.5,1.6-1.5,4.2,0,5.8L103.2,14.4z M29.9-79.8c3.7-1.5,7.9-2.3,12.6-2.3h50c5,0,8,2.8,8,7.5c0,4.7-3,7.5-8,7.5h-6v43.8l-15-15v-28.8h-8.8v20L29.9-79.8z M86.4,7v1.1c0,4.9-2.9,8-7.5,8c-4.7,0-7.5-3-7.5-8V-8L86.4,7z M62.6-16.8V8.1c0,4.9-2.9,8-7.6,8c-4.6,0-7.5-3-7.5-8v-38.4h-4c-17.5,0-29.1-10.4-29.1-26c0-2.7,0.3-5.2,1-7.5L62.6-16.8z"/>
  </g>
  <g id="Semibold-M" transform="translate(1984.62 1126)">
   <path d="M102.2,13.9c1.6,1.6,4.1,1.6,5.6,0c1.5-1.6,1.6-4.1,0-5.6L15.1-84.4c-1.6-1.6-4.1-1.6-5.7,0c-1.5,1.5-1.5,4.1,0,5.6L102.2,13.9z M29.7-78.8c3.8-1.7,8.2-2.6,13.2-2.6h48.1c4.2,0,6.7,2.4,6.7,6.4s-2.5,6.4-6.7,6.4h-6.8v44.4L71.4-37.1v-31.5h-9.5v22L29.7-78.8z M48.5-30.7h-4.8c-16.8,0-28-10.1-28-25.4c0-2.3,0.3-4.5,0.7-6.6L48.5-30.7z M84.3,5v2.5c0,4.2-2.5,6.7-6.4,6.7c-4,0-6.4-2.5-6.4-6.7V-7.9L84.3,5z M61.9-17.3V7.5c0,4.2-2.4,6.7-6.4,6.7c-4,0-6.4-2.5-6.4-6.7v-37.6L61.9-17.3z"/>
  </g>
  <g id="Medium-M" transform="translate(1688.43 1126)">
   <path d="M101.5,13.6c1.5,1.5,4,1.6,5.5,0c1.5-1.5,1.5-4,0-5.5L14.7-84.1c-1.5-1.5-4-1.6-5.5,0c-1.5,1.5-1.5,4,0,5.5L101.5,13.6z M48.1-31h-4.3c-16.4,0-27.1-10-27.1-25c0-2.1,0.2-4,0.6-5.9L48.1-31z M29.6-77.9c3.9-1.9,8.5-3,13.7-3h46.8c3.5,0,5.8,2.1,5.8,5.5c0,3.5-2.2,5.7-5.8,5.7h-7.5v44.8L71.5-36v-33.6h-10V-46L29.6-77.9z M61.5-17.7V7c0,3.6-2.2,5.8-5.6,5.8c-3.5,0-5.6-2.2-5.6-5.8v-35.8L61.5-17.7z M82.6,3.4V7c0,3.6-2.2,5.8-5.6,5.8c-3.5,0-5.6-2.2-5.6-5.8V-7.7L82.6,3.4z"/>
  </g>
  <g id="Regular-M" transform="translate(1392.4 1126)">
   <path d="M100.5,13.1c1.5,1.5,3.9,1.5,5.3,0c1.5-1.5,1.5-3.9,0-5.3L14.4-83.6c-1.5-1.5-3.9-1.5-5.4,0c-1.4,1.4-1.4,3.9,0,5.3L100.5,13.1z"/>
   <path d="M47.7-31.4h-3.7c-15.7,0-26.1-9.7-26.1-24.4c0-1.7,0.1-3.3,0.4-4.9L47.7-31.4z"/>
   <path d="M80.5,1.4v5c0,2.7-1.8,4.5-4.6,4.5c-2.7,0-4.4-1.8-4.4-4.5v-14L80.5,1.4z"/>
   <path d="M29.5-76.8c3.9-2.2,8.8-3.4,14.2-3.4h45.1c2.8,0,4.5,1.7,4.5,4.4s-1.8,4.6-4.5,4.6h-8.3v45.4l-9-9v-36.4H60.9v25.8L29.5-76.8z"/>
   <path d="M60.9-18.2V6.4c0,2.7-1.8,4.5-4.5,4.5c-2.8,0-4.5-1.8-4.5-4.5v-33.6L60.9-18.2z"/>
  </g>
  <g id="Light-M" transform="translate(1096.47 1126)">
   <path d="M100,12.2c1.2,1.1,3,1.1,4.2,0c1.2-1.2,1.1-3,0-4.2L13.4-82.6c-1.1-1.1-2.9-1.2-4.2,0c-1.1,1.1-1.1,3,0,4.1L100,12.2z M28.2-75.3c4.4-3.1,10.1-4.9,16.9-4.9h42.1c2.1,0,3.4,1.3,3.4,3.4c0,2.1-1.3,3.4-3.4,3.4h-8.5v48.6l-6.8-6.8v-41.7H60.2v30.1L28.2-75.3z M78.7-1.5v8.6c0,2.1-1.4,3.4-3.5,3.4c-2.1,0-3.4-1.3-3.4-3.4V-8.4L78.7-1.5z M48.2-32h-3C29.3-32,19-41.5,19-56.1c0-1.7,0.1-3.2,0.4-4.8L48.2-32z M60.2-20V7.1c0,2.1-1.4,3.4-3.4,3.4s-3.4-1.3-3.4-3.4v-33.9L60.2-20z"/>
  </g>
  <g id="Thin-M" transform="translate(800.758 1126)">
   <path d="M99.2,10.9c0.7,0.7,1.9,0.7,2.5,0c0.8-0.7,0.7-1.9,0-2.5L12.1-81.2c-0.6-0.7-1.8-0.8-2.5,0c-0.7,0.7-0.7,1.9,0,2.5L99.2,10.9z M49-32.7h-2.2c-16.1,0-26.4-9.3-26.4-23.7c0-1.6,0.1-3.1,0.4-4.5L49-32.7z M26.9-73c4.6-4.6,11.4-7.1,19.9-7.1h38.3c1.2,0,2,0.7,2,1.9s-0.8,2-2,2h-8.8v52.7l-3.9-3.9v-48.8h-13v35.7L26.9-73z M59.4-22.4V8c0,1.2-0.8,2-2,2s-1.9-0.7-1.9-2v-34.3L59.4-22.4z M76.3-5.4V8c0,1.2-0.8,2-2,2c-1.2,0-2-0.7-2-2V-9.4L76.3-5.4z"/>
  </g>
  <g id="Ultralight-M" transform="translate(504.56 1126)">
   <path d="M98.8,10.3c0.5,0.5,1.3,0.5,1.8,0c0.6-0.5,0.5-1.3,0-1.8L11.5-80.6c-0.4-0.4-1.1-0.5-1.8,0c-0.5,0.5-0.5,1.3,0,1.7L98.8,10.3z M26.4-71.7c4.6-5.4,11.9-8.5,21.3-8.5h36.4c0.8,0,1.3,0.4,1.3,1.2c0,0.7-0.5,1.2-1.3,1.2h-9V-23l-2.4-2.4v-52.4H58.9v38.6L26.4-71.7z M49.4-33.1h-1.7c-16.2,0-26.5-9.2-26.5-23.5c0-1.5,0.1-2.9,0.3-4.3L49.4-33.1z M75-7.4V8.4c0,0.8-0.5,1.3-1.2,1.3c-0.7,0-1.2-0.5-1.2-1.3V-9.8L75-7.4z M58.9-23.6v32c0,0.8-0.5,1.3-1.2,1.3c-0.7,0-1.2-0.5-1.2-1.3v-34.4L58.9-23.6z"/>
  </g>
  <g id="Black-S" transform="translate(2885.5 696)">
   <path d="M82.8,4.6c1.4,1.3,3.6,1.4,4.9,0c1.3-1.4,1.4-3.6,0-4.9L13-75c-1.4-1.4-3.6-1.4-5,0c-1.3,1.3-1.3,3.6,0,4.9L82.8,4.6z M24-72.2c2.5-0.7,5.3-1.2,8.4-1.2h42.8c5.5,0,8.8,3,8.8,8.1c0,5.1-3.3,8.2-8.8,8.2h-3.1v33L55.9-40.3v-16.7h-5.6v11.2L24-72.2z M50.3-19.7V0c0,5.5-3,8.8-8.2,8.8C37.1,8.8,34,5.5,34,0v-30.5h-0.2c-15,0-25-8.6-25-21.6c0-2.8,0.5-5.3,1.3-7.6L50.3-19.7z M72,2c-0.7,4.3-3.5,6.8-8,6.8c-5.1,0-8.2-3.3-8.2-8.8v-14.1L72,2z"/>
  </g>
  <g id="Heavy-S" transform="translate(2589.4 696)">
   <path d="M81.9,4.2c1.4,1.3,3.6,1.4,4.9,0c1.3-1.4,1.4-3.5,0-4.9L12.7-74.7c-1.4-1.4-3.6-1.4-4.9,0c-1.3,1.3-1.3,3.6,0,4.9L81.9,4.2z M23.9-71.3c2.6-0.8,5.5-1.3,8.7-1.3H74c4.8,0,7.7,2.7,7.7,7.1c0,4.5-2.9,7.2-7.7,7.2h-3.8V-25L55.8-39.4v-18.9h-6.1v12.8L23.9-71.3z M70.1,0.4C69.8,4.5,67.1,7,63,7c-4.5,0-7.2-2.9-7.2-7.7v-13.2L70.1,0.4z M49.7-20v19.3C49.7,4.1,47,7,42.6,7s-7.2-2.9-7.2-7.7v-30.2h-1.6c-14.4,0-23.9-8.4-23.9-21c0-2.4,0.4-4.7,1-6.8L49.7-20z"/>
  </g>
  <g id="Bold-S" transform="translate(2293.35 696)">
   <path d="M81,3.9c1.3,1.3,3.5,1.3,4.8,0c1.3-1.4,1.3-3.5,0-4.8L12.4-74.4c-1.3-1.3-3.6-1.3-4.9,0c-1.3,1.3-1.3,3.6,0,4.8L81,3.9z M68-1.4c0,4-2.3,6.4-6.1,6.4c-3.8,0-6.1-2.4-6.1-6.4v-12.2L68-1.4z M23.9-70.4c2.7-1,5.8-1.5,9.1-1.5h39.7c4,0,6.4,2.3,6.4,6.1s-2.4,6.1-6.4,6.1H68v33.6L55.8-38.4v-21.4h-6.7v14.7L23.9-70.4z M49.1-20.3v18.9c0,4-2.3,6.4-6.2,6.4c-3.8,0-6.1-2.4-6.1-6.4v-29.8h-3.1c-13.6,0-22.7-8.2-22.7-20.4c0-2.1,0.3-4,0.8-5.9L49.1-20.3z"/>
  </g>
  <g id="Semibold-S" transform="translate(1997.1 696)">
   <path d="M80.2,3.6c1.4,1.3,3.6,1.3,4.8,0c1.3-1.4,1.3-3.5,0-4.8L12.1-74.1c-1.3-1.3-3.5-1.3-4.8,0c-1.3,1.3-1.3,3.5,0,4.8L80.2,3.6z M37.8-31.5h-4c-13.1,0-21.8-8-21.8-20c0-1.8,0.2-3.6,0.6-5.2L37.8-31.5z M23.8-69.7c2.8-1.1,5.9-1.7,9.4-1.7h38.7c3.5,0,5.6,2.1,5.6,5.3c0,3.3-2.1,5.4-5.6,5.4h-5.3v33.7L55.8-37.6v-23h-7.1v15.9L23.8-69.7z M66.5-2.9V-2c0,3.4-2.1,5.6-5.4,5.6S55.8,1.4,55.8-2v-11.5L66.5-2.9z M48.8-20.6V-2c0,3.4-2.1,5.6-5.4,5.6S38,1.4,38-2v-29.3L48.8-20.6z"/>
  </g>
  <g id="Medium-S" transform="translate(1700.73 696)">
   <path d="M79.7,3.4c1.3,1.3,3.5,1.4,4.8,0c1.3-1.3,1.3-3.4,0-4.7L11.9-73.9c-1.3-1.3-3.5-1.3-4.8,0c-1.3,1.3-1.3,3.5,0,4.8L79.7,3.4z M23.8-69.1c2.8-1.2,6-1.9,9.6-1.9h37.8c3,0,4.9,1.9,4.9,4.8c0,3-1.9,4.8-4.9,4.8h-5.8v33.9l-9.6-9.6v-24.3h-7.4v16.9L23.8-69.1z M37.5-31.7h-3.7c-12.7,0-21.2-7.9-21.2-19.7c0-1.6,0.2-3.2,0.5-4.7L37.5-31.7z M65.4-3.8v1.4c0,3-1.9,4.9-4.8,4.9c-2.9,0-4.7-1.9-4.7-4.9v-10.9L65.4-3.8z M48.4-20.8v18.3c0,3-1.9,4.9-4.8,4.9c-2.9,0-4.7-1.9-4.7-4.9v-27.9L48.4-20.8z"/>
  </g>
  <g id="Regular-S" transform="translate(1404.48 696)">
   <path d="M79.1,3.1c1.3,1.3,3.5,1.3,4.7,0c1.3-1.3,1.3-3.4,0-4.7L11.7-73.7c-1.3-1.3-3.5-1.3-4.8,0c-1.3,1.3-1.3,3.5,0,4.7L79.1,3.1z"/>
   <path d="M23.8-68.4c2.8-1.3,6.1-2,9.8-2h36.7c2.5,0,4.1,1.6,4.1,4.1c0,2.4-1.6,4.1-4.1,4.1H64v34.1l-8.2-8.2v-25.9H48v18.1L23.8-68.4z"/>
   <path d="M37-32h-3.2c-12.2,0-20.4-7.7-20.4-19.2c0-1.4,0.1-2.7,0.3-4L37-32z"/>
   <path d="M64-5.1V-3c0,2.5-1.7,4.1-4.2,4.1c-2.5,0-4-1.6-4-4.1v-10.3L64-5.1z"/>
   <path d="M48-21V-3c0,2.5-1.6,4.1-4.1,4.1c-2.5,0-4.1-1.6-4.1-4.1v-26.2L48-21z"/>
  </g>
  <g id="Light-S" transform="translate(1108.43 696)">
   <path d="M78.6,2.3c1,1,2.7,1,3.7,0c1-1,1-2.7,0-3.7L10.8-72.8c-1-1-2.6-1-3.7,0c-1,1-1,2.7,0,3.7L78.6,2.3z M37.6-32.5h-2.6c-12.4,0-20.5-7.5-20.5-19c0-1.3,0.1-2.6,0.3-3.8L37.6-32.5z M22.6-67.2c3.3-2.1,7.4-3.2,12.2-3.2h34.1c1.9,0,3.1,1.2,3.1,3.1c0,1.9-1.2,3.1-3.1,3.1h-6.6v36.8l-6.2-6.2v-30.6h-8.7v21.9L22.6-67.2z M62.3-7.7v5.4c0,1.9-1.2,3.1-3.1,3.1c-1.9,0-3.1-1.2-3.1-3.1v-11.6L62.3-7.7z M47.4-22.6v20.3c0,1.9-1.3,3.1-3.1,3.1c-1.9,0-3.1-1.2-3.1-3.1v-26.5L47.4-22.6z"/>
  </g>
  <g id="Thin-S" transform="translate(812.599 696)">
   <path d="M77.9,1.2c0.6,0.6,1.7,0.6,2.3,0c0.7-0.6,0.6-1.7,0-2.3L9.8-71.6c-0.6-0.6-1.6-0.6-2.3,0c-0.6,0.6-0.6,1.7,0,2.3L77.9,1.2z M38.3-33.1h-1.9c-12.5,0-20.7-7.3-20.7-18.7c0-1.2,0.1-2.4,0.3-3.6L38.3-33.1z M21.3-65.3c3.6-3.3,8.8-5.1,15.1-5.1h30.8c1.1,0,1.8,0.7,1.8,1.8c0,1.1-0.7,1.8-1.8,1.8h-6.9v40.5L56.6-30v-36.9h-10v26.9L21.3-65.3z M46.7-24.7v23.1c0,1.1-0.7,1.9-1.8,1.9s-1.8-0.7-1.8-1.9v-26.8L46.7-24.7z M60.3-11.1v9.6c0,1.1-0.7,1.9-1.8,1.9c-1.1,0-1.8-0.7-1.8-1.9v-13.2L60.3-11.1z"/>
  </g>
  <g id="Ultralight-S" transform="translate(516.327 696)">
   <path d="M77.5,0.6c0.4,0.4,1.1,0.4,1.6,0c0.5-0.5,0.4-1.2,0-1.6l-69.9-70c-0.4-0.4-1.1-0.5-1.6,0c-0.4,0.4-0.4,1.2,0,1.6L77.5,0.6z M59.1-13v11.9C59.1-0.4,58.7,0,58,0c-0.7,0-1.1-0.4-1.1-1.2v-14.1L59.1-13z M20.8-64.2c3.6-4,9.2-6.3,16.3-6.3h29.1c0.7,0,1.2,0.4,1.2,1.1s-0.5,1.1-1.2,1.1h-7.1v42.3l-2.2-2.2v-40.1H46.3v29.5L20.8-64.2z M38.6-33.4h-1.4c-12.7,0-20.8-7.2-20.8-18.5c0-1.2,0.1-2.3,0.3-3.4L38.6-33.4z M46.3-25.8v24.7c0,0.7-0.4,1.2-1.1,1.2C44.5,0,44-0.4,44-1.1v-26.9L46.3-25.8z"/>
  </g>
 </g>
</svg>
