<?xml version="1.0" encoding="utf-8"?>
<!DOCTYPE svg
PUBLIC "-//W3C//DTD SVG 1.1//EN"
       "http://www.w3.org/Graphics/SVG/1.1/DTD/svg11.dtd">
<svg version="1.1" xmlns="http://www.w3.org/2000/svg" xmlns:xlink="http://www.w3.org/1999/xlink" width="3300" height="2200">
 <!--glyph: "uni10068C.medium", point size: 100.0, font version: "18.0d12e2", template writer version: "101"-->
 
 <g id="Notes">
  <style>
   text { font-family: -apple-system, sans-serif; }
   .separator { fill: none; stroke: black; stroke-width: 0.5; }
  </style>
  
  <rect height="2200" id="artboard" style="fill:white" width="3300"/>
  
  <g title="header" transform="translate(263 292)">
   <line class="separator" x1="0" x2="2773"/>
   
   <g transform="translate(0 30)">
    <text style="font-weight:bold;">Weight/Scale Variations</text>
    
    <g style="text-anchor:middle;">
     <text x="296.711">Ultralight</text>
     <text x="593.422">Thin</text>
     <text x="890.13">Light</text>
     <text x="1186.84">Regular</text>
     <text x="1483.56">Medium</text>
     <text x="1780.27">Semibold</text>
     <text x="2076.98">Bold</text>
     <text x="2373.69">Heavy</text>
     <text x="2670.4">Black</text>
    </g>
   </g>
  </g>
  
  <g title="footer" transform="translate(263 1903)">
   <line class="separator" x1="0" x2="2773"/>
   
   <g transform="translate(2773 0)" style="text-anchor:end;">
    <text id="template-version" y="30">Template v.3.0</text>
    <text y="48">Requires Xcode 13 or greater</text>
    <text y="66">Generated from text.leftalign</text>
    <text y="84">Typeset at 100 points</text>
   </g>
  </g>
  
  <g transform="translate(263 0)">
   <text y="726">Small</text>
   <text y="1156">Medium</text>
   <text y="1586">Large</text>
  </g>
 </g>
 
 <g id="Guides">
  <style>
   #H-reference      { fill:#27AAE1; stroke:none; }
   [id^="Baseline"],
   [id^="Capline"]   { fill:none; stroke:#27AAE1; stroke-width:0.5; }
   [id$="-margin"]   { fill:none; stroke:#00AEEF; stroke-width:0.5; }
  </style>
  
  <g id="H-reference" transform="matrix(1 0 0 1 339 696)">
   <path d="M0.993654 0L3.63775 0L29.3281-67.1323L30.0303-67.1323L30.0303-70.459L28.1226-70.459ZM11.6885-24.4799L46.9815-24.4799L46.2315-26.7285L12.4385-26.7285ZM55.1196 0L57.7637 0L30.6382-70.459L29.4326-70.459L29.4326-67.1323Z"/>
  </g>
  <line id="Baseline-S" x1="263" x2="3036" y1="696" y2="696"/>
  <line id="Capline-S" x1="263" x2="3036" y1="625.541" y2="625.541"/>
  <g id="H-reference" transform="matrix(1 0 0 1 339 1126)">
   <path d="M0.993654 0L3.63775 0L29.3281-67.1323L30.0303-67.1323L30.0303-70.459L28.1226-70.459ZM11.6885-24.4799L46.9815-24.4799L46.2315-26.7285L12.4385-26.7285ZM55.1196 0L57.7637 0L30.6382-70.459L29.4326-70.459L29.4326-67.1323Z"/>
  </g>
  <line id="Baseline-M" x1="263" x2="3036" y1="1126" y2="1126"/>
  <line id="Capline-M" x1="263" x2="3036" y1="1055.54" y2="1055.54"/>
  <g id="H-reference" transform="matrix(1 0 0 1 339 1556)">
   <path d="M0.993654 0L3.63775 0L29.3281-67.1323L30.0303-67.1323L30.0303-70.459L28.1226-70.459ZM11.6885-24.4799L46.9815-24.4799L46.2315-26.7285L12.4385-26.7285ZM55.1196 0L57.7637 0L30.6382-70.459L29.4326-70.459L29.4326-67.1323Z"/>
  </g>
  <line id="Baseline-L" x1="263" x2="3036" y1="1556" y2="1556"/>
  <line id="Capline-L" x1="263" x2="3036" y1="1485.54" y2="1485.54"/>
  <line id="left-margin-Ultralight-S" x1="514.269" x2="514.269" y1="600.785" y2="720.121"/>
  <line id="right-margin-Ultralight-S" x1="605.153" x2="605.153" y1="600.785" y2="720.121"/>
  <line id="left-margin-Regular-S" x1="1402.36" x2="1402.36" y1="600.785" y2="720.121"/>
  <line id="right-margin-Regular-S" x1="1497.33" x2="1497.33" y1="600.785" y2="720.121"/>
  <line id="left-margin-Black-S" x1="2882.77" x2="2882.77" y1="600.785" y2="720.121"/>
  <line id="right-margin-Black-S" x1="2984.03" x2="2984.03" y1="600.785" y2="720.121"/>
 </g>
 
 <g id="Symbols">
  <g id="Black-S" transform="translate(2879.69 696)">
   <path d="M78.03-73.63V2.83c0,3.17,2.54,5.71,5.71,5.71c3.17,0,5.71-2.54,5.71-5.71v-76.46c0-3.17-2.54-5.71-5.71-5.71C80.57-79.35,78.03-76.81,78.03-73.63z M58.01-73.63v42.29c0,3.17,2.54,5.71,5.71,5.71c3.17,0,5.71-2.54,5.71-5.71v-42.29c0-3.17-2.54-5.71-5.71-5.71C60.55-79.35,58.01-76.81,58.01-73.63z M37.99-73.63V2.83c0,3.17,2.54,5.71,5.71,5.71c3.17,0,5.71-2.54,5.71-5.71v-76.46c0-3.17-2.54-5.71-5.71-5.71C40.53-79.35,37.99-76.81,37.99-73.63z M17.97-73.63v42.29c0,3.17,2.54,5.71,5.71,5.71c3.17,0,5.71-2.54,5.71-5.71v-42.29c0-3.17-2.54-5.71-5.71-5.71C20.51-79.35,17.97-76.81,17.97-73.63z"/>
  </g>
  <g id="Regular-S" transform="translate(1401.14 696)">
   <path d="M75.49-71.04V0.2c0,1.86,1.42,3.37,3.27,3.37c1.86,0,3.27-1.51,3.27-3.37v-71.24c0-1.81-1.42-3.27-3.27-3.27C76.9-74.32,75.49-72.85,75.49-71.04z M55.42-71.04v42.24c0,1.81,1.46,3.32,3.32,3.32c1.81,0,3.27-1.51,3.27-3.32v-42.24c0-1.81-1.46-3.27-3.27-3.27C56.88-74.32,55.42-72.85,55.42-71.04z M35.4-71.04V0.2c0,1.86,1.46,3.37,3.32,3.37c1.81,0,3.27-1.51,3.27-3.37v-71.24c0-1.81-1.46-3.27-3.27-3.27C36.87-74.32,35.4-72.85,35.4-71.04z M15.38-71.04v42.24c0,1.81,1.46,3.32,3.32,3.32c1.81,0,3.27-1.51,3.27-3.32v-42.24c0-1.81-1.46-3.27-3.27-3.27C16.85-74.32,15.38-72.85,15.38-71.04z"/>
  </g>
  <g id="Ultralight-S" transform="translate(513.202 696)">
   <path d="M75.61-70.87V0.41c0,0.68,0.44,1.12,1.07,1.12c0.63,0,1.07-0.44,1.07-1.12v-71.29c0-0.63-0.44-1.07-1.07-1.07C76.05-71.95,75.61-71.51,75.61-70.87z M55.49-70.87v46.68c0,0.63,0.44,1.07,1.07,1.07c0.63,0,1.07-0.44,1.07-1.07v-46.68c0-0.63-0.44-1.07-1.07-1.07C55.93-71.95,55.49-71.51,55.49-70.87z M35.38-70.87V0.41c0,0.68,0.44,1.12,1.07,1.12c0.63,0,1.12-0.44,1.12-1.12v-71.29c0-0.63-0.49-1.07-1.12-1.07C35.82-71.95,35.38-71.51,35.38-70.87z M15.26-70.87v46.68c0,0.63,0.44,1.07,1.07,1.07c0.68,0,1.12-0.44,1.12-1.07v-46.68c0-0.63-0.44-1.07-1.12-1.07C15.7-71.95,15.26-71.51,15.26-70.87z"/>
  </g>
 </g>
</svg>
