<?xml version="1.0" encoding="utf-8"?>
<!DOCTYPE svg
PUBLIC "-//W3C//DTD SVG 1.1//EN"
       "http://www.w3.org/Graphics/SVG/1.1/DTD/svg11.dtd">
<svg version="1.1" xmlns="http://www.w3.org/2000/svg" xmlns:xlink="http://www.w3.org/1999/xlink" width="3300" height="2200">
 
 <g id="Notes">
  <style>
   text { fill: black; stroke: none;
          font-family: -apple-system,&quot;SF Pro Display&quot;,&quot;SF Pro Text&quot;,Helvetica,sans-serif; }
   .separator { fill: none; stroke: black; stroke-width: 0.5; }
  </style>
  
  <rect height="2200" id="artboard" style="fill:white" width="3300"/>
  
  <g title="header" transform="translate(263 292)">
   <line class="separator" x1="0" x2="2773"/>
   
   <g transform="translate(0 30)">
    <text style="font-weight:bold;">Weight/Scale Variations</text>
    
    <g style="text-anchor:middle;">
     <text x="296.711">Ultralight</text>
     <text x="593.422">Thin</text>
     <text x="890.13">Light</text>
     <text x="1186.84">Regular</text>
     <text x="1483.56">Medium</text>
     <text x="1780.27">Semibold</text>
     <text x="2076.98">Bold</text>
     <text x="2373.69">Heavy</text>
     <text x="2670.4">Black</text>
    </g>
   </g>
  </g>
  
  <g title="footer" transform="translate(263 1903)">
   <line class="separator" x1="0" x2="2773"/>
   
   <g transform="translate(2773 0)" style="text-anchor:end;">
    <text id="template-version" y="30">Template v.2.0</text>
    <text y="48">Requires Xcode 12 or greater</text>
    <text y="66">Generated from text.leftalign</text>
    <text y="84">Typeset at 100 points</text>
   </g>
  </g>
  
  <g transform="translate(263 0)">
   <text y="726">Small</text>
   <text y="1156">Medium</text>
   <text y="1586">Large</text>
  </g>
 </g>
 
 <g id="Guides">
  <style>
   #H-reference      { fill:#27AAE1; stroke:none; }
   [id^="Baseline"],
   [id^="Capline"]   { fill:none; stroke:#27AAE1; stroke-width:0.5; }
   [id$="-margin"]   { fill:none; stroke:#00AEEF; stroke-width:0.5; }
  </style>
  
  <g id="H-reference" transform="translate(339 696)">
   <path d="M1,0h2.7L13-24.5h32.7L55.1,0h2.6L30.6-70.5h-2.5L1,0z M29.3-67.1L29.3-67.1l15.6,40.4h-31L29.3-67.1z"/>
  </g>
  <line id="Baseline-S" x1="263" y1="696" x2="3036" y2="696"/>
  <line id="Capline-S" x1="263" y1="625.5" x2="3036" y2="625.5"/>
  <g id="H-reference" transform="translate(339 1126)">
   <path class="st6" d="M1,0h2.7L13-24.5h32.7L55.1,0h2.6L30.6-70.5h-2.5L1,0z M29.3-67.1L29.3-67.1l15.6,40.4h-31L29.3-67.1z"/>
  </g>
  <line id="Baseline-M" x1="263" y1="1126" x2="3036" y2="1126"/>
  <line id="Capline-M" x1="263" y1="1055.5" x2="3036" y2="1055.5"/>
  <g id="H-reference" transform="translate(339 1556)">
   <path d="M1,0h2.7L13-24.5h32.7L55.1,0h2.6L30.6-70.5h-2.5L1,0z M29.3-67.1L29.3-67.1l15.6,40.4h-31L29.3-67.1z"/>
  </g>
  <line id="Baseline-L" x1="263" y1="1556" x2="3036" y2="1556"/>
  <line id="Capline-L" x1="263" y1="1485.5" x2="3036" y2="1485.5"/>
  <line id="left-margin" x1="1388.2" y1="1030.8" x2="1388.2" y2="1150.1"/>
  <line id="right-margin" x1="1511.5" y1="1030.8" x2="1511.5" y2="1150.1"/>
 </g>
 
 <g id="Symbols">
  <g id="Black-L" transform="translate(2847.17 1556)">
   <path d="M127.32-97.29V26.25c0,4.69,3.71,8.4,8.35,8.4c4.69,0,8.4-3.71,8.4-8.4V-97.29c0-4.69-3.71-8.4-8.4-8.4C131.03-105.69,127.32-101.98,127.32-97.29z M94.31-97.29v69.48c0,4.64,3.76,8.4,8.4,8.4c4.64,0,8.35-3.76,8.35-8.4v-69.48c0-4.69-3.71-8.4-8.35-8.4C98.07-105.69,94.31-101.98,94.31-97.29z M61.35-97.29V26.25c0,4.69,3.71,8.4,8.4,8.4c4.64,0,8.35-3.71,8.35-8.4V-97.29c0-4.69-3.71-8.4-8.35-8.4C65.06-105.69,61.35-101.98,61.35-97.29z M28.39-97.29v69.48c0,4.64,3.71,8.4,8.35,8.4c4.69,0,8.4-3.76,8.4-8.4v-69.48c0-4.69-3.71-8.4-8.4-8.4C32.1-105.69,28.39-101.98,28.39-97.29z"/>
  </g>
  <g id="Heavy-L" transform="translate(2552.19 1556)">
   <path d="M126.59-96.56V25.56c0,4.1,3.27,7.37,7.37,7.37c4.1,0,7.37-3.27,7.37-7.37V-96.56c0-4.1-3.27-7.37-7.37-7.37C129.86-103.93,126.59-100.66,126.59-96.56z M93.63-96.56v70.12c0,4.1,3.27,7.37,7.32,7.37c4.1,0,7.37-3.27,7.37-7.37v-70.12c0-4.1-3.27-7.37-7.37-7.37C96.9-103.93,93.63-100.66,93.63-96.56z M60.62-96.56V25.56c0,4.1,3.27,7.37,7.37,7.37c4.1,0,7.37-3.27,7.37-7.37V-96.56c0-4.1-3.27-7.37-7.37-7.37C63.89-103.93,60.62-100.66,60.62-96.56z M27.66-96.56v70.12c0,4.1,3.22,7.37,7.32,7.37c4.1,0,7.37-3.27,7.37-7.37v-70.12c0-4.1-3.27-7.37-7.37-7.37C30.88-103.93,27.66-100.66,27.66-96.56z"/>
  </g>
  <g id="Bold-L" transform="translate(2257.43 1556)">
   <path d="M125.81-95.68V24.78c0,3.47,2.78,6.25,6.25,6.25s6.2-2.78,6.2-6.25V-95.68c0-3.52-2.73-6.25-6.2-6.25S125.81-99.19,125.81-95.68z M92.8-95.68v70.85c0,3.47,2.78,6.25,6.25,6.25s6.2-2.78,6.2-6.25v-70.85c0-3.52-2.73-6.25-6.2-6.25S92.8-99.19,92.8-95.68z M59.84-95.68V24.78c0,3.47,2.73,6.25,6.2,6.25c3.47,0,6.25-2.78,6.25-6.25V-95.68c0-3.52-2.78-6.25-6.25-6.25C62.57-101.93,59.84-99.19,59.84-95.68z M26.83-95.68v70.85c0,3.47,2.73,6.25,6.2,6.25s6.25-2.78,6.25-6.25v-70.85c0-3.52-2.78-6.25-6.25-6.25S26.83-99.19,26.83-95.68z"/>
  </g>
  <g id="Semibold-L" transform="translate(1962.07 1556)">
   <path d="M125.27-95.09V24.24c0,3.03,2.39,5.47,5.47,5.47c3.03,0,5.42-2.44,5.42-5.47V-95.09c0-3.08-2.39-5.47-5.42-5.47C127.66-100.56,125.27-98.17,125.27-95.09z M92.26-95.09v71.34c0,3.03,2.39,5.47,5.47,5.47c3.03,0,5.42-2.44,5.42-5.47v-71.34c0-3.08-2.39-5.47-5.42-5.47C94.65-100.56,92.26-98.17,92.26-95.09z M59.25-95.09V24.24c0,3.03,2.39,5.47,5.42,5.47c3.08,0,5.47-2.44,5.47-5.47V-95.09c0-3.08-2.39-5.47-5.47-5.47C61.65-100.56,59.25-98.17,59.25-95.09z M26.25-95.09v71.34c0,3.03,2.39,5.47,5.42,5.47c3.08,0,5.47-2.44,5.47-5.47v-71.34c0-3.08-2.39-5.47-5.47-5.47C28.64-100.56,26.25-98.17,26.25-95.09z"/>
  </g>
  <g id="Medium-L" transform="translate(1666.38 1556)">
   <path d="M124.85-94.68V23.83c0,2.74,2.15,4.88,4.88,4.88c2.69,0,4.83-2.15,4.83-4.88V-94.68c0-2.69-2.15-4.83-4.83-4.83C127-99.51,124.85-97.36,124.85-94.68z M91.85-94.68v71.73c0,2.73,2.15,4.93,4.83,4.93c2.73,0,4.88-2.2,4.88-4.93v-71.73c0-2.69-2.15-4.83-4.88-4.83C93.99-99.51,91.85-97.36,91.85-94.68z M58.84-94.68V23.83c0,2.74,2.1,4.88,4.83,4.88c2.73,0,4.83-2.15,4.83-4.88V-94.68c0-2.69-2.1-4.83-4.83-4.83C60.94-99.51,58.84-97.36,58.84-94.68z M25.78-94.68v71.73c0,2.73,2.15,4.93,4.88,4.93c2.69,0,4.83-2.2,4.83-4.93v-71.73c0-2.69-2.15-4.83-4.83-4.83C27.93-99.51,25.78-97.36,25.78-94.68z"/>
  </g>
  <g id="Regular-L" transform="translate(1370.99 1556)">
   <path d="M124.34-94.07V23.27c0,2.29,1.76,4.15,4.1,4.15c2.29,0,4.05-1.85,4.05-4.15V-94.07c0-2.34-1.76-4.1-4.05-4.1C126.1-98.17,124.34-96.41,124.34-94.07z M91.28-94.07v72.17c0,2.34,1.81,4.15,4.1,4.15s4.1-1.81,4.1-4.15v-72.17c0-2.34-1.81-4.1-4.1-4.1S91.28-96.41,91.28-94.07z M58.28-94.07V23.27c0,2.29,1.76,4.15,4.05,4.15c2.34,0,4.1-1.85,4.1-4.15V-94.07c0-2.34-1.76-4.1-4.1-4.1C60.03-98.17,58.28-96.41,58.28-94.07z M25.22-94.07v72.17c0,2.34,1.81,4.15,4.1,4.15c2.3,0,4.05-1.81,4.05-4.15v-72.17c0-2.34-1.76-4.1-4.05-4.1C27.03-98.17,25.22-96.41,25.22-94.07z"/>
  </g>
  <g id="Light-L" transform="translate(1075.2 1556)">
   <path d="M124.39-94.02V23.36c0,1.76,1.32,3.17,3.12,3.17c1.81,0,3.17-1.42,3.17-3.17V-94.02c0-1.81-1.37-3.17-3.17-3.17C125.71-97.19,124.39-95.83,124.39-94.02z M91.28-94.02v74.07c0,1.81,1.37,3.17,3.17,3.17c1.81,0,3.12-1.37,3.12-3.17v-74.07c0-1.81-1.32-3.17-3.12-3.17C92.65-97.19,91.28-95.83,91.28-94.02z M58.23-94.02V23.36c0,1.76,1.37,3.17,3.17,3.17c1.76,0,3.12-1.42,3.12-3.17V-94.02c0-1.81-1.37-3.17-3.12-3.17C59.59-97.19,58.23-95.83,58.23-94.02z M25.17-94.02v74.07c0,1.81,1.32,3.17,3.13,3.17c1.81,0,3.17-1.37,3.17-3.17v-74.07c0-1.81-1.37-3.17-3.17-3.17C26.49-97.19,25.17-95.83,25.17-94.02z"/>
  </g>
  <g id="Thin-L" transform="translate(779.713 1556)">
   <path d="M124.46-93.9V23.49c0,1.12,0.78,1.95,1.95,1.95c1.12,0,1.9-0.83,1.9-1.95V-93.9c0-1.17-0.78-1.95-1.9-1.95C125.24-95.85,124.46-95.07,124.46-93.9z M91.36-93.9v76.51c0,1.17,0.78,1.95,1.9,1.95c1.17,0,1.95-0.78,1.95-1.95V-93.9c0-1.17-0.78-1.95-1.95-1.95C92.14-95.85,91.36-95.07,91.36-93.9z M58.2-93.9V23.49c0,1.12,0.83,1.95,1.95,1.95c1.12,0,1.95-0.83,1.95-1.95V-93.9c0-1.17-0.83-1.95-1.95-1.95C59.03-95.85,58.2-95.07,58.2-93.9z M25.1-93.9v76.51c0,1.17,0.78,1.95,1.95,1.95c1.12,0,1.9-0.78,1.9-1.95V-93.9c0-1.17-0.78-1.95-1.9-1.95C25.88-95.85,25.1-95.07,25.1-93.9z"/>
  </g>
  <g id="Ultralight-L" transform="translate(483.637 1556)">
   <path d="M124.51-93.85V23.54c0,0.83,0.49,1.32,1.27,1.32c0.83,0,1.32-0.49,1.32-1.32V-93.85c0-0.83-0.49-1.32-1.32-1.32C125-95.17,124.51-94.68,124.51-93.85z M91.36-93.85v77.78c0,0.83,0.49,1.32,1.32,1.32c0.78,0,1.27-0.49,1.27-1.32v-77.78c0-0.83-0.49-1.32-1.27-1.32C91.85-95.17,91.36-94.68,91.36-93.85z M58.2-93.85V23.54c0,0.83,0.49,1.32,1.32,1.32c0.78,0,1.32-0.49,1.32-1.32V-93.85c0-0.83-0.54-1.32-1.32-1.32C58.69-95.17,58.2-94.68,58.2-93.85z M25.05-93.85v77.78c0,0.83,0.54,1.32,1.32,1.32c0.78,0,1.32-0.49,1.32-1.32v-77.78c0-0.83-0.54-1.32-1.32-1.32C25.59-95.17,25.05-94.68,25.05-93.85z"/>
  </g>
  <g id="Black-M" transform="translate(2864.7 1126)">
   <path d="M99.66-84.33v97.75c0,4.1,3.27,7.37,7.37,7.37s7.37-3.27,7.37-7.37v-97.75c0-4.1-3.27-7.37-7.37-7.37S99.66-88.43,99.66-84.33z M74.12-84.33v53.96c0,4.1,3.27,7.37,7.37,7.37c4.05,0,7.32-3.27,7.32-7.37v-53.96c0-4.1-3.27-7.37-7.32-7.37C77.39-91.7,74.12-88.43,74.12-84.33z M48.54-84.33v97.75c0,4.1,3.32,7.37,7.37,7.37c4.1,0,7.37-3.27,7.37-7.37v-97.75c0-4.1-3.27-7.37-7.37-7.37C51.86-91.7,48.54-88.43,48.54-84.33z M23-84.33v53.96c0,4.1,3.27,7.37,7.37,7.37s7.37-3.27,7.37-7.37v-53.96c0-4.1-3.27-7.37-7.37-7.37S23-88.43,23-84.33z"/>
  </g>
  <g id="Heavy-M" transform="translate(2569.65 1126)">
   <path d="M98.9-83.52v96.14c0,3.61,2.88,6.54,6.49,6.54c3.61,0,6.49-2.93,6.49-6.54v-96.14c0-3.61-2.88-6.49-6.49-6.49C101.78-90.01,98.9-87.13,98.9-83.52z M73.32-83.52v54.2c0,3.61,2.88,6.49,6.49,6.49c3.61,0,6.49-2.88,6.49-6.49v-54.2c0-3.61-2.88-6.49-6.49-6.49C76.2-90.01,73.32-87.13,73.32-83.52z M47.78-83.52v96.14c0,3.61,2.88,6.54,6.49,6.54c3.61,0,6.49-2.93,6.49-6.54v-96.14c0-3.61-2.88-6.49-6.49-6.49C50.66-90.01,47.78-87.13,47.78-83.52z M22.19-83.52v54.2c0,3.61,2.93,6.49,6.54,6.49s6.49-2.88,6.49-6.49v-54.2c0-3.61-2.88-6.49-6.49-6.49S22.19-87.13,22.19-83.52z"/>
  </g>
  <g id="Bold-M" transform="translate(2274.82 1126)">
   <path d="M98-82.62v94.39c0,3.08,2.44,5.52,5.52,5.52c3.08,0,5.52-2.44,5.52-5.52v-94.39c0-3.08-2.44-5.52-5.52-5.52C100.44-88.13,98-85.69,98-82.62z M72.41-82.62v54.44c0,3.08,2.44,5.57,5.52,5.57c3.08,0,5.52-2.49,5.52-5.57v-54.44c0-3.08-2.44-5.52-5.52-5.52C74.85-88.13,72.41-85.69,72.41-82.62z M46.83-82.62v94.39c0,3.08,2.49,5.52,5.57,5.52c3.08,0,5.52-2.44,5.52-5.52v-94.39c0-3.08-2.44-5.52-5.52-5.52C49.32-88.13,46.83-85.69,46.83-82.62z M21.29-82.62v54.44c0,3.08,2.44,5.57,5.52,5.57c3.08,0,5.52-2.49,5.52-5.57v-54.44c0-3.08-2.44-5.52-5.52-5.52C23.73-88.13,21.29-85.69,21.29-82.62z"/>
  </g>
  <g id="Semibold-M" transform="translate(1979.38 1126)">
   <path d="M97.39-82.01v93.11c0,2.74,2.15,4.93,4.88,4.93c2.69,0,4.83-2.2,4.83-4.93v-93.11c0-2.69-2.15-4.83-4.83-4.83C99.54-86.84,97.39-84.69,97.39-82.01z M71.85-82.01v54.64c0,2.69,2.15,4.88,4.83,4.88c2.73,0,4.88-2.2,4.88-4.88v-54.64c0-2.69-2.15-4.83-4.88-4.83C74-86.84,71.85-84.69,71.85-82.01z M46.26-82.01v93.11c0,2.74,2.15,4.93,4.83,4.93c2.73,0,4.88-2.2,4.88-4.93v-93.11c0-2.69-2.15-4.83-4.88-4.83C48.41-86.84,46.26-84.69,46.26-82.01z M20.68-82.01v54.64c0,2.69,2.15,4.88,4.88,4.88c2.69,0,4.83-2.2,4.83-4.88v-54.64c0-2.69-2.15-4.83-4.83-4.83C22.83-86.84,20.68-84.69,20.68-82.01z"/>
  </g>
  <g id="Medium-M" transform="translate(1683.64 1126)">
   <path d="M96.95-81.52v92.19c0,2.44,1.9,4.39,4.35,4.39c2.39,0,4.35-1.95,4.35-4.39v-92.19c0-2.44-1.95-4.35-4.35-4.35C98.85-85.86,96.95-83.96,96.95-81.52z M71.36-81.52v54.74c0,2.44,1.9,4.39,4.35,4.39s4.35-1.95,4.35-4.39v-54.74c0-2.44-1.9-4.35-4.35-4.35S71.36-83.96,71.36-81.52z M45.78-81.52v92.19c0,2.44,1.9,4.39,4.35,4.39s4.35-1.95,4.35-4.39v-92.19c0-2.44-1.9-4.35-4.35-4.35S45.78-83.96,45.78-81.52z M20.19-81.52v54.74c0,2.44,1.95,4.39,4.35,4.39c2.44,0,4.35-1.95,4.35-4.39v-54.74c0-2.44-1.9-4.35-4.35-4.35C22.14-85.86,20.19-83.96,20.19-81.52z"/>
  </g>
  <g id="Regular-M" transform="translate(1388.2 1126)">
   <path d="M96.31-80.93v90.97c0,2.05,1.61,3.76,3.71,3.76c2.05,0,3.66-1.71,3.66-3.76v-90.97c0-2.05-1.61-3.66-3.66-3.66C97.92-84.59,96.31-82.98,96.31-80.93z M70.73-80.93V-26c0,2.05,1.61,3.71,3.71,3.71c2.05,0,3.66-1.66,3.66-3.71v-54.93c0-2.05-1.61-3.66-3.66-3.66C72.34-84.59,70.73-82.98,70.73-80.93z M45.14-80.93v90.97c0,2.05,1.66,3.76,3.71,3.76c2.05,0,3.66-1.71,3.66-3.76v-90.97c0-2.05-1.61-3.66-3.66-3.66C46.8-84.59,45.14-82.98,45.14-80.93z M19.6-80.93V-26c0,2.05,1.61,3.71,3.66,3.71c2.05,0,3.71-1.66,3.71-3.71v-54.93c0-2.05-1.66-3.66-3.71-3.66C21.22-84.59,19.6-82.98,19.6-80.93z"/>
  </g>
  <g id="Light-M" transform="translate(1092.32 1126)">
   <path d="M96.39-80.81v90.92c0,1.66,1.22,2.93,2.83,2.93c1.61,0,2.88-1.27,2.88-2.93v-90.92c0-1.66-1.27-2.88-2.88-2.88C97.61-83.69,96.39-82.47,96.39-80.81z M70.75-80.81v56.54c0,1.61,1.27,2.88,2.88,2.88c1.61,0,2.83-1.27,2.83-2.88v-56.54c0-1.66-1.22-2.88-2.83-2.88C72.02-83.69,70.75-82.47,70.75-80.81z M45.17-80.81v90.92c0,1.66,1.22,2.93,2.83,2.93c1.61,0,2.88-1.27,2.88-2.93v-90.92c0-1.66-1.27-2.88-2.88-2.88C46.39-83.69,45.17-82.47,45.17-80.81z M19.53-80.81v56.54c0,1.61,1.27,2.88,2.88,2.88s2.83-1.27,2.83-2.88v-56.54c0-1.66-1.22-2.88-2.83-2.88S19.53-82.47,19.53-80.81z"/>
  </g>
  <g id="Thin-M" transform="translate(796.705 1126)">
   <path d="M96.46-80.74v90.97c0,1.02,0.73,1.81,1.76,1.81s1.76-0.78,1.76-1.81v-90.97c0-1.03-0.73-1.76-1.76-1.76S96.46-81.76,96.46-80.74z M70.78-80.74v58.79c0,1.03,0.73,1.76,1.76,1.76s1.81-0.73,1.81-1.76v-58.79c0-1.03-0.78-1.76-1.81-1.76S70.78-81.76,70.78-80.74z M45.14-80.74v90.97c0,1.02,0.73,1.81,1.76,1.81c1.03,0,1.76-0.78,1.76-1.81v-90.97c0-1.03-0.73-1.76-1.76-1.76C45.87-82.49,45.14-81.76,45.14-80.74z M19.46-80.74v58.79c0,1.03,0.78,1.76,1.81,1.76s1.76-0.73,1.76-1.76v-58.79c0-1.03-0.73-1.76-1.76-1.76S19.46-81.76,19.46-80.74z"/>
  </g>
  <g id="Ultralight-M" transform="translate(500.556 1126)">
   <path d="M96.48-80.66V10.3c0,0.73,0.49,1.22,1.22,1.22c0.68,0,1.17-0.49,1.17-1.22v-90.97c0-0.73-0.49-1.22-1.17-1.22C96.97-81.88,96.48-81.4,96.48-80.66z M70.8-80.66v59.91c0,0.73,0.49,1.17,1.22,1.17s1.17-0.44,1.17-1.17v-59.91c0-0.73-0.44-1.22-1.17-1.22S70.8-81.4,70.8-80.66z M45.12-80.66V10.3c0,0.73,0.49,1.22,1.22,1.22s1.17-0.49,1.17-1.22v-90.97c0-0.73-0.44-1.22-1.17-1.22S45.12-81.4,45.12-80.66z M19.43-80.66v59.91c0,0.73,0.49,1.17,1.22,1.17c0.73,0,1.22-0.44,1.22-1.17v-59.91c0-0.73-0.49-1.22-1.22-1.22C19.92-81.88,19.43-81.4,19.43-80.66z"/>
  </g>
  <g id="Black-S" transform="translate(2879.69 696)">
   <path d="M78.03-73.63V2.83c0,3.17,2.54,5.71,5.71,5.71c3.17,0,5.71-2.54,5.71-5.71v-76.46c0-3.17-2.54-5.71-5.71-5.71C80.57-79.35,78.03-76.81,78.03-73.63z M58.01-73.63v42.29c0,3.17,2.54,5.71,5.71,5.71c3.17,0,5.71-2.54,5.71-5.71v-42.29c0-3.17-2.54-5.71-5.71-5.71C60.55-79.35,58.01-76.81,58.01-73.63z M37.99-73.63V2.83c0,3.17,2.54,5.71,5.71,5.71c3.17,0,5.71-2.54,5.71-5.71v-76.46c0-3.17-2.54-5.71-5.71-5.71C40.53-79.35,37.99-76.81,37.99-73.63z M17.97-73.63v42.29c0,3.17,2.54,5.71,5.71,5.71c3.17,0,5.71-2.54,5.71-5.71v-42.29c0-3.17-2.54-5.71-5.71-5.71C20.51-79.35,17.97-76.81,17.97-73.63z"/>
  </g>
  <g id="Heavy-S" transform="translate(2584.15 696)">
   <path d="M77.44-73.05V2.2c0,2.88,2.25,5.18,5.13,5.18c2.88,0,5.13-2.29,5.13-5.18v-75.24c0-2.83-2.25-5.13-5.13-5.13C79.69-78.17,77.44-75.88,77.44-73.05z M57.42-73.05v42.29c0,2.83,2.25,5.13,5.13,5.13c2.83,0,5.13-2.29,5.13-5.13v-42.29c0-2.83-2.29-5.13-5.13-5.13C59.67-78.17,57.42-75.88,57.42-73.05z M37.4-73.05V2.2c0,2.88,2.25,5.18,5.13,5.18c2.83,0,5.13-2.29,5.13-5.18v-75.24c0-2.83-2.29-5.13-5.13-5.13C39.65-78.17,37.4-75.88,37.4-73.05z M17.38-73.05v42.29c0,2.83,2.25,5.13,5.13,5.13c2.83,0,5.13-2.29,5.13-5.13v-42.29c0-2.83-2.29-5.13-5.13-5.13C19.63-78.17,17.38-75.88,17.38-73.05z"/>
  </g>
  <g id="Bold-S" transform="translate(2288.78 696)">
   <path d="M76.73-72.34V1.54c0,2.49,2,4.49,4.49,4.49c2.49,0,4.49-2,4.49-4.49v-73.88c0-2.49-2-4.49-4.49-4.49C78.74-76.83,76.73-74.83,76.73-72.34z M56.71-72.34v42.24c0,2.54,2,4.54,4.49,4.54c2.49,0,4.49-2,4.49-4.54v-42.24c0-2.49-2-4.49-4.49-4.49C58.72-76.83,56.71-74.83,56.71-72.34z M36.69-72.34V1.54c0,2.49,2,4.49,4.49,4.49c2.49,0,4.49-2,4.49-4.49v-73.88c0-2.49-2-4.49-4.49-4.49C38.7-76.83,36.69-74.83,36.69-72.34z M16.67-72.34v42.24c0,2.54,2,4.54,4.49,4.54c2.49,0,4.49-2,4.49-4.54v-42.24c0-2.49-2-4.49-4.49-4.49C18.68-76.83,16.67-74.83,16.67-72.34z"/>
  </g>
  <g id="Semibold-S" transform="translate(1992.97 696)">
   <path d="M76.27-71.87v72.9c0,2.29,1.81,4.1,4.05,4.1c2.25,0,4.05-1.81,4.05-4.1v-72.9c0-2.25-1.81-4.05-4.05-4.05C78.08-75.93,76.27-74.12,76.27-71.87z M56.25-71.87v42.24c0,2.25,1.81,4.1,4.05,4.1c2.25,0,4.05-1.86,4.05-4.1v-42.24c0-2.25-1.81-4.05-4.05-4.05C58.06-75.93,56.25-74.12,56.25-71.87z M36.23-71.87v72.9c0,2.29,1.81,4.1,4.05,4.1c2.25,0,4.05-1.81,4.05-4.1v-72.9c0-2.25-1.81-4.05-4.05-4.05C38.04-75.93,36.23-74.12,36.23-71.87z M16.21-71.87v42.24c0,2.25,1.76,4.1,4.05,4.1c2.25,0,4.05-1.86,4.05-4.1v-42.24c0-2.25-1.81-4.05-4.05-4.05C17.97-75.93,16.21-74.12,16.21-71.87z"/>
  </g>
  <g id="Medium-S" transform="translate(1696.95 696)">
   <path d="M75.95-71.51V0.71c0,2.05,1.61,3.76,3.71,3.76c2.05,0,3.71-1.71,3.71-3.76v-72.22c0-2.05-1.66-3.71-3.71-3.71C77.56-75.22,75.95-73.56,75.95-71.51z M55.93-71.51v42.24c0,2.05,1.61,3.76,3.71,3.76c2.05,0,3.71-1.71,3.71-3.76v-42.24c0-2.05-1.66-3.71-3.71-3.71C57.54-75.22,55.93-73.56,55.93-71.51z M35.86-71.51V0.71c0,2.05,1.66,3.76,3.76,3.76c2.05,0,3.71-1.71,3.71-3.76v-72.22c0-2.05-1.66-3.71-3.71-3.71C37.52-75.22,35.86-73.56,35.86-71.51z M15.84-71.51v42.24c0,2.05,1.66,3.76,3.76,3.76c2.05,0,3.71-1.71,3.71-3.76v-42.24c0-2.05-1.66-3.71-3.71-3.71C17.5-75.22,15.84-73.56,15.84-71.51z"/>
  </g>
  <g id="Regular-S" transform="translate(1401.14 696)">
   <path d="M75.49-71.04V0.2c0,1.86,1.42,3.37,3.27,3.37c1.86,0,3.27-1.51,3.27-3.37v-71.24c0-1.81-1.42-3.27-3.27-3.27C76.9-74.32,75.49-72.85,75.49-71.04z M55.42-71.04v42.24c0,1.81,1.46,3.32,3.32,3.32c1.81,0,3.27-1.51,3.27-3.32v-42.24c0-1.81-1.46-3.27-3.27-3.27C56.88-74.32,55.42-72.85,55.42-71.04z M35.4-71.04V0.2c0,1.86,1.46,3.37,3.32,3.37c1.81,0,3.27-1.51,3.27-3.37v-71.24c0-1.81-1.46-3.27-3.27-3.27C36.87-74.32,35.4-72.85,35.4-71.04z M15.38-71.04v42.24c0,1.81,1.46,3.32,3.32,3.32c1.81,0,3.27-1.51,3.27-3.32v-42.24c0-1.81-1.46-3.27-3.27-3.27C16.85-74.32,15.38-72.85,15.38-71.04z"/>
  </g>
  <g id="Light-S" transform="translate(1105.16 696)">
   <path d="M75.49-71V0.29c0,1.42,1.12,2.59,2.59,2.59c1.42,0,2.54-1.17,2.54-2.59V-71c0-1.42-1.12-2.54-2.54-2.54C76.61-73.54,75.49-72.41,75.49-71z M55.47-71v43.7c0,1.42,1.07,2.59,2.54,2.59c1.42,0,2.54-1.17,2.54-2.59V-71c0-1.42-1.12-2.54-2.54-2.54C56.54-73.54,55.47-72.41,55.47-71z M35.4-71V0.29c0,1.42,1.12,2.59,2.54,2.59c1.46,0,2.59-1.17,2.59-2.59V-71c0-1.42-1.12-2.54-2.59-2.54C36.52-73.54,35.4-72.41,35.4-71z M15.33-71v43.7c0,1.42,1.12,2.59,2.59,2.59c1.42,0,2.54-1.17,2.54-2.59V-71c0-1.42-1.12-2.54-2.54-2.54C16.46-73.54,15.33-72.41,15.33-71z"/>
  </g>
  <g id="Thin-S" transform="translate(809.425 696)">
   <path d="M75.56-70.87V0.37c0,0.93,0.63,1.61,1.56,1.61c0.93,0,1.61-0.68,1.61-1.61v-71.24c0-0.93-0.68-1.61-1.61-1.61C76.2-72.49,75.56-71.8,75.56-70.87z M55.44-70.87v45.61c0,0.93,0.68,1.61,1.61,1.61s1.56-0.68,1.56-1.61v-45.61c0-0.93-0.63-1.61-1.56-1.61S55.44-71.8,55.44-70.87z M35.38-70.87V0.37c0,0.93,0.63,1.61,1.56,1.61s1.61-0.68,1.61-1.61v-71.24c0-0.93-0.68-1.61-1.61-1.61S35.38-71.8,35.38-70.87z M15.26-70.87v45.61c0,0.93,0.68,1.61,1.61,1.61c0.93,0,1.56-0.68,1.56-1.61v-45.61c0-0.93-0.63-1.61-1.56-1.61C15.94-72.49,15.26-71.8,15.26-70.87z"/>
  </g>
  <g id="Ultralight-S" transform="translate(513.202 696)">
   <path d="M75.61-70.87V0.41c0,0.68,0.44,1.12,1.07,1.12c0.63,0,1.07-0.44,1.07-1.12v-71.29c0-0.63-0.44-1.07-1.07-1.07C76.05-71.95,75.61-71.51,75.61-70.87z M55.49-70.87v46.68c0,0.63,0.44,1.07,1.07,1.07c0.63,0,1.07-0.44,1.07-1.07v-46.68c0-0.63-0.44-1.07-1.07-1.07C55.93-71.95,55.49-71.51,55.49-70.87z M35.38-70.87V0.41c0,0.68,0.44,1.12,1.07,1.12c0.63,0,1.12-0.44,1.12-1.12v-71.29c0-0.63-0.49-1.07-1.12-1.07C35.82-71.95,35.38-71.51,35.38-70.87z M15.26-70.87v46.68c0,0.63,0.44,1.07,1.07,1.07c0.68,0,1.12-0.44,1.12-1.07v-46.68c0-0.63-0.44-1.07-1.12-1.07C15.7-71.95,15.26-71.51,15.26-70.87z"/>
  </g>
 </g>
</svg>
