<?xml version="1.0" encoding="utf-8"?>
<!DOCTYPE svg
PUBLIC "-//W3C//DTD SVG 1.1//EN"
       "http://www.w3.org/Graphics/SVG/1.1/DTD/svg11.dtd">
<svg version="1.1" xmlns="http://www.w3.org/2000/svg" xmlns:xlink="http://www.w3.org/1999/xlink" width="3300" height="2200">
 <!--glyph: "uni10068C.medium", point size: 100.0, font version: "18.0d12e2", template writer version: "101"-->
<style>
  .hierarchical-0:secondary {fill:#4D4D4D}
  .hierarchical-1:primary {fill:#212121}
  
  .SFSymbolsPreview212121 {fill:#212121;opacity:1.0}
  .SFSymbolsPreview4D4D4D {fill:#4D4D4D;opacity:1.0}
</style>
 
 <g id="Notes">
  <style>
   text { font-family: -apple-system, sans-serif; }
   .separator { fill: none; stroke: black; stroke-width: 0.5; }
  </style>
  
  <rect height="2200" id="artboard" style="fill:white" width="3300"/>
  
  <g title="header" transform="translate(263 292)">
   <line class="separator" x1="0" x2="2773"/>
   
   <g transform="translate(0 30)">
    <text style="font-weight:bold;">Weight/Scale Variations</text>
    
    <g style="text-anchor:middle;">
     <text x="296.711">Ultralight</text>
     <text x="593.422">Thin</text>
     <text x="890.13">Light</text>
     <text x="1186.84">Regular</text>
     <text x="1483.56">Medium</text>
     <text x="1780.27">Semibold</text>
     <text x="2076.98">Bold</text>
     <text x="2373.69">Heavy</text>
     <text x="2670.4">Black</text>
    </g>
   </g>
  </g>
  
  <g title="footer" transform="translate(263 1903)">
   <line class="separator" x1="0" x2="2773"/>
   
   <g transform="translate(2773 0)" style="text-anchor:end;">
    <text id="template-version" y="30">Template v.3.0</text>
    <text y="48">Requires Xcode 13 or greater</text>
    <text y="66">Generated from lines.wrap</text>
    <text y="84">Typeset at 100 points</text>
   </g>
  </g>
  
  <g transform="translate(263 0)">
   <text y="726">Small</text>
   <text y="1156">Medium</text>
   <text y="1586">Large</text>
  </g>
 </g>
 
 <g id="Guides">
  <style>
   #H-reference      { fill:#27AAE1; stroke:none; }
   [id^="Baseline"],
   [id^="Capline"]   { fill:none; stroke:#27AAE1; stroke-width:0.5; }
   [id$="-margin"]   { fill:none; stroke:#00AEEF; stroke-width:0.5; }
  </style>
  
  <g id="H-reference" transform="translate(339 696)">
   <path d="M1,0h2.7L13-24.5h32.7L55.1,0h2.6L30.6-70.5h-2.5L1,0z M29.3-67.1L29.3-67.1l15.6,40.4h-31L29.3-67.1z"/>
  </g>
  <line id="Baseline-S" x1="263" y1="696" x2="3036" y2="696"/>
  <line id="Capline-S" x1="263" y1="625.5" x2="3036" y2="625.5"/>
  <g id="H-reference" transform="translate(339 1126)">
   <path d="M1,0h2.7L13-24.5h32.7L55.1,0h2.6L30.6-70.5h-2.5L1,0z M29.3-67.1L29.3-67.1l15.6,40.4h-31L29.3-67.1z"/>
  </g>
  <line id="Baseline-M" x1="263" y1="1126" x2="3036" y2="1126"/>
  <line id="Capline-M" x1="263" y1="1055.5" x2="3036" y2="1055.5"/>
  <g id="H-reference" transform="translate(339 1556)">
   <path d="M1,0h2.7L13-24.5h32.7L55.1,0h2.6L30.6-70.5h-2.5L1,0z M29.3-67.1L29.3-67.1l15.6,40.4h-31L29.3-67.1z"/>
  </g>
  <line id="Baseline-L" x1="263" y1="1556" x2="3036" y2="1556"/>
  <line id="Capline-L" x1="263" y1="1485.5" x2="3036" y2="1485.5"/>
  <line id="left-margin" x1="1379.8" y1="1030.8" x2="1379.8" y2="1150.1"/>
  <line id="right-margin" x1="1519.8" y1="1030.8" x2="1519.8" y2="1150.1"/>
 </g>
 
 <g id="Symbols">
  <g id="Regular-L" transform="matrix(1 0 0 1 1370.99 1556)">
   <path class="hierarchical-0:secondary SFSymbolsPreview4D4D4D" d="M20.17-80.86H137.5c2.29,0,4.15-1.76,4.15-4.1c0-2.29-1.85-4.05-4.15-4.05H20.17c-2.34,0-4.1,1.76-4.1,4.05C16.06-82.62,17.82-80.86,20.17-80.86z M20.17-47.8h24.8c2.29,0,4.15-1.81,4.15-4.1s-1.85-4.1-4.15-4.1h-24.8c-2.34,0-4.1,1.81-4.1,4.1S17.82-47.8,20.17-47.8z M20.17-14.79h18.97c2.29,0,4.15-1.76,4.15-4.05c0-2.34-1.85-4.1-4.15-4.1H20.17c-2.34,0-4.1,1.76-4.1,4.1C16.06-16.55,17.82-14.79,20.17-14.79z M20.17,18.26h38.97c2.29,0,4.15-1.81,4.15-4.1c0-2.3-1.86-4.05-4.15-4.05H20.17c-2.34,0-4.1,1.76-4.1,4.05C16.06,16.46,17.82,18.26,20.17,18.26z"/>
   <g><path class="hierarchical-1:primary SFSymbolsPreview212121" d="M71.12-36.93L57.58-24.2c-2.07,1.95-2.66,3.75-2.66,5.31c0,1.64,0.59,3.4,2.66,5.39l39.73,37.07	c2.3,2.15,3.87,3.16,6.09,3.16c3.2,0,5.39-2.54,5.39-5.63V1.38h0.7L71.12-36.93z"/><path class="hierarchical-1:primary SFSymbolsPreview212121" d="M157.55-64.48c-1.99,0-4.02,0.55-5.55,3.52c-8.36,16.37-21.09,21.64-41.56,21.64h-1.64v-19.8c0-3.09-2.19-5.35-5.31-5.35	c-2.23,0-4.06,0.94-6.17,2.93l-9.72,9.13l48.5,48.53c17.59-8.6,26.17-27.45,26.17-54.58C162.27-62.33,160.05-64.48,157.55-64.48z	"/>
   </g>
   <path class="hierarchical-1:primary SFSymbolsPreview212121" d="M144.62,26.42c1.66,1.61,4.3,1.61,5.91,0c1.61-1.66,1.61-4.25,0-5.91L65.87-64.1c-1.61-1.61-4.25-1.66-5.96,0c-1.56,1.56-1.56,4.3,0,5.91L144.62,26.42z"/>
  </g>
  <g id="Regular-M" transform="matrix(1 0 0 1 1388.2 1126)">
   <path class="hierarchical-0:secondary SFSymbolsPreview4D4D4D" d="M16.11-70.07h90.97c2.05,0,3.76-1.61,3.76-3.71c0-2.05-1.71-3.66-3.76-3.66H16.11c-2.05,0-3.66,1.61-3.66,3.66C12.45-71.68,14.06-70.07,16.11-70.07z M16.11-44.48h19.2c2.05,0,3.76-1.61,3.76-3.71c0-2.05-1.71-3.66-3.76-3.66h-19.2c-2.05,0-3.66,1.61-3.66,3.66C12.45-46.09,14.06-44.48,16.11-44.48z M16.11-18.9h11.2c2.05,0,3.76-1.66,3.76-3.71s-1.71-3.66-3.76-3.66h-11.2c-2.05,0-3.66,1.61-3.66,3.66S14.06-18.9,16.11-18.9z M16.11,6.64h28.25c2.05,0,3.71-1.61,3.71-3.66c0-2.05-1.66-3.71-3.71-3.71H16.11c-2.05,0-3.66,1.66-3.66,3.71C12.45,5.03,14.06,6.64,16.11,6.64z"/>
   <g><path class="hierarchical-1:primary SFSymbolsPreview212121" d="M107.38-13.03c10.91-7.72,15.91-21.71,15.91-40.14c0-3.36-1.91-5.23-4.02-5.23c-1.64,0-3.44,0.39-4.8,2.89	c-6.8,12.77-16.37,16.6-31.48,16.6h-1.13v-14.92c0-2.62-1.95-4.57-4.61-4.57c-1.91,0-3.48,0.78-5.35,2.54l-3.76,3.55	L107.38-13.03z"/><path class="hierarchical-1:primary SFSymbolsPreview212121" d="M54.13-39.1L41.06-26.76c-1.48,1.41-1.99,2.89-1.99,4.18c0,1.33,0.47,2.77,1.99,4.22l30.82,28.83	c2.07,1.95,3.36,2.77,5.27,2.77c2.73,0,4.69-2.15,4.69-4.77V-6.29h1.13c1.33,0,2.62-0.05,3.88-0.13L54.13-39.1z"/>
   </g>
   <path class="hierarchical-1:primary SFSymbolsPreview212121" d="M114.74,13.13c1.46,1.46,3.91,1.46,5.32,0c1.46-1.46,1.46-3.86,0-5.32L54.03-58.17c-1.46-1.46-3.86-1.51-5.37,0c-1.42,1.42-1.42,3.86,0,5.32L114.74,13.13z"/>
  </g>
  <g id="Regular-S" transform="matrix(1 0 0 1 1401.14 696)">
   <path class="hierarchical-0:secondary SFSymbolsPreview4D4D4D" d="M13.04-62.16h71.24c1.86,0,3.37-1.42,3.37-3.27c0-1.86-1.51-3.27-3.37-3.27H13.04c-1.81,0-3.27,1.42-3.27,3.27C9.77-63.57,11.23-62.16,13.04-62.16z M13.04-42.09h15.92c1.86,0,3.37-1.46,3.37-3.32c0-1.81-1.51-3.27-3.37-3.27H13.04c-1.81,0-3.27,1.46-3.27,3.27C9.77-43.55,11.23-42.09,13.04-42.09z M13.04-22.07h8.65c1.86,0,3.37-1.46,3.37-3.32c0-1.81-1.51-3.27-3.37-3.27h-8.65c-1.81,0-3.27,1.46-3.27,3.27C9.77-23.54,11.23-22.07,13.04-22.07z M13.04-2.05h20.7c1.86,0,3.32-1.46,3.32-3.32c0-1.81-1.46-3.27-3.32-3.27h-20.7c-1.81,0-3.27,1.46-3.27,3.27C9.77-3.52,11.23-2.05,13.04-2.05z"/>
   <g><path class="hierarchical-1:primary SFSymbolsPreview212121" d="M87.36-18.16c8.12-6.33,11.59-17.32,11.59-31.11c0-2.93-1.68-4.53-3.44-4.53c-1.37,0-2.97,0.27-4.14,2.38	c-5.59,10.08-12.85,12.89-24.14,12.89H67L87.36-18.16z"/><path d="M66.45-39.08v-10.86c0-2.23-1.68-3.87-3.95-3.87c-1.64,0-2.97,0.66-4.61,2.19l-2.05,1.94L66.45-39.08z"/><path class="hierarchical-1:primary SFSymbolsPreview212121" d="M43.94-38.4l-10.26,9.71c-1.09,1.02-1.48,2.27-1.48,3.32c0,1.09,0.39,2.3,1.48,3.36L57.89,0.65	c1.84,1.72,2.89,2.42,4.53,2.42c2.34,0,4.02-1.88,4.02-4.1V-12.2h0.78c0.99,0,1.94-0.04,2.88-0.09L43.94-38.4z"/>
   </g>
   <path class="hierarchical-1:primary SFSymbolsPreview212121" d="M92.39,3.13c1.32,1.32,3.47,1.32,4.74,0c1.27-1.32,1.32-3.42,0-4.74L41.89-56.85c-0.92-0.92-2.27-1.39-3.53-1.04c-2.62,0.72-3.1,3.93-1.46,5.57L92.39,3.13z"/>
  </g>
 </g>
</svg>
