<?xml version="1.0" encoding="utf-8"?>
<!DOCTYPE svg PUBLIC "-//W3C//DTD SVG 1.1//EN"
                     "http://www.w3.org/Graphics/SVG/1.1/DTD/svg11.dtd">

<svg version="1.1" xmlns="http://www.w3.org/2000/svg" viewBox="0 0 16 24.5">

<style>
	@media (prefers-color-scheme: dark) {
		path { fill: white }
	}
</style>

<path d="M8.4,0c3.4-0.2,4.3,3.2,4.3,3.2l-6.2,6.2c0,0-0.9-3.4-4.3-3.2L8.4,
	0z"/>
<path d="M3.5,18c0,0-0.4,0.4-1.4,1.6c-1.1,1.3-0.5,3.3,0.7,4.1c1.4,1,3.5,1,4.6,
	0c2.4-2.4,6.9-7.3,7.6-8.3s1.7-3.7-0.7-5.8c-1.3-1.2-3.1-2.8-3.1-2.8L6,
	12.1c0,0-0.5-3-2.9-4c-1.3-0.5-2.1,0.1-2.6,0.8c-1.4,2.2,0.1,4.8,2.7,6.9
	c2.1,1.8,4.5,3.7,4.5,5.9c0,0.8-0.4,1.3-1,1.7c-0.7,0.4-1.8,
	0.1-2-0.5l1.5-1.8c0,0-0.4-0.8-1-1.5C4.6,18.8,3.7,18.2,3.5,18"/>

</svg>
