<?xml version="1.0" encoding="UTF-8"?>
<!--Generator: Apple Native CoreSVG 149-->
<!DOCTYPE svg
PUBLIC "-//W3C//DTD SVG 1.1//EN"
       "http://www.w3.org/Graphics/SVG/1.1/DTD/svg11.dtd">
<svg version="1.1" xmlns="http://www.w3.org/2000/svg" xmlns:xlink="http://www.w3.org/1999/xlink" width="3300" height="2200">
 <!--glyph: "uni100308.medium", point size: 100.0, font version: "17.0d9e1", template writer version: "59"-->
 <style>.hierarchical-0:secondary {fill:#4D4D4D}
.hierarchical-1:primary {fill:#212121}

.SFSymbolsPreview212121 {fill:#212121;opacity:1.0}
.SFSymbolsPreview4D4D4D {fill:#4D4D4D;opacity:1.0}
</style>
 <g id="Notes">
  <rect height="2200" id="artboard" style="fill:white;opacity:1" width="3300" x="0" y="0"/>
  <line style="fill:none;stroke:black;opacity:1;stroke-width:0.5;" x1="263" x2="3036" y1="292" y2="292"/>
  <text style="stroke:none;fill:black;font-family:sans-serif;font-size:13;font-weight:bold;" transform="matrix(1 0 0 1 263 322)">Weight/Scale Variations</text>
  <text style="stroke:none;fill:black;font-family:sans-serif;font-size:13;text-anchor:middle;" transform="matrix(1 0 0 1 559.711 322)">Ultralight</text>
  <text style="stroke:none;fill:black;font-family:sans-serif;font-size:13;text-anchor:middle;" transform="matrix(1 0 0 1 856.422 322)">Thin</text>
  <text style="stroke:none;fill:black;font-family:sans-serif;font-size:13;text-anchor:middle;" transform="matrix(1 0 0 1 1153.13 322)">Light</text>
  <text style="stroke:none;fill:black;font-family:sans-serif;font-size:13;text-anchor:middle;" transform="matrix(1 0 0 1 1449.84 322)">Regular</text>
  <text style="stroke:none;fill:black;font-family:sans-serif;font-size:13;text-anchor:middle;" transform="matrix(1 0 0 1 1746.56 322)">Medium</text>
  <text style="stroke:none;fill:black;font-family:sans-serif;font-size:13;text-anchor:middle;" transform="matrix(1 0 0 1 2043.27 322)">Semibold</text>
  <text style="stroke:none;fill:black;font-family:sans-serif;font-size:13;text-anchor:middle;" transform="matrix(1 0 0 1 2339.98 322)">Bold</text>
  <text style="stroke:none;fill:black;font-family:sans-serif;font-size:13;text-anchor:middle;" transform="matrix(1 0 0 1 2636.69 322)">Heavy</text>
  <text style="stroke:none;fill:black;font-family:sans-serif;font-size:13;text-anchor:middle;" transform="matrix(1 0 0 1 2933.4 322)">Black</text>
  <line style="fill:none;stroke:black;opacity:1;stroke-width:0.5;" x1="263" x2="3036" y1="1903" y2="1903"/>
  <g transform="matrix(1 0 0 1 263 1933)">
   <path d="M9.24805 0.830078Q10.8691 0.830078 12.2949 0.214844Q13.7207-0.400391 14.8096-1.49414Q15.8984-2.58789 16.5186-4.01367Q17.1387-5.43945 17.1387-7.05078Q17.1387-8.66211 16.5186-10.0879Q15.8984-11.5137 14.8047-12.6074Q13.7109-13.7012 12.2852-14.3164Q10.8594-14.9316 9.23828-14.9316Q7.62695-14.9316 6.20117-14.3164Q4.77539-13.7012 3.69141-12.6074Q2.60742-11.5137 1.9873-10.0879Q1.36719-8.66211 1.36719-7.05078Q1.36719-5.43945 1.9873-4.01367Q2.60742-2.58789 3.69629-1.49414Q4.78516-0.400391 6.21094 0.214844Q7.63672 0.830078 9.24805 0.830078ZM9.24805-0.654297Q7.91992-0.654297 6.7627-1.14746Q5.60547-1.64062 4.73145-2.51953Q3.85742-3.39844 3.36426-4.56055Q2.87109-5.72266 2.87109-7.05078Q2.87109-8.37891 3.35938-9.54102Q3.84766-10.7031 4.72168-11.582Q5.5957-12.4609 6.75293-12.9541Q7.91016-13.4473 9.23828-13.4473Q10.5762-13.4473 11.7334-12.9541Q12.8906-12.4609 13.7695-11.582Q14.6484-10.7031 15.1465-9.54102Q15.6445-8.37891 15.6445-7.05078Q15.6445-5.72266 15.1514-4.56055Q14.6582-3.39844 13.7842-2.51953Q12.9102-1.64062 11.748-1.14746Q10.5859-0.654297 9.24805-0.654297ZM5.83984-7.04102Q5.83984-6.71875 6.04492-6.51855Q6.25-6.31836 6.5918-6.31836L8.50586-6.31836L8.50586-4.39453Q8.50586-4.0625 8.70605-3.85742Q8.90625-3.65234 9.22852-3.65234Q9.56055-3.65234 9.76562-3.85742Q9.9707-4.0625 9.9707-4.39453L9.9707-6.31836L11.8945-6.31836Q12.2266-6.31836 12.4316-6.51855Q12.6367-6.71875 12.6367-7.04102Q12.6367-7.37305 12.4316-7.57812Q12.2266-7.7832 11.8945-7.7832L9.9707-7.7832L9.9707-9.69727Q9.9707-10.0391 9.76562-10.2441Q9.56055-10.4492 9.22852-10.4492Q8.90625-10.4492 8.70605-10.2441Q8.50586-10.0391 8.50586-9.69727L8.50586-7.7832L6.5918-7.7832Q6.25-7.7832 6.04492-7.57812Q5.83984-7.37305 5.83984-7.04102Z"/>
  </g>
  <g transform="matrix(1 0 0 1 281.867 1933)">
   <path d="M11.709 2.91016Q13.75 2.91016 15.5518 2.12891Q17.3535 1.34766 18.7305-0.0292969Q20.1074-1.40625 20.8887-3.20801Q21.6699-5.00977 21.6699-7.05078Q21.6699-9.0918 20.8887-10.8936Q20.1074-12.6953 18.7305-14.0723Q17.3535-15.4492 15.5469-16.2305Q13.7402-17.0117 11.6992-17.0117Q9.6582-17.0117 7.85645-16.2305Q6.05469-15.4492 4.68262-14.0723Q3.31055-12.6953 2.5293-10.8936Q1.74805-9.0918 1.74805-7.05078Q1.74805-5.00977 2.5293-3.20801Q3.31055-1.40625 4.6875-0.0292969Q6.06445 1.34766 7.86621 2.12891Q9.66797 2.91016 11.709 2.91016ZM11.709 1.25Q9.98047 1.25 8.47656 0.605469Q6.97266-0.0390625 5.83496-1.17676Q4.69727-2.31445 4.05762-3.81836Q3.41797-5.32227 3.41797-7.05078Q3.41797-8.7793 4.05762-10.2832Q4.69727-11.7871 5.83008-12.9297Q6.96289-14.0723 8.4668-14.7119Q9.9707-15.3516 11.6992-15.3516Q13.4277-15.3516 14.9316-14.7119Q16.4355-14.0723 17.5781-12.9297Q18.7207-11.7871 19.3652-10.2832Q20.0098-8.7793 20.0098-7.05078Q20.0098-5.32227 19.3701-3.81836Q18.7305-2.31445 17.5928-1.17676Q16.4551-0.0390625 14.9463 0.605469Q13.4375 1.25 11.709 1.25ZM7.39258-7.04102Q7.39258-6.68945 7.62695-6.46484Q7.86133-6.24023 8.23242-6.24023L10.8789-6.24023L10.8789-3.57422Q10.8789-3.21289 11.1035-2.9834Q11.3281-2.75391 11.6797-2.75391Q12.0508-2.75391 12.2852-2.9834Q12.5195-3.21289 12.5195-3.57422L12.5195-6.24023L15.1758-6.24023Q15.5371-6.24023 15.7715-6.46484Q16.0059-6.68945 16.0059-7.04102Q16.0059-7.41211 15.7715-7.6416Q15.5371-7.87109 15.1758-7.87109L12.5195-7.87109L12.5195-10.5176Q12.5195-10.8984 12.2852-11.1279Q12.0508-11.3574 11.6797-11.3574Q11.3281-11.3574 11.1035-11.1279Q10.8789-10.8984 10.8789-10.5176L10.8789-7.87109L8.23242-7.87109Q7.85156-7.87109 7.62207-7.6416Q7.39258-7.41211 7.39258-7.04102Z"/>
  </g>
  <g transform="matrix(1 0 0 1 305.646 1933)">
   <path d="M14.9707 5.66406Q17.0605 5.66406 18.96 5.01465Q20.8594 4.36523 22.4512 3.19336Q24.043 2.02148 25.2197 0.429688Q26.3965-1.16211 27.0459-3.06641Q27.6953-4.9707 27.6953-7.05078Q27.6953-9.14062 27.0459-11.04Q26.3965-12.9395 25.2197-14.5312Q24.043-16.123 22.4512-17.2998Q20.8594-18.4766 18.9551-19.126Q17.0508-19.7754 14.9609-19.7754Q12.8711-19.7754 10.9717-19.126Q9.07227-18.4766 7.48535-17.2998Q5.89844-16.123 4.72168-14.5312Q3.54492-12.9395 2.90039-11.04Q2.25586-9.14062 2.25586-7.05078Q2.25586-4.9707 2.90527-3.06641Q3.55469-1.16211 4.72656 0.429688Q5.89844 2.02148 7.49023 3.19336Q9.08203 4.36523 10.9814 5.01465Q12.8809 5.66406 14.9707 5.66406ZM14.9707 3.84766Q13.1641 3.84766 11.5283 3.2959Q9.89258 2.74414 8.53516 1.74805Q7.17773 0.751953 6.17676-0.610352Q5.17578-1.97266 4.62891-3.6084Q4.08203-5.24414 4.08203-7.05078Q4.08203-8.86719 4.62891-10.5029Q5.17578-12.1387 6.17188-13.501Q7.16797-14.8633 8.52539-15.8594Q9.88281-16.8555 11.5186-17.4023Q13.1543-17.9492 14.9609-17.9492Q16.7773-17.9492 18.4131-17.4023Q20.0488-16.8555 21.4111-15.8594Q22.7734-14.8633 23.7695-13.501Q24.7656-12.1387 25.3174-10.5029Q25.8691-8.86719 25.8691-7.05078Q25.8789-5.24414 25.332-3.6084Q24.7852-1.97266 23.7842-0.610352Q22.7832 0.751953 21.4209 1.74805Q20.0586 2.74414 18.4229 3.2959Q16.7871 3.84766 14.9707 3.84766ZM9.45312-7.04102Q9.45312-6.66016 9.71191-6.41113Q9.9707-6.16211 10.3711-6.16211L14.0625-6.16211L14.0625-2.46094Q14.0625-2.06055 14.3115-1.80664Q14.5605-1.55273 14.9414-1.55273Q15.3516-1.55273 15.6055-1.80664Q15.8594-2.06055 15.8594-2.46094L15.8594-6.16211L19.5605-6.16211Q19.9609-6.16211 20.2148-6.41113Q20.4688-6.66016 20.4688-7.04102Q20.4688-7.45117 20.2148-7.70508Q19.9609-7.95898 19.5605-7.95898L15.8594-7.95898L15.8594-11.6504Q15.8594-12.0605 15.6055-12.3145Q15.3516-12.5684 14.9414-12.5684Q14.5605-12.5684 14.3115-12.3096Q14.0625-12.0508 14.0625-11.6504L14.0625-7.95898L10.3711-7.95898Q9.96094-7.95898 9.70703-7.70508Q9.45312-7.45117 9.45312-7.04102Z"/>
  </g>
  <text style="stroke:none;fill:black;font-family:sans-serif;font-size:13;font-weight:bold;" transform="matrix(1 0 0 1 263 1953)">Design Variations</text>
  <text style="stroke:none;fill:black;font-family:sans-serif;font-size:13;" transform="matrix(1 0 0 1 263 1971)">Symbols are supported in up to nine weights and three scales.</text>
  <text style="stroke:none;fill:black;font-family:sans-serif;font-size:13;" transform="matrix(1 0 0 1 263 1989)">For optimal layout with text and other symbols, vertically align</text>
  <text style="stroke:none;fill:black;font-family:sans-serif;font-size:13;" transform="matrix(1 0 0 1 263 2007)">symbols with the adjacent text.</text>
  <line style="fill:none;stroke:#00AEEF;stroke-width:0.5;opacity:1.0;" x1="776" x2="776" y1="1919" y2="1933"/>
  <g transform="matrix(1 0 0 1 776 1933)">
   <path d="M3.31055 0.15625Q3.70117 0.15625 3.91602-0.00976562Q4.13086-0.175781 4.26758-0.585938L5.52734-4.0332L11.2891-4.0332L12.5488-0.585938Q12.6855-0.175781 12.9004-0.00976562Q13.1152 0.15625 13.4961 0.15625Q13.8867 0.15625 14.1162-0.0585938Q14.3457-0.273438 14.3457-0.644531Q14.3457-0.869141 14.2383-1.17188L9.6582-13.3691Q9.48242-13.8184 9.17969-14.043Q8.87695-14.2676 8.4082-14.2676Q7.5-14.2676 7.17773-13.3789L2.59766-1.16211Q2.49023-0.859375 2.49023-0.634766Q2.49023-0.263672 2.70996-0.0537109Q2.92969 0.15625 3.31055 0.15625ZM6.00586-5.51758L8.37891-12.0898L8.42773-12.0898L10.8008-5.51758Z"/>
  </g>
  <line style="fill:none;stroke:#00AEEF;stroke-width:0.5;opacity:1.0;" x1="793.197" x2="793.197" y1="1919" y2="1933"/>
  <text style="stroke:none;fill:black;font-family:sans-serif;font-size:13;font-weight:bold;" transform="matrix(1 0 0 1 776 1953)">Margins</text>
  <text style="stroke:none;fill:black;font-family:sans-serif;font-size:13;" transform="matrix(1 0 0 1 776 1971)">Leading and trailing margins on the left and right side of each symbol</text>
  <text style="stroke:none;fill:black;font-family:sans-serif;font-size:13;" transform="matrix(1 0 0 1 776 1989)">can be adjusted by modifying the x-location of the margin guidelines.</text>
  <text style="stroke:none;fill:black;font-family:sans-serif;font-size:13;" transform="matrix(1 0 0 1 776 2007)">Modifications are automatically applied proportionally to all</text>
  <text style="stroke:none;fill:black;font-family:sans-serif;font-size:13;" transform="matrix(1 0 0 1 776 2025)">scales and weights.</text>
  <g transform="matrix(1 0 0 1 1289 1933)">
   <path d="M2.8418 1.86523L4.54102 3.57422Q5.18555 4.22852 5.90332 4.17969Q6.62109 4.13086 7.31445 3.35938L18.0078-8.42773L17.041-9.4043L6.42578 2.27539Q6.16211 2.57812 5.89355 2.61719Q5.625 2.65625 5.27344 2.30469L4.10156 1.14258Q3.75 0.791016 3.79395 0.522461Q3.83789 0.253906 4.14062-0.0195312L15.6152-10.8203L14.6387-11.7871L3.04688-0.898438Q2.30469-0.214844 2.25098 0.498047Q2.19727 1.21094 2.8418 1.86523ZM9.25781-16.3281Q8.94531-16.0254 8.90625-15.6348Q8.86719-15.2441 9.04297-14.9512Q9.21875-14.6777 9.55566-14.541Q9.89258-14.4043 10.3809-14.5215Q11.4746-14.7754 12.5977-14.7314Q13.7207-14.6875 14.7949-13.9844L14.209-12.5293Q13.9551-11.9043 14.0674-11.4404Q14.1797-10.9766 14.5801-10.5664L16.875-8.25195Q17.2363-7.88086 17.5781-7.82227Q17.9199-7.76367 18.3398-7.8418L19.4043-8.03711L20.0684-7.36328L20.0293-6.80664Q20-6.43555 20.1221-6.12305Q20.2441-5.81055 20.6055-5.44922L21.3672-4.70703Q21.7285-4.3457 22.1533-4.33105Q22.5781-4.31641 22.9297-4.66797L25.8398-7.58789Q26.1914-7.93945 26.1816-8.35449Q26.1719-8.76953 25.8105-9.13086L25.0391-9.89258Q24.6875-10.2539 24.3799-10.3857Q24.0723-10.5176 23.7109-10.4883L23.1348-10.4395L22.4902-11.0742L22.7344-12.1973Q22.832-12.6172 22.6953-12.9834Q22.5586-13.3496 22.1191-13.7891L19.9219-15.9766Q18.6719-17.2168 17.2607-17.8369Q15.8496-18.457 14.4189-18.4814Q12.9883-18.5059 11.665-17.959Q10.3418-17.4121 9.25781-16.3281ZM10.752-15.957Q11.6602-16.6211 12.7002-16.9043Q13.7402-17.1875 14.8047-17.085Q15.8691-16.9824 16.8701-16.5137Q17.8711-16.0449 18.7012-15.2051L21.1328-12.793Q21.3086-12.6172 21.3525-12.4512Q21.3965-12.2852 21.3379-12.0312L21.0156-10.5469L22.5195-9.0625L23.5059-9.12109Q23.6914-9.13086 23.7891-9.09668Q23.8867-9.0625 24.0332-8.91602L24.6094-8.33984L22.168-5.89844L21.5918-6.47461Q21.4453-6.62109 21.4062-6.71875Q21.3672-6.81641 21.377-7.01172L21.4453-7.98828L19.9512-9.47266L18.4277-9.21875Q18.1836-9.16992 18.042-9.2041Q17.9004-9.23828 17.7148-9.41406L15.7129-11.416Q15.5176-11.5918 15.4932-11.7529Q15.4688-11.9141 15.5859-12.1875L16.4648-14.2773Q15.293-15.3711 13.8281-15.791Q12.3633-16.2109 10.8398-15.7617Q10.7227-15.7324 10.6885-15.8057Q10.6543-15.8789 10.752-15.957Z"/>
  </g>
  <text style="stroke:none;fill:black;font-family:sans-serif;font-size:13;font-weight:bold;" transform="matrix(1 0 0 1 1289 1953)">Exporting</text>
  <text style="stroke:none;fill:black;font-family:sans-serif;font-size:13;" transform="matrix(1 0 0 1 1289 1971)">Symbols should be outlined when exporting to ensure the</text>
  <text style="stroke:none;fill:black;font-family:sans-serif;font-size:13;" transform="matrix(1 0 0 1 1289 1989)">design is preserved when submitting to Xcode.</text>
  <text id="template-version" style="stroke:none;fill:black;font-family:sans-serif;font-size:13;text-anchor:end;" transform="matrix(1 0 0 1 3036 1933)">Template v.2.1</text>
  <text style="stroke:none;fill:black;font-family:sans-serif;font-size:13;text-anchor:end;" transform="matrix(1 0 0 1 3036 1951)">Requires Xcode 13 or greater</text>
  <text id="descriptive-name" style="stroke:none;fill:black;font-family:sans-serif;font-size:13;text-anchor:end;" transform="matrix(1 0 0 1 3036 1969)">Generated from line.3.horizontal.decrease.circle</text>
  <text style="stroke:none;fill:black;font-family:sans-serif;font-size:13;text-anchor:end;" transform="matrix(1 0 0 1 3036 1987)">Typeset at 100 points</text>
  <text style="stroke:none;fill:black;font-family:sans-serif;font-size:13;" transform="matrix(1 0 0 1 263 726)">Small</text>
  <text style="stroke:none;fill:black;font-family:sans-serif;font-size:13;" transform="matrix(1 0 0 1 263 1156)">Medium</text>
  <text style="stroke:none;fill:black;font-family:sans-serif;font-size:13;" transform="matrix(1 0 0 1 263 1586)">Large</text>
 </g>
 <g id="Guides">
  <g id="H-reference" style="fill:#27AAE1;stroke:none;" transform="matrix(1 0 0 1 339 696)">
   <path d="M0.993347 0L3.6377 0L29.3282-67.1326L30.0301-67.1326L30.0301-70.459L28.1227-70.459ZM11.6882-24.4797L46.9818-24.4797L46.2311-26.7288L12.4382-26.7288ZM55.1193 0L57.7637 0L30.6381-70.459L29.4327-70.459L29.4327-67.1326Z"/>
  </g>
  <line id="Baseline-S" style="fill:none;stroke:#27AAE1;opacity:1;stroke-width:0.5;" x1="263" x2="3036" y1="696" y2="696"/>
  <line id="Capline-S" style="fill:none;stroke:#27AAE1;opacity:1;stroke-width:0.5;" x1="263" x2="3036" y1="625.541" y2="625.541"/>
  <g id="H-reference" style="fill:#27AAE1;stroke:none;" transform="matrix(1 0 0 1 339 1126)">
   <path d="M0.993347 0L3.6377 0L29.3282-67.1326L30.0301-67.1326L30.0301-70.459L28.1227-70.459ZM11.6882-24.4797L46.9818-24.4797L46.2311-26.7288L12.4382-26.7288ZM55.1193 0L57.7637 0L30.6381-70.459L29.4327-70.459L29.4327-67.1326Z"/>
  </g>
  <line id="Baseline-M" style="fill:none;stroke:#27AAE1;opacity:1;stroke-width:0.5;" x1="263" x2="3036" y1="1126" y2="1126"/>
  <line id="Capline-M" style="fill:none;stroke:#27AAE1;opacity:1;stroke-width:0.5;" x1="263" x2="3036" y1="1055.54" y2="1055.54"/>
  <g id="H-reference" style="fill:#27AAE1;stroke:none;" transform="matrix(1 0 0 1 339 1556)">
   <path d="M0.993347 0L3.6377 0L29.3282-67.1326L30.0301-67.1326L30.0301-70.459L28.1227-70.459ZM11.6882-24.4797L46.9818-24.4797L46.2311-26.7288L12.4382-26.7288ZM55.1193 0L57.7637 0L30.6381-70.459L29.4327-70.459L29.4327-67.1326Z"/>
  </g>
  <line id="Baseline-L" style="fill:none;stroke:#27AAE1;opacity:1;stroke-width:0.5;" x1="263" x2="3036" y1="1556" y2="1556"/>
  <line id="Capline-L" style="fill:none;stroke:#27AAE1;opacity:1;stroke-width:0.5;" x1="263" x2="3036" y1="1485.54" y2="1485.54"/>
  <line id="left-margin-Regular-M" style="fill:none;stroke:#00AEEF;stroke-width:0.5;opacity:1.0;" x1="1391.3" x2="1391.3" y1="1030.79" y2="1150.12"/>
  <line id="right-margin-Regular-M" style="fill:none;stroke:#00AEEF;stroke-width:0.5;opacity:1.0;" x1="1588.39" x2="1588.39" y1="1030.79" y2="1150.12"/>
 </g>
 <g id="Symbols">
  <g id="Regular-L" transform="matrix(1 0 0 1 1374.97 1556)">
   <path class="hierarchical-0:secondary SFSymbolsPreview4D4D4D" d="M74.8535 28.3203Q85.3027 28.3203 94.7998 25.0732Q104.297 21.8262 112.256 15.9668Q120.215 10.1074 126.099 2.14844Q131.982-5.81055 135.229-15.332Q138.477-24.8535 138.477-35.2539Q138.477-45.7031 135.229-55.2002Q131.982-64.6973 126.099-72.6562Q120.215-80.6152 112.256-86.499Q104.297-92.3828 94.7754-95.6299Q85.2539-98.877 74.8047-98.877Q64.3555-98.877 54.8584-95.6299Q45.3613-92.3828 37.4268-86.499Q29.4922-80.6152 23.6084-72.6562Q17.7246-64.6973 14.502-55.2002Q11.2793-45.7031 11.2793-35.2539Q11.2793-24.8535 14.5264-15.332Q17.7734-5.81055 23.6328 2.14844Q29.4922 10.1074 37.4512 15.9668Q45.4102 21.8262 54.9072 25.0732Q64.4043 28.3203 74.8535 28.3203ZM74.8535 19.2383Q65.8203 19.2383 57.6416 16.4795Q49.4629 13.7207 42.6758 8.74023Q35.8887 3.75977 30.8838-3.05176Q25.8789-9.86328 23.1445-18.042Q20.4102-26.2207 20.4102-35.2539Q20.4102-44.3359 23.1445-52.5146Q25.8789-60.6934 30.8594-67.5049Q35.8398-74.3164 42.627-79.2969Q49.4141-84.2773 57.5928-87.0117Q65.7715-89.7461 74.8047-89.7461Q83.8867-89.7461 92.0654-87.0117Q100.244-84.2773 107.056-79.2969Q113.867-74.3164 118.848-67.5049Q123.828-60.6934 126.587-52.5146Q129.346-44.3359 129.346-35.2539Q129.395-26.2207 126.66-18.042Q123.926-9.86328 118.921-3.05176Q113.916 3.75977 107.104 8.74023Q100.293 13.7207 92.1143 16.4795Q83.9355 19.2383 74.8535 19.2383Z"/>
   <path class="hierarchical-0:secondary SFSymbolsPreview4D4D4D" d="M40.1855-48.5352L109.619-48.5352Q111.426-48.5352 112.573-49.585Q113.721-50.6348 113.721-52.3438Q113.721-54.0527 112.573-55.127Q111.426-56.2012 109.619-56.2012L40.1855-56.2012Q38.3789-56.2012 37.2314-55.127Q36.084-54.0527 36.084-52.3438Q36.084-50.6348 37.2314-49.585Q38.3789-48.5352 40.1855-48.5352ZM49.4629-27.6855L100.342-27.6855Q102.1-27.6855 103.271-28.7598Q104.443-29.834 104.443-31.543Q104.443-33.252 103.271-34.3018Q102.1-35.3516 100.342-35.3516L49.4629-35.3516Q47.6562-35.3516 46.5088-34.3018Q45.3613-33.252 45.3613-31.543Q45.3613-29.834 46.5088-28.7598Q47.6562-27.6855 49.4629-27.6855ZM59.1797-6.78711L90.6738-6.78711Q92.4316-6.78711 93.5791-7.83691Q94.7266-8.88672 94.7266-10.6445Q94.7266-12.3535 93.5791-13.4033Q92.4316-14.4531 90.6738-14.4531L59.1797-14.4531Q57.373-14.4531 56.2256-13.4033Q55.0781-12.3535 55.0781-10.6445Q55.0781-8.88672 56.2256-7.83691Q57.373-6.78711 59.1797-6.78711Z"/>
   <path class="hierarchical-1:primary SFSymbolsPreview212121" d="M195.1758-14.7949 220.762-41.6504Q221.982-42.9688 222.031-44.6289 222.08-46.2891 220.908-47.4121 219.688-48.6816 217.954-48.7305 216.221-48.7793 215.049-47.5098L189.8535-21.0449 164.6094-47.5098Q163.4375-48.7793 161.7041-48.7549 159.9707-48.7305 158.75-47.4121 157.627-46.2402 157.6758-44.6045 157.7246-42.9688 158.8965-41.6504L184.5312-14.7949Q186.1914-12.9883 188.0225-12.4023 189.8535-11.8164 191.6602-12.4023 193.4668-12.9883 195.1758-14.7949Z"/>
  </g>
  <g id="Regular-M" transform="matrix(1 0 0 1 1391.3 1126)">
   <path class="hierarchical-0:secondary SFSymbolsPreview4D4D4D" d="M58.5449 14.5508Q68.75 14.5508 77.7588 10.6445Q86.7676 6.73828 93.6523-0.146484Q100.537-7.03125 104.443-16.04Q108.35-25.0488 108.35-35.2539Q108.35-45.459 104.443-54.4678Q100.537-63.4766 93.6523-70.3613Q86.7676-77.2461 77.7344-81.1523Q68.7012-85.0586 58.4961-85.0586Q48.291-85.0586 39.2822-81.1523Q30.2734-77.2461 23.4131-70.3613Q16.5527-63.4766 12.6465-54.4678Q8.74023-45.459 8.74023-35.2539Q8.74023-25.0488 12.6465-16.04Q16.5527-7.03125 23.4375-0.146484Q30.3223 6.73828 39.3311 10.6445Q48.3398 14.5508 58.5449 14.5508ZM58.5449 6.25Q49.9023 6.25 42.3828 3.02734Q34.8633-0.195312 29.1748-5.88379Q23.4863-11.5723 20.2881-19.0918Q17.0898-26.6113 17.0898-35.2539Q17.0898-43.8965 20.2881-51.416Q23.4863-58.9355 29.1504-64.6484Q34.8145-70.3613 42.334-73.5596Q49.8535-76.7578 58.4961-76.7578Q67.1387-76.7578 74.6582-73.5596Q82.1777-70.3613 87.8906-64.6484Q93.6035-58.9355 96.8262-51.416Q100.049-43.8965 100.049-35.2539Q100.049-26.6113 96.8506-19.0918Q93.6523-11.5723 87.9639-5.88379Q82.2754-0.195312 74.7314 3.02734Q67.1875 6.25 58.5449 6.25Z"/>
   <path class="hierarchical-0:secondary SFSymbolsPreview4D4D4D" d="M31.9824-44.9219L85.2051-44.9219Q86.8164-44.9219 87.8662-45.874Q88.916-46.8262 88.916-48.3398Q88.916-49.9023 87.8662-50.8545Q86.8164-51.8066 85.2051-51.8066L31.9824-51.8066Q30.3711-51.8066 29.3213-50.8545Q28.2715-49.9023 28.2715-48.3398Q28.2715-46.8262 29.3213-45.874Q30.3711-44.9219 31.9824-44.9219ZM39.209-28.7598L77.9785-28.7598Q79.5898-28.7598 80.6396-29.6875Q81.6895-30.6152 81.6895-32.1777Q81.6895-33.7402 80.6396-34.6924Q79.5898-35.6445 77.9785-35.6445L39.209-35.6445Q37.5977-35.6445 36.5479-34.6924Q35.498-33.7402 35.498-32.1777Q35.498-30.6152 36.5479-29.6875Q37.5977-28.7598 39.209-28.7598ZM46.7773-12.5488L70.459-12.5488Q72.0703-12.5488 73.0957-13.501Q74.1211-14.4531 74.1211-15.9668Q74.1211-17.5293 73.0957-18.4814Q72.0703-19.4336 70.459-19.4336L46.7773-19.4336Q45.1172-19.4336 44.0918-18.4814Q43.0664-17.5293 43.0664-15.9668Q43.0664-14.4531 44.0918-13.501Q45.1172-12.5488 46.7773-12.5488Z"/>
   <path class="hierarchical-1:primary SFSymbolsPreview212121" d="M158.3789-19.5312 177.5684-39.8926Q178.6426-41.0156 178.6914-42.5293 178.7402-44.043 177.7148-45.0195 176.5918-46.1914 175.0537-46.2158 173.5156-46.2402 172.4414-45.1172L153.5449-25.0977 134.6484-45.1172Q133.623-46.2402 132.0605-46.2158 130.498-46.1914 129.4238-45.0195 128.4473-43.9941 128.4473-42.5049 128.4473-41.0156 129.5703-39.8926L148.7109-19.5312Q150.2734-17.9199 151.9092-17.3828 153.5449-16.8457 155.2051-17.3828 156.8652-17.9199 158.3789-19.5312Z"/>
  </g>
  <g id="Regular-S" transform="matrix(1 0 0 1 1403.58 696)">
   <path class="hierarchical-0:secondary SFSymbolsPreview4D4D4D" d="M46.2402 4.15039Q54.3457 4.15039 61.4746 1.07422Q68.6035-2.00195 74.0479-7.4707Q79.4922-12.9395 82.5928-20.0684Q85.6934-27.1973 85.6934-35.2539Q85.6934-43.3105 82.5928-50.4395Q79.4922-57.5684 74.0234-63.0371Q68.5547-68.5059 61.4258-71.582Q54.2969-74.6582 46.1914-74.6582Q38.1348-74.6582 31.0059-71.582Q23.877-68.5059 18.457-63.0371Q13.0371-57.5684 9.93652-50.4395Q6.83594-43.3105 6.83594-35.2539Q6.83594-27.1973 9.93652-20.0684Q13.0371-12.9395 18.4814-7.4707Q23.9258-2.00195 31.0547 1.07422Q38.1836 4.15039 46.2402 4.15039ZM46.2402-3.27148Q39.5996-3.27148 33.8135-5.7373Q28.0273-8.20312 23.6572-12.5977Q19.2871-16.9922 16.8213-22.8027Q14.3555-28.6133 14.3555-35.2539Q14.3555-41.8945 16.7969-47.7051Q19.2383-53.5156 23.6084-57.9102Q27.9785-62.3047 33.7646-64.7705Q39.5508-67.2363 46.1914-67.2363Q52.8809-67.2363 58.667-64.7705Q64.4531-62.3047 68.8477-57.9102Q73.2422-53.5156 75.7324-47.7051Q78.2227-41.8945 78.2227-35.2539Q78.2227-28.6133 75.7568-22.8027Q73.291-16.9922 68.9209-12.5977Q64.5508-8.20312 58.7402-5.7373Q52.9297-3.27148 46.2402-3.27148Z"/>
   <path class="hierarchical-0:secondary SFSymbolsPreview4D4D4D" d="M25.6348-42.2852L66.9434-42.2852Q68.4082-42.2852 69.3359-43.1396Q70.2637-43.9941 70.2637-45.3613Q70.2637-46.7285 69.3359-47.5586Q68.4082-48.3887 66.9434-48.3887L25.6348-48.3887Q24.2188-48.3887 23.291-47.5586Q22.3633-46.7285 22.3633-45.3613Q22.3633-43.9941 23.291-43.1396Q24.2188-42.2852 25.6348-42.2852ZM31.3477-29.5898L61.2305-29.5898Q62.6953-29.5898 63.623-30.4443Q64.5508-31.2988 64.5508-32.666Q64.5508-34.0332 63.623-34.8877Q62.6953-35.7422 61.2305-35.7422L31.3477-35.7422Q29.9316-35.7422 29.0039-34.8877Q28.0762-34.0332 28.0762-32.666Q28.0762-31.2988 29.0039-30.4443Q29.9316-29.5898 31.3477-29.5898ZM37.3047-16.8945L55.3223-16.8945Q56.7383-16.8945 57.666-17.749Q58.5938-18.6035 58.5938-19.9707Q58.5938-21.3379 57.666-22.1924Q56.7383-23.0469 55.3223-23.0469L37.3047-23.0469Q35.8398-23.0469 34.9365-22.1924Q34.0332-21.3379 34.0332-19.9707Q34.0332-18.6035 34.9365-17.749Q35.8398-16.8945 37.3047-16.8945Z"/>
   <path class="hierarchical-1:primary SFSymbolsPreview212121" d="M125.5371-22.998 140.0879-38.5742Q141.0156-39.5996 141.0645-40.918 141.1133-42.2363 140.1855-43.1152 139.1602-44.1406 137.8174-44.165 136.4746-44.1895 135.5469-43.2129L121.2402-27.9297 106.9336-43.2129Q106.0059-44.1895 104.6143-44.1895 103.2227-44.1895 102.2461-43.1152 101.416-42.1875 101.416-40.8936 101.416-39.5996 102.3926-38.5742L116.8945-22.998Q118.9453-20.8496 121.2158-20.8496 123.4863-20.8496 125.5371-22.998Z"/>
  </g>
 </g>
</svg>
