<?xml version="1.0" encoding="UTF-8"?>
<!--Generator: Apple Native CoreSVG 232.5-->
<!DOCTYPE svg
PUBLIC "-//W3C//DTD SVG 1.1//EN"
       "http://www.w3.org/Graphics/SVG/1.1/DTD/svg11.dtd">
<svg version="1.1" xmlns="http://www.w3.org/2000/svg" xmlns:xlink="http://www.w3.org/1999/xlink" width="3300" height="2200">
 <!--glyph: "", point size: 100.0, font version: "19.2d2e1", template writer version: "128"-->
 <style>.monochrome-0 {-sfsymbols-motion-group:1}
.monochrome-1 {-sfsymbols-motion-group:0}

.multicolor-0:tintColor {-sfsymbols-motion-group:1}
.multicolor-1:tintColor {-sfsymbols-motion-group:0}

.hierarchical-0:secondary {-sfsymbols-motion-group:1}
.hierarchical-1:primary {-sfsymbols-motion-group:0}

.SFSymbolsPreviewWireframe {fill:none;opacity:1.0;stroke:black;stroke-width:0.5}
</style>
 <g id="Notes">
  <rect height="2200" id="artboard" style="fill:white;opacity:1" width="3300" x="0" y="0"/>
  <line style="fill:none;stroke:black;opacity:1;stroke-width:0.5;" x1="263" x2="3036" y1="292" y2="292"/>
  <text style="stroke:none;fill:black;font-family:sans-serif;font-size:13;font-weight:bold;" transform="matrix(1 0 0 1 263 322)">Weight/Scale Variations</text>
  <text style="stroke:none;fill:black;font-family:sans-serif;font-size:13;text-anchor:middle;" transform="matrix(1 0 0 1 559.711 322)">Ultralight</text>
  <text style="stroke:none;fill:black;font-family:sans-serif;font-size:13;text-anchor:middle;" transform="matrix(1 0 0 1 856.422 322)">Thin</text>
  <text style="stroke:none;fill:black;font-family:sans-serif;font-size:13;text-anchor:middle;" transform="matrix(1 0 0 1 1153.13 322)">Light</text>
  <text style="stroke:none;fill:black;font-family:sans-serif;font-size:13;text-anchor:middle;" transform="matrix(1 0 0 1 1449.84 322)">Regular</text>
  <text style="stroke:none;fill:black;font-family:sans-serif;font-size:13;text-anchor:middle;" transform="matrix(1 0 0 1 1746.56 322)">Medium</text>
  <text style="stroke:none;fill:black;font-family:sans-serif;font-size:13;text-anchor:middle;" transform="matrix(1 0 0 1 2043.27 322)">Semibold</text>
  <text style="stroke:none;fill:black;font-family:sans-serif;font-size:13;text-anchor:middle;" transform="matrix(1 0 0 1 2339.98 322)">Bold</text>
  <text style="stroke:none;fill:black;font-family:sans-serif;font-size:13;text-anchor:middle;" transform="matrix(1 0 0 1 2636.69 322)">Heavy</text>
  <text style="stroke:none;fill:black;font-family:sans-serif;font-size:13;text-anchor:middle;" transform="matrix(1 0 0 1 2933.4 322)">Black</text>
  <line style="fill:none;stroke:black;opacity:1;stroke-width:0.5;" x1="263" x2="3036" y1="1903" y2="1903"/>
  <g transform="matrix(0.2 0 0 0.2 263 1933)">
   <path d="m46.2402 4.15039c21.5332 0 39.4531-17.8711 39.4531-39.4043s-17.9688-39.4043-39.502-39.4043c-21.4844 0-39.3555 17.8711-39.3555 39.4043s17.9199 39.4043 39.4043 39.4043Zm0-7.42188c-17.7246 0-31.8848-14.209-31.8848-31.9824s14.1113-31.9824 31.8359-31.9824c17.7734 0 32.0312 14.209 32.0312 31.9824s-14.209 31.9824-31.9824 31.9824Zm-17.9688-31.9824c0 2.14844 1.51367 3.61328 3.75977 3.61328h10.498v10.5957c0 2.19727 1.46484 3.71094 3.61328 3.71094 2.24609 0 3.71094-1.51367 3.71094-3.71094v-10.5957h10.5957c2.19727 0 3.71094-1.46484 3.71094-3.61328 0-2.19727-1.51367-3.71094-3.71094-3.71094h-10.5957v-10.5469c0-2.24609-1.46484-3.75977-3.71094-3.75977-2.14844 0-3.61328 1.51367-3.61328 3.75977v10.5469h-10.498c-2.24609 0-3.75977 1.51367-3.75977 3.71094Z"/>
  </g>
  <g transform="matrix(0.2 0 0 0.2 281.506 1933)">
   <path d="m58.5449 14.5508c27.2461 0 49.8047-22.6074 49.8047-49.8047 0-27.2461-22.6074-49.8047-49.8535-49.8047-27.1973 0-49.7559 22.5586-49.7559 49.8047 0 27.1973 22.6074 49.8047 49.8047 49.8047Zm0-8.30078c-23.0469 0-41.4551-18.457-41.4551-41.5039s18.3594-41.5039 41.4062-41.5039 41.5527 18.457 41.5527 41.5039-18.457 41.5039-41.5039 41.5039Zm-22.6562-41.5039c0 2.39258 1.66016 4.00391 4.15039 4.00391h14.3555v14.4043c0 2.44141 1.66016 4.15039 4.05273 4.15039 2.44141 0 4.15039-1.66016 4.15039-4.15039v-14.4043h14.4043c2.44141 0 4.15039-1.61133 4.15039-4.00391 0-2.44141-1.70898-4.15039-4.15039-4.15039h-14.4043v-14.3555c0-2.49023-1.70898-4.19922-4.15039-4.19922-2.39258 0-4.05273 1.70898-4.05273 4.19922v14.3555h-14.3555c-2.49023 0-4.15039 1.70898-4.15039 4.15039Z"/>
  </g>
  <g transform="matrix(0.2 0 0 0.2 304.924 1933)">
   <path d="m74.8535 28.3203c34.8145 0 63.623-28.8086 63.623-63.5742 0-34.8145-28.8574-63.623-63.6719-63.623-34.7656 0-63.5254 28.8086-63.5254 63.623 0 34.7656 28.8086 63.5742 63.5742 63.5742Zm0-9.08203c-30.1758 0-54.4434-24.3164-54.4434-54.4922 0-30.2246 24.2188-54.4922 54.3945-54.4922 30.2246 0 54.541 24.2676 54.541 54.4922 0 30.1758-24.2676 54.4922-54.4922 54.4922Zm-28.8574-54.4922c0 2.58789 1.85547 4.39453 4.58984 4.39453h19.7266v19.7754c0 2.68555 1.85547 4.58984 4.44336 4.58984 2.68555 0 4.54102-1.85547 4.54102-4.58984v-19.7754h19.7754c2.68555 0 4.58984-1.80664 4.58984-4.39453 0-2.73438-1.85547-4.58984-4.58984-4.58984h-19.7754v-19.7266c0-2.73438-1.85547-4.63867-4.54102-4.63867-2.58789 0-4.44336 1.9043-4.44336 4.63867v19.7266h-19.7266c-2.73438 0-4.58984 1.85547-4.58984 4.58984Z"/>
  </g>
  <text style="stroke:none;fill:black;font-family:sans-serif;font-size:13;font-weight:bold;" transform="matrix(1 0 0 1 263 1953)">Design Variations</text>
  <text style="stroke:none;fill:black;font-family:sans-serif;font-size:13;" transform="matrix(1 0 0 1 263 1971)">Symbols are supported in up to nine weights and three scales.</text>
  <text style="stroke:none;fill:black;font-family:sans-serif;font-size:13;" transform="matrix(1 0 0 1 263 1989)">For optimal layout with text and other symbols, vertically align</text>
  <text style="stroke:none;fill:black;font-family:sans-serif;font-size:13;" transform="matrix(1 0 0 1 263 2007)">symbols with the adjacent text.</text>
  <line style="fill:none;stroke:#00AEEF;stroke-width:0.5;opacity:1.0;" x1="776" x2="776" y1="1919" y2="1933"/>
  <g transform="matrix(0.2 0 0 0.2 776 1933)">
   <path d="m16.5527 0.78125c2.58789 0 3.85742-0.976562 4.78516-3.71094l6.29883-17.2363h28.8086l6.29883 17.2363c0.927734 2.73438 2.19727 3.71094 4.73633 3.71094 2.58789 0 4.24805-1.5625 4.24805-4.00391 0-0.830078-0.146484-1.61133-0.537109-2.63672l-22.9004-60.9863c-1.12305-2.97852-3.125-4.49219-6.25-4.49219-3.02734 0-5.07812 1.46484-6.15234 4.44336l-22.9004 61.084c-0.390625 1.02539-0.537109 1.80664-0.537109 2.63672 0 2.44141 1.5625 3.95508 4.10156 3.95508Zm13.4766-28.3691 11.8652-32.8613h0.244141l11.8652 32.8613Z"/>
  </g>
  <line style="fill:none;stroke:#00AEEF;stroke-width:0.5;opacity:1.0;" x1="792.836" x2="792.836" y1="1919" y2="1933"/>
  <text style="stroke:none;fill:black;font-family:sans-serif;font-size:13;font-weight:bold;" transform="matrix(1 0 0 1 776 1953)">Margins</text>
  <text style="stroke:none;fill:black;font-family:sans-serif;font-size:13;" transform="matrix(1 0 0 1 776 1971)">Leading and trailing margins on the left and right side of each symbol</text>
  <text style="stroke:none;fill:black;font-family:sans-serif;font-size:13;" transform="matrix(1 0 0 1 776 1989)">can be adjusted by modifying the x-location of the margin guidelines.</text>
  <text style="stroke:none;fill:black;font-family:sans-serif;font-size:13;" transform="matrix(1 0 0 1 776 2007)">Modifications are automatically applied proportionally to all</text>
  <text style="stroke:none;fill:black;font-family:sans-serif;font-size:13;" transform="matrix(1 0 0 1 776 2025)">scales and weights.</text>
  <g transform="matrix(0.2 0 0 0.2 1289 1933)">
   <path d="m14.209 9.32617 8.49609 8.54492c4.29688 4.3457 9.22852 4.05273 13.8672-1.07422l53.4668-58.9355-4.83398-4.88281-53.0762 58.3984c-1.75781 2.00195-3.41797 2.49023-5.76172 0.146484l-5.85938-5.81055c-2.34375-2.29492-1.80664-4.00391 0.195312-5.81055l57.373-54.0039-4.88281-4.83398-57.959 54.4434c-4.93164 4.58984-5.32227 9.47266-1.02539 13.8184Zm32.0801-90.9668c-2.09961 2.05078-2.24609 4.93164-1.07422 6.88477 1.17188 1.80664 3.4668 2.97852 6.68945 2.14844 7.32422-1.70898 14.9414-2.00195 22.0703 2.68555l-2.92969 7.27539c-1.70898 4.15039-0.830078 7.08008 1.85547 9.81445l11.4746 11.5723c2.44141 2.44141 4.49219 2.53906 7.32422 2.05078l5.32227-0.976562 3.32031 3.36914-0.195312 2.7832c-0.195312 2.49023 0.439453 4.39453 2.88086 6.78711l3.80859 3.71094c2.39258 2.39258 5.46875 2.53906 7.8125 0.195312l14.5508-14.5996c2.34375-2.34375 2.24609-5.32227-0.146484-7.71484l-3.85742-3.80859c-2.39258-2.39258-4.24805-3.17383-6.64062-2.97852l-2.88086 0.244141-3.22266-3.17383 1.2207-5.61523c0.634766-2.83203-0.146484-5.0293-3.07617-7.95898l-10.9863-10.9375c-16.6992-16.6016-38.8672-16.2109-53.3203-1.75781Zm7.4707 1.85547c12.1582-8.88672 28.6133-7.37305 39.7461 3.75977l12.1582 12.0605c1.17188 1.17188 1.36719 2.09961 1.02539 3.80859l-1.61133 7.42188 7.51953 7.42188 4.93164-0.292969c1.26953-0.0488281 1.66016 0.0488281 2.63672 1.02539l2.88086 2.88086-12.207 12.207-2.88086-2.88086c-0.976562-0.976562-1.12305-1.36719-1.07422-2.68555l0.341797-4.88281-7.4707-7.42188-7.61719 1.26953c-1.61133 0.341797-2.34375 0.195312-3.56445-0.976562l-10.0098-10.0098c-1.26953-1.17188-1.41602-2.00195-0.634766-3.85742l4.39453-10.4492c-7.8125-7.27539-17.9688-10.4004-28.125-7.42188-0.78125 0.195312-1.07422-0.439453-0.439453-0.976562Z"/>
  </g>
  <text style="stroke:none;fill:black;font-family:sans-serif;font-size:13;font-weight:bold;" transform="matrix(1 0 0 1 1289 1953)">Exporting</text>
  <text style="stroke:none;fill:black;font-family:sans-serif;font-size:13;" transform="matrix(1 0 0 1 1289 1971)">Symbols should be outlined when exporting to ensure the</text>
  <text style="stroke:none;fill:black;font-family:sans-serif;font-size:13;" transform="matrix(1 0 0 1 1289 1989)">design is preserved when submitting to Xcode.</text>
  <text id="template-version" style="stroke:none;fill:black;font-family:sans-serif;font-size:13;text-anchor:end;" transform="matrix(1 0 0 1 3036 1933)">Template v.5.0</text>
  <text style="stroke:none;fill:black;font-family:sans-serif;font-size:13;text-anchor:end;" transform="matrix(1 0 0 1 3036 1951)">Requires Xcode 15 or greater</text>
  <text id="descriptive-name" style="stroke:none;fill:black;font-family:sans-serif;font-size:13;text-anchor:end;" transform="matrix(1 0 0 1 3036 1969)">Generated from bag.coffee</text>
  <text style="stroke:none;fill:black;font-family:sans-serif;font-size:13;text-anchor:end;" transform="matrix(1 0 0 1 3036 1987)">Typeset at 100.0 points</text>
  <text style="stroke:none;fill:black;font-family:sans-serif;font-size:13;" transform="matrix(1 0 0 1 263 726)">Small</text>
  <text style="stroke:none;fill:black;font-family:sans-serif;font-size:13;" transform="matrix(1 0 0 1 263 1156)">Medium</text>
  <text style="stroke:none;fill:black;font-family:sans-serif;font-size:13;" transform="matrix(1 0 0 1 263 1586)">Large</text>
 </g>
 <g id="Guides">
  <g id="H-reference" style="fill:#27AAE1;stroke:none;" transform="matrix(1 0 0 1 339 696)">
   <path d="M0.993654 0L3.63775 0L29.3281-67.1323L30.0303-67.1323L30.0303-70.459L28.1226-70.459ZM11.6885-24.4799L46.9815-24.4799L46.2315-26.7285L12.4385-26.7285ZM55.1196 0L57.7637 0L30.6382-70.459L29.4326-70.459L29.4326-67.1323Z"/>
  </g>
  <line id="Baseline-S" style="fill:none;stroke:#27AAE1;opacity:1;stroke-width:0.5;" x1="263" x2="3036" y1="696" y2="696"/>
  <line id="Capline-S" style="fill:none;stroke:#27AAE1;opacity:1;stroke-width:0.5;" x1="263" x2="3036" y1="625.541" y2="625.541"/>
  <g id="H-reference" style="fill:#27AAE1;stroke:none;" transform="matrix(1 0 0 1 339 1126)">
   <path d="M0.993654 0L3.63775 0L29.3281-67.1323L30.0303-67.1323L30.0303-70.459L28.1226-70.459ZM11.6885-24.4799L46.9815-24.4799L46.2315-26.7285L12.4385-26.7285ZM55.1196 0L57.7637 0L30.6382-70.459L29.4326-70.459L29.4326-67.1323Z"/>
  </g>
  <line id="Baseline-M" style="fill:none;stroke:#27AAE1;opacity:1;stroke-width:0.5;" x1="263" x2="3036" y1="1126" y2="1126"/>
  <line id="Capline-M" style="fill:none;stroke:#27AAE1;opacity:1;stroke-width:0.5;" x1="263" x2="3036" y1="1055.54" y2="1055.54"/>
  <g id="H-reference" style="fill:#27AAE1;stroke:none;" transform="matrix(1 0 0 1 339 1556)">
   <path d="M0.993654 0L3.63775 0L29.3281-67.1323L30.0303-67.1323L30.0303-70.459L28.1226-70.459ZM11.6885-24.4799L46.9815-24.4799L46.2315-26.7285L12.4385-26.7285ZM55.1196 0L57.7637 0L30.6382-70.459L29.4326-70.459L29.4326-67.1323Z"/>
  </g>
  <line id="Baseline-L" style="fill:none;stroke:#27AAE1;opacity:1;stroke-width:0.5;" x1="263" x2="3036" y1="1556" y2="1556"/>
  <line id="Capline-L" style="fill:none;stroke:#27AAE1;opacity:1;stroke-width:0.5;" x1="263" x2="3036" y1="1485.54" y2="1485.54"/>
  <line id="left-margin-Ultralight-S" style="fill:none;stroke:#00AEEF;stroke-width:0.5;opacity:1.0;" x1="504.815" x2="504.815" y1="600.785" y2="720.121"/>
  <line id="right-margin-Ultralight-S" style="fill:none;stroke:#00AEEF;stroke-width:0.5;opacity:1.0;" x1="614.607" x2="614.607" y1="600.785" y2="720.121"/>
  <line id="left-margin-Regular-S" style="fill:none;stroke:#00AEEF;stroke-width:0.5;opacity:1.0;" x1="1391.2" x2="1391.2" y1="600.785" y2="720.121"/>
  <line id="right-margin-Regular-S" style="fill:none;stroke:#00AEEF;stroke-width:0.5;opacity:1.0;" x1="1508.49" x2="1508.49" y1="600.785" y2="720.121"/>
  <line id="left-margin-Black-S" style="fill:none;stroke:#00AEEF;stroke-width:0.5;opacity:1.0;" x1="2871.71" x2="2871.71" y1="600.785" y2="720.121"/>
  <line id="right-margin-Black-S" style="fill:none;stroke:#00AEEF;stroke-width:0.5;opacity:1.0;" x1="2995.09" x2="2995.09" y1="600.785" y2="720.121"/>
 </g>
 <g id="Symbols">
  <g id="Black-S" transform="matrix(1 0 0 1 2871.71 696)">
   <path class="monochrome-0 multicolor-0:tintColor hierarchical-0:secondary SFSymbolsPreviewWireframe" d="M64.6364-25.0296C59.6373-16.371 53.3412-14.5832 48.4711-17.395C43.601-20.2068 48.0676-24.1014 52.6118-31.9721C57.156-39.8428 58.2955-45.6583 63.1656-42.8466C68.0357-40.0348 69.6355-33.6883 64.6365-25.0297ZM47.149-28.8691C48.0313-30.2295 49.0318-31.7714 50.0137-33.4721C50.9956-35.1728 51.8306-36.81 52.5674-38.2543C53.6083-40.2948 54.5861-42.2043 55.7335-43.6771C56.2847-44.3847 55.6494-45.4309 54.7688-45.2603C51.54-44.6349 48.1644-42.0048 44.9319-36.4059C41.704-30.815 41.1111-26.5806 42.1777-23.4728C42.4693-22.6231 43.6917-22.5986 44.0302-23.4307C44.7152-25.1142 45.8594-26.8815 47.149-28.869Z"/>
   <path class="monochrome-1 multicolor-1:tintColor hierarchical-1:primary SFSymbolsPreviewWireframe" d="M77.0214 9.5L40.6904 9.5C32.13 9.5 25.1904 2.5604 25.1904-6L25.1904-47.958C25.1904-50.062 25.6084-52.1079 26.4336-54.0386L30.8703-64.4509C31.0815-64.9467 31.1904-65.48 31.1904-66.0189L31.1904-72.0001C31.1904-77.7991 35.8914-82.5001 41.6904-82.5001L81.6904-82.5001C87.4894-82.5001 92.1904-77.7991 92.1904-72.0001L92.1904-66.5743C92.1904-65.845 92.3898-65.1296 92.767-64.5054L95.957-59.2268C97.4181-56.809 98.1904-54.0378 98.1904-51.2129L98.1904-10.5009C98.1904-5.3071 95.745-0.4164 91.5898 2.6997L86.9228 6.1997C84.0663 8.342 80.592 9.5 77.0214 9.5ZM44.1904-71.5C43.0858-71.5 42.1904-70.6046 42.1904-69.5L42.1904-64.4756C42.1904-63.6221 42.0058-62.6841 41.6416-61.6875L36.5505-49.7215C36.3129-49.1639 36.1904-48.5641 36.1904-47.958L36.1904-6C36.1904-3.5147 38.2051-1.5 40.6904-1.5L77.0234-1.5C78.2129-1.5 79.3703-1.8858 80.3219-2.5994L84.9902-6.1001C86.3752-7.1387 87.1904-8.7689 87.1904-10.5001L87.1904-51.2129C87.1904-52.0327 86.9658-52.8374 86.541-53.54L81.9805-61.1215C81.4639-62.1567 81.1905-63.3153 81.1905-64.4721L81.1905-69.4999C81.1905-70.6045 80.2951-71.4999 79.1905-71.4999L44.1905-71.4999ZM71.1904-60.4253L48.1904-60.4253C46.8095-60.4253 45.6904-61.5444 45.6904-62.9253C45.6904-64.3062 46.8095-65.4253 48.1904-65.4253L71.1904-65.4253C72.5713-65.4253 73.6904-64.3062 73.6904-62.9253C73.6904-61.5444 72.5713-60.4253 71.1904-60.4253ZM75.832-10.5C74.4511-10.5 73.332-11.6191 73.332-13L73.332-47.958C73.332-49.6518 73.6689-51.3008 74.333-52.8589L76.3945-57.6953C76.9365-58.9663 78.4033-59.5557 79.6748-59.0151C80.9443-58.4736 81.5352-57.0053 80.9941-55.7353L78.9326-50.8984C78.5342-49.9633 78.332-48.9741 78.332-47.958L78.332-13C78.332-11.6191 77.2129-10.5 75.832-10.5Z"/>
  </g>
  <g id="Regular-S" transform="matrix(1 0 0 1 1391.2 696)">
   <path class="monochrome-0 multicolor-0:tintColor hierarchical-0:secondary SFSymbolsPreviewWireframe" d="M61.7464-25.0296C56.7473-16.371 50.4512-14.5832 45.5811-17.395C40.711-20.2068 45.1776-24.1014 49.7218-31.9721C54.266-39.8428 55.4055-45.6583 60.2756-42.8466C65.1457-40.0348 66.7455-33.6883 61.7465-25.0297ZM44.259-28.8691C45.1413-30.2295 46.1418-31.7714 47.1237-33.4721C48.1056-35.1728 48.9406-36.81 49.6774-38.2543C50.7183-40.2948 51.6961-42.2043 52.8435-43.6771C53.3947-44.3847 52.7594-45.4309 51.8788-45.2603C48.65-44.6349 45.2744-42.0048 42.0419-36.4059C38.814-30.815 38.2211-26.5806 39.2877-23.4728C39.5793-22.6231 40.8017-22.5986 41.1402-23.4307C41.8252-25.1142 42.9694-26.8815 44.259-28.869Z"/>
   <path class="monochrome-1 multicolor-1:tintColor hierarchical-1:primary SFSymbolsPreviewWireframe" d="M74.133 7.5L37.8 7.5C30.3442 7.5 24.3 1.4558 24.3-6L24.3-47.9574C24.3-49.7767 24.6677-51.5773 25.3811-53.251L30.1399-64.4163C30.2456-64.6642 30.3-64.931 30.3-65.2005L30.3-72.0001C30.3-76.6945 34.1056-80.5001 38.8-80.5001L78.8-80.5001C83.4944-80.5001 87.3-76.6945 87.3-72.0001L87.3-65.4599C87.3-65.0952 87.3997-64.7374 87.5884-64.4253L91.3535-58.1962C92.6269-56.0895 93.3-53.6746 93.3-51.2129L93.3-10.5C93.3-5.9604 91.132-1.624 87.5002 1.0996L82.8332 4.6001C80.3232 6.4825 77.2704 7.5 74.133 7.5ZM38.8-73.5C37.9729-73.5 37.3-72.8271 37.3-72L37.3-64.4756C37.3-63.7075 37.069-62.9111 36.8752-62.3784L31.8205-50.5063C31.4753-49.6958 31.3-48.8388 31.3-47.958L31.3-6C31.3-2.416 34.216 0.5 37.8 0.5L74.1335 0.5C75.7458 0.5 77.3435-0.0327 78.6325-1L83.3-4.5C85.1784-5.9092 86.3-8.1519 86.3-10.5L86.3-51.2129C86.3-52.398 85.9758-53.5606 85.363-54.5747L80.8796-62.0146C80.5002-62.7739 80.3-63.6235 80.3-64.4721L80.3-71.9999C80.3-72.827 79.6271-73.4999 78.8-73.4999L38.8-73.4999ZM70.3-62.9253L43.3-62.9253C42.1955-62.9253 41.3-63.8208 41.3-64.9253C41.3-66.0298 42.1955-66.9253 43.3-66.9253L70.3-66.9253C71.4045-66.9253 72.3-66.0298 72.3-64.9253C72.3-63.8208 71.4045-62.9253 70.3-62.9253ZM72.9421-8C71.8376-8 70.9421-8.8955 70.9421-10L70.9421-47.958C70.9421-49.585 71.2653-51.168 71.9025-52.6626L74.5119-58.7842C74.9455-59.8003 76.1208-60.273 77.1359-59.8399C78.152-59.4068 78.6247-58.232 78.1916-57.2159L75.5822-51.0943C75.1574-50.0977 74.9421-49.0425 74.9421-47.9581L74.9421-10.0001C74.9421-8.8956 74.0466-8.0001 72.9421-8.0001Z"/>
  </g>
  <g id="Ultralight-S" transform="matrix(1 0 0 1 504.815 696)">
   <path class="monochrome-0 multicolor-0:tintColor hierarchical-0:secondary SFSymbolsPreviewWireframe" d="M57.8403-25.0296C52.8412-16.371 46.5451-14.5832 41.675-17.395C36.8049-20.2068 41.2715-24.1014 45.8157-31.9721C50.3599-39.8428 51.4994-45.6583 56.3695-42.8466C61.2396-40.0348 62.8394-33.6883 57.8404-25.0297ZM40.3529-28.8691C41.2352-30.2295 42.2357-31.7714 43.2176-33.4721C44.1995-35.1728 45.0345-36.81 45.7713-38.2543C46.8122-40.2948 47.79-42.2043 48.9374-43.6771C49.4886-44.3847 48.8533-45.4309 47.9727-45.2603C44.7439-44.6349 41.3683-42.0048 38.1358-36.4059C34.9079-30.815 34.315-26.5806 35.3816-23.4728C35.6732-22.6231 36.8956-22.5986 37.2341-23.4307C37.9191-25.1142 39.0633-26.8815 40.3529-28.869Z"/>
   <path class="monochrome-1 multicolor-1:tintColor hierarchical-1:primary SFSymbolsPreviewWireframe" d="M70.2294 5.25L33.8959 5.25C27.6928 5.25 22.6459 0.2031 22.6459-6L22.6459-47.958C22.6459-49.4824 22.9491-50.9663 23.5468-52.3686L28.5322-64.0654C28.5703-64.1772 28.6386-64.4238 28.6469-64.5078L28.6459-72C28.6459-75.4463 31.4496-78.25 34.8959-78.25L74.8959-78.25C78.3422-78.25 81.1459-75.4463 81.1459-72L81.1459-64.4722C81.1459-64.3565 81.1732-64.2408 81.225-64.1372L85.5238-57.0317C86.5848-55.2763 87.1459-53.2641 87.1459-51.2129L87.1459-10.5C87.1459-6.6646 85.3144-3.001 82.246-0.7002L77.5795 2.7998C75.4726 4.3799 72.8627 5.25 70.2294 5.25ZM34.8959-75.75C32.828-75.75 31.1459-74.0679 31.1459-72L31.1459-64.4756C31.1459-63.9946 30.9438-63.3867 30.8568-63.148L25.8465-51.3882C25.3817-50.2979 25.1458-49.1436 25.1458-47.958L25.1458-6C25.1458-1.1753 29.0711 2.75 33.8958 2.75L70.2293 2.75C72.325 2.75 74.4026 2.0576 76.0794 0.7998L80.7459-2.7002C83.1878-4.5313 84.6458-7.4473 84.6458-10.5L84.6458-51.2129C84.6458-52.8081 84.2098-54.3731 83.3841-55.7388L79.0374-62.9312C78.7645-63.4668 78.6458-63.9698 78.6458-64.4722L78.6458-72C78.6458-74.0679 76.9637-75.75 74.8958-75.75L34.8958-75.75ZM68.3959-65.1753L37.3959-65.1753C36.9818-65.1753 36.6459-65.5112 36.6459-65.9253C36.6459-66.3394 36.9818-66.6753 37.3959-66.6753L68.3959-66.6753C68.81-66.6753 69.1459-66.3394 69.1459-65.9253C69.1459-65.5112 68.81-65.1753 68.3959-65.1753ZM69.038-9.25C68.6239-9.25 68.288-9.5859 68.288-10L68.288-47.958C68.288-49.4145 68.5776-50.8325 69.1488-52.1724L71.7577-58.294C71.9203-58.6753 72.3627-58.8521 72.7416-58.69C73.1229-58.5274 73.3002-58.087 73.1376-57.7061L70.5287-51.5845C70.037-50.4317 69.788-49.2115 69.788-47.958L69.788-10C69.788-9.5859 69.4521-9.25 69.038-9.25Z"/>
  </g>
 </g>
</svg>
