<?xml version="1.0" encoding="UTF-8"?>
<!DOCTYPE svg PUBLIC "-//W3C//DTD SVG 1.1//EN" "http://www.w3.org/Graphics/SVG/1.1/DTD/svg11.dtd">
<svg version="1.1" xmlns="http://www.w3.org/2000/svg"
     width="20" height="24" viewBox="0 0 100 120">
 
<style>
    path { fill: -apple-system-orange; }
    .secondary { opacity: 0.5; }
</style>
 
<g id="Regular-S" transform="matrix(1 0 0 1 -6 110)">
    <path class="secondary" d="M20.5566-52.6855C22.6074-52.6855 24.4141-54.3945 24.4141-56.4453C24.4141-58.5449 22.6074-60.2539 20.5566-60.2539L13.5254-60.2539C11.4746-60.2539 9.76562-58.4961 9.76562-56.4453C9.76562-54.3945 11.4746-52.6855 13.5254-52.6855ZM28.3691-79.0527C29.834-77.5879 32.2266-77.5391 33.6914-79.0527C35.1562-80.5664 35.1074-82.9102 33.6914-84.3262L28.7109-89.3555C27.2949-90.8203 24.8535-90.8203 23.3887-89.3555C21.9238-87.8418 21.9238-85.498 23.3887-84.0332ZM52.5391-92.1875C52.5391-90.0879 54.1992-88.3789 56.2988-88.3789C58.3984-88.3789 60.1074-90.0879 60.1074-92.1875L60.1074-99.2188C60.1074-101.27 58.3496-102.979 56.2988-102.979C54.1992-102.979 52.5391-101.27 52.5391-99.2188ZM78.9062-84.3262C77.4414-82.9102 77.3926-80.5664 78.9062-79.0527C80.4199-77.5391 82.7637-77.5879 84.1797-79.0527L89.209-84.0332C90.6738-85.498 90.6738-87.8418 89.209-89.3555C87.6953-90.8203 85.3516-90.8203 83.8867-89.3555ZM99.0234-52.6855C101.074-52.6855 102.783-54.3945 102.783-56.4453C102.783-58.4961 101.074-60.2539 99.0234-60.2539L91.9922-60.2539C89.8926-60.2539 88.1836-58.5449 88.1836-56.4453C88.1836-54.3945 89.8926-52.6855 91.9922-52.6855Z"/>
   <path class="primary" d="M56.2988-81.2012C42.4805-81.2012 31.6895-71.3379 31.6895-58.4473C31.6895-44.0918 40.0879-40.8203 42.4316-17.1387C42.5781-15.6738 43.3594-14.7949 44.8242-14.7949L67.7734-14.7949C69.1895-14.7949 69.9707-15.6738 70.1172-17.1387C72.4609-40.8203 80.957-44.0918 80.957-58.4473C80.957-71.3379 70.0684-81.2012 56.2988-81.2012ZM56.2988-74.8047C66.1621-74.8047 74.5605-68.0664 74.5605-58.4473C74.5605-48.1934 67.8711-46.1914 64.3066-21.1914L48.2422-21.1914C44.7266-46.1914 38.0859-48.1934 38.0859-58.4473C38.0859-68.0664 46.4355-74.8047 56.2988-74.8047ZM44.6289-6.54297L67.9688-6.54297C69.2871-6.54297 70.3613-7.56836 70.3613-8.88672C70.3613-10.2539 69.2871-11.2305 67.9688-11.2305L44.6289-11.2305C43.2617-11.2305 42.2852-10.2539 42.2852-8.88672C42.2852-7.56836 43.2617-6.54297 44.6289-6.54297ZM56.2988 4.19922C61.9629 4.19922 66.9434 1.26953 67.2363-3.02734L45.3613-3.02734C45.6055 1.26953 50.5371 4.19922 56.2988 4.19922Z"/>
</g>
</svg>
