<?xml version="1.0" encoding="utf-8"?>
<!DOCTYPE svg PUBLIC "-//W3C//DTD SVG 1.1//EN"
                     "http://www.w3.org/Graphics/SVG/1.1/DTD/svg11.dtd">

<svg version="1.1" xmlns="http://www.w3.org/2000/svg"
  xmlns:xlink="http://www.w3.org/1999/xlink"
  viewBox="0 0 72 72">

<defs>
  <style type="text/css">
    @media (prefers-color-scheme: dark) {
      .symbol path { fill: white }
    }
  </style>
  
  <mask id="mask">
    <rect fill="white" width="72" height="72"/>
    <path d="M55.6,64.48c3.22,3.17,8.45,3.17,11.57-.1,3.12-3.17,3.12-8.3-.05-11.43L19.17,5.01c-3.76-3.76-10.35-3.12-12.99,2.05-1.56,3.08-1.07,6.93,1.42,9.47l48,47.95Z"/>
  </mask>
</defs>

<g class="symbol">
  <path mask="url(#mask)" d="M14.78,63.85L55.6,23.12l-7.32-7.32L7.45,56.52l-3.56,8.84c-.39.98.68,2.15,1.71,1.81l9.18-3.32ZM59.11,19.66l4.15-4.05c2.05-2.1,2.2-4.35.34-6.2l-1.56-1.51c-1.86-1.9-4.1-1.71-6.15.34l-4.15,4.05,7.37,7.37Z"/>
  <path d="M59.01,61.06c1.32,1.32,3.47,1.32,4.74,0,1.27-1.32,1.32-3.42,0-4.74L15.8,8.38c-1.32-1.32-3.52-1.32-4.79,0-1.27,1.27-1.27,3.47,0,4.74l48,47.95Z"/>
</g>
</svg>