<?xml version="1.0" encoding="utf-8"?>
<!DOCTYPE svg
PUBLIC "-//W3C//DTD SVG 1.1//EN"
       "http://www.w3.org/Graphics/SVG/1.1/DTD/svg11.dtd">
<svg version="1.1" xmlns="http://www.w3.org/2000/svg" xmlns:xlink="http://www.w3.org/1999/xlink" width="3300" height="2200">

<g id="Notes">
  <rect height="2200" id="artboard" style="fill:white;opacity:1" width="3300" x="0" y="0"/>
  <line id="" style="fill:none;stroke:black;opacity:1;stroke-width:0.5;" x1="263" x2="3036" y1="292" y2="292"/>
  <text style="stroke:none;fill:black;font-family:-apple-system,&quot;SF Pro Display&quot;,&quot;SF Pro Text&quot;,Helvetica,sans-serif;font-weight:bold;" transform="matrix(1 0 0 1 263 322)">Weight/Scale Variations</text>
  <text style="stroke:none;fill:black;font-family:-apple-system,&quot;SF Pro Display&quot;,&quot;SF Pro Text&quot;,Helvetica,sans-serif;text-anchor:middle;" transform="matrix(1 0 0 1 559.711 322)">Ultralight</text>
  <text style="stroke:none;fill:black;font-family:-apple-system,&quot;SF Pro Display&quot;,&quot;SF Pro Text&quot;,Helvetica,sans-serif;text-anchor:middle;" transform="matrix(1 0 0 1 856.422 322)">Thin</text>
  <text style="stroke:none;fill:black;font-family:-apple-system,&quot;SF Pro Display&quot;,&quot;SF Pro Text&quot;,Helvetica,sans-serif;text-anchor:middle;" transform="matrix(1 0 0 1 1153.13 322)">Light</text>
  <text style="stroke:none;fill:black;font-family:-apple-system,&quot;SF Pro Display&quot;,&quot;SF Pro Text&quot;,Helvetica,sans-serif;text-anchor:middle;" transform="matrix(1 0 0 1 1449.84 322)">Regular</text>
  <text style="stroke:none;fill:black;font-family:-apple-system,&quot;SF Pro Display&quot;,&quot;SF Pro Text&quot;,Helvetica,sans-serif;text-anchor:middle;" transform="matrix(1 0 0 1 1746.56 322)">Medium</text>
  <text style="stroke:none;fill:black;font-family:-apple-system,&quot;SF Pro Display&quot;,&quot;SF Pro Text&quot;,Helvetica,sans-serif;text-anchor:middle;" transform="matrix(1 0 0 1 2043.27 322)">Semibold</text>
  <text style="stroke:none;fill:black;font-family:-apple-system,&quot;SF Pro Display&quot;,&quot;SF Pro Text&quot;,Helvetica,sans-serif;text-anchor:middle;" transform="matrix(1 0 0 1 2339.98 322)">Bold</text>
  <text style="stroke:none;fill:black;font-family:-apple-system,&quot;SF Pro Display&quot;,&quot;SF Pro Text&quot;,Helvetica,sans-serif;text-anchor:middle;" transform="matrix(1 0 0 1 2636.69 322)">Heavy</text>
  <text style="stroke:none;fill:black;font-family:-apple-system,&quot;SF Pro Display&quot;,&quot;SF Pro Text&quot;,Helvetica,sans-serif;text-anchor:middle;" transform="matrix(1 0 0 1 2933.4 322)">Black</text>
  <line id="" style="fill:none;stroke:black;opacity:1;stroke-width:0.5;" x1="263" x2="3036" y1="1903" y2="1903"/>
  <g id="" transform="matrix(1 0 0 1 263 1933)">
   <path d="M 9.24805 0.830078 C 13.5547 0.830078 17.1387 -2.74414 17.1387 -7.05078 C 17.1387 -11.3574 13.5449 -14.9316 9.23828 -14.9316 C 4.94141 -14.9316 1.36719 -11.3574 1.36719 -7.05078 C 1.36719 -2.74414 4.95117 0.830078 9.24805 0.830078 Z M 9.24805 -0.654297 C 5.70312 -0.654297 2.87109 -3.49609 2.87109 -7.05078 C 2.87109 -10.6055 5.69336 -13.4473 9.23828 -13.4473 C 12.793 -13.4473 15.6348 -10.6055 15.6445 -7.05078 C 15.6543 -3.49609 12.8027 -0.654297 9.24805 -0.654297 Z M 9.22852 -3.62305 C 9.69727 -3.62305 9.9707 -3.93555 9.9707 -4.45312 L 9.9707 -6.31836 L 12.002 -6.31836 C 12.5 -6.31836 12.832 -6.57227 12.832 -7.04102 C 12.832 -7.51953 12.5195 -7.7832 12.002 -7.7832 L 9.9707 -7.7832 L 9.9707 -9.81445 C 9.9707 -10.332 9.69727 -10.6543 9.22852 -10.6543 C 8.75977 -10.6543 8.50586 -10.3125 8.50586 -9.81445 L 8.50586 -7.7832 L 6.49414 -7.7832 C 5.97656 -7.7832 5.64453 -7.51953 5.64453 -7.04102 C 5.64453 -6.57227 5.99609 -6.31836 6.49414 -6.31836 L 8.50586 -6.31836 L 8.50586 -4.45312 C 8.50586 -3.95508 8.75977 -3.62305 9.22852 -3.62305 Z" transform="rotate(180, 35.8, -35.25)"/>
  </g>
  <g id="" transform="matrix(1 0 0 1 281.506 1933)">
   <path d="M 11.709 2.91016 C 17.1582 2.91016 21.6699 -1.61133 21.6699 -7.05078 C 21.6699 -12.5 17.1484 -17.0117 11.6992 -17.0117 C 6.25977 -17.0117 1.74805 -12.5 1.74805 -7.05078 C 1.74805 -1.61133 6.26953 2.91016 11.709 2.91016 Z M 11.709 1.25 C 7.09961 1.25 3.41797 -2.44141 3.41797 -7.05078 C 3.41797 -11.6602 7.08984 -15.3516 11.6992 -15.3516 C 16.3086 -15.3516 20 -11.6602 20.0098 -7.05078 C 20.0195 -2.44141 16.3184 1.25 11.709 1.25 Z M 11.6797 -2.66602 C 12.207 -2.66602 12.5098 -3.01758 12.5098 -3.59375 L 12.5098 -6.23047 L 15.3223 -6.23047 C 15.8691 -6.23047 16.25 -6.51367 16.25 -7.03125 C 16.25 -7.55859 15.8887 -7.86133 15.3223 -7.86133 L 12.5098 -7.86133 L 12.5098 -10.6836 C 12.5098 -11.25 12.207 -11.6113 11.6797 -11.6113 C 11.1621 -11.6113 10.8789 -11.2305 10.8789 -10.6836 L 10.8789 -7.86133 L 8.07617 -7.86133 C 7.50977 -7.86133 7.13867 -7.55859 7.13867 -7.03125 C 7.13867 -6.51367 7.5293 -6.23047 8.07617 -6.23047 L 10.8789 -6.23047 L 10.8789 -3.59375 C 10.8789 -3.03711 11.1621 -2.66602 11.6797 -2.66602 Z" transform="rotate(180, 35.8, -35.25)"/>
  </g>
  <g id="" transform="matrix(1 0 0 1 304.924 1933)">
   <path d="M 14.9707 5.66406 C 21.9336 5.66406 27.6953 -0.0976562 27.6953 -7.05078 C 27.6953 -14.0137 21.9238 -19.7754 14.9609 -19.7754 C 8.00781 -19.7754 2.25586 -14.0137 2.25586 -7.05078 C 2.25586 -0.0976562 8.01758 5.66406 14.9707 5.66406 Z M 14.9707 3.84766 C 8.93555 3.84766 4.08203 -1.01562 4.08203 -7.05078 C 4.08203 -13.0957 8.92578 -17.9492 14.9609 -17.9492 C 21.0059 -17.9492 25.8594 -13.0957 25.8691 -7.05078 C 25.8789 -1.01562 21.0156 3.84766 14.9707 3.84766 Z M 14.9414 -1.38672 C 15.5176 -1.38672 15.8594 -1.77734 15.8594 -2.38281 L 15.8594 -6.13281 L 19.7754 -6.13281 C 20.3711 -6.13281 20.7812 -6.46484 20.7812 -7.02148 C 20.7812 -7.59766 20.3906 -7.93945 19.7754 -7.93945 L 15.8594 -7.93945 L 15.8594 -11.8652 C 15.8594 -12.4805 15.5176 -12.8711 14.9414 -12.8711 C 14.375 -12.8711 14.0527 -12.4609 14.0527 -11.8652 L 14.0527 -7.93945 L 10.1465 -7.93945 C 9.53125 -7.93945 9.13086 -7.59766 9.13086 -7.02148 C 9.13086 -6.46484 9.55078 -6.13281 10.1465 -6.13281 L 14.0527 -6.13281 L 14.0527 -2.38281 C 14.0527 -1.79688 14.375 -1.38672 14.9414 -1.38672 Z"/>
  </g>
  <text style="stroke:none;fill:black;font-family:-apple-system,&quot;SF Pro Display&quot;,&quot;SF Pro Text&quot;,Helvetica,sans-serif;font-weight:bold;" transform="matrix(1 0 0 1 263 1953)">Design Variations</text>
  <text style="stroke:none;fill:black;font-family:-apple-system,&quot;SF Pro Display&quot;,&quot;SF Pro Text&quot;,Helvetica,sans-serif;" transform="matrix(1 0 0 1 263 1971)">Symbols are supported in up to nine weights and three scales.</text>
  <text style="stroke:none;fill:black;font-family:-apple-system,&quot;SF Pro Display&quot;,&quot;SF Pro Text&quot;,Helvetica,sans-serif;" transform="matrix(1 0 0 1 263 1989)">For optimal layout with text and other symbols, vertically align</text>
  <text style="stroke:none;fill:black;font-family:-apple-system,&quot;SF Pro Display&quot;,&quot;SF Pro Text&quot;,Helvetica,sans-serif;" transform="matrix(1 0 0 1 263 2007)">symbols with the adjacent text.</text>
  <line id="" style="fill:none;stroke:#00AEEF;stroke-width:0.5;opacity:1.0;" x1="776" x2="776" y1="1919" y2="1933"/>
  <g id="" transform="matrix(1 0 0 1 776 1933)">
   <path d="M 3.31055 0.126953 C 3.82812 0.126953 4.08203 -0.0683594 4.26758 -0.605469 L 5.52734 -4.0625 L 11.2891 -4.0625 L 12.5488 -0.605469 C 12.7344 -0.0683594 12.9883 0.126953 13.4961 0.126953 C 14.0137 0.126953 14.3457 -0.185547 14.3457 -0.673828 C 14.3457 -0.839844 14.3164 -0.986328 14.2383 -1.20117 L 9.6582 -13.3887 C 9.43359 -13.9941 9.0332 -14.2871 8.4082 -14.2871 C 7.80273 -14.2871 7.39258 -13.9941 7.17773 -13.3984 L 2.59766 -1.19141 C 2.51953 -0.976562 2.49023 -0.830078 2.49023 -0.664062 C 2.49023 -0.175781 2.80273 0.126953 3.31055 0.126953 Z M 6.00586 -5.53711 L 8.37891 -12.1094 L 8.42773 -12.1094 L 10.8008 -5.53711 Z"/>
  </g>
  <line id="" style="fill:none;stroke:#00AEEF;stroke-width:0.5;opacity:1.0;" x1="792.836" x2="792.836" y1="1919" y2="1933"/>
  <text style="stroke:none;fill:black;font-family:-apple-system,&quot;SF Pro Display&quot;,&quot;SF Pro Text&quot;,Helvetica,sans-serif;font-weight:bold;" transform="matrix(1 0 0 1 776 1953)">Margins</text>
  <text style="stroke:none;fill:black;font-family:-apple-system,&quot;SF Pro Display&quot;,&quot;SF Pro Text&quot;,Helvetica,sans-serif;" transform="matrix(1 0 0 1 776 1971)">Leading and trailing margins on the left and right side of each symbol</text>
  <text style="stroke:none;fill:black;font-family:-apple-system,&quot;SF Pro Display&quot;,&quot;SF Pro Text&quot;,Helvetica,sans-serif;" transform="matrix(1 0 0 1 776 1989)">can be adjusted by modifying the x-location of the margin guidelines.</text>
  <text style="stroke:none;fill:black;font-family:-apple-system,&quot;SF Pro Display&quot;,&quot;SF Pro Text&quot;,Helvetica,sans-serif;" transform="matrix(1 0 0 1 776 2007)">Modifications are automatically applied proportionally to all</text>
  <text style="stroke:none;fill:black;font-family:-apple-system,&quot;SF Pro Display&quot;,&quot;SF Pro Text&quot;,Helvetica,sans-serif;" transform="matrix(1 0 0 1 776 2025)">scales and weights.</text>
  <g id="" transform="matrix(1 0 0 1 1289 1933)">
   <path d="M 2.8418 1.86523 L 4.54102 3.57422 C 5.40039 4.44336 6.38672 4.38477 7.31445 3.35938 L 17.4902 -7.85156 C 17.7539 -7.76367 18.0273 -7.7832 18.3398 -7.8418 L 19.4043 -8.03711 L 20.0684 -7.36328 L 20.0293 -6.80664 C 19.9902 -6.30859 20.1172 -5.92773 20.6055 -5.44922 L 21.3672 -4.70703 C 21.8457 -4.22852 22.4609 -4.19922 22.9297 -4.66797 L 25.8398 -7.58789 C 26.3086 -8.05664 26.2891 -8.65234 25.8105 -9.13086 L 25.0391 -9.89258 C 24.5605 -10.3711 24.1895 -10.5273 23.7109 -10.4883 L 23.1348 -10.4395 L 22.4902 -11.0742 L 22.7344 -12.1973 C 22.8613 -12.7637 22.7051 -13.2031 22.1191 -13.7891 L 19.9219 -15.9766 C 16.582 -19.2969 12.1484 -19.2188 9.25781 -16.3281 C 8.83789 -15.918 8.80859 -15.3418 9.04297 -14.9512 C 9.27734 -14.5898 9.73633 -14.3555 10.3809 -14.5215 C 11.8457 -14.8633 13.3691 -14.9219 14.7949 -13.9844 L 14.209 -12.5293 C 14.0137 -12.0508 13.9844 -11.6504 14.1113 -11.2891 L 3.04688 -0.898438 C 2.06055 0.0195312 1.98242 0.996094 2.8418 1.86523 Z M 10.752 -15.957 C 13.1836 -17.7344 16.4746 -17.4316 18.7012 -15.2051 L 21.1328 -12.793 C 21.3672 -12.5586 21.4062 -12.373 21.3379 -12.0312 L 21.0156 -10.5469 L 22.5195 -9.0625 L 23.5059 -9.12109 C 23.7598 -9.13086 23.8379 -9.11133 24.0332 -8.91602 L 24.6094 -8.33984 L 22.168 -5.89844 L 21.5918 -6.47461 C 21.3965 -6.66992 21.3672 -6.74805 21.377 -7.01172 L 21.4453 -7.98828 L 19.9512 -9.47266 L 18.4277 -9.21875 C 18.1055 -9.15039 17.959 -9.17969 17.7148 -9.41406 L 15.7129 -11.416 C 15.459 -11.6504 15.4297 -11.8164 15.5859 -12.1875 L 16.4648 -14.2773 C 14.9023 -15.7324 12.8711 -16.3574 10.8398 -15.7617 C 10.6836 -15.7227 10.625 -15.8496 10.752 -15.957 Z M 5.27344 2.30469 L 4.10156 1.14258 C 3.63281 0.683594 3.74023 0.341797 4.14062 -0.0195312 L 14.9512 -10.1953 L 16.416 -8.71094 L 6.42578 2.27539 C 6.07422 2.67578 5.74219 2.77344 5.27344 2.30469 Z"/>
  </g>
  <text style="stroke:none;fill:black;font-family:-apple-system,&quot;SF Pro Display&quot;,&quot;SF Pro Text&quot;,Helvetica,sans-serif;font-weight:bold;" transform="matrix(1 0 0 1 1289 1953)">Exporting</text>
  <text style="stroke:none;fill:black;font-family:-apple-system,&quot;SF Pro Display&quot;,&quot;SF Pro Text&quot;,Helvetica,sans-serif;" transform="matrix(1 0 0 1 1289 1971)">Symbols should be outlined when exporting to ensure the</text>
  <text style="stroke:none;fill:black;font-family:-apple-system,&quot;SF Pro Display&quot;,&quot;SF Pro Text&quot;,Helvetica,sans-serif;" transform="matrix(1 0 0 1 1289 1989)">design is preserved when submitting to Xcode.</text>
  <text id="template-version" style="stroke:none;fill:black;font-family:-apple-system,&quot;SF Pro Display&quot;,&quot;SF Pro Text&quot;,Helvetica,sans-serif;text-anchor:end;" transform="matrix(1 0 0 1 3036 1933)">Template v.2.0</text>
  <text style="stroke:none;fill:black;font-family:-apple-system,&quot;SF Pro Display&quot;,&quot;SF Pro Text&quot;,Helvetica,sans-serif;text-anchor:end;" transform="matrix(1 0 0 1 3036 1951)">Requires Xcode 12 or greater</text>
  <text style="stroke:none;fill:black;font-family:-apple-system,&quot;SF Pro Display&quot;,&quot;SF Pro Text&quot;,Helvetica,sans-serif;text-anchor:end;" transform="matrix(1 0 0 1 3036 1969)">Generated from arrow.triangle.capsulepath</text>
  <text style="stroke:none;fill:black;font-family:-apple-system,&quot;SF Pro Display&quot;,&quot;SF Pro Text&quot;,Helvetica,sans-serif;text-anchor:end;" transform="matrix(1 0 0 1 3036 1987)">Typeset at 100 points</text>
  <text style="stroke:none;fill:black;font-family:-apple-system,&quot;SF Pro Display&quot;,&quot;SF Pro Text&quot;,Helvetica,sans-serif;" transform="matrix(1 0 0 1 263 726)">Small</text>
  <text style="stroke:none;fill:black;font-family:-apple-system,&quot;SF Pro Display&quot;,&quot;SF Pro Text&quot;,Helvetica,sans-serif;" transform="matrix(1 0 0 1 263 1156)">Medium</text>
  <text style="stroke:none;fill:black;font-family:-apple-system,&quot;SF Pro Display&quot;,&quot;SF Pro Text&quot;,Helvetica,sans-serif;" transform="matrix(1 0 0 1 263 1586)">Large</text>
 </g>
 <g id="Guides">
  <g id="H-reference" style="fill:#27AAE1;stroke:none;" transform="matrix(1 0 0 1 339 696)">
   <path d="M 0.976562 0 L 3.66211 0 L 12.9883 -24.4629 L 45.7031 -24.4629 L 55.0781 0 L 57.7148 0 L 30.6152 -70.459 L 28.125 -70.459 Z M 29.2969 -67.1387 L 29.3945 -67.1387 L 44.873 -26.709 L 13.8672 -26.709 Z"/>
  </g>
  <line id="Baseline-S" style="fill:none;stroke:#27AAE1;opacity:1;stroke-width:0.5;" x1="263" x2="3036" y1="696" y2="696"/>
  <line id="Capline-S" style="fill:none;stroke:#27AAE1;opacity:1;stroke-width:0.5;" x1="263" x2="3036" y1="625.541" y2="625.541"/>
  <g id="H-reference" style="fill:#27AAE1;stroke:none;" transform="matrix(1 0 0 1 339 1126)">
   <path d="M 0.976562 0 L 3.66211 0 L 12.9883 -24.4629 L 45.7031 -24.4629 L 55.0781 0 L 57.7148 0 L 30.6152 -70.459 L 28.125 -70.459 Z M 29.2969 -67.1387 L 29.3945 -67.1387 L 44.873 -26.709 L 13.8672 -26.709 Z"/>
  </g>
  <line id="Baseline-M" style="fill:none;stroke:#27AAE1;opacity:1;stroke-width:0.5;" x1="263" x2="3036" y1="1126" y2="1126"/>
  <line id="Capline-M" style="fill:none;stroke:#27AAE1;opacity:1;stroke-width:0.5;" x1="263" x2="3036" y1="1055.54" y2="1055.54"/>
  <g id="H-reference" style="fill:#27AAE1;stroke:none;" transform="matrix(1 0 0 1 339 1556)">
   <path d="M 0.976562 0 L 3.66211 0 L 12.9883 -24.4629 L 45.7031 -24.4629 L 55.0781 0 L 57.7148 0 L 30.6152 -70.459 L 28.125 -70.459 Z M 29.2969 -67.1387 L 29.3945 -67.1387 L 44.873 -26.709 L 13.8672 -26.709 Z"/>
  </g>
  <line id="Baseline-L" style="fill:none;stroke:#27AAE1;opacity:1;stroke-width:0.5;" x1="263" x2="3036" y1="1556" y2="1556"/>
  <line id="Capline-L" style="fill:none;stroke:#27AAE1;opacity:1;stroke-width:0.5;" x1="263" x2="3036" y1="1485.54" y2="1485.54"/>
  <line id="left-margin" style="fill:none;stroke:#00AEEF;stroke-width:0.5;opacity:1.0;" x1="1401.43" x2="1401.43" y1="1030.79" y2="1150.12"/>
  <line id="right-margin" style="fill:none;stroke:#00AEEF;stroke-width:0.5;opacity:1.0;" x1="1498.26" x2="1498.26" y1="1030.79" y2="1150.12"/>
 </g>
 
<g id="Symbols">
  <g id="Black-L" transform="matrix(1 0 0 1 2866.38 1556)">
    <path d="M67-108c-26,0-43.7,17.7-43.7,43.7v5.9c0,5.5,4.5,9.9,10,9.9c5.5,0,10-4.4,10-9.9v-5.9c0-14.5,9.3-23.8,23.7-23.8
      c14.5,0,23.8,9.4,23.8,23.8v58.1c0,14.4-9.3,23.7-23.8,23.7c-13.4,0-22.4-8.1-23.6-20.8H52c6,0,7.9-5.3,3.9-10.6L38.9-37
      c-3.2-4.3-8.2-4.2-11.3,0L10.4-14c-3.9,5.3-2.2,10.7,4,10.7h9.1C24.8,21.1,42,37.4,67,37.4c26.1,0,43.7-17.7,43.7-43.6v-58.1
      C110.7-90.3,93.1-108,67-108z"/>
  </g>
  <g id="Heavy-L" transform="matrix(1 0 0 1 2570.94 1556)">
    <path d="M65.7-106.7c-25.3,0-42.4,17.1-42.4,42.4v7.5c0,4.8,3.9,8.7,8.7,8.7c4.8,0,8.7-3.9,8.7-8.7v-7.5c0-15.1,9.9-25.1,25-25.1
      c15.2,0,25.1,10,25.1,25.1v58.1c0,15.1-9.9,25-25.1,25c-14.5,0-24.2-9.1-25-23.1h8.8c5.6,0,7.2-4.7,3.7-9.5L37-36.1
      c-2.9-3.9-7.3-3.9-10.2,0L10.4-13.9c-3.5,4.8-2,9.6,3.7,9.6h9.2c0.9,24.2,17.7,40.4,42.3,40.4c25.3,0,42.4-17.1,42.4-42.4v-58.1
      C108.2-89.6,91.1-106.7,65.7-106.7z"/>
  </g>
  <g id="Bold-L" transform="matrix(1 0 0 1 2275.65 1556)">
    <path d="M64.3-105.3c-24.5,0-41,16.5-41,41v9.3c0,4,3.3,7.2,7.3,7.2c4,0,7.3-3.2,7.3-7.2v-9.3c0-15.9,10.5-26.5,26.4-26.5
      c16,0,26.5,10.6,26.5,26.5v58.1c0,15.9-10.5,26.5-26.5,26.5C48.7,20.2,38.2,10,37.9-5.4H47c5,0,6.5-4.1,3.4-8.3L34.9-35.2
      c-2.5-3.5-6.3-3.4-8.8,0L10.5-13.7c-3.1,4.2-1.7,8.3,3.4,8.3h9.4c0.4,24.1,16.7,40.1,41,40.1c24.6,0,41-16.5,41-41v-58.1
      C105.3-88.9,88.9-105.3,64.3-105.3z"/>
  </g>
  <g id="Semibold-L" transform="matrix(1 0 0 1 1979.91 1556)">
    <path d="M63.3-104.3c-24,0-40,16-40,40v10.5c0,3.5,2.8,6.2,6.3,6.2c3.5,0,6.3-2.8,6.3-6.2v-10.5c0-16.5,11-27.5,27.4-27.5
      c16.5,0,27.5,11,27.5,27.5v58.1c0,16.5-11,27.4-27.5,27.4c-16.4,0-27.4-11-27.4-27.4h9.2c4.6,0,6-3.6,3.2-7.4L33.5-34.5
      c-2.2-3.1-5.7-3.1-8,0L10.6-13.7c-2.8,3.9-1.5,7.4,3.2,7.4h9.6c0,24,16,40,40,40c24,0,40-16,40-40v-58.1
      C103.4-88.3,87.4-104.3,63.3-104.3z"/>
  </g>
  <g id="Medium-L" transform="matrix(1 0 0 1 1683.93 1556)">
    <path d="M62.5-103.6c-23.5,0-39.2,15.7-39.2,39.3v11.4c0,3,2.5,5.5,5.5,5.5c3,0,5.6-2.5,5.6-5.5v-11.4c0-16.9,11.3-28.2,28.1-28.2
      c16.9,0,28.3,11.3,28.3,28.2v58.1c0,16.8-11.4,28.2-28.3,28.2c-16.8,0-28.1-11.3-28.1-28.2v-0.6h9.3c4.3,0,5.6-3.2,3-6.7
      L32.4-33.9c-2.1-2.9-5.2-2.9-7.3,0L10.6-13.6c-2.5,3.6-1.4,6.8,3,6.8h9.7v0.6C23.3,17.3,39,33,62.5,33c23.6,0,39.3-15.7,39.3-39.3
      v-58.1C101.9-87.9,86.2-103.6,62.5-103.6z"/>
  </g>
  <g id="Regular-L" transform="matrix(1 0 0 1 1388.2 1556)">
    <path d="M61.6-102.6c-23,0-38.3,15.2-38.3,38.3v12.6c0,2.5,2.1,4.5,4.6,4.5c2.5,0,4.6-2.1,4.6-4.5v-12.6
      c0-17.4,11.7-29.2,29.1-29.2c17.4,0,29.2,11.8,29.2,29.2v58.1c0,17.4-11.8,29.2-29.2,29.2c-17.4,0-29.1-11.8-29.1-29.2v-1.4H42
      c4,0,5-2.7,2.8-5.9L31-33.3c-1.8-2.6-4.5-2.6-6.3,0L10.7-13.5c-2.3,3.2-1.2,5.9,2.8,5.9h9.8v1.4c0,23,15.2,38.3,38.3,38.3
      C84.7,32,100,16.8,100-6.3v-58.1C100-87.4,84.7-102.6,61.6-102.6z"/>
  </g>
  <g id="Light-L" transform="matrix(1 0 0 1 1092.59 1556)">
    <path d="M60.5-101.6c-22.4,0-37.2,14.7-37.2,37.2v12.8c0,1.9,1.6,3.4,3.5,3.4c1.9,0,3.5-1.5,3.5-3.4v-12.8
      c0-18,12.2-30.3,30.2-30.3s30.3,12.3,30.3,30.3v58.1c0,18-12.3,30.3-30.3,30.3S30.3,11.7,30.3-6.3v-2.9h10.4
      c3.2,0,4.2-2.2,2.3-4.9L29.4-33.5c-1.6-2.2-3.8-2.3-5.4,0L10.4-14.2c-2,2.7-1,4.9,2.3,4.9h10.6v2.9c0,22.5,14.7,37.2,37.2,37.2
      c22.5,0,37.2-14.7,37.2-37.2v-58.1C97.7-86.8,83-101.6,60.5-101.6z"/>
  </g>
  <g id="Thin-L" transform="matrix(1 0 0 1 797.365 1556)">
    <path d="M59-100.1c-21.6,0-35.7,14.1-35.7,35.7v13.1c0,1.1,0.9,2,2,2c1.1,0,2-0.9,2-2v-13.1c0-18.8,12.8-31.7,31.7-31.7
      c18.8,0,31.8,12.9,31.8,31.7v58c0,18.8-12.9,31.8-31.8,31.8c-18.8,0-31.7-12.9-31.7-31.8v-4.9h11.5c2.3,0,3.1-1.6,1.7-3.7
      L27.3-33.8c-1.2-1.8-2.8-1.8-4.1,0L10.2-15c-1.5,2.1-0.7,3.7,1.6,3.7h11.6v4.9c0,21.7,14.1,35.8,35.7,35.8
      c21.7,0,35.7-14.1,35.7-35.8v-58C94.8-86,80.7-100.1,59-100.1z"/>
  </g>
  <g id="Ultralight-L" transform="matrix(1 0 0 1 501.41 1556)">
    <path d="M58.3-99.3c-21.2,0-34.9,13.8-34.9,35v13.2c0,0.7,0.5,1.3,1.2,1.3s1.3-0.6,1.3-1.3v-13.2c0-19.2,13.2-32.5,32.4-32.5
      c19.3,0,32.5,13.3,32.5,32.5v58c0,19.2-13.2,32.5-32.5,32.5C39,26.2,25.8,12.9,25.8-6.3v-6h12.1c1.8,0,2.6-1.3,1.3-3L26.3-33.9
      c-1-1.5-2.3-1.5-3.4,0L10-15.3c-1.2,1.8-0.5,3,1.3,3h12.1v6c0,21.3,13.7,35,34.9,35c21.3,0,35-13.7,35-35v-58
      C93.3-85.5,79.5-99.3,58.3-99.3z"/>
  </g>
  <g id="Black-M" transform="matrix(1 0 0 1 2880.37 1126)">
    <path d="M53-92.8c-20.8,0-34.9,14.2-34.9,35v2.5c0,4.8,4,8.8,8.8,8.8c4.9,0,8.8-4,8.8-8.8v-2.5c0-10.6,6.7-17.4,17.3-17.4
      c10.6,0,17.4,6.7,17.4,17.4v45C70.4-2.2,63.6,4.5,53,4.5C43.4,4.5,37-1,35.9-9.9h6.8c5,0,6.6-4.7,3.1-9.3l-14-18.7
      c-2.8-3.7-7.2-3.6-9.9,0L7.8-19.2c-3.4,4.5-2,9.3,3.1,9.3h7.2c1.2,19.1,15,32.1,34.8,32.1c20.8,0,35-14.2,35-35v-45
      C88-78.6,73.8-92.8,53-92.8z"/>
  </g>
  <g id="Heavy-M" transform="matrix(1 0 0 1 2584.74 1126)">
    <path d="M51.9-91.7c-20.2,0-33.8,13.7-33.8,33.9v4.2c0,4.2,3.5,7.7,7.7,7.7c4.2,0,7.7-3.5,7.7-7.7v-4.2c0-11.2,7.2-18.5,18.4-18.5
      c11.2,0,18.5,7.2,18.5,18.5v45c0,11.1-7.3,18.4-18.5,18.4c-10.4,0-17.4-6.3-18.3-16.3h6.9c4.6,0,6.1-4.2,3-8.3l-13.3-18
      c-2.5-3.4-6.4-3.3-8.8,0L8-18.9c-3.1,4.1-1.8,8.3,2.9,8.3h7.2C19,8.3,32.5,21.1,51.9,21.1c20.2,0,33.9-13.7,33.9-33.8v-45
      C85.8-77.9,72.1-91.7,51.9-91.7z"/>
  </g>
  <g id="Bold-M" transform="matrix(1 0 0 1 2289.25 1126)">
    <path d="M50.7-90.4c-19.5,0-32.6,13.1-32.6,32.7v6.1c0,3.6,2.9,6.5,6.5,6.5c3.6,0,6.5-2.9,6.5-6.5v-6.1c0-11.9,7.8-19.7,19.6-19.7
      c11.9,0,19.7,7.8,19.7,19.7v45C70.4-1,62.5,6.8,50.7,6.8c-11.4,0-19-7.2-19.6-18.3H38c4.2,0,5.5-3.6,2.8-7.2L28.3-35.8
      c-2.1-3-5.5-2.9-7.7,0L8.1-18.7c-2.7,3.6-1.5,7.2,2.8,7.2h7.2c0.6,18.7,13.6,31.3,32.6,31.3c19.5,0,32.7-13.1,32.7-32.6v-45
      C83.3-77.3,70.2-90.4,50.7-90.4z"/>
  </g>
  <g id="Semibold-M" transform="matrix(1 0 0 1 1993.39 1126)">
    <path d="M49.9-89.6c-19,0-31.8,12.7-31.8,31.8v7.4c0,3.1,2.6,5.7,5.7,5.7c3.1,0,5.7-2.5,5.7-5.7v-7.4c0-12.4,8.2-20.6,20.5-20.6
      c12.4,0,20.5,8.2,20.5,20.6v45c0,12.3-8.2,20.5-20.5,20.5c-12,0-20.1-7.8-20.5-19.7h6.9c4,0,5.1-3.1,2.7-6.4L27.1-35
      c-2-2.7-5-2.7-6.9,0l-12,16.6C5.8-15.2,6.9-12,10.9-12h7.2c0.3,18.6,13,31,31.7,31c19,0,31.8-12.8,31.8-31.8v-45
      C81.7-76.9,68.9-89.6,49.9-89.6z"/>
  </g>
  <g id="Medium-M" transform="matrix(1 0 0 1 1697.31 1126)">
    <path d="M49.2-89c-18.7,0-31.1,12.5-31.1,31.2v8.3c0,2.8,2.2,5,5,5c2.8,0,5-2.2,5-5v-8.3c0-12.7,8.4-21.2,21.1-21.2
      c12.7,0,21.2,8.5,21.2,21.2v45c0,12.6-8.5,21.1-21.2,21.1C36.7,8.3,28.3,0,28.1-12.5H35c3.7,0,4.8-2.8,2.6-5.8L26.1-34.4
      c-1.8-2.5-4.5-2.5-6.3,0L8.3-18.3c-2.2,3.1-1.2,5.9,2.6,5.9h7.2c0.1,18.5,12.6,30.8,31.1,30.8c18.7,0,31.2-12.5,31.2-31.2v-45
      C80.4-76.5,67.9-89,49.2-89z"/>
  </g>
  <g id="Regular-M" transform="matrix(1 0 0 1 1401.43 1126)">
    <path d="M48.3-88.1c-18.2,0-30.3,12.1-30.3,30.4v9.7c0,2.3,1.9,4.2,4.2,4.2c2.3,0,4.2-1.9,4.2-4.2v-9.7c0-13.2,8.8-22,21.9-22
      c13.2,0,22,8.8,22,22v45c0,13.1-8.8,22-22,22c-13.1,0-21.9-8.9-21.9-22v-0.2h6.9c3.4,0,4.3-2.4,2.5-5.1L24.9-33.6
      c-1.6-2.2-3.9-2.2-5.5,0l-11,15.5c-1.9,2.7-1,5.1,2.5,5.1h7.2v0.2c0,18.2,12.1,30.3,30.3,30.3c18.3,0,30.4-12.1,30.4-30.3v-45
      C78.7-76,66.6-88.1,48.3-88.1z"/>
  </g>
  <g id="Light-M" transform="matrix(1 0 0 1 1105.72 1126)">
    <path d="M47.4-87.1c-17.7,0-29.3,11.7-29.3,29.4v9.8c0,1.8,1.4,3.2,3.2,3.2c1.8,0,3.2-1.4,3.2-3.2v-9.8c0-13.7,9.3-23,22.9-23
      s23,9.3,23,23v45c0,13.7-9.3,22.9-23,22.9S24.4,0.9,24.4-12.7v-1.6h7.7c2.8,0,3.6-2,2-4.2L23.4-33.7c-1.3-1.9-3.3-2-4.6,0
      L8.2-18.6c-1.7,2.3-0.8,4.3,2,4.3h7.9v1.6c0,17.6,11.6,29.3,29.3,29.3S76.7,4.9,76.7-12.7v-45C76.7-75.4,65-87.1,47.4-87.1z"/>
  </g>
  <g id="Thin-M" transform="matrix(1 0 0 1 810.328 1126)">
    <path d="M46-85.8c-16.9,0-28,11.1-28,28.1v10.1c0,1,0.8,1.9,1.9,1.9c1,0,1.9-0.8,1.9-1.9v-10.1C21.8-72.2,31.6-82,46-82
      c14.4,0,24.3,9.9,24.3,24.3v44.9c0,14.4-9.9,24.3-24.3,24.3c-14.5,0-24.3-9.9-24.3-24.3v-3.4h8.7c2,0,2.6-1.4,1.4-3.1L21.6-34
      c-1-1.5-2.4-1.5-3.4,0L7.9-19.3c-1.2,1.8-0.5,3.2,1.4,3.2h8.8v3.4c0,17,11,28,28,28c16.9,0,28-11,28-28v-44.9
      C74.1-74.7,63-85.8,46-85.8z"/>
  </g>
  <g id="Ultralight-M" transform="matrix(1 0 0 1 514.301 1126)">
    <path d="M45.4-85.1c-16.6,0-27.3,10.7-27.3,27.4v10.2c0,0.6,0.5,1.2,1.2,1.2c0.6,0,1.2-0.5,1.2-1.2v-10.2c0-14.8,10.1-25,24.9-25
      s25,10.2,25,25v44.9c0,14.8-10.2,25-25,25S20.5,2,20.5-12.8v-4.3h9.2c1.6,0,2.1-1.1,1.1-2.6L20.7-34.1c-0.8-1.2-2-1.2-2.8,0
      L7.8-19.7c-1,1.5-0.4,2.6,1.1,2.6h9.2v4.3c0,16.6,10.7,27.3,27.3,27.3c16.7,0,27.4-10.7,27.4-27.3v-44.9
      C72.8-74.4,62-85.1,45.4-85.1z"/>
  </g>
  <g id="Black-S" transform="matrix(1 0 0 1 2891.92 696)">
    <path d="M41.5-80.2c-16.2,0-27.3,11.1-27.3,27.3v2.1c0,3.8,3.1,6.8,6.8,6.8c3.8,0,6.8-3.1,6.8-6.8v-2.1c0-8.3,5.3-13.7,13.6-13.7
      c8.3,0,13.7,5.3,13.7,13.7v35.3C55.1-9.3,49.8-4,41.5-4C33.9-4,28.8-8.4,28-15.4h5.3c3.9,0,5.1-3.7,2.4-7.2L24.8-37.3
      c-2.1-2.9-5.6-2.8-7.7,0l-11,14.6c-2.6,3.5-1.5,7.2,2.4,7.2h5.6c1,15,11.8,25.1,27.2,25.1c16.3,0,27.3-11.1,27.3-27.3v-35.3
      C68.8-69.1,57.7-80.2,41.5-80.2z"/>
  </g>
  <g id="Heavy-S" transform="matrix(1 0 0 1 2595.94 696)">
    <path d="M40.7-79.5c-15.8,0-26.6,10.7-26.6,26.6v3.4c0,3.4,2.7,6.1,6.1,6.1c3.4,0,6.1-2.7,6.1-6.1v-3.4c0-8.7,5.7-14.4,14.4-14.4
      c8.7,0,14.4,5.7,14.4,14.4v35.3c0,8.7-5.7,14.4-14.4,14.4c-8.1,0-13.5-4.9-14.3-12.5h5.3c3.7,0,4.8-3.3,2.3-6.5L23.7-36.5
      c-2-2.6-5-2.6-7,0L6.3-22.4c-2.4,3.3-1.4,6.6,2.4,6.6h5.6C15-1,25.5,8.9,40.7,8.9c15.9,0,26.6-10.7,26.6-26.6v-35.3
      C67.3-68.8,56.6-79.5,40.7-79.5z"/>
  </g>
  <g id="Bold-S" transform="matrix(1 0 0 1 2300.04 696)">
    <path d="M39.9-78.7c-15.4,0-25.8,10.4-25.8,25.8v4.8c0,2.9,2.4,5.3,5.3,5.3c2.9,0,5.3-2.4,5.3-5.3v-4.8c0-9.2,6-15.2,15.2-15.2
      s15.2,6.1,15.2,15.2v35.3c0,9.1-6,15.2-15.2,15.2c-8.7,0-14.6-5.4-15.1-13.8H30c3.5,0,4.5-2.9,2.3-5.8l-9.8-13.5
      c-1.7-2.4-4.4-2.4-6.2,0L6.4-22.1c-2.1,2.9-1.2,5.8,2.3,5.8h5.5C14.8-1.7,25,8.1,39.9,8.1c15.4,0,25.8-10.4,25.8-25.7v-35.3
      C65.7-68.3,55.3-78.7,39.9-78.7z"/>
  </g>
  <g id="Semibold-S" transform="matrix(1 0 0 1 2003.89 696)">
    <path d="M39.4-78.1c-15,0-25.2,10.2-25.2,25.2v5.8c0,2.6,2.1,4.7,4.7,4.7c2.6,0,4.7-2.1,4.7-4.7v-5.8c0-9.5,6.2-15.8,15.7-15.8
      c9.5,0,15.8,6.3,15.8,15.8v35.3c0,9.5-6.2,15.7-15.8,15.7c-9.1,0-15.2-5.8-15.7-14.6h5.1c3.3,0,4.2-2.6,2.2-5.3L21.6-35
      c-1.6-2.2-4.1-2.2-5.7,0L6.5-21.9c-2,2.7-1.1,5.3,2.2,5.3h5.4C14.6-2.1,24.7,7.6,39.4,7.6c15.1,0,25.2-10.2,25.2-25.2v-35.3
      C64.6-68,54.4-78.1,39.4-78.1z"/>
  </g>
  <g id="Medium-S" transform="matrix(1 0 0 1 1707.59 696)">
    <path d="M38.9-77.7c-14.8,0-24.8,9.9-24.8,24.8v6.5c0,2.3,1.9,4.3,4.3,4.3c2.3,0,4.3-2,4.3-4.3v-6.5c0-9.7,6.4-16.2,16.2-16.2
      s16.2,6.5,16.2,16.2v35.3c0,9.7-6.5,16.2-16.2,16.2c-9.4,0-15.8-6.1-16.2-15.3h5.1c3.2,0,4.1-2.4,2.2-4.9l-9.1-12.8
      c-1.5-2.1-3.8-2.1-5.3,0L6.5-21.7c-1.9,2.5-1,4.9,2.2,4.9h5.4C14.5-2.4,24.4,7.1,38.9,7.1c14.8,0,24.8-9.9,24.8-24.8v-35.3
      C63.7-67.8,53.8-77.7,38.9-77.7z"/>
  </g>
  <g id="Regular-S" transform="matrix(1 0 0 1 1411.42 696)">
    <path d="M38.4-77.1c-14.5,0-24.2,9.7-24.2,24.3v7.5c0,2.1,1.7,3.7,3.8,3.7s3.8-1.7,3.8-3.7v-7.5c0-10.1,6.7-16.7,16.7-16.7
      c10.1,0,16.7,6.7,16.7,16.7v35.3c0,10-6.7,16.7-16.7,16.7c-9.8,0-16.5-6.4-16.7-16.2h5c3,0,3.8-2.1,2.2-4.4l-8.7-12.4
      c-1.3-1.9-3.4-1.9-4.7,0L6.7-21.5c-1.7,2.3-0.9,4.4,2.1,4.4h5.3C14.4-2.9,24.1,6.6,38.4,6.6c14.6,0,24.3-9.7,24.3-24.2v-35.3
      C62.6-67.4,52.9-77.1,38.4-77.1z"/>
  </g>
  <g id="Light-S" transform="matrix(1 0 0 1 1115.61 696)">
    <path d="M37.5-76.3c-14,0-23.3,9.3-23.3,23.4v7.7c0,1.6,1.3,2.8,2.9,2.8c1.6,0,2.9-1.3,2.9-2.8v-7.7c0-10.5,7.1-17.6,17.6-17.6
      c10.5,0,17.6,7.1,17.6,17.6v35.3C55.1-7.1,48,0,37.5,0C27,0,19.9-7.1,19.9-17.6v-0.7h5.7c2.4,0,3.1-1.7,1.8-3.6L18.9-34
      c-1.1-1.6-2.8-1.6-4,0L6.5-22c-1.4,2-0.7,3.7,1.8,3.7h5.9v0.7c0,14,9.3,23.3,23.3,23.3c14.1,0,23.4-9.3,23.4-23.3v-35.3
      C60.9-66.9,51.6-76.3,37.5-76.3z"/>
  </g>
  <g id="Thin-S" transform="matrix(1 0 0 1 820.07 696)">
    <path d="M36.3-75.1c-13.4,0-22.2,8.8-22.2,22.2v7.8c0,1,0.8,1.8,1.7,1.8c0.9,0,1.7-0.8,1.7-1.8v-7.8c0-11.2,7.6-18.8,18.8-18.8
      c11.2,0,18.8,7.6,18.8,18.8v35.2c0,11.2-7.6,18.8-18.8,18.8c-11.2,0-18.8-7.6-18.8-18.8V-20h6.6c1.7,0,2.2-1.2,1.2-2.6l-8.1-11.6
      c-0.9-1.2-2.1-1.3-2.9,0L6.3-22.7C5.2-21.1,5.8-20,7.5-20h6.7v2.3c0,13.4,8.8,22.2,22.2,22.2c13.4,0,22.2-8.8,22.2-22.2v-35.2
      C58.5-66.3,49.8-75.1,36.3-75.1z"/>
  </g>
  <g id="Ultralight-S" transform="matrix(1 0 0 1 523.945 696)">
    <path d="M35.7-74.5c-13,0-21.6,8.5-21.6,21.6v8c0,0.6,0.5,1.1,1.1,1.1c0.6,0,1.1-0.5,1.1-1.1v-8c0-11.5,7.9-19.4,19.3-19.4
      c11.5,0,19.4,7.9,19.4,19.4v35.2c0,11.5-7.9,19.4-19.4,19.4c-11.5,0-19.3-7.9-19.3-19.4v-3.1h7.1c1.3,0,1.8-0.9,0.9-2.1l-8-11.4
      c-0.7-1-1.7-1-2.3,0l-8,11.4c-0.9,1.2-0.4,2.1,0.9,2.1h7.1v3.1C14.2-4.5,22.7,4,35.7,4c13.1,0,21.6-8.5,21.6-21.6v-35.2
      C57.4-66,48.9-74.5,35.7-74.5z"/>
  </g>
</g>
</svg>
