<?xml version="1.0" encoding="UTF-8"?>
<svg xmlns="http://www.w3.org/2000/svg" viewBox="0 0 1024 1024">
  <defs>
    <style>
      .gear {
        fill: #ffffff;
      }
    </style>
    <clipPath id="clippath">
      <path d="M368.1,960c-13.3,0-25.3,0-37.4,0-13.9,0-24.6-.2-34.7-.5-20.9-.6-45.4-1.7-68.7-5.9-21.3-3.8-39.4-9.7-56.7-18.6-17.4-8.9-33.3-20.4-47.2-34.3-13.9-13.9-25.4-29.7-34.3-47.2-8.8-17.4-14.7-35.4-18.6-56.7-4.2-23.3-5.3-47.8-5.9-68.7-.3-10-.4-21-.5-34.6,0-13.3,0-26.8,0-39.9v-282.9c0-13.1,0-26.7,0-39.9,0-13.7.2-24.7.5-34.7.6-20.9,1.7-45.4,5.9-68.7,3.8-21.3,9.7-39.4,18.6-56.7,8.9-17.4,20.4-33.3,34.3-47.2,13.9-13.9,29.7-25.4,47.2-34.3,17.4-8.8,35.4-14.7,56.7-18.6,23.3-4.2,47.8-5.3,68.7-5.9,10-.3,20.7-.4,34.6-.5,12.2,0,24.2,0,37.5,0h287.8c13.3,0,25.3,0,37.4,0,13.9,0,24.6.2,34.7.5,20.9.6,45.4,1.7,68.7,5.9,21.3,3.8,39.4,9.7,56.7,18.6,17.4,8.9,33.3,20.4,47.2,34.3s25.4,29.7,34.3,47.2c8.8,17.4,14.7,35.4,18.6,56.7,4.2,23.3,5.3,47.8,5.9,68.8.3,10,.4,20.7.5,34.6,0,13.3,0,26.8,0,39.9v282.9c0,13.1,0,26.7,0,39.9,0,13.9-.2,24.6-.5,34.7-.6,20.9-1.7,45.4-5.9,68.7-3.8,21.3-9.7,39.4-18.6,56.7-8.9,17.4-20.4,33.3-34.3,47.2s-29.7,25.4-47.2,34.3c-17.4,8.8-35.4,14.7-56.7,18.6-23.3,4.2-47.8,5.3-68.8,5.9-10,.3-20.7.4-34.6.5-12.2,0-24.2,0-37.5,0h-287.8Z"/>
    </clipPath>
  </defs>

  <g clip-path="url(#clippath)">
          <path class="gear" d="M869.9,1510.7c-19.2,0-36.6-1.1-37.4-1.2-14-.9-27.8-12.3-31.4-25.8l-13.8-51.9c-2.5-9.5-6.4-19.3-8.2-22.3-2.7-1.1-10.7-3.8-21.2-6.6l-59.1-15.8c-10.3-2.8-20.4-4.3-23.7-4.4-2.3,1.6-8.6,7.1-16.2,14.7l-37.9,38.1c-9.9,10-27.5,12.7-40,6.2,0,0-.2,0-.3-.1l-63.7-36.8c0,0-.2-.1-.3-.2-11.9-7.6-18.3-24.2-14.6-37.8l14-51.8c2.6-9.5,4.1-19.9,4-23.4-1.8-2.3-7.3-8.7-15-16.4l-43.2-43.1c-7.6-7.6-15.5-13.9-18.3-15.6-2.8.3-11,1.8-21.4,4.7l-51.8,14c-13.6,3.7-30.2-2.7-37.8-14.6,0,0-.1-.2-.2-.3l-36.8-63.7c0,0-.1-.2-.1-.3-6.5-12.5-3.8-30.1,6.2-40l38.1-37.9c6.9-6.9,13.5-15.2,15.2-18.2-.4-2.9-2-11.2-4.8-21.7l-15.8-59.1c-2.7-10-6.4-19.8-8.1-22.7-2.6-1.1-10.5-3.9-20.8-6.7l-51.9-13.8c-13.6-3.6-24.9-17.4-25.8-31.4,0-.7-1.2-18.2-1.2-37.4s1.1-36.6,1.2-37.4c.9-14,12.3-27.8,25.8-31.4l51.9-13.8c9.5-2.5,19.3-6.4,22.3-8.2,1.1-2.7,3.8-10.7,6.6-21.2l15.8-59.1c2.8-10.3,4.3-20.4,4.4-23.7-1.6-2.3-7.1-8.6-14.7-16.2l-38.1-37.9c-10-10-12.7-27.5-6.2-40,0,0,0-.2.1-.3l36.8-63.7c0,0,.1-.2.2-.3,7.6-11.9,24.2-18.3,37.8-14.6l51.8,14c9.3,2.5,19.6,4,23.2,4s.1,0,.2,0c2.3-1.8,8.7-7.3,16.4-15l43.1-43.1c7.6-7.6,13.9-15.5,15.6-18.3-.3-2.8-1.8-11-4.7-21.4l-14-51.8c-3.7-13.6,2.7-30.2,14.6-37.8,0,0,.2-.1.3-.2l63.7-36.8c0,0,.2-.1.3-.1,12.5-6.5,30.1-3.8,40,6.2l37.9,38.1c6.9,6.9,15.2,13.5,18.2,15.2,2.9-.4,11.2-2,21.7-4.8l59.1-15.8c10-2.7,19.8-6.4,22.7-8.1,1.1-2.6,3.9-10.5,6.7-20.8l13.8-51.9c3.6-13.6,17.4-24.9,31.4-25.8.7,0,18.2-1.2,37.4-1.2s36.6,1.1,37.4,1.2c14,.9,27.8,12.3,31.4,25.8l13.8,51.9c2.5,9.5,6.4,19.3,8.2,22.3,2.7,1.1,10.7,3.8,21.2,6.6l59.1,15.8c10.3,2.8,20.4,4.3,23.7,4.4,2.3-1.6,8.6-7.1,16.2-14.7l37.9-38.1c9.9-10,27.5-12.7,40-6.2,0,0,.2,0,.3.1l63.7,36.8c0,0,.2.1.3.2,11.9,7.6,18.3,24.2,14.6,37.8l-14,51.8c-2.6,9.5-4.1,19.9-4,23.4,1.8,2.3,7.3,8.7,15,16.4l43.1,43.2c7.3,7.3,15.5,13.9,18.3,15.6,2.8-.3,11-1.8,21.4-4.7l51.8-14c13.6-3.7,30.2,2.7,37.8,14.6,0,0,.1.2.2.3l36.8,63.7c0,0,.1.2.1.3,6.5,12.5,3.8,30.1-6.2,40l-38,37.9c-6.9,6.9-13.5,15.2-15.2,18.2.4,2.9,2,11.2,4.8,21.7l15.8,59.1c2.8,10.5,5.5,18.4,6.7,21.2,3,1.8,12.8,5.7,22.3,8.2l51.9,13.8c13.6,3.6,24.9,17.4,25.8,31.4h0c0,.7,1.2,18.2,1.2,37.4s-1.1,36.6-1.2,37.4c-.9,14-12.3,27.8-25.8,31.4l-51.9,13.8c-9.5,2.5-19.3,6.4-22.3,8.2-1.1,2.7-3.8,10.7-6.6,21.2l-15.8,59.1c-2.8,10.3-4.3,20.4-4.4,23.7,1.6,2.3,7.1,8.6,14.7,16.2l38,37.9c10,9.9,12.7,27.5,6.2,40,0,0,0,.2-.1.3l-36.8,63.7c0,0-.1.2-.2.3-7.6,11.9-24.2,18.3-37.8,14.6l-51.8-14c-9.5-2.6-19.9-4.1-23.4-4-2.3,1.8-8.7,7.3-16.4,15l-43.2,43.1c-7.6,7.6-13.9,15.5-15.6,18.3.3,2.8,1.8,11,4.7,21.4l14,51.8c3.7,13.6-2.7,30.2-14.6,37.8,0,0-.2.1-.3.2l-63.7,36.8c0,0-.2.1-.3.1-12.5,6.5-30.1,3.8-40-6.2l-37.9-38c-6.9-6.9-15.2-13.5-18.2-15.2-2.9.4-11.2,2-21.7,4.8l-59.1,15.8c-10,2.7-19.8,6.4-22.7,8.1-1.1,2.6-3.9,10.5-6.7,20.8l-13.8,51.9c-3.6,13.6-17.4,24.9-31.4,25.8-.7,0-18.2,1.2-37.4,1.2ZM675,1368.7c2.3,0,5.3.3,9.7,1,5.5.9,12.2,2.3,17.8,3.8l59.1,15.8c7,1.9,21.3,6,25.4,8.5,2.4,1.4,4.5,4,8.1,13.1,2.1,5.4,4.3,11.8,5.7,17.3l13.8,51.9c2.1,7.7,10.8,14.9,18.8,15.5.2,0,17.8,1.2,36.4,1.2s36.3-1.2,36.4-1.2c8-.5,16.7-7.8,18.8-15.5l13.8-51.9c1.9-7.1,6.1-21.5,8.8-25.6,1.5-2.2,4.1-4.2,13.2-7.7,5.2-2,11.7-4.1,17.3-5.6l59.1-15.8c7-1.9,21.4-5.4,26.2-5.4h0c2.7,0,6,1.2,13.6,7.2,4.5,3.6,9.6,8.1,13.6,12.1l37.9,38c5.5,5.6,16.5,7.3,23.5,3.7l63.4-36.7c6.6-4.3,10.6-14.7,8.5-22.3l-14-51.8c-1.9-7.1-5.5-21.7-5.2-26.6.2-2.7,1.4-5.7,7.6-13.2,3.5-4.3,8.1-9.4,12.2-13.5l43.1-43.1c5.1-5.1,15.9-15.4,20-17.8,2.4-1.3,5.8-1.9,15.4-.5,5.7.8,12.4,2.2,17.9,3.7l51.8,14c7.6,2.1,18-1.9,22.3-8.5l36.7-63.4c3.6-7,1.9-18-3.7-23.5l-38.1-37.9c-5.2-5.2-15.6-16.1-17.8-20.5-1.2-2.4-1.6-5.7,0-15.2.9-5.5,2.3-12.2,3.8-17.8l15.8-59.1c1.9-7,6-21.3,8.5-25.4,1.4-2.4,4-4.5,13.1-8.1,5.4-2.1,11.8-4.3,17.3-5.7l51.9-13.8c7.7-2.1,14.9-10.8,15.5-18.8,0-.2,1.2-17.8,1.2-36.4s-1.2-36.3-1.2-36.4l7-.5-7,.5c-.5-8-7.8-16.7-15.5-18.8l-51.9-13.8c-5.5-1.5-12-3.6-17.3-5.7-9-3.6-11.7-5.8-13.1-8.1-2.4-4.1-6.6-18.4-8.5-25.4l-15.8-59.1c-1.9-7-5.4-21.5-5.4-26.2,0-2.7,1.2-5.9,7.2-13.6,3.6-4.5,8.1-9.6,12.1-13.6l38-37.9c5.6-5.5,7.3-16.5,3.7-23.5l-36.7-63.4c-4.3-6.6-14.7-10.6-22.3-8.5l-51.8,14c-7.1,1.9-21.7,5.4-26.6,5.2-2.7-.2-5.7-1.4-13.2-7.6-4.3-3.5-9.4-8.1-13.5-12.2l-43.1-43.1c-5.1-5.1-15.4-15.9-17.8-20-1.3-2.4-1.9-5.8-.5-15.4.8-5.7,2.2-12.4,3.7-17.9l14-51.8c2.1-7.6-1.9-18-8.5-22.3l-63.4-36.7c-7-3.6-18-1.9-23.5,3.7l-37.9,38c-5.2,5.2-16.1,15.6-20.5,17.8-2.4,1.2-5.7,1.6-15.2,0-5.5-.9-12.2-2.3-17.8-3.8l-59.1-15.8c-7-1.9-21.3-6-25.4-8.5-2.4-1.4-4.5-4-8.1-13.1-2.1-5.3-4.3-11.8-5.7-17.3l-13.8-51.9c-2.1-7.7-10.8-14.9-18.8-15.5-.2,0-17.8-1.2-36.4-1.2s-36.3,1.2-36.4,1.2c-8,.5-16.7,7.8-18.8,15.5l-13.8,51.9c-1.9,7.1-6.1,21.5-8.8,25.6-1.4,2.2-4.1,4.2-13.2,7.7-5.2,2-11.7,4.1-17.3,5.6l-59.1,15.8c-7,1.9-21.4,5.4-26.2,5.4h0c-2.7,0-5.9-1.2-13.6-7.2-4.5-3.6-9.6-8.1-13.6-12.1l-37.9-38c-5.6-5.6-16.5-7.3-23.5-3.7l-63.4,36.7c-6.6,4.3-10.6,14.7-8.5,22.3l14,51.8c1.9,7.1,5.5,21.7,5.2,26.6-.2,2.7-1.4,5.7-7.6,13.2-3.5,4.3-8.1,9.4-12.2,13.5l-43.1,43.1c-5.1,5.1-15.9,15.4-20,17.8-2.4,1.3-5.8,1.9-15.4.5-5.7-.8-12.4-2.2-17.9-3.7l-51.8-14c-7.6-2.1-18,1.9-22.3,8.5l-36.7,63.4c-3.6,7-1.8,18,3.7,23.5l38.1,37.9c5.2,5.2,15.6,16.1,17.8,20.5,1.2,2.4,1.6,5.7,0,15.2-.9,5.5-2.3,12.2-3.8,17.8l-15.8,59.1c-1.9,7-6,21.3-8.5,25.4-1.4,2.3-4,4.5-13.1,8.1-5.3,2.1-11.8,4.3-17.3,5.7l-51.9,13.8c-7.7,2.1-14.9,10.8-15.5,18.8,0,.2-1.2,17.8-1.2,36.4s1.2,36.3,1.2,36.4c.5,8,7.8,16.7,15.5,18.8l51.9,13.8c7.1,1.9,21.5,6.1,25.6,8.8,2.2,1.4,4.2,4.1,7.7,13.2,2,5.2,4.1,11.7,5.6,17.3l15.8,59.1c1.9,7,5.4,21.5,5.4,26.2,0,2.7-1.2,5.9-7.2,13.6-3.6,4.5-8.1,9.6-12.1,13.6l-38.1,37.9c-5.6,5.6-7.3,16.5-3.7,23.5l36.7,63.4c4.3,6.6,14.7,10.6,22.3,8.5l51.8-14c7.1-1.9,21.7-5.5,26.6-5.2,2.7.2,5.7,1.4,13.2,7.6,4.3,3.5,9.4,8.1,13.5,12.2l43.1,43.1c5.1,5.1,15.4,15.9,17.8,20,1.3,2.4,1.9,5.8.5,15.4-.8,5.7-2.2,12.4-3.7,17.9l-14,51.8c-2.1,7.6,1.9,18,8.5,22.3l63.4,36.7c7,3.6,18,1.8,23.5-3.7l37.9-38.1c5.2-5.2,16.1-15.6,20.5-17.8,1.3-.7,2.8-1.1,5.5-1.1ZM778.7,1408.9h0ZM869.9,1145.1c-74.2,0-143.9-28.9-196.3-81.3-52.4-52.4-81.3-122.2-81.3-196.3s28.9-143.9,81.3-196.3,122.2-81.3,196.3-81.3,143.9,28.9,196.3,81.3,81.3,122.2,81.3,196.3-28.9,143.9-81.3,196.3c-52.4,52.4-122.2,81.3-196.3,81.3ZM869.9,603.8c-70.4,0-136.6,27.4-186.4,77.2-49.8,49.8-77.2,116-77.2,186.4s27.4,136.6,77.2,186.4,116,77.2,186.4,77.2,136.6-27.4,186.4-77.2,77.2-116,77.2-186.4-27.4-136.6-77.2-186.4-116-77.2-186.4-77.2Z"/>
      <path class="gear" d="M129.2,613.4c-18.4,0-38-1.6-38.9-1.7-11.6-1-23.3-10.5-26.6-21.7l-23.9-81.3c-41-9.6-79.8-25.7-115.7-47.9l-74.4,40.6c-10.3,5.6-25.2,3.9-34-3.9,0,0-.2-.2-.3-.3l-54.2-54.2c0,0-.2-.2-.3-.3-7.8-8.8-9.5-23.7-3.9-34l40.6-74.4c-22.2-35.8-38.3-74.7-47.9-115.7l-81.3-23.9c-11.2-3.3-20.7-15-21.7-26.6,0-.8-1.7-20.4-1.7-38.9s1.6-38,1.7-38.9c1-11.6,10.5-23.3,21.7-26.6l81.3-23.9c9.6-41,25.7-79.8,47.9-115.7l-40.6-74.4c-5.6-10.3-3.9-25.2,3.9-34,0,0,.2-.2.3-.3l54.2-54.2c0,0,.2-.2.3-.3,8.8-7.8,23.7-9.5,34-3.9l74.4,40.6c35.8-22.2,74.7-38.3,115.7-47.9l23.9-81.3c3.3-11.2,15-20.7,26.6-21.7.8,0,20.4-1.7,38.9-1.7s38,1.6,38.9,1.7c11.6,1,23.3,10.5,26.6,21.7l23.9,81.3c41,9.6,79.8,25.7,115.7,47.9l74.4-40.6c10.3-5.6,25.2-3.9,34,3.9,0,0,.2.2.3.3l54.2,54.2c0,0,.2.2.3.3,7.8,8.8,9.5,23.7,3.9,34l-40.6,74.4c22.2,35.8,38.3,74.7,47.9,115.7l81.3,23.9c11.2,3.3,20.7,15,21.7,26.6h0c0,.8,1.7,20.4,1.7,38.9s-1.6,38-1.7,38.9c-1,11.6-10.5,23.3-21.7,26.6l-81.3,23.9c-9.6,41-25.7,79.8-47.9,115.7l40.6,74.4c5.6,10.3,3.9,25.2-3.9,34,0,0-.2.2-.3.3l-54.2,54.2c0,0-.2.2-.3.3-8.8,7.8-23.7,9.5-34,3.9l-74.4-40.6c-35.8,22.2-74.7,38.3-115.7,47.9l-23.9,81.3c-3.3,11.2-15,20.7-26.6,21.7-.8,0-20.4,1.7-38.9,1.7ZM-75.5,445.7c1.3,0,2.6.4,3.8,1.1,36.6,23.2,76.6,39.8,118.8,49.2,2.5.6,4.5,2.4,5.2,4.9l25.1,85.3c1.7,5.6,8.5,11.2,14.3,11.7.2,0,19.9,1.7,37.7,1.7s37.5-1.7,37.7-1.7c5.8-.5,12.7-6.1,14.3-11.7l25.1-85.3c.7-2.4,2.7-4.3,5.2-4.9,42.2-9.4,82.2-26,118.8-49.2,2.1-1.4,4.9-1.5,7.1-.2l78,42.6c5,2.7,13.5,1.8,17.8-2l53.9-53.9c3.8-4.4,4.7-12.8,2-17.8l-42.6-78c-1.2-2.2-1.1-5,.2-7.1,23.2-36.6,39.8-76.6,49.2-118.8.6-2.5,2.4-4.5,4.9-5.2l85.3-25.1c5.6-1.7,11.2-8.5,11.7-14.3,0-.2,1.7-19.9,1.7-37.7s-1.6-37.4-1.7-37.7h0c-.5-5.8-6.1-12.7-11.7-14.3l-85.3-25.1c-2.4-.7-4.3-2.7-4.9-5.2-9.4-42.2-26-82.2-49.2-118.8-1.4-2.1-1.5-4.9-.2-7.1l42.6-78c2.7-5,1.8-13.5-2-17.8l-53.9-53.9c-4.4-3.8-12.8-4.7-17.8-2l-78,42.6c-2.2,1.2-5,1.1-7.1-.2-36.6-23.2-76.6-39.8-118.8-49.2-2.5-.6-4.5-2.4-5.2-4.9l-25.1-85.3c-1.7-5.6-8.5-11.2-14.3-11.7-.2,0-19.9-1.7-37.7-1.7s-37.5,1.7-37.7,1.7c-5.8.5-12.7,6.1-14.3,11.7l-25.1,85.3c-.7,2.4-2.7,4.3-5.2,4.9-42.2,9.4-82.2,26-118.8,49.2-2.1,1.4-4.9,1.5-7.1.2l-78-42.6c-5-2.7-13.5-1.8-17.8,2l-53.9,53.9c-3.8,4.4-4.7,12.8-2,17.8l42.6,78c1.2,2.2,1.1,5-.2,7.1-23.2,36.6-39.8,76.6-49.2,118.8-.6,2.5-2.4,4.5-4.9,5.2l-85.3,25.1c-5.6,1.7-11.2,8.5-11.7,14.3,0,.2-1.7,19.9-1.7,37.7s1.7,37.5,1.7,37.7c.5,5.8,6.1,12.7,11.7,14.3l85.3,25.1c2.4.7,4.3,2.7,4.9,5.2,9.4,42.2,26,82.2,49.2,118.8,1.4,2.1,1.5,4.9.2,7.1l-42.6,78c-2.7,5-1.8,13.5,2,17.8l53.9,53.9c4.4,3.8,12.8,4.7,17.8,2l78-42.6c1-.6,2.2-.9,3.4-.9ZM129.2,327.6c-109.4,0-198.4-89-198.4-198.4S19.9-69.1,129.2-69.1s198.4,89,198.4,198.4-89,198.4-198.4,198.4ZM129.2-55.1C27.6-55.1-55.1,27.6-55.1,129.2s82.7,184.4,184.4,184.4,184.4-82.7,184.4-184.4S230.9-55.1,129.2-55.1Z"/>
  </g>
</svg>