<?xml version="1.0" encoding="UTF-8"?>
<svg xmlns="http://www.w3.org/2000/svg" viewBox="0 0 1024 1024">
  <defs>
    <style>
      #Gears {
        fill: #ffffff;
      }
    </style>
    <clipPath id="clippath">
      <path d="M368.1,928c-13.3,0-25.2,0-37.2,0-13.7,0-24.2-.2-34-.5-19.7-.5-42.7-1.6-64-5.4-18.2-3.3-33.4-8.2-47.9-15.6-14.4-7.4-27.6-16.9-39.1-28.4-11.5-11.5-21-24.6-28.4-39.1-7.4-14.5-12.3-29.7-15.6-47.9-3.8-21.2-4.9-44.2-5.4-64-.3-9.7-.4-20.5-.5-33.9,0-13.2,0-26.7,0-39.7v-282.9c0-13,0-26.5,0-39.7,0-13.5.2-24.3.5-34,.5-19.7,1.6-42.7,5.4-63.9,3.3-18.2,8.2-33.4,15.6-47.9,7.4-14.4,16.9-27.6,28.4-39.1s24.6-21,39.1-28.4c14.5-7.4,29.7-12.3,47.9-15.6,21.2-3.8,44.2-4.9,64-5.4,9.7-.3,20.5-.4,33.9-.5,12.1,0,24.1,0,37.3,0h287.8c13.2,0,25.2,0,37.2,0,13.5,0,24.3.2,34,.5,19.7.5,42.7,1.6,63.9,5.4,18.2,3.3,33.4,8.2,47.9,15.6,14.4,7.4,27.6,16.9,39.1,28.4,11.5,11.5,21,24.6,28.4,39.1,7.4,14.5,12.3,29.7,15.6,47.9,3.8,21.2,4.9,44.2,5.4,64,.3,9.8.4,20.3.5,33.9,0,13,0,26.4,0,39.3v283.8c0,12.9,0,26.2,0,39.2,0,13.7-.2,24.2-.5,34-.5,19.7-1.6,42.7-5.4,64-3.3,18.2-8.2,33.4-15.6,47.9-7.4,14.4-16.9,27.6-28.4,39.1-11.5,11.5-24.6,21-39.1,28.4-14.5,7.4-29.7,12.3-47.9,15.6-21.2,3.8-44.2,4.9-64,5.4-9.8.3-20.3.4-33.9.5-12,0-24,0-37.3,0h-287.8Z"/>
    </clipPath>
  </defs>

  <g clip-path="url(#clippath)" id="Gears">
    <path d="M1506.7,835.3c-.9-13.7-12.5-27.7-25.7-31.2l-40.7-10.8c-13.2-3.5-30.8-10.3-32.5-13.2-1.8-3-6.1-16.3-9.6-29.5l-12-45c-3.5-13.2-6.4-26.9-6.4-30.4,0-3.5,11.9-18.1,21.6-27.7l29.9-29.7c9.7-9.7,12.5-27.5,6.1-39.6l-32.5-56.2c-7.4-11.5-24.2-18-37.5-14.4l-40.7,11c-13.2,3.6-26.9,6.3-30.3,6.1-3.5-.2-17.9-12.4-27.6-22l-32.8-32.8c-9.7-9.7-19-20.1-20.7-23.1s1.2-21.6,4.8-34.8l11-40.7c3.6-13.2-2.9-30.1-14.4-37.5l-56.2-32.5c-12.1-6.3-30-3.6-39.6,6.1l-29.7,29.9c-9.7,9.7-20.1,18.9-23.2,20.5s-21.7-1.8-34.9-5.3l-45-12c-13.2-3.5-26.5-7.9-29.5-9.6-3-1.8-9.7-19.3-13.2-32.5l-10.8-40.7c-3.5-13.2-17.6-24.8-31.2-25.7,0,0-13.3-.9-32.6-.9s-32.6.9-32.6.9c-13.7.9-27.7,12.5-31.2,25.7l-10.8,40.7c-3.5,13.2-8,26.4-9.9,29.3-1.9,2.9-19.6,9.3-32.9,12.8l-45,12c-13.2,3.5-26.9,6.4-30.4,6.4-3.5,0-18.1-11.9-27.7-21.6l-29.7-29.9c-9.7-9.7-27.5-12.5-39.6-6.1l-56.2,32.5c-11.5,7.4-18,24.2-14.4,37.5l11,40.7c3.6,13.2,6.3,26.9,6.1,30.3-.2,3.5-12.4,17.9-22,27.6l-32.8,32.8c-9.7,9.7-20.1,19-23.1,20.7-3,1.7-21.6-1.2-34.8-4.8l-40.7-11c-13.2-3.6-30.1,2.9-37.5,14.4l-32.5,56.2c-6.3,12.1-3.6,30,6.1,39.6l29.9,29.7c9.7,9.7,18.9,20.1,20.5,23.2,1.6,3.1-1.8,21.7-5.3,34.9l-12,45c-3.5,13.2-7.9,26.5-9.6,29.5-1.8,3-19.3,9.7-32.5,13.2l-40.7,10.8c-13.2,3.5-24.8,17.6-25.7,31.2,0,0-.9,13.3-.9,32.6s.9,32.6.9,32.6c.9,13.7,12.5,27.7,25.7,31.2l40.7,10.8c13.2,3.5,26.4,8,29.3,9.9,2.9,1.9,9.3,19.6,12.8,32.9l12,45c3.5,13.2,6.4,26.9,6.4,30.4,0,3.5-11.9,18.1-21.6,27.7l-29.9,29.7c-9.7,9.7-12.5,27.5-6.1,39.6l32.5,56.2c7.4,11.5,24.2,18,37.5,14.4l40.7-11c13.2-3.6,26.9-6.3,30.3-6.1s17.9,12.4,27.6,22l32.8,32.8c9.7,9.7,19,20.1,20.7,23.1,1.7,3-1.2,21.6-4.8,34.8l-11,40.7c-3.6,13.2,2.9,30.1,14.4,37.5l56.2,32.5c12.1,6.3,30,3.6,39.6-6.1l29.7-29.9c9.7-9.7,20.1-18.9,23.2-20.5,3.1-1.6,21.7,1.8,34.9,5.3l45,12c13.2,3.5,26.5,7.9,29.5,9.6,3,1.8,9.7,19.3,13.2,32.5l10.8,40.7c3.5,13.2,17.6,24.8,31.2,25.7,0,0,13.3.9,32.6.9s32.6-.9,32.6-.9c13.7-.9,27.7-12.5,31.2-25.7l10.8-40.7c3.5-13.2,8-26.4,9.9-29.3s19.6-9.3,32.9-12.8l45-12c13.2-3.5,26.9-6.4,30.4-6.4,3.5,0,18.1,11.9,27.7,21.6l29.7,29.9c9.7,9.7,27.5,12.5,39.6,6.1l56.2-32.5c11.5-7.4,18-24.2,14.4-37.5l-11-40.7c-3.6-13.2-6.3-26.9-6.1-30.3s12.4-17.9,22-27.6l32.8-32.8c9.7-9.7,20.1-19,23.1-20.7,3-1.7,21.6,1.2,34.8,4.8l40.7,11c13.2,3.6,30.1-2.9,37.5-14.4l32.5-56.2c6.3-12.1,3.6-30-6.1-39.6l-29.9-29.7c-9.7-9.7-18.9-20.1-20.5-23.2-1.6-3.1,1.8-21.7,5.3-34.9l12-45c3.5-13.2,7.9-26.5,9.6-29.5,1.8-3,19.3-9.7,32.5-13.2l40.7-10.8c13.2-3.5,24.8-17.6,25.7-31.2,0,0,.9-13.3.9-32.6s-.9-32.6-.9-32.6ZM870.4,1138.9c-149.7,0-271-121.3-271-271s121.3-271,271-271,271,121.3,271,271-121.3,271-271,271Z"/>
    <path d="M605.2,94.3c-.9-10.9-10.3-22.4-20.8-25.5l-81.6-24c-9.8-43.7-27-84.5-50.2-121.2l40.7-74.7c5.2-9.6,3.6-24.2-3.7-32.3l-48.8-48.8c-8.2-7.3-22.7-9-32.3-3.7l-74.7,40.7c-36.6-23.2-77.5-40.4-121.2-50.2l-24-81.6c-3.1-10.5-14.5-19.9-25.5-20.8,0,0-16.1-1.4-34.4-1.4s-34.4,1.4-34.4,1.4c-10.9.9-22.4,10.3-25.5,20.8l-24,81.6c-43.7,9.8-84.5,27-121.2,50.2l-74.7-40.7c-9.6-5.2-24.2-3.6-32.3,3.7l-48.8,48.8c-7.3,8.2-9,22.7-3.7,32.3l40.7,74.7c-23.2,36.6-40.4,77.5-50.2,121.2l-81.6,24c-10.5,3.1-19.9,14.5-20.8,25.5,0,0-1.4,16.1-1.4,34.4s1.4,34.4,1.4,34.4c.9,10.9,10.3,22.4,20.8,25.5l81.6,24c9.8,43.7,27,84.5,50.2,121.2l-40.7,74.7c-5.2,9.6-3.6,24.2,3.7,32.3l48.8,48.8c8.2,7.3,22.7,9,32.3,3.7l74.7-40.7c36.6,23.2,77.5,40.4,121.2,50.2l24,81.6c3.1,10.5,14.5,19.9,25.5,20.8,0,0,16.1,1.4,34.4,1.4s34.4-1.4,34.4-1.4c10.9-.9,22.4-10.3,25.5-20.8l24-81.6c43.7-9.8,84.5-27,121.2-50.2l74.7,40.7c9.6,5.2,24.2,3.6,32.3-3.7l48.8-48.8c7.3-8.2,9-22.7,3.7-32.3l-40.7-74.7c23.2-36.6,40.4-77.5,50.2-121.2l81.6-24c10.5-3.1,19.9-14.5,20.8-25.5,0,0,1.4-16.1,1.4-34.4s-1.4-34.4-1.4-34.4ZM128.7,320.4c-105.8,0-191.6-85.8-191.6-191.6S22.9-62.9,128.7-62.9s191.6,85.8,191.6,191.6-85.8,191.6-191.6,191.6Z"/>
  </g>
</svg>