<?xml version="1.0" encoding="UTF-8"?>
<svg xmlns="http://www.w3.org/2000/svg" viewBox="0 0 1024 1024">
  <defs>
    <style>
      #Gears {
        fill: #ffffff;
      }
    </style>
    <clipPath id="clippath">
      <path d="M368.1,960c-13.3,0-25.3,0-37.4,0-13.9,0-24.6-.2-34.7-.5-20.9-.6-45.4-1.7-68.7-5.9-21.3-3.8-39.4-9.7-56.7-18.6-17.4-8.9-33.3-20.4-47.2-34.3-13.9-13.9-25.4-29.7-34.3-47.2-8.8-17.4-14.7-35.4-18.6-56.7-4.2-23.3-5.3-47.8-5.9-68.7-.3-10-.4-21-.5-34.6,0-13.3,0-26.8,0-39.9v-282.9c0-13.1,0-26.7,0-39.9,0-13.7.2-24.7.5-34.7.6-20.9,1.7-45.4,5.9-68.7,3.8-21.3,9.7-39.4,18.6-56.7,8.9-17.4,20.4-33.3,34.3-47.2,13.9-13.9,29.7-25.4,47.2-34.3,17.4-8.8,35.4-14.7,56.7-18.6,23.3-4.2,47.8-5.3,68.7-5.9,10-.3,20.7-.4,34.6-.5,12.2,0,24.2,0,37.5,0h287.8c13.3,0,25.3,0,37.4,0,13.9,0,24.6.2,34.7.5,20.9.6,45.4,1.7,68.7,5.9,21.3,3.8,39.4,9.7,56.7,18.6,17.4,8.9,33.3,20.4,47.2,34.3s25.4,29.7,34.3,47.2c8.8,17.4,14.7,35.4,18.6,56.7,4.2,23.3,5.3,47.8,5.9,68.8.3,10,.4,20.7.5,34.6,0,13.3,0,26.8,0,39.9v282.9c0,13.1,0,26.7,0,39.9,0,13.9-.2,24.6-.5,34.7-.6,20.9-1.7,45.4-5.9,68.7-3.8,21.3-9.7,39.4-18.6,56.7-8.9,17.4-20.4,33.3-34.3,47.2s-29.7,25.4-47.2,34.3c-17.4,8.8-35.4,14.7-56.7,18.6-23.3,4.2-47.8,5.3-68.8,5.9-10,.3-20.7.4-34.6.5-12.2,0-24.2,0-37.5,0h-287.8Z"/>
    </clipPath>
  </defs>

  <g clip-path="url(#clippath)" id="Gears">
    <path d="M1505,830.5c-.7-11-10-22.3-20.7-25.1l-51.9-13.8c-10.6-2.8-24.7-8.2-26.1-10.6-1.4-2.4-4.9-13.1-7.7-23.7l-15.8-59.1c-2.8-10.6-5.2-21.6-5.1-24.4,0-2.8,9.5-14.5,17.3-22.3l38.1-37.9c7.8-7.8,10-22.1,4.9-31.8l-36.8-63.7c-5.9-9.3-19.5-14.5-30.1-11.6l-51.8,14c-10.6,2.9-21.6,5.1-24.4,4.9-2.8-.2-14.4-9.9-22.1-17.7l-43.1-43.1c-7.8-7.8-15.3-16.1-16.6-18.6s1-17.3,3.9-28l14-51.8c2.9-10.6-2.3-24.2-11.6-30.1l-63.7-36.8c-9.8-5.1-24.1-2.9-31.8,4.9l-37.9,38.1c-7.8,7.8-16.2,15.2-18.6,16.4-2.5,1.3-17.4-1.4-28-4.3l-59.1-15.8c-10.6-2.8-21.3-6.3-23.7-7.7-2.4-1.4-7.8-15.5-10.6-26.1l-13.8-51.9c-2.8-10.6-14.1-19.9-25.1-20.7,0,0-17.7-1.2-36.9-1.2s-36.9,1.2-36.9,1.2c-11,.7-22.3,10-25.1,20.7l-13.8,51.9c-2.8,10.6-6.4,21.2-7.9,23.6s-15.8,7.5-26.4,10.3l-59.1,15.8c-10.6,2.8-21.6,5.2-24.4,5.1-2.8,0-14.5-9.5-22.3-17.3l-37.9-38.1c-7.8-7.8-22.1-10-31.8-4.9l-63.7,36.8c-9.3,5.9-14.5,19.5-11.6,30.1l14,51.8c2.9,10.6,5.1,21.6,4.9,24.4-.2,2.8-9.9,14.4-17.7,22.1l-43.1,43.1c-7.8,7.8-16.1,15.3-18.6,16.6-2.4,1.4-17.3-1-28-3.9l-51.8-14c-10.6-2.9-24.2,2.3-30.1,11.6l-36.8,63.7c-5.1,9.8-2.9,24.1,4.9,31.8l38.1,37.9c7.8,7.8,15.2,16.2,16.4,18.6,1.3,2.5-1.4,17.4-4.3,28l-15.8,59.1c-2.8,10.6-6.3,21.3-7.7,23.7s-15.5,7.8-26.1,10.6l-51.9,13.8c-10.6,2.8-19.9,14.1-20.7,25.1,0,0-1.2,17.7-1.2,36.9s1.2,36.9,1.2,36.9c.7,11,10,22.3,20.7,25.1l51.9,13.8c10.6,2.8,21.2,6.4,23.6,7.9,2.3,1.5,7.5,15.8,10.3,26.4l15.8,59.1c2.8,10.6,5.2,21.6,5.1,24.4s-9.5,14.5-17.3,22.3l-38.1,37.9c-7.8,7.8-10,22.1-4.9,31.8l36.8,63.7c5.9,9.3,19.5,14.5,30.1,11.6l51.8-14c10.6-2.9,21.6-5.1,24.4-4.9s14.4,9.9,22.1,17.7l43.1,43.1c7.8,7.8,15.3,16.1,16.6,18.6,1.4,2.4-1,17.3-3.9,28l-14,51.8c-2.9,10.6,2.3,24.2,11.6,30.1l63.7,36.8c9.8,5.1,24.1,2.9,31.8-4.9l37.9-38.1c7.8-7.8,16.2-15.2,18.6-16.4s17.4,1.4,28,4.3l59.1,15.8c10.6,2.8,21.3,6.3,23.7,7.7,2.4,1.4,7.8,15.5,10.6,26.1l13.8,51.9c2.8,10.6,14.1,19.9,25.1,20.7,0,0,17.7,1.2,36.9,1.2s36.9-1.2,36.9-1.2c11-.7,22.3-10,25.1-20.7l13.8-51.9c2.8-10.6,6.4-21.2,7.9-23.6s15.8-7.5,26.4-10.3l59.1-15.8c10.6-2.8,21.6-5.2,24.4-5.1,2.8,0,14.5,9.5,22.3,17.3l37.9,38.1c7.8,7.8,22.1,10,31.8,4.9l63.7-36.8c9.3-5.9,14.5-19.5,11.6-30.1l-14-51.8c-2.9-10.6-5.1-21.6-4.9-24.4s9.9-14.4,17.7-22.1l43.1-43.1c7.8-7.8,16.1-15.3,18.6-16.6,2.4-1.4,17.3,1,28,3.9l51.8,14c10.6,2.9,24.2-2.3,30.1-11.6l36.8-63.7c5.1-9.8,2.9-24.1-4.9-31.8l-38.1-37.9c-7.8-7.8-15.2-16.2-16.4-18.6s1.4-17.4,4.3-28l15.8-59.1c2.8-10.6,6.3-21.3,7.7-23.7s15.5-7.8,26.1-10.6l51.9-13.8c10.6-2.8,19.9-14.1,20.7-25.1,0,0,1.2-17.7,1.2-36.9s-1.2-36.9-1.2-36.9ZM869.9,1138.1c-149.5,0-270.7-121.2-270.7-270.7s121.2-270.7,270.7-270.7,270.7,121.2,270.7,270.7-121.2,270.7-270.7,270.7Z"/>
    <path d="M604.8,91c-.7-8.8-8.3-18-16.7-20.5l-85.3-25.1c-9.7-43.6-26.9-84.4-50.1-121l42.6-78c4.2-7.7,2.9-19.4-3-26l-54.2-54.2c-6.6-5.9-18.3-7.2-26-3l-78,42.6c-36.6-23.2-77.4-40.4-121-50.1l-25.1-85.3c-2.5-8.4-11.7-16-20.5-16.7,0,0-19.9-1.7-38.3-1.7s-38.3,1.7-38.3,1.7c-8.8.7-18,8.3-20.5,16.7l-25.1,85.3c-43.6,9.7-84.4,26.9-121,50.1l-78-42.6c-7.7-4.2-19.4-2.9-26,3l-54.2,54.2c-5.9,6.6-7.2,18.3-3,26l42.6,78c-23.2,36.6-40.4,77.4-50.1,121l-85.3,25.1c-8.4,2.5-16,11.7-16.7,20.5,0,0-1.7,19.9-1.7,38.3s1.7,38.3,1.7,38.3c.7,8.8,8.3,18,16.7,20.5l85.3,25.1c9.7,43.6,26.9,84.4,50.1,121l-42.6,78c-4.2,7.7-2.9,19.4,3,26l54.2,54.2c6.6,5.9,18.3,7.2,26,3l78-42.6c36.6,23.2,77.4,40.4,121,50.1l25.1,85.3c2.5,8.4,11.7,16,20.5,16.7,0,0,19.9,1.7,38.3,1.7s38.3-1.7,38.3-1.7c8.8-.7,18-8.3,20.5-16.7l25.1-85.3c43.6-9.7,84.4-26.9,121-50.1l78,42.6c7.7,4.2,19.4,2.9,26-3l54.2-54.2c5.9-6.6,7.2-18.3,3-26l-42.6-78c23.2-36.6,40.4-77.4,50.1-121l85.3-25.1c8.4-2.5,16-11.7,16.7-20.5,0,0,1.7-19.9,1.7-38.3s-1.7-38.3-1.7-38.3ZM129.2,320.6c-105.7,0-191.4-85.7-191.4-191.4S23.5-62.1,129.2-62.1s191.4,85.7,191.4,191.4-85.7,191.4-191.4,191.4Z"/>
  </g>
</svg>