<?xml version="1.0" encoding="UTF-8"?>
<svg xmlns="http://www.w3.org/2000/svg" viewBox="0 0 1024 1024">
  <path d="M368.1,960c-13.3,0-25.3,0-37.4,0-13.9,0-24.6-.2-34.7-.5-20.9-.6-45.4-1.7-68.7-5.9-21.3-3.8-39.4-9.7-56.7-18.6-17.4-8.9-33.3-20.4-47.2-34.3-13.9-13.9-25.4-29.7-34.3-47.2-8.8-17.4-14.7-35.4-18.6-56.7-4.2-23.3-5.3-47.8-5.9-68.7-.3-10-.4-21-.5-34.6,0-13.3,0-26.8,0-39.9v-282.9c0-13.1,0-26.7,0-39.9,0-13.7.2-24.7.5-34.7.6-20.9,1.7-45.4,5.9-68.7,3.8-21.3,9.7-39.4,18.6-56.7,8.9-17.4,20.4-33.3,34.3-47.2,13.9-13.9,29.7-25.4,47.2-34.3,17.4-8.8,35.4-14.7,56.7-18.6,23.3-4.2,47.8-5.3,68.7-5.9,10-.3,20.7-.4,34.6-.5,12.2,0,24.2,0,37.5,0h287.8c13.3,0,25.3,0,37.4,0,13.9,0,24.6.2,34.7.5,20.9.6,45.4,1.7,68.7,5.9,21.3,3.8,39.4,9.7,56.7,18.6,17.4,8.9,33.3,20.4,47.2,34.3s25.4,29.7,34.3,47.2c8.8,17.4,14.7,35.4,18.6,56.7,4.2,23.3,5.3,47.8,5.9,68.8.3,10,.4,20.7.5,34.6,0,13.3,0,26.8,0,39.9v282.9c0,13.1,0,26.7,0,39.9,0,13.9-.2,24.6-.5,34.7-.6,20.9-1.7,45.4-5.9,68.7-3.8,21.3-9.7,39.4-18.6,56.7-8.9,17.4-20.4,33.3-34.3,47.2s-29.7,25.4-47.2,34.3c-17.4,8.8-35.4,14.7-56.7,18.6-23.3,4.2-47.8,5.3-68.8,5.9-10,.3-20.7.4-34.6.5-12.2,0-24.2,0-37.5,0h-287.8Z"/>
</svg>