<?xml version="1.0" encoding="UTF-8"?>
<svg xmlns="http://www.w3.org/2000/svg" viewBox="0 0 1024 1024">
  <defs>
    <style>
      path {
        fill: none;
        stroke: #ffffff;
        stroke-linejoin: round;
        stroke-width: 24px;
      }
    </style>
  </defs>
  <path d="M368.1,928c-13.3,0-25.2,0-37.2,0-13.7,0-24.2-.2-34-.5-19.7-.5-42.7-1.6-64-5.4-18.2-3.3-33.4-8.2-47.9-15.6-14.4-7.4-27.6-16.9-39.1-28.4-11.5-11.5-21-24.6-28.4-39.1-7.4-14.5-12.3-29.7-15.6-47.9-3.8-21.2-4.9-44.2-5.4-64-.3-9.7-.4-20.5-.5-33.9,0-13.2,0-26.7,0-39.7v-282.9c0-13,0-26.5,0-39.7,0-13.5.2-24.3.5-34,.5-19.7,1.6-42.7,5.4-63.9,3.3-18.2,8.2-33.4,15.6-47.9,7.4-14.4,16.9-27.6,28.4-39.1s24.6-21,39.1-28.4c14.5-7.4,29.7-12.3,47.9-15.6,21.2-3.8,44.2-4.9,64-5.4,9.7-.3,20.5-.4,33.9-.5,12.1,0,24.1,0,37.3,0h287.8c13.2,0,25.2,0,37.2,0,13.5,0,24.3.2,34,.5,19.7.5,42.7,1.6,63.9,5.4,18.2,3.3,33.4,8.2,47.9,15.6,14.4,7.4,27.6,16.9,39.1,28.4,11.5,11.5,21,24.6,28.4,39.1,7.4,14.5,12.3,29.7,15.6,47.9,3.8,21.2,4.9,44.2,5.4,64,.3,9.8.4,20.3.5,33.9,0,13,0,26.4,0,39.3v283.8c0,12.9,0,26.2,0,39.2,0,13.7-.2,24.2-.5,34-.5,19.7-1.6,42.7-5.4,64-3.3,18.2-8.2,33.4-15.6,47.9-7.4,14.4-16.9,27.6-28.4,39.1-11.5,11.5-24.6,21-39.1,28.4-14.5,7.4-29.7,12.3-47.9,15.6-21.2,3.8-44.2,4.9-64,5.4-9.8.3-20.3.4-33.9.5-12,0-24,0-37.3,0h-287.8Z"/>
</svg>