<?xml version="1.0" encoding="UTF-8"?>
<svg xmlns="http://www.w3.org/2000/svg" viewBox="0 0 1024 1024">
  <path d="M360.1,960c-13.3,0-25.3,0-37.4,0-13.9,0-24.5-.2-34.5-.5-20.6-.6-44.7-1.7-67.5-5.8-20.6-3.7-37.9-9.4-54.5-17.8-16.7-8.5-31.9-19.5-45.2-32.8-13.3-13.3-24.3-28.5-32.8-45.2-8.5-16.6-14.1-34-17.8-54.5-4.1-22.8-5.2-46.9-5.8-67.6-.3-9.9-.4-20.8-.5-34.4,0-13.2,0-26.8,0-39.9v-298.9c0-13.1,0-26.6,0-39.8,0-13.6.2-24.6.5-34.5.6-20.6,1.7-44.7,5.8-67.5,3.7-20.6,9.4-37.9,17.8-54.5,8.5-16.7,19.5-31.9,32.8-45.2,13.3-13.3,28.5-24.3,45.2-32.8,16.6-8.5,34-14.1,54.5-17.8,22.8-4.1,46.9-5.2,67.6-5.8,10-.3,20.6-.4,34.4-.5,12.2,0,24.1,0,37.4,0h303.8c13.3,0,25.3,0,37.4,0,13.9,0,24.5.2,34.5.5,20.6.6,44.7,1.7,67.6,5.8,20.6,3.7,37.9,9.4,54.5,17.8,16.7,8.5,31.9,19.5,45.2,32.8s24.3,28.5,32.8,45.2c8.5,16.6,14.1,34,17.8,54.5,4.1,22.8,5.2,46.9,5.8,67.6.3,10,.4,20.6.5,34.4,0,13.2,0,26.8,0,39.9v298.9c0,13.1,0,26.6,0,39.8,0,13.9-.2,24.5-.5,34.5-.6,20.6-1.7,44.7-5.8,67.6-3.7,20.6-9.4,37.9-17.8,54.5-8.5,16.7-19.5,31.9-32.8,45.2s-28.5,24.3-45.2,32.8c-16.6,8.5-34,14.1-54.5,17.8-22.8,4.1-46.9,5.2-67.6,5.8-10,.3-20.6.4-34.4.5-12.2,0-24.1,0-37.4,0h-303.8Z"/>
</svg>