<?xml version="1.0" encoding="UTF-8"?>
<!--Generator: Apple Native CoreSVG 232.5-->
<!DOCTYPE svg
PUBLIC "-//W3C//DTD SVG 1.1//EN"
       "http://www.w3.org/Graphics/SVG/1.1/DTD/svg11.dtd">
<svg version="1.1" xmlns="http://www.w3.org/2000/svg" xmlns:xlink="http://www.w3.org/1999/xlink" width="3300" height="2200">
 <!--glyph: "", point size: 100.0, font version: "19.2d2e1", template writer version: "128"-->
 <style>.monochrome-0 {-sfsymbols-motion-group:1}
.monochrome-1 {-sfsymbols-motion-group:0}

.multicolor-0:tintColor {-sfsymbols-motion-group:1}
.multicolor-1:tintColor {-sfsymbols-motion-group:0}

.hierarchical-0:primary {-sfsymbols-motion-group:1}
.hierarchical-1:secondary {-sfsymbols-motion-group:0}

.SFSymbolsPreviewWireframe {fill:none;opacity:1.0;stroke:black;stroke-width:0.5}
</style>
 <g id="Notes">
  <rect height="2200" id="artboard" style="fill:white;opacity:1" width="3300" x="0" y="0"/>
  <line style="fill:none;stroke:black;opacity:1;stroke-width:0.5;" x1="263" x2="3036" y1="292" y2="292"/>
  <text style="stroke:none;fill:black;font-family:sans-serif;font-size:13;font-weight:bold;" transform="matrix(1 0 0 1 263 322)">Weight/Scale Variations</text>
  <text style="stroke:none;fill:black;font-family:sans-serif;font-size:13;text-anchor:middle;" transform="matrix(1 0 0 1 559.711 322)">Ultralight</text>
  <text style="stroke:none;fill:black;font-family:sans-serif;font-size:13;text-anchor:middle;" transform="matrix(1 0 0 1 856.422 322)">Thin</text>
  <text style="stroke:none;fill:black;font-family:sans-serif;font-size:13;text-anchor:middle;" transform="matrix(1 0 0 1 1153.13 322)">Light</text>
  <text style="stroke:none;fill:black;font-family:sans-serif;font-size:13;text-anchor:middle;" transform="matrix(1 0 0 1 1449.84 322)">Regular</text>
  <text style="stroke:none;fill:black;font-family:sans-serif;font-size:13;text-anchor:middle;" transform="matrix(1 0 0 1 1746.56 322)">Medium</text>
  <text style="stroke:none;fill:black;font-family:sans-serif;font-size:13;text-anchor:middle;" transform="matrix(1 0 0 1 2043.27 322)">Semibold</text>
  <text style="stroke:none;fill:black;font-family:sans-serif;font-size:13;text-anchor:middle;" transform="matrix(1 0 0 1 2339.98 322)">Bold</text>
  <text style="stroke:none;fill:black;font-family:sans-serif;font-size:13;text-anchor:middle;" transform="matrix(1 0 0 1 2636.69 322)">Heavy</text>
  <text style="stroke:none;fill:black;font-family:sans-serif;font-size:13;text-anchor:middle;" transform="matrix(1 0 0 1 2933.4 322)">Black</text>
  <line style="fill:none;stroke:black;opacity:1;stroke-width:0.5;" x1="263" x2="3036" y1="1903" y2="1903"/>
  <g transform="matrix(0.2 0 0 0.2 263 1933)">
   <path d="m46.2402 4.15039c21.5332 0 39.4531-17.8711 39.4531-39.4043s-17.9688-39.4043-39.502-39.4043c-21.4844 0-39.3555 17.8711-39.3555 39.4043s17.9199 39.4043 39.4043 39.4043Zm0-7.42188c-17.7246 0-31.8848-14.209-31.8848-31.9824s14.1113-31.9824 31.8359-31.9824c17.7734 0 32.0312 14.209 32.0312 31.9824s-14.209 31.9824-31.9824 31.9824Zm-17.9688-31.9824c0 2.14844 1.51367 3.61328 3.75977 3.61328h10.498v10.5957c0 2.19727 1.46484 3.71094 3.61328 3.71094 2.24609 0 3.71094-1.51367 3.71094-3.71094v-10.5957h10.5957c2.19727 0 3.71094-1.46484 3.71094-3.61328 0-2.19727-1.51367-3.71094-3.71094-3.71094h-10.5957v-10.5469c0-2.24609-1.46484-3.75977-3.71094-3.75977-2.14844 0-3.61328 1.51367-3.61328 3.75977v10.5469h-10.498c-2.24609 0-3.75977 1.51367-3.75977 3.71094Z"/>
  </g>
  <g transform="matrix(0.2 0 0 0.2 281.506 1933)">
   <path d="m58.5449 14.5508c27.2461 0 49.8047-22.6074 49.8047-49.8047 0-27.2461-22.6074-49.8047-49.8535-49.8047-27.1973 0-49.7559 22.5586-49.7559 49.8047 0 27.1973 22.6074 49.8047 49.8047 49.8047Zm0-8.30078c-23.0469 0-41.4551-18.457-41.4551-41.5039s18.3594-41.5039 41.4062-41.5039 41.5527 18.457 41.5527 41.5039-18.457 41.5039-41.5039 41.5039Zm-22.6562-41.5039c0 2.39258 1.66016 4.00391 4.15039 4.00391h14.3555v14.4043c0 2.44141 1.66016 4.15039 4.05273 4.15039 2.44141 0 4.15039-1.66016 4.15039-4.15039v-14.4043h14.4043c2.44141 0 4.15039-1.61133 4.15039-4.00391 0-2.44141-1.70898-4.15039-4.15039-4.15039h-14.4043v-14.3555c0-2.49023-1.70898-4.19922-4.15039-4.19922-2.39258 0-4.05273 1.70898-4.05273 4.19922v14.3555h-14.3555c-2.49023 0-4.15039 1.70898-4.15039 4.15039Z"/>
  </g>
  <g transform="matrix(0.2 0 0 0.2 304.924 1933)">
   <path d="m74.8535 28.3203c34.8145 0 63.623-28.8086 63.623-63.5742 0-34.8145-28.8574-63.623-63.6719-63.623-34.7656 0-63.5254 28.8086-63.5254 63.623 0 34.7656 28.8086 63.5742 63.5742 63.5742Zm0-9.08203c-30.1758 0-54.4434-24.3164-54.4434-54.4922 0-30.2246 24.2188-54.4922 54.3945-54.4922 30.2246 0 54.541 24.2676 54.541 54.4922 0 30.1758-24.2676 54.4922-54.4922 54.4922Zm-28.8574-54.4922c0 2.58789 1.85547 4.39453 4.58984 4.39453h19.7266v19.7754c0 2.68555 1.85547 4.58984 4.44336 4.58984 2.68555 0 4.54102-1.85547 4.54102-4.58984v-19.7754h19.7754c2.68555 0 4.58984-1.80664 4.58984-4.39453 0-2.73438-1.85547-4.58984-4.58984-4.58984h-19.7754v-19.7266c0-2.73438-1.85547-4.63867-4.54102-4.63867-2.58789 0-4.44336 1.9043-4.44336 4.63867v19.7266h-19.7266c-2.73438 0-4.58984 1.85547-4.58984 4.58984Z"/>
  </g>
  <text style="stroke:none;fill:black;font-family:sans-serif;font-size:13;font-weight:bold;" transform="matrix(1 0 0 1 263 1953)">Design Variations</text>
  <text style="stroke:none;fill:black;font-family:sans-serif;font-size:13;" transform="matrix(1 0 0 1 263 1971)">Symbols are supported in up to nine weights and three scales.</text>
  <text style="stroke:none;fill:black;font-family:sans-serif;font-size:13;" transform="matrix(1 0 0 1 263 1989)">For optimal layout with text and other symbols, vertically align</text>
  <text style="stroke:none;fill:black;font-family:sans-serif;font-size:13;" transform="matrix(1 0 0 1 263 2007)">symbols with the adjacent text.</text>
  <line style="fill:none;stroke:#00AEEF;stroke-width:0.5;opacity:1.0;" x1="776" x2="776" y1="1919" y2="1933"/>
  <g transform="matrix(0.2 0 0 0.2 776 1933)">
   <path d="m16.5527 0.78125c2.58789 0 3.85742-0.976562 4.78516-3.71094l6.29883-17.2363h28.8086l6.29883 17.2363c0.927734 2.73438 2.19727 3.71094 4.73633 3.71094 2.58789 0 4.24805-1.5625 4.24805-4.00391 0-0.830078-0.146484-1.61133-0.537109-2.63672l-22.9004-60.9863c-1.12305-2.97852-3.125-4.49219-6.25-4.49219-3.02734 0-5.07812 1.46484-6.15234 4.44336l-22.9004 61.084c-0.390625 1.02539-0.537109 1.80664-0.537109 2.63672 0 2.44141 1.5625 3.95508 4.10156 3.95508Zm13.4766-28.3691 11.8652-32.8613h0.244141l11.8652 32.8613Z"/>
  </g>
  <line style="fill:none;stroke:#00AEEF;stroke-width:0.5;opacity:1.0;" x1="792.836" x2="792.836" y1="1919" y2="1933"/>
  <text style="stroke:none;fill:black;font-family:sans-serif;font-size:13;font-weight:bold;" transform="matrix(1 0 0 1 776 1953)">Margins</text>
  <text style="stroke:none;fill:black;font-family:sans-serif;font-size:13;" transform="matrix(1 0 0 1 776 1971)">Leading and trailing margins on the left and right side of each symbol</text>
  <text style="stroke:none;fill:black;font-family:sans-serif;font-size:13;" transform="matrix(1 0 0 1 776 1989)">can be adjusted by modifying the x-location of the margin guidelines.</text>
  <text style="stroke:none;fill:black;font-family:sans-serif;font-size:13;" transform="matrix(1 0 0 1 776 2007)">Modifications are automatically applied proportionally to all</text>
  <text style="stroke:none;fill:black;font-family:sans-serif;font-size:13;" transform="matrix(1 0 0 1 776 2025)">scales and weights.</text>
  <g transform="matrix(0.2 0 0 0.2 1289 1933)">
   <path d="m14.209 9.32617 8.49609 8.54492c4.29688 4.3457 9.22852 4.05273 13.8672-1.07422l53.4668-58.9355-4.83398-4.88281-53.0762 58.3984c-1.75781 2.00195-3.41797 2.49023-5.76172 0.146484l-5.85938-5.81055c-2.34375-2.29492-1.80664-4.00391 0.195312-5.81055l57.373-54.0039-4.88281-4.83398-57.959 54.4434c-4.93164 4.58984-5.32227 9.47266-1.02539 13.8184Zm32.0801-90.9668c-2.09961 2.05078-2.24609 4.93164-1.07422 6.88477 1.17188 1.80664 3.4668 2.97852 6.68945 2.14844 7.32422-1.70898 14.9414-2.00195 22.0703 2.68555l-2.92969 7.27539c-1.70898 4.15039-0.830078 7.08008 1.85547 9.81445l11.4746 11.5723c2.44141 2.44141 4.49219 2.53906 7.32422 2.05078l5.32227-0.976562 3.32031 3.36914-0.195312 2.7832c-0.195312 2.49023 0.439453 4.39453 2.88086 6.78711l3.80859 3.71094c2.39258 2.39258 5.46875 2.53906 7.8125 0.195312l14.5508-14.5996c2.34375-2.34375 2.24609-5.32227-0.146484-7.71484l-3.85742-3.80859c-2.39258-2.39258-4.24805-3.17383-6.64062-2.97852l-2.88086 0.244141-3.22266-3.17383 1.2207-5.61523c0.634766-2.83203-0.146484-5.0293-3.07617-7.95898l-10.9863-10.9375c-16.6992-16.6016-38.8672-16.2109-53.3203-1.75781Zm7.4707 1.85547c12.1582-8.88672 28.6133-7.37305 39.7461 3.75977l12.1582 12.0605c1.17188 1.17188 1.36719 2.09961 1.02539 3.80859l-1.61133 7.42188 7.51953 7.42188 4.93164-0.292969c1.26953-0.0488281 1.66016 0.0488281 2.63672 1.02539l2.88086 2.88086-12.207 12.207-2.88086-2.88086c-0.976562-0.976562-1.12305-1.36719-1.07422-2.68555l0.341797-4.88281-7.4707-7.42188-7.61719 1.26953c-1.61133 0.341797-2.34375 0.195312-3.56445-0.976562l-10.0098-10.0098c-1.26953-1.17188-1.41602-2.00195-0.634766-3.85742l4.39453-10.4492c-7.8125-7.27539-17.9688-10.4004-28.125-7.42188-0.78125 0.195312-1.07422-0.439453-0.439453-0.976562Z"/>
  </g>
  <text style="stroke:none;fill:black;font-family:sans-serif;font-size:13;font-weight:bold;" transform="matrix(1 0 0 1 1289 1953)">Exporting</text>
  <text style="stroke:none;fill:black;font-family:sans-serif;font-size:13;" transform="matrix(1 0 0 1 1289 1971)">Symbols should be outlined when exporting to ensure the</text>
  <text style="stroke:none;fill:black;font-family:sans-serif;font-size:13;" transform="matrix(1 0 0 1 1289 1989)">design is preserved when submitting to Xcode.</text>
  <text id="template-version" style="stroke:none;fill:black;font-family:sans-serif;font-size:13;text-anchor:end;" transform="matrix(1 0 0 1 3036 1933)">Template v.5.0</text>
  <text style="stroke:none;fill:black;font-family:sans-serif;font-size:13;text-anchor:end;" transform="matrix(1 0 0 1 3036 1951)">Requires Xcode 15 or greater</text>
  <text id="descriptive-name" style="stroke:none;fill:black;font-family:sans-serif;font-size:13;text-anchor:end;" transform="matrix(1 0 0 1 3036 1969)">Generated from text.commentout</text>
  <text style="stroke:none;fill:black;font-family:sans-serif;font-size:13;text-anchor:end;" transform="matrix(1 0 0 1 3036 1987)">Typeset at 100.0 points</text>
  <text style="stroke:none;fill:black;font-family:sans-serif;font-size:13;" transform="matrix(1 0 0 1 263 726)">Small</text>
  <text style="stroke:none;fill:black;font-family:sans-serif;font-size:13;" transform="matrix(1 0 0 1 263 1156)">Medium</text>
  <text style="stroke:none;fill:black;font-family:sans-serif;font-size:13;" transform="matrix(1 0 0 1 263 1586)">Large</text>
 </g>
 <g id="Guides">
  <g id="H-reference" style="fill:#27AAE1;stroke:none;" transform="matrix(1 0 0 1 339 696)">
   <path d="M0.993654 0L3.63775 0L29.3281-67.1323L30.0303-67.1323L30.0303-70.459L28.1226-70.459ZM11.6885-24.4799L46.9815-24.4799L46.2315-26.7285L12.4385-26.7285ZM55.1196 0L57.7637 0L30.6382-70.459L29.4326-70.459L29.4326-67.1323Z"/>
  </g>
  <line id="Baseline-S" style="fill:none;stroke:#27AAE1;opacity:1;stroke-width:0.5;" x1="263" x2="3036" y1="696" y2="696"/>
  <line id="Capline-S" style="fill:none;stroke:#27AAE1;opacity:1;stroke-width:0.5;" x1="263" x2="3036" y1="625.541" y2="625.541"/>
  <g id="H-reference" style="fill:#27AAE1;stroke:none;" transform="matrix(1 0 0 1 339 1126)">
   <path d="M0.993654 0L3.63775 0L29.3281-67.1323L30.0303-67.1323L30.0303-70.459L28.1226-70.459ZM11.6885-24.4799L46.9815-24.4799L46.2315-26.7285L12.4385-26.7285ZM55.1196 0L57.7637 0L30.6382-70.459L29.4326-70.459L29.4326-67.1323Z"/>
  </g>
  <line id="Baseline-M" style="fill:none;stroke:#27AAE1;opacity:1;stroke-width:0.5;" x1="263" x2="3036" y1="1126" y2="1126"/>
  <line id="Capline-M" style="fill:none;stroke:#27AAE1;opacity:1;stroke-width:0.5;" x1="263" x2="3036" y1="1055.54" y2="1055.54"/>
  <g id="H-reference" style="fill:#27AAE1;stroke:none;" transform="matrix(1 0 0 1 339 1556)">
   <path d="M0.993654 0L3.63775 0L29.3281-67.1323L30.0303-67.1323L30.0303-70.459L28.1226-70.459ZM11.6885-24.4799L46.9815-24.4799L46.2315-26.7285L12.4385-26.7285ZM55.1196 0L57.7637 0L30.6382-70.459L29.4326-70.459L29.4326-67.1323Z"/>
  </g>
  <line id="Baseline-L" style="fill:none;stroke:#27AAE1;opacity:1;stroke-width:0.5;" x1="263" x2="3036" y1="1556" y2="1556"/>
  <line id="Capline-L" style="fill:none;stroke:#27AAE1;opacity:1;stroke-width:0.5;" x1="263" x2="3036" y1="1485.54" y2="1485.54"/>
  <line id="left-margin-Ultralight-S" style="fill:none;stroke:#00AEEF;stroke-width:0.5;opacity:1.0;" x1="507.585" x2="507.585" y1="600.785" y2="720.121"/>
  <line id="right-margin-Ultralight-S" style="fill:none;stroke:#00AEEF;stroke-width:0.5;opacity:1.0;" x1="611.837" x2="611.837" y1="600.785" y2="720.121"/>
  <line id="left-margin-Regular-S" style="fill:none;stroke:#00AEEF;stroke-width:0.5;opacity:1.0;" x1="1395.43" x2="1395.43" y1="600.785" y2="720.121"/>
  <line id="right-margin-Regular-S" style="fill:none;stroke:#00AEEF;stroke-width:0.5;opacity:1.0;" x1="1504.26" x2="1504.26" y1="600.785" y2="720.121"/>
  <line id="left-margin-Black-S" style="fill:none;stroke:#00AEEF;stroke-width:0.5;opacity:1.0;" x1="2871.14" x2="2871.14" y1="600.785" y2="720.121"/>
  <line id="right-margin-Black-S" style="fill:none;stroke:#00AEEF;stroke-width:0.5;opacity:1.0;" x1="2995.66" x2="2995.66" y1="600.785" y2="720.121"/>
 </g>
 <g id="Symbols">
  <g id="Black-S" transform="matrix(1 0 0 1 2871.14 696)">
   <path class="monochrome-0 multicolor-0:tintColor hierarchical-0:primary SFSymbolsPreviewWireframe" d="M36.4607 7.8647C35.7644 7.8647 35.0652 7.7739 34.3816 7.5898L33.8992 7.4599C29.6346 6.312 27.1062 1.9252 28.2517-2.3404L47.0515-72.3404C47.6023-74.3902 48.9451-76.1373 50.7839-77.1968C52.0095-77.9029 53.3884-78.2652 54.778-78.2652C55.4743-78.2652 56.1735-78.1744 56.8571-77.9903L57.3395-77.8604C61.6041-76.7125 64.1325-72.3257 62.987-68.0601L44.1872 1.9399C43.6364 3.9897 42.2936 5.7368 40.4548 6.7963C39.2292 7.5024 37.8503 7.8647 36.4607 7.8647ZM9.7605 7.8647C9.0642 7.8647 8.365 7.7739 7.6814 7.5898L7.199 7.4599C2.9344 6.312 0.406 1.9252 1.5515-2.3404L20.3513-72.3404C20.9021-74.3902 22.2449-76.1373 24.0837-77.1968C25.3093-77.9029 26.6882-78.2652 28.0778-78.2652C28.7741-78.2652 29.4733-78.1744 30.1569-77.9903L30.6393-77.8604C34.9039-76.7125 37.4323-72.3257 36.2868-68.0601L17.487 1.9399C16.9362 3.9897 15.5934 5.7368 13.7546 6.7963C12.529 7.5024 11.1501 7.8647 9.7605 7.8647Z"/>
   <path class="monochrome-1 multicolor-1:tintColor hierarchical-1:secondary SFSymbolsPreviewWireframe" d="M79.1481-60.2539L108.643-60.2539C112.061-60.2539 114.746-63.2812 114.746-66.6016C114.746-70.0684 112.109-72.9492 108.643-72.9492L79.1481-72.9492C75.7301-72.9492 73.0446-69.9707 73.0446-66.6016C73.0446-63.3789 75.779-60.2539 79.1481-60.2539ZM73.7504-40.1855L108.643-40.1855C112.061-40.1855 114.746-43.2129 114.746-46.5332C114.746-50 112.109-52.8809 108.643-52.8809L73.7504-52.8809C70.3324-52.8809 67.6469-49.9023 67.6469-46.5332C67.6469-43.3105 70.3813-40.1855 73.7504-40.1855ZM68.3543-20.0684L108.643-20.0684C112.061-20.0684 114.746-23.0957 114.746-26.416C114.746-29.8828 112.109-32.7637 108.643-32.7637L68.3543-32.7637C64.9363-32.7637 62.2508-29.7852 62.2508-26.416C62.2508-23.1934 64.9852-20.0684 68.3543-20.0684ZM62.9699 0L84.2285 0C87.6465 0 90.332-3.0273 90.332-6.3477C90.332-9.8145 87.6953-12.6953 84.2285-12.6953L62.9699-12.6953C59.5519-12.6953 56.8664-9.7168 56.8664-6.3477C56.8664-3.125 59.6008 0 62.9699 0Z"/>
  </g>
  <g id="Regular-S" transform="matrix(1 0 0 1 1395.43 696)">
   <path class="monochrome-0 multicolor-0:tintColor hierarchical-0:primary SFSymbolsPreviewWireframe" d="M35.5513 4.8647C35.1158 4.8647 34.6787 4.8081 34.2515 4.6928L33.7691 4.5629C31.1036 3.8451 29.524 1.1034 30.2398-1.5621L49.0396-71.5621C49.3838-72.8433 50.2232-73.9351 51.3726-74.5977C52.1382-75.0386 53-75.2652 53.8687-75.2652C54.3042-75.2652 54.7413-75.2086 55.1685-75.0933L55.6509-74.9634C58.3164-74.2456 59.896-71.5039 59.1802-68.8384L40.3804 1.1616C40.0362 2.4428 39.1968 3.5346 38.0474 4.1972C37.2818 4.6381 36.42 4.8647 35.5513 4.8647ZM12.8511 4.8647C12.4156 4.8647 11.9785 4.8081 11.5513 4.6928L11.0689 4.5629C8.4034 3.8451 6.8238 1.1034 7.5396-1.5621L26.3394-71.5621C26.6836-72.8433 27.523-73.9351 28.6724-74.5977C29.438-75.0386 30.2998-75.2652 31.1685-75.2652C31.604-75.2652 32.0411-75.2086 32.4683-75.0933L32.9507-74.9634C35.6162-74.2456 37.1958-71.5039 36.48-68.8384L17.6802 1.1616C17.336 2.4428 16.4966 3.5346 15.3472 4.1972C14.5816 4.6381 13.7198 4.8647 12.8511 4.8647Z"/>
   <path class="monochrome-1 multicolor-1:tintColor hierarchical-1:secondary SFSymbolsPreviewWireframe" d="M72.2505-62.0785L95.703-62.1582C97.5585-62.1582 99.0722-63.5742 99.0722-65.4297C99.0722-67.2852 97.5585-68.7012 95.703-68.7012L72.2505-68.6215C70.4439-68.6215 68.8042-67.2055 68.8042-65.35C68.8042-63.4945 70.4439-62.0785 72.2505-62.0785ZM66.69-41.964L95.5586-42.0898C97.4141-42.0898 98.9278-43.5547 98.9278-45.4102C98.9278-47.2168 97.4141-48.6816 95.5586-48.6816L66.69-48.5558C64.8834-48.5558 63.4185-47.091 63.4185-45.2844C63.4185-43.4289 64.8834-41.964 66.69-41.964ZM61.3472-22.0703L95.703-22.0703C97.5585-22.0703 99.0722-23.5352 99.0722-25.3906C99.0722-27.1973 97.5585-28.6621 95.703-28.6621L61.3472-28.6621C59.5406-28.6621 58.0757-27.1973 58.0757-25.3906C58.0757-23.5352 59.5406-22.0703 61.3472-22.0703ZM55.9662-2.0508L76.1719-2.0508C78.0273-2.0508 79.541-3.5156 79.541-5.3711C79.541-7.1777 78.0273-8.6426 76.1719-8.6426L55.9662-8.6426C54.1596-8.6426 52.6991-7.1778 52.6991-5.3711C52.6991-3.5156 54.1596-2.0508 55.9662-2.0508Z"/>
  </g>
  <g id="Ultralight-S" transform="matrix(1 0 0 1 507.585 696)">
   <path class="monochrome-0 multicolor-0:tintColor hierarchical-0:primary SFSymbolsPreviewWireframe" d="M31.707 2.3647C31.4892 2.3647 31.271 2.3364 31.0571 2.2788L30.5747 2.1489C29.2422 1.79 28.4521 0.4194 28.8101-0.9136L47.6099-70.9136C47.7823-71.5542 48.2017-72.1001 48.7764-72.4312C49.1592-72.6519 49.5904-72.7652 50.0244-72.7652C50.2422-72.7652 50.4604-72.7369 50.6743-72.6793L51.1567-72.5494C52.4892-72.1905 53.2793-70.8199 52.9213-69.4869L34.1215 0.5131C33.9491 1.1537 33.5297 1.6996 32.955 2.0307C32.5722 2.2514 32.141 2.3647 31.707 2.3647ZM10.0068 2.3647C9.789 2.3647 9.5708 2.3364 9.3569 2.2788L8.8745 2.1489C7.542 1.79 6.7519 0.4194 7.1099-0.9136L25.9097-70.9136C26.0821-71.5542 26.5015-72.1001 27.0762-72.4312C27.459-72.6519 27.8902-72.7652 28.3242-72.7652C28.542-72.7652 28.7602-72.7369 28.9741-72.6793L29.4565-72.5494C30.789-72.1905 31.5791-70.8199 31.2211-69.4869L12.4213 0.5131C12.2489 1.1537 11.8295 1.6996 11.2548 2.0307C10.872 2.2514 10.4408 2.3647 10.0068 2.3647Z"/>
   <path class="monochrome-1 multicolor-1:tintColor hierarchical-1:secondary SFSymbolsPreviewWireframe" d="M66.0669-64.3011L93.3872-64.2925C94.0166-64.2925 94.4859-64.7549 94.4859-65.3843C94.4859-66.0137 94.0166-66.4761 93.3872-66.4761L66.0669-66.4847C65.4409-66.4847 64.9751-66.0223 64.9751-65.3929C64.9751-64.7635 65.4409-64.3011 66.0669-64.3011ZM60.6629-44.1787L93.3872-44.1787C94.0166-44.1787 94.4859-44.6445 94.4859-45.2739C94.4859-45.8999 94.0166-46.3657 93.3872-46.3657L60.6629-46.3657C60.0369-46.3657 59.5711-45.8999 59.5711-45.2739C59.5711-44.6445 60.0369-44.1787 60.6629-44.1787ZM55.2627-24.0683L93.3872-24.0683C94.0166-24.0683 94.4859-24.4888 94.4859-25.1636C94.4859-25.7896 94.0166-26.2554 93.3872-26.2554L55.2627-26.2554C54.6367-26.2554 54.1709-25.7896 54.1709-25.1636C54.1709-24.4888 54.6367-24.0683 55.2627-24.0683ZM49.8581-3.958L73.856-3.958C74.4854-3.958 74.9546-4.3784 74.9546-5.0532C74.9546-5.6792 74.4854-6.145 73.856-6.145L49.8581-6.145C49.2321-6.145 48.7663-5.6792 48.7663-5.0532C48.7663-4.3784 49.2321-3.958 49.8581-3.958Z"/>
  </g>
 </g>
</svg>
