<?xml version="1.0" encoding="utf-8"?>
<!DOCTYPE svg
PUBLIC "-//W3C//DTD SVG 1.1//EN"
       "http://www.w3.org/Graphics/SVG/1.1/DTD/svg11.dtd">
<svg version="1.1" xmlns="http://www.w3.org/2000/svg" xmlns:xlink="http://www.w3.org/1999/xlink" width="3300" height="2200">
 
 <g id="Notes">
  <style>
   text { fill: black; stroke: none;
          font-family: -apple-system,&quot;SF Pro Display&quot;,&quot;SF Pro Text&quot;,Helvetica,sans-serif; }
   .separator { fill: none; stroke: black; stroke-width: 0.5; }
  </style>
  
  <rect height="2200" id="artboard" style="fill:white" width="3300"/>
  
  <g title="header" transform="translate(263 292)">
   <line class="separator" x1="0" x2="2773"/>
   
   <g transform="translate(0 30)">
    <text style="font-weight:bold;">Weight/Scale Variations</text>
    
    <g style="text-anchor:middle;">
     <text x="296.711">Ultralight</text>
     <text x="593.422">Thin</text>
     <text x="890.13">Light</text>
     <text x="1186.84">Regular</text>
     <text x="1483.56">Medium</text>
     <text x="1780.27">Semibold</text>
     <text x="2076.98">Bold</text>
     <text x="2373.69">Heavy</text>
     <text x="2670.4">Black</text>
    </g>
   </g>
  </g>
  
  <g title="footer" transform="translate(263 1903)">
   <line class="separator" x1="0" x2="2773"/>
   
   <g transform="translate(2773 0)" style="text-anchor:end;">
    <text id="template-version" y="30">Template v.2.0</text>
    <text y="48">Requires Xcode 12 or greater</text>
    <text y="66">Generated from delete.right</text>
    <text y="84">Typeset at 100 points</text>
   </g>
  </g>
  
  <g transform="translate(263 0)">
   <text y="726">Small</text>
   <text y="1156">Medium</text>
   <text y="1586">Large</text>
  </g>
 </g>
 
 <g id="Guides">
  <style>
   #H-reference      { fill:#27AAE1; stroke:none; }
   [id^="Baseline"],
   [id^="Capline"]   { fill:none; stroke:#27AAE1; stroke-width:0.5; }
   [id$="-margin"]   { fill:none; stroke:#00AEEF; stroke-width:0.5; }
  </style>
  
  <g id="H-reference" transform="translate(339 696)">
   <path d="M1,0h2.7L13-24.5h32.7L55.1,0h2.6L30.6-70.5h-2.5L1,0z M29.3-67.1L29.3-67.1l15.6,40.4h-31L29.3-67.1z"/>
  </g>
  <line id="Baseline-S" x1="263" y1="696" x2="3036" y2="696"/>
  <line id="Capline-S" x1="263" y1="625.5" x2="3036" y2="625.5"/>
  <g id="H-reference" transform="translate(339 1126)">
   <path class="st6" d="M1,0h2.7L13-24.5h32.7L55.1,0h2.6L30.6-70.5h-2.5L1,0z M29.3-67.1L29.3-67.1l15.6,40.4h-31L29.3-67.1z"/>
  </g>
  <line id="Baseline-M" x1="263" y1="1126" x2="3036" y2="1126"/>
  <line id="Capline-M" x1="263" y1="1055.5" x2="3036" y2="1055.5"/>
  <g id="H-reference" transform="translate(339 1556)">
   <path d="M1,0h2.7L13-24.5h32.7L55.1,0h2.6L30.6-70.5h-2.5L1,0z M29.3-67.1L29.3-67.1l15.6,40.4h-31L29.3-67.1z"/>
  </g>
  <line id="Baseline-L" x1="263" y1="1556" x2="3036" y2="1556"/>
  <line id="Capline-L" x1="263" y1="1485.5" x2="3036" y2="1485.5"/>
  <line id="left-margin" x1="1385.73" y1="1030.79" x2="1385.73" y2="1150.12"/>
  <line id="right-margin" x1="1513.96" y1="1030.79" x2="1513.96" y2="1150.12"/>
 </g>
 
 <g id="Symbols">
  <g id="Black-L" transform="translate(2848.34 1556)">
   <path d="M32.99,26.51h67.81c12.16,0,17.68-2.64,25.1-11.43l30.67-35.5c6.15-7.23,7.71-10.6,7.71-14.79c0-4.15-1.42-7.42-7.71-14.79l-30.62-35.5c-7.37-8.69-13.04-11.38-25.15-11.38H32.99c-15.23,0-23.93,8.59-23.93,23.78V4.88C9.06,20.07,17.76,26.51,32.99,26.51z M35.72,6.3c-4.25,0-6.4-1.9-6.4-6.45v-70.07c0-4.54,2.15-6.45,6.4-6.45h66.78c3.08,0,5.32,0.83,7.62,3.52l30.52,35.25c0.93,1.03,1.22,1.81,1.22,2.69c0,0.83-0.34,1.76-1.22,2.73L110.12,2.64c-2.34,2.69-4.54,3.66-7.67,3.66H35.72z"/>
  </g>
  <g id="Heavy-L" transform="translate(2552.39 1556)">
   <path d="M31.82,25.49h67.91c10.99,0,16.6-2.59,23.49-10.5l32.27-36.18c5.66-6.49,7.23-9.91,7.23-14.06c0-4.05-1.51-7.42-7.23-13.96l-32.23-36.33c-6.84-7.86-12.55-10.3-23.54-10.3H31.82c-14.6,0-22.75,8.06-22.75,22.61V4.54C9.06,19.09,17.22,25.49,31.82,25.49z M33.97,8.01c-4.83,0-7.37-2.29-7.37-7.42v-71.53c0-5.13,2.54-7.42,7.37-7.42h67.08c3.52,0,6.06,0.83,8.59,3.71l32.08,35.99c1.27,1.37,1.66,2.34,1.66,3.42s-0.44,2.2-1.66,3.52L109.59,4.05c-2.54,2.88-5.03,3.96-8.54,3.96H33.97z"/>
  </g>
  <g id="Bold-L" transform="translate(2256.55 1556)">
   <path d="M29.55,24.37l70-0.05c9.67,0,15.38-2.49,21.63-9.47l34.13-36.91c5.03-5.66,6.69-9.13,6.69-13.18c0-4-1.61-7.42-6.69-13.13l-34.08-37.16c-6.2-6.98-12.01-9.18-21.68-9.18h-70c-13.92,0-21.48,7.47-21.48,21.34V4.15C8.06,17.97,15.63,24.37,29.55,24.37z M30.96,9.91c-5.52,0-8.45-2.73-8.45-8.5v-73.14c0-5.81,2.93-8.54,8.45-8.54h69.52c3.96,0,6.74,0.78,9.62,3.91l33.89,36.87c1.56,1.66,2.1,2.88,2.1,4.25c0,1.37-0.54,2.64-2.1,4.3L110.05,5.66c-2.88,3.12-5.62,4.25-9.62,4.25H30.96z"/>
  </g>
  <g id="Semibold-L" transform="translate(1960.43 1556)">
   <path d="M28.67,23.58l70.05-0.05c8.79,0,14.6-2.44,20.36-8.74l35.4-37.45c4.64-5.08,6.3-8.64,6.3-12.6s-1.61-7.47-6.3-12.55l-35.35-37.74c-5.76-6.35-11.62-8.4-20.41-8.4H28.67c-13.43,0-20.61,7.08-20.61,20.41V3.86C8.06,17.24,15.24,23.58,28.67,23.58z M29.65,11.28c-6.01,0-9.23-3.08-9.23-9.33v-74.27c0-6.2,3.22-9.28,9.23-9.28h69.71c4.3,0,7.28,0.78,10.35,4l35.11,37.5c1.81,1.9,2.44,3.27,2.44,4.83c0,1.51-0.59,2.93-2.44,4.83L109.66,6.79c-3.08,3.22-6.01,4.49-10.3,4.49H29.65z"/>
  </g>
  <g id="Medium-L" transform="translate(1664.18 1556)">
   <path d="M27.99,23l70.1-0.05c8.11,0,13.97-2.44,19.43-8.25l36.33-37.84c4.35-4.64,6.05-8.2,6.05-12.16c0-3.91-1.71-7.47-6.05-12.11L117.52-85.6c-5.37-5.81-11.33-7.71-19.38-7.71H27.99c-13.09,0-19.92,6.74-19.92,19.68V3.66C8.06,16.65,14.9,23,27.99,23z M28.62,12.26c-6.35,0-9.81-3.27-9.81-9.86v-75.1c0-6.59,3.47-9.91,9.81-9.91h69.91c4.54,0,7.67,0.78,10.89,4.15l36.08,37.94c1.95,2.05,2.64,3.56,2.64,5.22c0,1.71-0.63,3.22-2.64,5.32l-36.13,37.6c-3.22,3.37-6.3,4.64-10.89,4.64H28.62z"/>
  </g>
  <g id="Regular-L" transform="translate(1368.06 1556)">
   <path d="M27.11,22.22l70.15-0.05c7.23,0,13.18-2.39,18.16-7.57l37.6-38.33c4-4.05,5.66-7.71,5.66-11.57c0-3.86-1.71-7.47-5.66-11.52L115.47-85.6c-4.98-5.22-10.94-6.93-18.16-6.93h-70.2c-12.6,0-19.04,6.3-19.04,18.8V3.42C8.06,15.92,14.51,22.22,27.11,22.22z M27.25,13.57c-6.79,0-10.5-3.61-10.5-10.6v-76.27c0-6.98,3.71-10.6,10.5-10.6h70.2c4.83,0,8.2,0.73,11.57,4.25l37.31,38.53c2.2,2.29,2.98,3.96,2.98,5.81c0,1.86-0.73,3.52-2.98,5.86L108.98,8.69c-3.42,3.52-6.69,4.88-11.57,4.88H27.25z"/>
  </g>
  <g id="Light-L" transform="translate(1072.64 1556)">
   <path d="M25.08,21.44l71.42-0.05c6.98,0,12.4-2.54,17.19-7.37l38.18-38.38c3.71-3.76,5.22-7.18,5.22-10.94c0-3.81-1.56-7.18-5.22-10.94L113.74-85.3c-4.74-4.93-10.2-6.4-17.24-6.4H25.08c-11.87,0-18.02,6.05-18.02,17.87V3.56C7.06,15.38,13.22,21.44,25.08,21.44z M25.23,14.79c-7.52,0-11.52-3.96-11.52-11.57v-76.71c0-7.67,4-11.57,11.52-11.57H96.6c5.08,0,8.64,0.68,12.26,4.35l37.89,38.92c2.34,2.44,3.22,4.3,3.22,6.49c0,2.2-0.83,4.1-3.22,6.54L108.8,9.47c-3.61,3.66-7.13,5.32-12.21,5.32H25.23z"/>
  </g>
  <g id="Thin-L" transform="translate(777.638 1556)">
   <path d="M22.71,20.36h72.44c6.74,0,11.43-2.73,15.92-7.18l38.92-38.33c3.42-3.42,4.69-6.54,4.69-10.21s-1.32-6.69-4.69-10.11l-38.92-39.45c-4.39-4.54-9.18-5.66-15.92-5.66H22.71c-10.89,0-16.65,5.71-16.65,16.6V3.76C6.06,14.65,11.83,20.36,22.71,20.36z M22.86,16.41c-8.45,0-12.84-4.39-12.84-12.84v-77.34c0-8.5,4.39-12.89,12.84-12.89h72.29c5.32,0,9.28,0.63,13.13,4.49l38.72,39.45c2.49,2.59,3.51,4.79,3.51,7.37c0,2.69-0.93,4.88-3.51,7.47l-38.72,38.33c-3.91,3.91-7.81,5.96-13.13,5.96H22.86z"/>
  </g>
  <g id="Ultralight-L" transform="translate(481.806 1556)">
   <path d="M21.98,19.78h71.95c6.59,0,10.94-2.73,15.28-6.98l39.26-38.38c3.32-3.17,4.49-6.2,4.49-9.77c0-3.61-1.27-6.49-4.49-9.72l-39.26-39.65c-4.25-4.3-8.69-5.27-15.28-5.27H21.98c-10.35,0-15.92,5.52-15.92,15.92V3.86C6.06,14.26,11.63,19.78,21.98,19.78z M22.13,17.24c-8.89,0-13.48-4.59-13.48-13.48v-77.69c0-8.89,4.59-13.53,13.48-13.53h71.81c5.42,0,9.52,0.54,13.53,4.54l39.16,39.7c2.59,2.69,3.66,5.03,3.66,7.86c0,2.93-0.98,5.27-3.66,7.96l-39.11,38.38c-4,4-8.15,6.25-13.57,6.25H22.13z"/>
  </g>
  <g id="Black-M" transform="translate(2867.12 1126)">
   <path d="M26.98,13.57h51.21c10.84,0,14.75-2.2,21.14-9.96L121.21-23c5.32-6.49,6.4-8.89,6.4-12.21c0-3.22-0.93-5.52-6.4-12.16L99.34-74.02c-6.35-7.67-10.35-9.91-21.19-9.91H26.98c-12.26,0-19.53,7.28-19.53,19.53v60.79C7.45,8.64,14.73,13.57,26.98,13.57z M29.91-4.74c-2.83,0-4.15-1.07-4.15-4.15v-52.59c0-3.08,1.32-4.2,4.15-4.2h50.04c1.95,0,3.47,0.63,5.03,2.54l21.78,26.51c0.39,0.44,0.54,0.88,0.54,1.42c0,0.49-0.19,1.12-0.54,1.51L84.98-7.42c-1.56,1.95-3.08,2.69-5.03,2.69H29.91z"/>
  </g>
  <g id="Heavy-M" transform="translate(2570.92 1126)">
   <path d="M26.01,12.65h51.5c9.62,0,13.77-2.1,19.58-8.98l23.49-27.34c4.83-5.76,6.01-8.3,6.01-11.52c0-3.22-1.07-5.66-6.01-11.47L97.09-74.12c-5.76-6.84-10.01-8.94-19.63-8.94H26.01c-11.77,0-18.55,6.74-18.55,18.51v60.5C7.45,7.71,14.24,12.65,26.01,12.65z M28.25-3.17c-3.27,0-4.98-1.46-4.98-4.98v-54.05c0-3.56,1.71-5.03,4.98-5.03h50.62c2.34,0,4.1,0.63,5.86,2.73l23.39,27.2c0.68,0.78,0.93,1.37,0.93,2.1c0,0.63-0.29,1.42-0.93,2.1L84.74-6.05c-1.81,2.1-3.52,2.88-5.91,2.88H28.25z"/>
  </g>
  <g id="Bold-M" transform="translate(2274.77 1126)">
   <path d="M23.88,11.67l53.8-0.05c8.3,0,12.7-1.95,17.92-7.96l25.34-28.13c4.25-4.93,5.47-7.62,5.47-10.79c0-3.12-1.17-5.76-5.47-10.69L95.6-74.22c-5.18-5.96-9.62-7.81-17.92-7.81h-53.8c-11.23,0-17.43,6.15-17.43,17.33v60.21C6.45,6.69,12.65,11.67,23.88,11.67z M25.4-1.42c-3.81,0-5.86-1.86-5.86-5.91v-55.71c0-4.1,2.05-5.91,5.86-5.91h53.26c2.78,0,4.79,0.59,6.84,2.88l25.15,28.03c1.03,1.12,1.37,1.9,1.37,2.78c0,0.88-0.34,1.76-1.37,2.83L85.44-4.49c-2.05,2.25-4,3.08-6.84,3.08H25.4z"/>
  </g>
  <g id="Semibold-M" transform="translate(1978.47 1126)">
   <path d="M23.1,10.99l54.04-0.05c7.32,0,11.91-1.9,16.7-7.23l26.61-28.76c3.91-4.3,5.18-7.08,5.18-10.21s-1.27-5.86-5.18-10.21L93.89-74.32c-4.74-5.27-9.38-7.03-16.75-7.03H23.1c-10.79,0-16.65,5.76-16.65,16.5v60.06C6.45,5.96,12.31,10.99,23.1,10.99z M24.13-0.2c-4.2,0-6.49-2.15-6.49-6.59v-56.84c0-4.44,2.29-6.54,6.49-6.54h53.7c3.12,0,5.27,0.63,7.47,3.03l26.42,28.61c1.22,1.32,1.61,2.25,1.61,3.27c0,1.03-0.39,2-1.61,3.32L85.25-3.47C83-1.07,80.95-0.2,77.78-0.2H24.13z"/>
  </g>
  <g id="Medium-M" transform="translate(1682.05 1126)">
   <path d="M22.56,10.45l54.19-0.05c6.59,0,11.33-1.86,15.77-6.69l27.59-29.15c3.57-3.86,4.93-6.74,4.93-9.81c0-3.08-1.32-5.91-4.93-9.81l-27.54-29.3c-4.44-4.83-9.18-6.45-15.82-6.45H22.56c-10.6,0-16.11,5.42-16.11,15.92v59.86C6.45,5.42,11.97,10.45,22.56,10.45z M23.15,0.73c-4.49,0-6.93-2.34-6.93-7.08v-57.67c0-4.74,2.44-7.08,6.93-7.08h54.04c3.37,0,5.62,0.63,7.96,3.12l27.34,29.05c1.37,1.51,1.86,2.54,1.86,3.66c0,1.12-0.44,2.15-1.86,3.66L85.1-2.64c-2.39,2.49-4.54,3.37-7.96,3.37H23.15z"/>
  </g>
  <g id="Regular-M" transform="translate(1385.73 1126)">
   <path d="M21.78,9.77l54.38-0.05c5.71,0,10.64-1.76,14.65-5.96l28.81-29.74c3.22-3.27,4.64-6.25,4.64-9.28c0-3.08-1.42-6.01-4.64-9.28L90.86-74.41c-4-4.25-8.94-5.71-14.65-5.71H21.78c-10.16,0-15.33,5.03-15.33,15.14v59.62C6.45,4.74,11.63,9.77,21.78,9.77z M21.93,1.9c-4.88,0-7.62-2.59-7.62-7.67V-64.6c0-5.08,2.73-7.67,7.62-7.67h54.43c3.66,0,6.1,0.63,8.59,3.22l28.56,29.64c1.61,1.71,2.2,2.88,2.2,4.15c0,1.22-0.54,2.39-2.2,4.1L84.91-1.61c-2.54,2.64-4.88,3.52-8.59,3.52H21.93z"/>
  </g>
  <g id="Light-M" transform="translate(1090.17 1126)">
   <path d="M19.86,9.03L75.6,8.98c5.52,0,9.96-1.86,13.77-5.81l29.3-29.69c3.03-3.08,4.3-5.81,4.3-8.79c0-2.93-1.32-5.66-4.3-8.74l-29.3-30.13c-3.76-3.96-8.2-5.22-13.72-5.22h-55.8c-9.52,0-14.4,4.83-14.4,14.31v59.86C5.45,4.2,10.33,9.03,19.86,9.03z M20,2.98c-5.52,0-8.5-2.88-8.5-8.54v-59.23c0-5.62,2.98-8.54,8.5-8.54h55.75c3.81,0,6.45,0.59,9.18,3.32l29.1,29.98c1.71,1.86,2.34,3.22,2.34,4.74c0,1.56-0.59,2.93-2.34,4.79L84.88-0.93c-2.73,2.78-5.32,3.91-9.18,3.91H20z"/>
  </g>
  <g id="Thin-M" transform="translate(794.996 1126)">
   <path d="M17.63,8.06H74.5c5.27,0,9.08-2.05,12.6-5.57l29.98-29.74c2.78-2.73,3.81-5.22,3.81-8.06c0-2.88-1.12-5.32-3.81-8.01L87.15-73.83c-3.52-3.56-7.37-4.54-12.65-4.54H17.63c-8.64,0-13.18,4.49-13.18,13.13v60.21C4.45,3.56,8.99,8.06,17.63,8.06z M17.73,4.44c-6.3,0-9.62-3.32-9.62-9.67v-59.81c0-6.4,3.32-9.72,9.62-9.72h56.82c4.05,0,7.03,0.49,9.96,3.47l29.83,30.42c1.9,2,2.64,3.61,2.64,5.57c0,1.95-0.68,3.61-2.64,5.57L84.51-0.05c-2.98,2.98-5.91,4.49-10.01,4.49H17.73z"/>
  </g>
  <g id="Ultralight-M" transform="translate(499.067 1126)">
   <path d="M17,7.57h56.43c5.13,0,8.59-2.1,12.01-5.47l30.32-29.74c2.64-2.54,3.56-4.88,3.56-7.67c0-2.83-1.03-5.13-3.56-7.67L85.44-73.63c-3.32-3.42-6.88-4.2-12.01-4.2H17c-8.2,0-12.55,4.35-12.55,12.55v60.3C4.45,3.22,8.8,7.57,17,7.57z M17.15,5.18c-6.79,0-10.3-3.52-10.3-10.25v-60.11c0-6.79,3.52-10.25,10.3-10.25h56.28c4.15,0,7.28,0.44,10.35,3.47l30.22,30.71c2,2.05,2.78,3.81,2.78,5.96c0,2.2-0.73,3.95-2.78,6.01L83.78,0.44c-3.08,3.03-6.2,4.74-10.35,4.74H17.15z"/>
  </g>
  <g id="Black-S" transform="translate(2881.5 696)">
   <path d="M21,2.93h40.32c8.4,0,11.47-1.71,16.46-7.71l17.24-20.9c4.15-5.03,4.98-6.93,4.98-9.52c0-2.54-0.73-4.35-4.98-9.47L77.78-65.62c-4.93-5.96-8.11-7.71-16.5-7.71H21c-9.57,0-15.23,5.66-15.23,15.23v47.61C5.77-0.93,11.43,2.93,21,2.93z M23.25-11.23c-2.25,0-3.32-0.88-3.32-3.32v-41.31c0-2.44,1.07-3.32,3.32-3.32h39.4c1.56,0,2.78,0.49,4,2l17.19,20.8c0.34,0.39,0.44,0.73,0.44,1.17c0,0.39-0.15,0.88-0.44,1.22L66.65-13.33c-1.22,1.51-2.44,2.1-4,2.1H23.25z"/>
  </g>
  <g id="Heavy-S" transform="translate(2585.05 696)">
   <path d="M20.37,2.34l40.57-0.05c7.52,0,10.84-1.61,15.38-6.98l18.46-21.48c3.81-4.49,4.69-6.49,4.69-9.03c0-2.54-0.83-4.49-4.69-9.03L76.36-65.72c-4.54-5.37-7.96-7.03-15.43-7.03H20.37c-9.28,0-14.6,5.32-14.6,14.55v47.36C5.77-1.56,11.09,2.34,20.37,2.34z M22.07-10.16c-2.54,0-3.81-1.12-3.81-3.86V-56.4c0-2.73,1.27-3.86,3.81-3.86h39.93c1.86,0,3.22,0.49,4.59,2.1l18.36,21.34c0.54,0.63,0.68,1.07,0.68,1.61c0,0.49-0.2,1.03-0.68,1.61L66.6-12.35c-1.42,1.61-2.73,2.2-4.59,2.2H22.07z"/>
  </g>
  <g id="Bold-S" transform="translate(2288.64 696)">
   <path d="M19.63,1.66l40.91-0.05c6.49,0,10.06-1.51,14.16-6.2l19.78-22.12c3.42-3.86,4.39-6.01,4.39-8.54c0-2.44-0.93-4.59-4.39-8.5L74.75-65.87c-4.1-4.69-7.71-6.2-14.21-6.2H19.63c-8.94,0-13.87,4.88-13.87,13.77v47.12C5.77-2.29,10.7,1.66,19.63,1.66z M20.8-8.94c-2.88,0-4.44-1.42-4.44-4.49v-43.55c0-3.08,1.56-4.49,4.44-4.49h40.47c2.2,0,3.71,0.54,5.22,2.25L86.18-37.3c0.73,0.88,1.03,1.42,1.03,2.05s-0.29,1.27-1.03,2.1L66.5-11.28c-1.56,1.76-3.03,2.34-5.22,2.34H20.8z"/>
  </g>
  <g id="Semibold-S" transform="translate(1992.12 696)">
   <path d="M19.1,1.17h41.15c5.81,0,9.57-1.46,13.33-5.71l20.75-22.51c3.08-3.47,4.15-5.71,4.15-8.2c0-2.44-1.03-4.69-4.15-8.15l-20.7-22.51c-3.76-4.25-7.57-5.66-13.38-5.66H19.1c-8.69,0-13.33,4.54-13.33,13.18v46.97C5.77-2.83,10.4,1.17,19.1,1.17z M19.88-8.11c-3.12,0-4.79-1.61-4.79-4.88v-44.43c0-3.27,1.66-4.88,4.79-4.88h40.91c2.39,0,4,0.54,5.66,2.34L87.01-37.6c0.93,0.98,1.22,1.66,1.22,2.34c0,0.68-0.29,1.42-1.22,2.39L66.45-10.55c-1.71,1.86-3.27,2.44-5.66,2.44H19.88z"/>
  </g>
  <g id="Medium-S" transform="translate(1695.55 696)">
   <path d="M18.71,0.83l41.35-0.05c5.22,0,9.13-1.37,12.7-5.27l21.44-22.85c2.88-3.12,4-5.47,4-7.91c0-2.44-1.12-4.74-4-7.86L72.8-66.02c-3.56-3.86-7.47-5.22-12.74-5.22H18.71c-8.5,0-12.94,4.35-12.94,12.79v46.83C5.77-3.17,10.21,0.83,18.71,0.83z M19.19-7.47c-3.27,0-5.13-1.76-5.13-5.22v-45.02c0-3.47,1.86-5.22,5.13-5.22h41.25c2.54,0,4.2,0.54,6.01,2.44l21.19,22.66c1.03,1.12,1.42,1.86,1.42,2.59c0,0.78-0.34,1.51-1.42,2.64L66.4-9.96c-1.81,1.9-3.42,2.49-6.01,2.49H19.19z"/>
  </g>
  <g id="Regular-S" transform="translate(1399.04 696)">
   <path d="M18.22,0.39l41.54-0.05c4.54,0,8.64-1.37,11.87-4.79l22.36-23.29c2.59-2.69,3.81-5.08,3.81-7.52c0-2.44-1.22-4.83-3.81-7.52L71.68-66.06c-3.22-3.42-7.32-4.74-11.87-4.74H18.22c-8.3,0-12.45,4.1-12.45,12.3v46.58C5.77-3.71,9.92,0.39,18.22,0.39z M18.31-6.69c-3.52,0-5.52-1.86-5.52-5.57v-45.9c0-3.66,2-5.57,5.52-5.57h41.64c2.73,0,4.54,0.49,6.45,2.49l22.07,23.05c1.22,1.27,1.61,2.1,1.61,2.93c0,0.83-0.34,1.66-1.61,2.93L66.35-9.23c-1.95,2-3.66,2.54-6.45,2.54H18.31z"/>
  </g>
  <g id="Light-S" transform="translate(1103.35 696)">
   <path d="M16.39-0.29h42.96c4.39,0,8.06-1.46,11.13-4.64l22.75-23.29c2.44-2.44,3.52-4.69,3.52-7.03c0-2.39-1.07-4.59-3.52-7.08L70.48-65.82c-3.03-3.22-6.69-4.3-11.08-4.3H16.39c-7.71,0-11.62,3.86-11.62,11.52v46.83C4.77-4.15,8.67-0.29,16.39-0.29z M16.48-5.71c-4.05,0-6.3-2.15-6.3-6.35V-58.3c0-4.2,2.25-6.4,6.3-6.4h43.01c2.93,0,4.93,0.49,6.93,2.59l22.61,23.39c1.32,1.37,1.81,2.34,1.81,3.47c0,1.07-0.44,2.1-1.81,3.47L66.43-8.64c-2.1,2.15-4,2.93-6.98,2.93H16.48z"/>
  </g>
  <g id="Thin-S" transform="translate(808.009 696)">
   <path d="M14.31-1.12h44.18c4.2,0,7.28-1.56,10.11-4.44l23.39-23.29c2.2-2.15,3.03-4.15,3.03-6.45c0-2.25-0.88-4.2-3.03-6.4L68.6-65.53c-2.78-2.88-5.91-3.71-10.11-3.71H14.31c-6.93,0-10.55,3.61-10.55,10.55v47.07C3.77-4.69,7.38-1.12,14.31-1.12z M14.41-4.44c-4.79,0-7.32-2.49-7.32-7.37v-46.73c0-4.83,2.54-7.37,7.32-7.37h44.13c3.12,0,5.42,0.39,7.67,2.69l23.24,23.78c1.46,1.51,2.05,2.73,2.05,4.15c0,1.46-0.54,2.69-2.05,4.25L66.21-7.81c-2.29,2.25-4.54,3.37-7.67,3.37H14.41z"/>
  </g>
  <g id="Ultralight-S" transform="translate(511.982 696)">
   <path d="M13.78-1.56h43.74c4.1,0,6.88-1.66,9.62-4.3l23.68-23.29c2.05-2.05,2.83-3.96,2.83-6.15c0-2.2-0.83-4.05-2.83-6.05L67.13-65.38c-2.69-2.69-5.52-3.37-9.57-3.37H13.78c-6.54,0-10.01,3.47-10.01,9.96v47.27C3.77-5.03,7.23-1.56,13.78-1.56z M13.87-3.76c-5.22,0-7.91-2.69-7.91-7.91v-46.97c0-5.22,2.69-7.91,7.91-7.91h43.69c3.22,0,5.66,0.34,8.01,2.73l23.54,23.97c1.56,1.56,2.2,2.93,2.2,4.54c0,1.66-0.59,3.03-2.2,4.59L65.57-7.42c-2.39,2.39-4.79,3.66-8.01,3.66H13.87z"/>
  </g>
 </g>
</svg>
