<?xml version="1.0" encoding="utf-8"?>
<!DOCTYPE svg
PUBLIC "-//W3C//DTD SVG 1.1//EN"
       "http://www.w3.org/Graphics/SVG/1.1/DTD/svg11.dtd">
<svg version="1.1" xmlns="http://www.w3.org/2000/svg" width="3300" height="2200">
 
 <g id="Notes">
  <style>
   text { font-family: -apple-system, sans-serif; }
   .separator { fill: none; stroke: black; stroke-width: 0.5; }
  </style>
  
  <rect height="2200" id="artboard" style="fill:white" width="3300"/>
  
  <g title="header" transform="translate(263 292)">
   <line class="separator" x1="0" x2="2773"/>
   
   <g transform="translate(0 30)">
    <text style="font-weight:bold;">Weight/Scale Variations</text>
    
    <g style="text-anchor:middle;">
     <text x="296.711">Ultralight</text>
     <text x="593.422">Thin</text>
     <text x="890.13">Light</text>
     <text x="1186.84">Regular</text>
     <text x="1483.56">Medium</text>
     <text x="1780.27">Semibold</text>
     <text x="2076.98">Bold</text>
     <text x="2373.69">Heavy</text>
     <text x="2670.4">Black</text>
    </g>
   </g>
  </g>
  
  <g title="footer" transform="translate(263 1903)">
   <line class="separator" x1="0" x2="2773"/>
   
   <g transform="translate(2773 0)" style="text-anchor:end;">
    <text id="template-version" y="30">Template v.2.0</text>
    <text y="48">Requires Xcode 12 or greater</text>
    <text y="66">Generated from delete.right</text>
    <text y="84">Typeset at 100 points</text>
   </g>
  </g>
  
  <g transform="translate(263 0)">
   <text y="726">Small</text>
   <text y="1156">Medium</text>
   <text y="1586">Large</text>
  </g>
 </g>
 
 <g id="Guides">
  <style>
   #H-reference      { fill:#27AAE1; stroke:none; }
   [id^="Baseline"],
   [id^="Capline"]   { fill:none; stroke:#27AAE1; stroke-width:0.5; }
   [id$="-margin"]   { fill:none; stroke:#00AEEF; stroke-width:0.5; }
  </style>
  
  <g id="H-reference" transform="translate(339 696)">
   <path d="M1,0h2.7L13-24.5h32.7L55.1,0h2.6L30.6-70.5h-2.5L1,0z M29.3-67.1L29.3-67.1l15.6,40.4h-31L29.3-67.1z"/>
  </g>
  <line id="Baseline-S" x1="263" y1="696" x2="3036" y2="696"/>
  <line id="Capline-S" x1="263" y1="625.5" x2="3036" y2="625.5"/>
  <g id="H-reference" transform="translate(339 1126)">
   <path d="M1,0h2.7L13-24.5h32.7L55.1,0h2.6L30.6-70.5h-2.5L1,0z M29.3-67.1L29.3-67.1l15.6,40.4h-31L29.3-67.1z"/>
  </g>
  <line id="Baseline-M" x1="263" y1="1126" x2="3036" y2="1126"/>
  <line id="Capline-M" x1="263" y1="1055.5" x2="3036" y2="1055.5"/>
  <g id="H-reference" transform="translate(339 1556)">
   <path d="M1,0h2.7L13-24.5h32.7L55.1,0h2.6L30.6-70.5h-2.5L1,0z M29.3-67.1L29.3-67.1l15.6,40.4h-31L29.3-67.1z"/>
  </g>
  <line id="Baseline-L" x1="263" y1="1556" x2="3036" y2="1556"/>
  <line id="Capline-L" x1="263" y1="1485.5" x2="3036" y2="1485.5"/>
  <line id="left-margin" x1="1385.73" y1="1030.79" x2="1385.73" y2="1150.12"/>
  <line id="right-margin" x1="1513.96" y1="1030.79" x2="1513.96" y2="1150.12"/>
 </g>
 
 <g id="Symbols">
  <g id="Regular-L" transform="translate(1368.06 1556)">
   <path d="M27.1,22.2l70.2,0c7.2,0,13.2-2.4,18.2-7.6L153-23.7c4-4.1,5.7-7.7,5.7-11.6s-1.7-7.5-5.7-11.5l-37.5-38.8c-5-5.2-10.9-6.9-18.2-6.9H27.1c-12.6,0-19,6.3-19,18.8V3.4C8.1,15.9,14.5,22.2,27.1,22.2z M27.2,13.6C20.5,13.6,16.8,10,16.8,3v-76.3c0-7,3.7-10.6,10.5-10.6h70.2c4.8,0,8.2,0.7,11.6,4.2l37.3,38.5c2.2,2.3,3,4,3,5.8c0,1.9-0.7,3.5-3,5.9L109,8.7c-3.4,3.5-6.7,4.9-11.6,4.9H27.2z"/>
   <path d="M154.3,26.6c-2.4,0-4.3-1.9-4.3-4.3V-92.5c0-2.4,1.9-4.3,4.3-4.3s4.3,1.9,4.3,4.3V22.2C158.7,24.6,156.7,26.6,154.3,26.6z"/>
  </g>
  <g id="Regular-M" transform="translate(1385.73 1126)">
   <path d="M21.8,9.8l54.4-0.1c5.7,0,10.6-1.8,14.7-6L119.6-26c3.2-3.3,4.6-6.2,4.6-9.3c0-3.1-1.4-6-4.6-9.3L90.9-74.4c-4-4.2-8.9-5.7-14.7-5.7H21.8c-10.2,0-15.3,5-15.3,15.1v59.6C6.5,4.7,11.6,9.8,21.8,9.8z M21.9,1.9c-4.9,0-7.6-2.6-7.6-7.7v-58.8c0-5.1,2.7-7.7,7.6-7.7h54.4c3.7,0,6.1,0.6,8.6,3.2l28.6,29.6c1.6,1.7,2.2,2.9,2.2,4.2c0,1.2-0.5,2.4-2.2,4.1L84.9-1.6C82.4,1,80,1.9,76.3,1.9L21.9,1.9L21.9,1.9z"/>
   <path d="M120.3,12.4c-2.2,0-3.9-1.8-3.9-3.9v-87.3c0-2.2,1.8-3.9,3.9-3.9s3.9,1.8,3.9,3.9V8.5C124.3,10.6,122.5,12.4,120.3,12.4z"/>
  </g>
  <g id="Regular-S" transform="translate(1399.04 696)">
   <path d="M18.2,0.4l41.5-0.1c4.5,0,8.6-1.4,11.9-4.8L94-27.7c2.6-2.7,3.8-5.1,3.8-7.5c0-2.4-1.2-4.8-3.8-7.5L71.7-66.1c-3.2-3.4-7.3-4.7-11.9-4.7H18.2c-8.3,0-12.4,4.1-12.4,12.3v46.6C5.8-3.7,9.9,0.4,18.2,0.4z M18.3-6.7c-3.5,0-5.5-1.9-5.5-5.6v-45.9c0-3.7,2-5.6,5.5-5.6h41.6c2.7,0,4.5,0.5,6.4,2.5l22.1,23c1.2,1.3,1.6,2.1,1.6,2.9s-0.3,1.7-1.6,2.9L66.3-9.2c-1.9,2-3.7,2.5-6.5,2.5C59.9-6.7,18.3-6.7,18.3-6.7z"/>
   <path d="M94.3,3.3c-1.9,0-3.5-1.6-3.5-3.5v-70c0-1.9,1.6-3.5,3.5-3.5c1.9,0,3.5,1.6,3.5,3.5v70C97.8,1.7,96.2,3.3,94.3,3.3z"/>
  </g>
 </g>
</svg>
