<?xml version="1.0" encoding="utf-8"?>
<!DOCTYPE svg
PUBLIC "-//W3C//DTD SVG 1.1//EN"
       "http://www.w3.org/Graphics/SVG/1.1/DTD/svg11.dtd">
<svg version="1.1" xmlns="http://www.w3.org/2000/svg" width="3300" height="2200">
 
 <g id="Notes">
  <style>
   text { font-family: -apple-system, sans-serif; }
   .separator { fill: none; stroke: black; stroke-width: 0.5; }
  </style>
  
  <rect height="2200" id="artboard" style="fill:white" width="3300"/>
  
  <g title="header" transform="translate(263 292)">
   <line class="separator" x1="0" x2="2773"/>
   
   <g transform="translate(0 30)">
    <text style="font-weight:bold;">Weight/Scale Variations</text>
    
    <g style="text-anchor:middle;">
     <text x="296.711">Ultralight</text>
     <text x="593.422">Thin</text>
     <text x="890.13">Light</text>
     <text x="1186.84">Regular</text>
     <text x="1483.56">Medium</text>
     <text x="1780.27">Semibold</text>
     <text x="2076.98">Bold</text>
     <text x="2373.69">Heavy</text>
     <text x="2670.4">Black</text>
    </g>
   </g>
  </g>
  
  <g title="footer" transform="translate(263 1903)">
   <line class="separator" x1="0" x2="2773"/>
   
   <g transform="translate(2773 0)" style="text-anchor:end;">
    <text id="template-version" y="30">Template v.2.0</text>
    <text y="48">Requires Xcode 12 or greater</text>
    <text y="66">Generated from arrow.left.to.line</text>
    <text y="84">Typeset at 100 points</text>
   </g>
  </g>
  
  <g transform="translate(263 0)">
   <text y="726">Small</text>
   <text y="1156">Medium</text>
   <text y="1586">Large</text>
  </g>
 </g>
 
 <g id="Guides">
  <style>
   #H-reference      { fill:#27AAE1; stroke:none; }
   [id^="Baseline"],
   [id^="Capline"]   { fill:none; stroke:#27AAE1; stroke-width:0.5; }
   [id$="-margin"]   { fill:none; stroke:#00AEEF; stroke-width:0.5; }
  </style>
  
  <g id="H-reference" transform="translate(339 696)">
   <path d="M1,0h2.7L13-24.5h32.7L55.1,0h2.6L30.6-70.5h-2.5L1,0z M29.3-67.1L29.3-67.1l15.6,40.4h-31L29.3-67.1z"/>
  </g>
  <line id="Baseline-S" x1="263" y1="696" x2="3036" y2="696"/>
  <line id="Capline-S" x1="263" y1="625.5" x2="3036" y2="625.5"/>
  <g id="H-reference" transform="translate(339 1126)">
   <path d="M1,0h2.7L13-24.5h32.7L55.1,0h2.6L30.6-70.5h-2.5L1,0z M29.3-67.1L29.3-67.1l15.6,40.4h-31L29.3-67.1z"/>
  </g>
  <line id="Baseline-M" x1="263" y1="1126" x2="3036" y2="1126"/>
  <line id="Capline-M" x1="263" y1="1055.5" x2="3036" y2="1055.5"/>
  <g id="H-reference" transform="translate(339 1556)">
   <path d="M1,0h2.7L13-24.5h32.7L55.1,0h2.6L30.6-70.5h-2.5L1,0z M29.3-67.1L29.3-67.1l15.6,40.4h-31L29.3-67.1z"/>
  </g>
  <line id="Baseline-L" x1="263" y1="1556" x2="3036" y2="1556"/>
  <line id="Capline-L" x1="263" y1="1485.5" x2="3036" y2="1485.5"/>
  <line id="left-margin" x1="1394.38" x2="1394.38" y1="1030.79" y2="1150.12"/>
  <line id="right-margin" x1="1505.31" x2="1505.31" y1="1030.79" y2="1150.12"/>
 </g>
  
 <g id="Symbols">
  <g id="Regular-L">
   <path d="M1516.75,1514.74h-34.12l-13.53,0.39l19.19-17.82l16.8-16.89c0.93-0.93,1.42-2.25,1.42-3.52c0-2.69-2.05-4.69-4.69-4.69c-1.42,0-2.59,0.59-3.71,1.71l-41.99,41.99c-0.73,0.73-1.27,1.51-1.51,2.39v-41.75c0-2.78-1.95-4.74-4.74-4.74c-2.83,0-4.79,1.95-4.79,4.74v41.75c-0.24-0.88-0.78-1.66-1.51-2.39l-41.99-41.94c-1.12-1.12-2.29-1.71-3.71-1.71c-2.64,0-4.69,1.95-4.69,4.64c0,1.32,0.49,2.64,1.42,3.52l16.8,16.89l19.24,17.82l-13.57-0.39h-34.12c-2.78,0-4.69,1.95-4.69,4.79c0,2.78,1.9,4.74,4.69,4.74h34.12l13.53-0.39l-19.19,17.82l-16.8,16.89c-0.93,0.93-1.42,2.25-1.42,3.52c0,2.69,2.05,4.69,4.69,4.69c1.42,0,2.59-0.59,3.71-1.71l41.99-41.99c0.73-0.73,1.27-1.51,1.51-2.39v41.85c0,2.73,1.95,4.64,4.79,4.64c2.78,0,4.74-1.9,4.74-4.64v-41.85c0.24,0.88,0.78,1.66,1.51,2.39l41.99,41.94c1.12,1.12,2.29,1.71,3.71,1.71c2.64,0,4.69-1.95,4.69-4.64c0-1.32-0.49-2.64-1.42-3.52l-16.8-16.89l-19.24-17.82l13.57,0.39h34.12c2.78,0,4.69-1.95,4.69-4.79C1521.44,1516.69,1519.53,1514.74,1516.75,1514.74z"/>
  </g>
  <g id="Regular-M">
   <path d="M1499.21,1085.47h-21.32l-10.45,0.39l16.02-14.7l10.79-10.99c0.83-0.78,1.27-1.95,1.27-3.12c0-2.44-1.9-4.25-4.3-4.25c-1.22,0-2.25,0.49-3.27,1.46l-32.37,32.28c-0.68,0.68-1.17,1.46-1.37,2.29v-31.88c0-2.54-1.81-4.3-4.39-4.3c-2.54,0-4.35,1.76-4.35,4.3v31.88c-0.2-0.83-0.68-1.61-1.37-2.29l-32.37-32.28c-1.03-0.98-2.05-1.42-3.27-1.42c-2.39,0-4.3,1.76-4.3,4.2c0,1.17,0.44,2.34,1.27,3.17l10.79,10.94l16.06,14.65l-10.5-0.34h-21.32c-2.54,0-4.3,1.81-4.3,4.35c0,2.59,1.76,4.39,4.3,4.39h21.32l10.45-0.39l-16.02,14.7l-10.79,10.99c-0.83,0.78-1.27,1.95-1.27,3.12c0,2.44,1.9,4.25,4.3,4.25c1.22,0,2.25-0.49,3.27-1.46l32.37-32.28c0.68-0.68,1.17-1.46,1.37-2.29v31.98c0,2.49,1.81,4.2,4.35,4.2c2.59,0,4.39-1.71,4.39-4.2v-31.98c0.2,0.83,0.68,1.61,1.37,2.29l32.37,32.28c1.03,0.98,2.05,1.42,3.27,1.42c2.39,0,4.3-1.76,4.3-4.2c0-1.17-0.44-2.34-1.27-3.17l-10.79-10.94l-16.06-14.65l10.5,0.34h21.32c2.54,0,4.3-1.81,4.3-4.35C1503.51,1087.28,1501.75,1085.47,1499.21,1085.47z"/>
  </g>
  <g id="Regular-S">
   <path d="M1445.91,685.65c0,2.25,1.66,3.76,3.96,3.76s3.91-1.51,3.91-3.76v-24.71c0.2,0.78,0.63,1.46,1.27,2.1l25.2,25.1c0.88,0.88,1.86,1.27,2.88,1.27c2.15,0,3.86-1.61,3.86-3.81c0-1.03-0.39-2.1-1.07-2.78l-6.79-6.93l-13.48-12.16l8.15,0.29h16.04c2.29,0,3.86-1.61,3.86-3.91s-1.56-3.96-3.86-3.96h-16.04l-8.11,0.34l13.43-12.21l6.79-6.93c0.68-0.68,1.07-1.71,1.07-2.78c0-2.2-1.71-3.76-3.86-3.76c-1.03,0-2,0.39-2.88,1.22l-25.2,25.1c-0.63,0.63-1.07,1.37-1.27,2.15v-24.61c0-2.29-1.61-3.91-3.91-3.91s-3.96,1.61-3.96,3.91c0,0,0,24.56,0,24.56c-0.2-0.78-0.63-1.46-1.27-2.1l-25.2-25.1c-0.88-0.88-1.86-1.27-2.88-1.27c-2.15,0-3.86,1.61-3.86,3.81c0,1.03,0.39,2.1,1.07,2.78l6.79,6.93l13.48,12.16l-8.15-0.29h-16.04c-2.29,0-3.86,1.61-3.86,3.91s1.56,3.96,3.86,3.96h16.04l8.11-0.34l-13.43,12.21l-6.79,6.93c-0.68,0.68-1.07,1.71-1.07,2.78c0,2.2,1.71,3.76,3.86,3.76c1.03,0,2-0.39,2.88-1.22l25.2-25.1c0.63-0.63,1.07-1.37,1.27-2.15"/>
  </g>
 </g>
</svg>
