<?xml version="1.0" encoding="utf-8"?>
<!DOCTYPE svg
PUBLIC "-//W3C//DTD SVG 1.1//EN"
       "http://www.w3.org/Graphics/SVG/1.1/DTD/svg11.dtd">
<svg version="1.1" xmlns="http://www.w3.org/2000/svg" xmlns:xlink="http://www.w3.org/1999/xlink" width="3300" height="2200">
 
 <g id="Notes">
  <style>
   text { fill: black; stroke: none;
          font-family: -apple-system,&quot;SF Pro Display&quot;,&quot;SF Pro Text&quot;,Helvetica,sans-serif; }
   .separator { fill: none; stroke: black; stroke-width: 0.5; }
  </style>
  
  <rect height="2200" id="artboard" style="fill:white" width="3300"/>
  
  <g title="header" transform="translate(263 292)">
   <line class="separator" x1="0" x2="2773"/>
   
   <g transform="translate(0 30)">
    <text style="font-weight:bold;">Weight/Scale Variations</text>
    
    <g style="text-anchor:middle;">
     <text x="296.711">Ultralight</text>
     <text x="593.422">Thin</text>
     <text x="890.13">Light</text>
     <text x="1186.84">Regular</text>
     <text x="1483.56">Medium</text>
     <text x="1780.27">Semibold</text>
     <text x="2076.98">Bold</text>
     <text x="2373.69">Heavy</text>
     <text x="2670.4">Black</text>
    </g>
   </g>
  </g>
  
  <g title="footer" transform="translate(263 1903)">
   <line class="separator" x1="0" x2="2773"/>
   
   <g transform="translate(2773 0)" style="text-anchor:end;">
    <text id="template-version" y="30">Template v.2.0</text>
    <text y="48">Requires Xcode 12 or greater</text>
    <text y="66">Generated from abc.checkmark</text>
    <text y="84">Typeset at 100 points</text>
   </g>
  </g>
  
  <g transform="translate(263 0)">
   <text y="726">Small</text>
   <text y="1156">Medium</text>
   <text y="1586">Large</text>
  </g>
 </g>
 
 <g id="Guides">
  <style>
   #H-reference      { fill:#27AAE1; stroke:none; }
   [id^="Baseline"],
   [id^="Capline"]   { fill:none; stroke:#27AAE1; stroke-width:0.5; }
   [id$="-margin"]   { fill:none; stroke:#00AEEF; stroke-width:0.5; }
  </style>
  
  <g id="H-reference" transform="translate(339 696)">
   <path d="M1,0h2.7L13-24.5h32.7L55.1,0h2.6L30.6-70.5h-2.5L1,0z M29.3-67.1L29.3-67.1l15.6,40.4h-31L29.3-67.1z"/>
  </g>
  <line id="Baseline-S" x1="263" y1="696" x2="3036" y2="696"/>
  <line id="Capline-S" x1="263" y1="625.5" x2="3036" y2="625.5"/>
  <g id="H-reference" transform="translate(339 1126)">
   <path class="st6" d="M1,0h2.7L13-24.5h32.7L55.1,0h2.6L30.6-70.5h-2.5L1,0z M29.3-67.1L29.3-67.1l15.6,40.4h-31L29.3-67.1z"/>
  </g>
  <line id="Baseline-M" x1="263" y1="1126" x2="3036" y2="1126"/>
  <line id="Capline-M" x1="263" y1="1055.5" x2="3036" y2="1055.5"/>
  <g id="H-reference" transform="translate(339 1556)">
   <path d="M1,0h2.7L13-24.5h32.7L55.1,0h2.6L30.6-70.5h-2.5L1,0z M29.3-67.1L29.3-67.1l15.6,40.4h-31L29.3-67.1z"/>
  </g>
  <line id="Baseline-L" x1="263" y1="1556" x2="3036" y2="1556"/>
  <line id="Capline-L" x1="263" y1="1485.5" x2="3036" y2="1485.5"/>
  <line id="left-margin" x1="1360.56" y1="1030.79" x2="1360.56" y2="1150.12"/>
  <line id="right-margin" x1="1539.13" y1="1030.79" x2="1539.13" y2="1150.12"/>
 </g>
 
 <g id="Symbols">
  <g id="Regular-L" transform="matrix(1 0 0 1 1335.81 1560)">
   <g title="abc" transform="scale(0.9) translate(-2,-16)"><!-- Semibold -->
    <path title="a" d="M39.1,12.1c9.7,0,18.7-5.2,22.5-13.3h0.2v7.4c0.2,3.8,2.7,6,6.3,6c3.9,0,6.4-2.3,6.4-6.5v-41.3c0-13.9-10.5-22.9-27.2-22.9c-13.1,0-23.3,5.3-26.8,13.8c-0.6,1.5-1,2.9-1,4.2c0,3.1,2.3,5.2,5.6,5.2c2.3,0,4.1-0.9,5.4-2.8c3.5-7,8.5-10.3,16.3-10.3c9.1,0,14.7,5.2,14.7,13.7v5.2l-19.7,1.2c-16.7,1.1-25.7,8.3-25.7,20.3C16.1,3.9,25.6,12.1,39.1,12.1z M42.7,2.2c-7.9,0-13.5-4.4-13.5-11c0-6.3,5.1-10.5,14.4-11.2l18-1.2v6.7C61.5-5.1,53.1,2.2,42.7,2.2z"/>
    <g title="b">
     <path d="M99.8-75.8c0-4.1-2.6-6.7-6.5-6.7s-6.5,2.6-6.5,6.7V5.6c0,4.1,2.4,6.5,6.3,6.5s6.5-2.4,6.5-6.5L99.8-75.8z"/>
     <path d="M120.8,13c-3.1,0.2-6.3-0.2-9.4-1.3c-3.1-1.1-6.1-2.9-8.5-5.2c-2.4-2.3-4.2-5.1-5.3-7.9c-1.2-2.9-1.5-5.8-1.4-8.7c0.1-2.8,0.5-5.5,0.7-8.1c0.3-2.6,0.2-5.1,0.2-7.6c0-2.5,0.1-5.1,0.4-7.7c0.2-2.6,0.6-5.2,1.3-7.9c0.7-2.6,1.8-5.4,3.4-7.9c0.8-1.2,1.8-2.5,2.9-3.5c1.1-1.1,2.4-2.1,3.7-2.9c2.7-1.7,5.8-2.7,8.8-3.1c3-0.5,6-0.5,9.2-0.1c3.1,0.5,6.2,1.5,9.1,3c2.9,1.6,5.4,3.7,7.5,6.2c4.2,5,6.3,11,7.1,16.6c0.5,3.7-2,7-5.7,7.5c-3.4,0.5-6.6-1.7-7.4-5l0-0.2c-1-4-2.4-7.6-4.5-10.3c-1-1.4-2.3-2.5-3.7-3.4c-1.4-0.9-3-1.6-4.8-2.1c-1.7-0.5-3.7-0.7-5.6-0.7c-1.9,0-3.7,0.3-5.4,0.8c-1.7,0.5-3.4,1.3-5,2.5c-1.6,1.2-3.1,2.8-4.3,4.7c-2.5,3.8-3.8,8.6-4.1,13.4c-0.1,2.4-0.1,4.9,0.6,7.2c0.6,2.3,1.8,4.6,3.1,6.5c1.3,2,2.7,3.6,3.9,5.1c1.2,1.5,2.5,2.7,3.9,3.6c2.7,1.8,5.7,2.5,9.5,2.9l0.3,0c3.7,0.4,6.3,3.7,5.9,7.4C126.7,10.3,124,12.8,120.8,13z"/>
    </g>
    <path title="c" d="M164.6-2.3c-0.8-1.6-1.5-3.3-2.1-4.9c-0.6-1.7-1.1-3.3-1.6-5c-0.8-3.3-2-6.6-2.2-10c-0.1-3.3,0.1-6.7,0.8-10.1c0.6-3.4,1.7-6.8,3.3-10.1c1.6-3.3,3.9-6.3,6.6-8.9c2.7-2.6,6-4.6,9.5-5.9c3.5-1.3,7.1-2,10.7-2.1c1.8-0.1,3.5,0.1,5.2,0.3c1.7,0.1,3.5,0.4,5.3,0.7l0.3,0.1c3.3,0.5,5.6,3.6,5.1,6.9c-0.5,3.3-3.6,5.6-6.9,5.1c-0.5-0.1-1-0.2-1.5-0.4c-1.1-0.5-2.2-0.7-3.4-0.8c-1.2-0.1-2.5-0.1-3.6,0c-2.3,0.1-4.6,0.6-6.6,1.5c-4,1.8-7,5.1-8.7,9.3c-1.8,4.2-2.5,9.1-2.4,14.3c-0.1,2.5-0.6,5.1,0,7.6c0.2,1.2,0.6,2.4,1,3.5c0.4,1.1,1,2.2,1.7,3.1c2,2.6,1.5,6.4-1.1,8.5c-2.6,2-6.4,1.5-8.5-1.1c-0.3-0.3-0.5-0.7-0.7-1.1L164.6-2.3z"/>
   </g>
   <path title="checkmark" transform="translate(95 0)" d="M 55.5664 19.3359 C 57.8613 19.3359 59.5703 18.3105 60.8398 16.4551 L 121.289 -78.3203 C 122.266 -79.834 122.656 -81.0059 122.656 -82.1777 C 122.656 -85.1562 120.703 -87.1094 117.725 -87.1094 C 115.674 -87.1094 114.453 -86.377 113.232 -84.375 L 55.3223 7.12891 L 25.7324 -30.4688 C 24.4141 -32.2754 23.1445 -33.0566 21.1426 -33.0566 C 18.1641 -33.0566 16.0645 -31.0059 16.0645 -28.0762 C 16.0645 -26.8066 16.5527 -25.4883 17.627 -24.1699 L 50.0977 16.3574 C 51.709 18.4082 53.3203 19.3359 55.5664 19.3359 Z"/>
  </g>
  
  <g id="Regular-M" transform="translate(1360.56 1131)">
   <g title="abc" transform="scale(0.9) translate(-2 -12)"><!-- Medium-M -->
    <path title="a" d="M30.3,1.3c7.3,0,14.2-3.9,17.2-10.1h0.2v5.4c0.2,3,2.1,4.8,5,4.8c3,0,5-1.9,5-5.2v-31.9c0-10.7-8.2-17.7-21.1-17.7c-9.9,0-17.8,4.1-20.6,10.5c-0.5,1.1-0.8,2.3-0.8,3.3c0,2.5,1.9,4.2,4.4,4.2c1.9,0,3.2-0.7,4.2-2.2c2.8-5.2,6.6-7.6,12.4-7.6c7,0,11.2,3.9,11.2,10.3v4l-15.1,0.9c-12.8,0.8-19.9,6.4-19.9,15.7C12.5-5,19.8,1.3,30.3,1.3z M33.1-6.6c-6.1,0-10.2-3.3-10.2-8.3c0-4.8,3.9-8,10.8-8.4l13.7-0.9v4.9C47.4-12.1,41-6.6,33.1-6.6z"/>
    <g title="b">
     <path d="M77.2-66.3c0-3.2-2.1-5.4-5.1-5.4c-3.1,0-5.2,2.1-5.2,5.4v62.5c0.1,3.2,2,5.1,5.1,5.1s5.1-2,5.1-5.1L77.2-66.3z"/>
     <path d="M93.5,1.8c-2.4,0.1-4.8-0.2-7.2-1c-2.4-0.8-4.7-2.2-6.5-3.9c-1.8-1.8-3.2-3.9-4.2-6c-0.9-2.2-1.3-4.5-1.3-6.6c0-2.2,0.2-4.3,0.3-6.3c0.2-2,0.1-3.9,0.2-5.9c0.1-3.9,0.3-7.9,1.4-12c0.6-2,1.4-4.1,2.8-6c1.3-1.9,3.1-3.6,5.2-4.9c2.1-1.3,4.4-2.1,6.7-2.4c2.3-0.4,4.6-0.4,7-0.1c2.4,0.3,4.8,1.1,7,2.2c2.2,1.2,4.2,2.8,5.8,4.7c3.3,3.8,5,8.4,5.6,12.7c0.4,2.8-1.5,5.4-4.3,5.8c-2.7,0.4-5.1-1.3-5.7-3.9l0-0.1c-0.7-3.1-1.8-5.8-3.5-7.9c-1.6-2.1-3.8-3.5-6.6-4.2c-1.3-0.4-2.9-0.5-4.3-0.5c-1.5,0-2.8,0.3-4.2,0.7c-1.3,0.4-2.6,1-3.8,2c-1.2,0.9-2.3,2.1-3.3,3.6c-1.9,2.9-2.9,6.6-3.1,10.2c-0.1,1.8-0.1,3.7,0.4,5.5c0.4,1.8,1.3,3.5,2.3,5c0.9,1.5,2,2.8,2.9,3.9c0.5,0.6,0.9,1.1,1.4,1.6c0.5,0.5,1,0.8,1.6,1.2c2.1,1.4,4.5,2,7.4,2.2l0.2,0c2.8,0.2,4.9,2.7,4.7,5.6C98.1-0.3,96,1.7,93.5,1.8z"/>
    </g>
    <path title="c" d="M126.6-13c-1.5-2-2.5-4.3-3.1-6.7c-0.6-2.4-0.8-4.8-0.7-7.1c0.1-4.7,1-9.7,3.3-14.4c2.3-4.7,6.3-8.8,11.3-11c2.4-1.1,5.1-1.8,7.6-2c0.6-0.1,1.3-0.1,1.9-0.1c0.3,0,0.6,0,1,0l1,0.2c1.3,0.3,2.5,0.7,3.6,1.4c1.9,1.2,2.4,3.7,1.2,5.6c-0.5,0.8-1.2,1.3-2,1.6l-0.6,0.2c-0.9,0.3-1.8,0.5-2.6,0.7l-0.6,0.1c-0.2,0-0.4,0-0.6,0c-0.4,0-0.8,0.1-1.2,0.1c-1.6,0.2-3.1,0.6-4.4,1.3c-2.7,1.3-4.8,3.5-6.2,6.4c-1.4,2.8-2.1,6.3-2.1,9.9c0,0.9,0,1.8,0,2.7c0,0.9,0,1.8,0.1,2.7c0.1,1.8,0.2,3.5,0.2,5.4l0,0.4c0.1,2.2-1.7,4-3.8,4C128.5-11.5,127.4-12.1,126.6-13z"/>
   </g>
   <path title="checkmark" transform="translate(70 0)" d="M 44.2871 7.86133 C 46.3867 7.86133 48.0469 6.93359 49.2188 5.12695 L 95.3613 -67.5293 C 96.2402 -68.9453 96.582 -70.0195 96.582 -71.1426 C 96.582 -73.8281 94.8242 -75.5859 92.1387 -75.5859 C 90.1855 -75.5859 89.1113 -74.9512 87.9395 -73.0957 L 44.0918 -3.22266 L 21.3379 -33.0078 C 20.1172 -34.7168 18.8965 -35.4004 17.1387 -35.4004 C 14.3555 -35.4004 12.4512 -33.4961 12.4512 -30.8105 C 12.4512 -29.6875 12.9395 -28.418 13.8672 -27.2461 L 39.209 5.0293 C 40.6738 6.93359 42.1875 7.86133 44.2871 7.86133 Z"/>
  </g>
 </g>
</svg>
