<?xml version="1.0" encoding="utf-8"?>
<!DOCTYPE svg
PUBLIC "-//W3C//DTD SVG 1.1//EN"
       "http://www.w3.org/Graphics/SVG/1.1/DTD/svg11.dtd">
<svg version="1.1" xmlns="http://www.w3.org/2000/svg" xmlns:xlink="http://www.w3.org/1999/xlink" width="3300" height="2200">
 
 <g id="Notes">
  <style>
   text { fill: black; stroke: none;
          font-family: -apple-system,&quot;SF Pro Display&quot;,&quot;SF Pro Text&quot;,Helvetica,sans-serif; }
   .separator { fill: none; stroke: black; stroke-width: 0.5; }
  </style>
  
  <rect height="2200" id="artboard" style="fill:white" width="3300"/>
  
  <g title="header" transform="translate(263 292)">
   <line class="separator" x1="0" x2="2773"/>
   
   <g transform="translate(0 30)">
    <text style="font-weight:bold;">Weight/Scale Variations</text>
    
    <g style="text-anchor:middle;">
     <text x="296.711">Ultralight</text>
     <text x="593.422">Thin</text>
     <text x="890.13">Light</text>
     <text x="1186.84">Regular</text>
     <text x="1483.56">Medium</text>
     <text x="1780.27">Semibold</text>
     <text x="2076.98">Bold</text>
     <text x="2373.69">Heavy</text>
     <text x="2670.4">Black</text>
    </g>
   </g>
  </g>
  
  <g title="footer" transform="translate(263 1903)">
   <line class="separator" x1="0" x2="2773"/>
   
   <g transform="translate(2773 0)" style="text-anchor:end;">
    <text id="template-version" y="30">Template v.2.0</text>
    <text y="48">Requires Xcode 12 or greater</text>
    <text y="66">Generated from abc.checkmark</text>
    <text y="84">Typeset at 100 points</text>
   </g>
  </g>
  
  <g transform="translate(263 0)">
   <text y="726">Small</text>
   <text y="1156">Medium</text>
   <text y="1586">Large</text>
  </g>
 </g>
 
 <g id="Guides">
  <style>
   #H-reference      { fill:#27AAE1; stroke:none; }
   [id^="Baseline"],
   [id^="Capline"]   { fill:none; stroke:#27AAE1; stroke-width:0.5; }
   [id$="-margin"]   { fill:none; stroke:#00AEEF; stroke-width:0.5; }
  </style>
  
  <g id="H-reference" transform="translate(339 696)">
   <path d="M1,0h2.7L13-24.5h32.7L55.1,0h2.6L30.6-70.5h-2.5L1,0z M29.3-67.1L29.3-67.1l15.6,40.4h-31L29.3-67.1z"/>
  </g>
  <line id="Baseline-S" x1="263" y1="696" x2="3036" y2="696"/>
  <line id="Capline-S" x1="263" y1="625.5" x2="3036" y2="625.5"/>
  <g id="H-reference" transform="translate(339 1126)">
   <path class="st6" d="M1,0h2.7L13-24.5h32.7L55.1,0h2.6L30.6-70.5h-2.5L1,0z M29.3-67.1L29.3-67.1l15.6,40.4h-31L29.3-67.1z"/>
  </g>
  <line id="Baseline-M" x1="263" y1="1126" x2="3036" y2="1126"/>
  <line id="Capline-M" x1="263" y1="1055.5" x2="3036" y2="1055.5"/>
  <g id="H-reference" transform="translate(339 1556)">
   <path d="M1,0h2.7L13-24.5h32.7L55.1,0h2.6L30.6-70.5h-2.5L1,0z M29.3-67.1L29.3-67.1l15.6,40.4h-31L29.3-67.1z"/>
  </g>
  <line id="Baseline-L" x1="263" y1="1556" x2="3036" y2="1556"/>
  <line id="Capline-L" x1="263" y1="1485.5" x2="3036" y2="1485.5"/>
  <line id="left-margin" x1="1360.56" y1="1030.79" x2="1360.56" y2="1150.12"/>
  <line id="right-margin" x1="1539.13" y1="1030.79" x2="1539.13" y2="1150.12"/>
 </g>
 
 <g id="Symbols">
  <g id="Regular-L" transform="matrix(1 0 0 1 1335.81 1556)">
   <path d="M128.32-33.14c1.04-4.58,2.95-9.13,6.03-13c3.06-3.87,7.42-6.87,12.15-8.24c2.36-0.71,4.77-1.05,7.15-1.13c2.37-0.05,4.72,0.05,7.11,0.51c2.37,0.46,4.75,1.22,6.97,2.38c1.1,0.59,2.18,1.25,3.19,2c1.01,0.76,1.95,1.59,2.84,2.48l0.01,0.01c1.45,1.46,1.45,3.82-0.01,5.27c-1.46,1.45-3.82,1.45-5.27-0.01c-0.07-0.07-0.14-0.14-0.2-0.22c-2.22-2.6-5.33-4.31-8.87-4.97c-1.76-0.33-3.64-0.46-5.48-0.37c-1.83,0.11-3.62,0.41-5.29,0.96c-3.35,1.07-6.21,3.16-8.27,5.99c-2.1,2.81-3.38,6.31-4.02,9.97c-0.39,2.24-2.51,3.73-4.75,3.35c-2.24-0.39-3.73-2.51-3.35-4.75c0.01-0.07,0.02-0.13,0.04-0.19L128.32-33.14z"/>
   <path d="M114.89-10.99c-2.03-1.26-4.7-0.63-5.96,1.4l-0.13,0.21l-0.01,0.01c-2.18,3.49-5.11,6.11-8.86,7.52C98.07-1.19,96-0.71,93.87-0.65c-2.06,0.06-4.08-0.22-6.01-0.89c-3.87-1.3-7.34-4.32-9.68-8.3c-2.36-3.97-3.59-8.75-3.74-13.54c-0.17-4.79,0.67-9.66,2.68-13.89c1.99-4.21,5.15-7.74,8.93-9.53c1.86-0.94,3.87-1.44,5.91-1.62c2.01-0.19,4.25,0.06,6.22,0.59c3.99,1.04,7.27,3.29,9.81,6.52l0.04,0.05c1.31,1.66,3.71,2.03,5.47,0.81c1.83-1.27,2.29-3.79,1.02-5.62c-1.68-2.42-3.86-4.59-6.43-6.2c-2.56-1.62-5.46-2.67-8.36-3.14c-1.45-0.25-2.91-0.32-4.34-0.32c-1.41,0.01-2.9,0.1-4.35,0.34c-2.91,0.48-5.73,1.61-8.16,3.24c-2.42,1.65-4.43,3.75-5.98,6.05c-1.07,1.56-1.92,3.21-2.63,4.9l0.09-31.55c0-2.64-1.67-4.31-4.09-4.31s-4.04,1.67-4.04,4.31V2.5c0,2.55,1.58,4.09,3.91,4.09c2.29,0,4-1.58,4-4.09l0.03-10.32c1.03,2.49,2.4,4.91,4.24,7.07c1.82,2.17,4.12,4.08,6.78,5.39c2.64,1.35,5.62,2.06,8.55,2.2c2.86,0.18,5.8-0.03,8.7-0.84c1.44-0.42,2.88-0.93,4.23-1.65c1.36-0.69,2.66-1.52,3.84-2.49c2.4-1.9,4.31-4.3,5.77-6.86L116.27-5l0.02-0.03C117.55-7.06,116.92-9.73,114.89-10.99z"/>
   <path d="M25.74,6.59c9.05,0,17.45-4.97,20.74-12.52h0.18v8.57c0.09,2.42,1.63,4,3.91,4c2.33,0,3.91-1.58,3.91-4.17v-37.79c0-12.3-8.7-20.21-22.72-20.21c-10.77,0-19.25,4.79-22.41,12.39c-0.53,1.27-0.97,2.64-0.97,3.74c0,2.15,1.58,3.52,3.69,3.52c1.54,0,2.68-0.62,3.43-2.02c2.81-7.03,8.04-10.63,16.08-10.63c9.32,0,14.81,5.36,14.81,13.84v4.92l-18.85,1.14C13.4-27.69,5.71-21.36,5.71-11.08C5.71-0.49,13.92,6.59,25.74,6.59z M27.59-0.14c-8.04,0-13.58-4.53-13.58-11.16c0-6.33,5.01-10.5,14.59-11.21l17.8-1.23v6.81C46.4-7.61,37.96-0.14,27.59-0.14z"/>
   <path class="st2" d="M150.24,19.34c2.29,0,4-1.03,5.27-2.88l60.45-94.78c0.98-1.51,1.37-2.69,1.37-3.86c0-2.98-1.95-4.93-4.93-4.93c-2.05,0-3.27,0.73-4.49,2.73l-57.91,91.5l-29.59-37.6c-1.32-1.81-2.59-2.59-4.59-2.59c-2.98,0-5.08,2.05-5.08,4.98c0,1.27,0.49,2.59,1.56,3.91l32.47,40.53C146.38,18.41,147.99,19.34,150.24,19.34z"/>
  </g>
  <g id="Regular-M" transform="translate(1360.56 1126)">
   <path d="M88.73-42.45c-1.62,0.83-3.72,0.24-4.44-1.43c-1.15-2.65-3.72-7.09-10.59-7.09c-8.52,0-12.58,8.1-12.58,15.82c0,10.27,5.81,15.86,13.09,15.86c1.09,0,3.29-0.61,4.26-0.94c1.73-0.58,3.65-0.01,4.22,1.72c0.58,1.73-0.4,3.53-2.13,4.11c-1.65,0.55-3.55,0.81-5.35,0.81c-6.73,0-11.55-3.53-14.27-9.1l-0.02,5.79c0,1.82-1.29,3.3-3.11,3.3c-2.2,0-3.3-1.48-3.3-3.3v-51.05c0-1.82,1.48-3.3,3.3-3.3s3.3,1.48,3.3,3.3l-0.08,20.47c2.64-5.34,7.32-9.23,14.4-9.23c6.44,0,11.65,3.24,14.82,9.4C91.09-45.69,90.35-43.28,88.73-42.45z M103.84-35.22c0-9.38,5.16-15.84,13.13-15.84c3.2,0,7.17,1.73,9.8,5.89c0.97,1.54,3.01,2,4.55,1.02c1.54-0.97,1.69-2.93,0.71-4.47c-3.31-5.23-9.46-8.19-15.46-8.19c-11.74,0-19.33,8.47-19.33,21.58c0,1.82,1.48,3.3,3.3,3.3S103.84-33.4,103.84-35.22z M12.45-26.01c0-7.19,5.47-11.6,15.27-12.27l12.46-0.7v-3.28c0-5.43-3.55-8.79-9.61-8.79c-5,0-8.32,2.07-10.47,6.56c-0.59,1.09-1.52,1.52-2.73,1.52c-1.68,0-2.93-1.09-2.93-2.81c0-0.82,0.27-1.76,0.7-2.73c2.27-4.96,8.28-8.16,15.63-8.16c9.8,0,16.02,5.43,16.02,13.87v25.86c0,2.07-1.29,3.36-3.2,3.36c-1.84,0-3.09-1.29-3.16-3.2v-5.08H40.3c-2.38,5-7.97,8.24-13.95,8.24C18.15-13.62,12.45-18.54,12.45-26.01z M40.19-30.03v-4.06l-11.64,0.74c-6.05,0.43-9.34,3.13-9.34,7.23c0,4.22,3.52,7.07,8.75,7.07C34.76-19.05,40.19-23.86,40.19-30.03z M114.06,7.86c2.1,0,3.76-0.93,4.93-2.73l46.14-72.66c0.88-1.42,1.22-2.49,1.22-3.61c0-2.69-1.76-4.44-4.44-4.44c-1.95,0-3.03,0.63-4.2,2.49L113.86-3.22L91.11-33.01c-1.22-1.71-2.44-2.39-4.2-2.39c-2.78,0-4.69,1.9-4.69,4.59c0,1.12,0.49,2.39,1.42,3.56l25.34,32.28C110.44,6.93,111.96,7.86,114.06,7.86z"/>
  </g>
 </g>
</svg>
