<?xml version="1.0" encoding="utf-8"?>
<!-- Generator: Adobe Illustrator 24.2.3, SVG Export Plug-In . SVG Version: 6.00 Build 0)  -->
<!DOCTYPE svg
PUBLIC "-//W3C//DTD SVG 1.1//EN"
       "http://www.w3.org/Graphics/SVG/1.1/DTD/svg11.dtd">
<svg version="1.1" xmlns="http://www.w3.org/2000/svg" xmlns:xlink="http://www.w3.org/1999/xlink" width="3300" height="2200">
 <!--glyph: "uni100141.medium", point size: 100.000000, font version: "Version 16.0d11e1", template writer version: "8"-->


<g id="Notes">
 <style>
  text { fill: black; stroke: none;
         font-family: -apple-system,&quot;SF Pro Display&quot;,&quot;SF Pro Text&quot;,Helvetica,sans-serif; }
  .separator { fill: none; stroke: black; stroke-width: 0.5; }
 </style>
 
 <rect height="2200" id="artboard" style="fill:white" width="3300"/>
 
 <g title="header" transform="translate(263 292)">
  <line class="separator" x1="0" x2="2773"/>
  
  <g transform="translate(0 30)">
   <text style="font-weight:bold;">Weight/Scale Variations</text>
   
   <g style="text-anchor:middle;">
    <text x="296.711">Ultralight</text>
    <text x="593.422">Thin</text>
    <text x="890.13">Light</text>
    <text x="1449.84">Regular</text>
    <text x="1186.56">Medium</text>
    <text x="1780.27">Semibold</text>
    <text x="2076.98">Bold</text>
    <text x="2373.69">Heavy</text>
    <text x="2670.4">Black</text>
   </g>
  </g>
 </g>
 
 <g title="footer" transform="translate(263 1903)">
  <line class="separator" x1="0" x2="2773"/>
  
  <g>
   <g title="Circled Plus S" transform="translate(0 30)">
    <path d="M 9.24805 0.830078 C 13.5547 0.830078 17.1387 -2.74414 17.1387 -7.05078 C 17.1387 -11.3574 13.5449 -14.9316 9.23828 -14.9316 C 4.94141 -14.9316 1.36719 -11.3574 1.36719 -7.05078 C 1.36719 -2.74414 4.95117 0.830078 9.24805 0.830078 Z M 9.24805 -0.654297 C 5.70312 -0.654297 2.87109 -3.49609 2.87109 -7.05078 C 2.87109 -10.6055 5.69336 -13.4473 9.23828 -13.4473 C 12.793 -13.4473 15.6348 -10.6055 15.6445 -7.05078 C 15.6543 -3.49609 12.8027 -0.654297 9.24805 -0.654297 Z M 9.22852 -3.62305 C 9.69727 -3.62305 9.9707 -3.93555 9.9707 -4.45312 L 9.9707 -6.31836 L 12.002 -6.31836 C 12.5 -6.31836 12.832 -6.57227 12.832 -7.04102 C 12.832 -7.51953 12.5195 -7.7832 12.002 -7.7832 L 9.9707 -7.7832 L 9.9707 -9.81445 C 9.9707 -10.332 9.69727 -10.6543 9.22852 -10.6543 C 8.75977 -10.6543 8.50586 -10.3125 8.50586 -9.81445 L 8.50586 -7.7832 L 6.49414 -7.7832 C 5.97656 -7.7832 5.64453 -7.51953 5.64453 -7.04102 C 5.64453 -6.57227 5.99609 -6.31836 6.49414 -6.31836 L 8.50586 -6.31836 L 8.50586 -4.45312 C 8.50586 -3.95508 8.75977 -3.62305 9.22852 -3.62305 Z"/>
   </g>
   <g title="Circled Plus M" transform="translate(18.506 30)">
    <path d="M 11.709 2.91016 C 17.1582 2.91016 21.6699 -1.61133 21.6699 -7.05078 C 21.6699 -12.5 17.1484 -17.0117 11.6992 -17.0117 C 6.25977 -17.0117 1.74805 -12.5 1.74805 -7.05078 C 1.74805 -1.61133 6.26953 2.91016 11.709 2.91016 Z M 11.709 1.25 C 7.09961 1.25 3.41797 -2.44141 3.41797 -7.05078 C 3.41797 -11.6602 7.08984 -15.3516 11.6992 -15.3516 C 16.3086 -15.3516 20 -11.6602 20.0098 -7.05078 C 20.0195 -2.44141 16.3184 1.25 11.709 1.25 Z M 11.6797 -2.66602 C 12.207 -2.66602 12.5098 -3.01758 12.5098 -3.59375 L 12.5098 -6.23047 L 15.3223 -6.23047 C 15.8691 -6.23047 16.25 -6.51367 16.25 -7.03125 C 16.25 -7.55859 15.8887 -7.86133 15.3223 -7.86133 L 12.5098 -7.86133 L 12.5098 -10.6836 C 12.5098 -11.25 12.207 -11.6113 11.6797 -11.6113 C 11.1621 -11.6113 10.8789 -11.2305 10.8789 -10.6836 L 10.8789 -7.86133 L 8.07617 -7.86133 C 7.50977 -7.86133 7.13867 -7.55859 7.13867 -7.03125 C 7.13867 -6.51367 7.5293 -6.23047 8.07617 -6.23047 L 10.8789 -6.23047 L 10.8789 -3.59375 C 10.8789 -3.03711 11.1621 -2.66602 11.6797 -2.66602 Z"/>
   </g>
   <g title="Circled Plus L" transform="translate(41.924 30)">
    <path d="M 14.9707 5.66406 C 21.9336 5.66406 27.6953 -0.0976562 27.6953 -7.05078 C 27.6953 -14.0137 21.9238 -19.7754 14.9609 -19.7754 C 8.00781 -19.7754 2.25586 -14.0137 2.25586 -7.05078 C 2.25586 -0.0976562 8.01758 5.66406 14.9707 5.66406 Z M 14.9707 3.84766 C 8.93555 3.84766 4.08203 -1.01562 4.08203 -7.05078 C 4.08203 -13.0957 8.92578 -17.9492 14.9609 -17.9492 C 21.0059 -17.9492 25.8594 -13.0957 25.8691 -7.05078 C 25.8789 -1.01562 21.0156 3.84766 14.9707 3.84766 Z M 14.9414 -1.38672 C 15.5176 -1.38672 15.8594 -1.77734 15.8594 -2.38281 L 15.8594 -6.13281 L 19.7754 -6.13281 C 20.3711 -6.13281 20.7812 -6.46484 20.7812 -7.02148 C 20.7812 -7.59766 20.3906 -7.93945 19.7754 -7.93945 L 15.8594 -7.93945 L 15.8594 -11.8652 C 15.8594 -12.4805 15.5176 -12.8711 14.9414 -12.8711 C 14.375 -12.8711 14.0527 -12.4609 14.0527 -11.8652 L 14.0527 -7.93945 L 10.1465 -7.93945 C 9.53125 -7.93945 9.13086 -7.59766 9.13086 -7.02148 C 9.13086 -6.46484 9.55078 -6.13281 10.1465 -6.13281 L 14.0527 -6.13281 L 14.0527 -2.38281 C 14.0527 -1.79688 14.375 -1.38672 14.9414 -1.38672 Z"/>
   </g>
   <text style="font-weight:bold;" y="50">Design Variations</text>
   <text y="68">Symbols are supported in up to nine weights and three scales.</text>
   <text y="86">For optimal layout with text and other symbols, vertically align</text>
   <text y="104">symbols with the adjacent text.</text>
  </g>
  
  <g transform="translate(513 0)">
   <g title="A" transform="translate(0 30)">
       <path d="M 3.31055 0.126953 C 3.82812 0.126953 4.08203 -0.0683594 4.26758 -0.605469 L 5.52734 -4.0625 L 11.2891 -4.0625 L 12.5488 -0.605469 C 12.7344 -0.0683594 12.9883 0.126953 13.4961 0.126953 C 14.0137 0.126953 14.3457 -0.185547 14.3457 -0.673828 C 14.3457 -0.839844 14.3164 -0.986328 14.2383 -1.20117 L 9.6582 -13.3887 C 9.43359 -13.9941 9.0332 -14.2871 8.4082 -14.2871 C 7.80273 -14.2871 7.39258 -13.9941 7.17773 -13.3984 L 2.59766 -1.19141 C 2.51953 -0.976562 2.49023 -0.830078 2.49023 -0.664062 C 2.49023 -0.175781 2.80273 0.126953 3.31055 0.126953 Z M 6.00586 -5.53711 L 8.37891 -12.1094 L 8.42773 -12.1094 L 10.8008 -5.53711 Z"/>
   </g>
   <line style="fill:none;stroke:#00AEEF;stroke-width:0.5;opacity:1.0;" x1="0" x2="0" y1="19" y2="33"/>
   <line style="fill:none;stroke:#00AEEF;stroke-width:0.5;opacity:1.0;" x1="16.836" x2="16.836" y1="19" y2="33"/>
   <text style="font-weight:bold;" y="53">Margins</text>
   <text y="68">Leading and trailing margins on the left and right side of each symbol</text>
   <text y="86">can be adjusted by modifying the x-location of the margin guidelines.</text>
   <text y="104">Modifications are automatically applied proportionally to all</text>
   <text y="122">scales and weights.</text>
  </g>
  
  <g transform="translate(1026 0)">
   <g title="Hammer" transform="translate(0 30)">
    <path d="M 2.8418 1.86523 L 4.54102 3.57422 C 5.40039 4.44336 6.38672 4.38477 7.31445 3.35938 L 17.4902 -7.85156 C 17.7539 -7.76367 18.0273 -7.7832 18.3398 -7.8418 L 19.4043 -8.03711 L 20.0684 -7.36328 L 20.0293 -6.80664 C 19.9902 -6.30859 20.1172 -5.92773 20.6055 -5.44922 L 21.3672 -4.70703 C 21.8457 -4.22852 22.4609 -4.19922 22.9297 -4.66797 L 25.8398 -7.58789 C 26.3086 -8.05664 26.2891 -8.65234 25.8105 -9.13086 L 25.0391 -9.89258 C 24.5605 -10.3711 24.1895 -10.5273 23.7109 -10.4883 L 23.1348 -10.4395 L 22.4902 -11.0742 L 22.7344 -12.1973 C 22.8613 -12.7637 22.7051 -13.2031 22.1191 -13.7891 L 19.9219 -15.9766 C 16.582 -19.2969 12.1484 -19.2188 9.25781 -16.3281 C 8.83789 -15.918 8.80859 -15.3418 9.04297 -14.9512 C 9.27734 -14.5898 9.73633 -14.3555 10.3809 -14.5215 C 11.8457 -14.8633 13.3691 -14.9219 14.7949 -13.9844 L 14.209 -12.5293 C 14.0137 -12.0508 13.9844 -11.6504 14.1113 -11.2891 L 3.04688 -0.898438 C 2.06055 0.0195312 1.98242 0.996094 2.8418 1.86523 Z M 10.752 -15.957 C 13.1836 -17.7344 16.4746 -17.4316 18.7012 -15.2051 L 21.1328 -12.793 C 21.3672 -12.5586 21.4062 -12.373 21.3379 -12.0312 L 21.0156 -10.5469 L 22.5195 -9.0625 L 23.5059 -9.12109 C 23.7598 -9.13086 23.8379 -9.11133 24.0332 -8.91602 L 24.6094 -8.33984 L 22.168 -5.89844 L 21.5918 -6.47461 C 21.3965 -6.66992 21.3672 -6.74805 21.377 -7.01172 L 21.4453 -7.98828 L 19.9512 -9.47266 L 18.4277 -9.21875 C 18.1055 -9.15039 17.959 -9.17969 17.7148 -9.41406 L 15.7129 -11.416 C 15.459 -11.6504 15.4297 -11.8164 15.5859 -12.1875 L 16.4648 -14.2773 C 14.9023 -15.7324 12.8711 -16.3574 10.8398 -15.7617 C 10.6836 -15.7227 10.625 -15.8496 10.752 -15.957 Z M 5.27344 2.30469 L 4.10156 1.14258 C 3.63281 0.683594 3.74023 0.341797 4.14062 -0.0195312 L 14.9512 -10.1953 L 16.416 -8.71094 L 6.42578 2.27539 C 6.07422 2.67578 5.74219 2.77344 5.27344 2.30469 Z"/>
   </g>
   <text style="font-weight:bold;" y="50">Exporting</text>
   <text y="68">Symbols should be outlined when exporting to ensure the</text>
   <text y="86">design is preserved when submitting to Xcode.</text>
  </g>
  
  <g transform="translate(2773 0)" style="text-anchor:end;">
   <text id="template-version" y="30">Template v.2.0</text>
   <text y="48">Requires Xcode 12 or greater</text>
   <text y="66">Generated from arrow.left.to.line</text>
   <text y="84">Typeset at 100 points</text>
  </g>
 </g>
 
 <g transform="translate(263 0)">
  <text y="726">Small</text>
  <text y="1156">Medium</text>
  <text y="1586">Large</text>
 </g>
 </g>
 
 <g id="Guides">
  <style>
   #H-reference { fill:#27AAE1; stroke:none; }
   .baseline,
   .capline     { fill:none; stroke:#27AAE1; stroke-width:0.5; }
   .margin      { fill:none; stroke:#00AEEF; stroke-width:0.5; }
  </style>
  
  <g id="H-reference" transform="translate(339 696)">
   <path d="M1,0h2.7L13-24.5h32.7L55.1,0h2.6L30.6-70.5h-2.5L1,0z M29.3-67.1L29.3-67.1l15.6,40.4h-31L29.3-67.1z"/>
  </g>
  <line id="Baseline-S" class="baseline" x1="263" y1="696" x2="3036" y2="696"/>
  <line id="Capline-S" class="capline" x1="263" y1="625.5" x2="3036" y2="625.5"/>
  <g id="H-reference" transform="translate(339 1126)">
   <path class="st6" d="M1,0h2.7L13-24.5h32.7L55.1,0h2.6L30.6-70.5h-2.5L1,0z M29.3-67.1L29.3-67.1l15.6,40.4h-31L29.3-67.1z"/>
  </g>
  <line id="Baseline-M" class="baseline" x1="263" y1="1126" x2="3036" y2="1126"/>
  <line id="Capline-M" class="capline" x1="263" y1="1055.5" x2="3036" y2="1055.5"/>
  <g id="H-reference" transform="translate(339 1556)">
   <path d="M1,0h2.7L13-24.5h32.7L55.1,0h2.6L30.6-70.5h-2.5L1,0z M29.3-67.1L29.3-67.1l15.6,40.4h-31L29.3-67.1z"/>
  </g>
  <line id="Baseline-L" class="baseline" x1="263" y1="1556" x2="3036" y2="1556"/>
  <line id="Capline-L" class="capline" x1="263" y1="1485.5" x2="3036" y2="1485.5"/>
  <line id="left-margin" class="margin" x1="1379.8" y1="1030.8" x2="1379.8" y2="1150.1"/>
  <line id="right-margin" class="margin" x1="1519.9" y1="1030.8" x2="1519.9" y2="1150.1"/>
 </g>
<g id="Symbols">
 <g id="Black-L" transform="translate(2841.51 1556)">
  <path d="M40,26.5h103.8c15.3,0,23.9-8.6,23.9-23.8v-75.8c0-15.2-8.6-23.8-23.9-23.8H40c-15.2,0-23.9,8.6-23.9,23.8V2.7C16.1,17.9,24.8,26.5,40,26.5z M36.3-70.2c0-4.5,2.1-6.4,6.3-6.4h98.4c4.2,0,6.4,1.9,6.4,6.4v13.1H36.3V-70.2z M141.1,6.3H79l25.7-44.6h42.7v38.1C147.5,4.4,145.3,6.3,141.1,6.3z"/>
 </g>
 <g id="Heavy-L" transform="translate(2545.23 1556)">
  <path d="M38.8,25.5h105.3c14.6,0,22.8-8.1,22.8-22.6v-76.1c0-14.6-8.1-22.6-22.8-22.6H38.8c-14.6,0-22.8,8.1-22.8,22.6V2.9 C16.1,17.4,24.2,25.5,38.8,25.5z M33.6-70.9c0-5.1,2.5-7.4,7.3-7.4h101c4.8,0,7.4,2.3,7.4,7.4v14H33.6V-70.9z M141.9,8H77.6 l28.1-48.6h43.6V0.6C149.3,5.7,146.8,8,141.9,8z"/>
 </g>
 <g id="Bold-L" transform="translate(2249.01 1556)">
  <path d="M37.5,24.4h106.9c14,0,21.5-7.5,21.5-21.3v-76.5c0-13.8-7.5-21.3-21.5-21.3H37.5c-13.9,0-21.4,7.5-21.4,21.3V3.1 C16.1,16.9,23.6,24.4,37.5,24.4z M30.5-71.7c0-5.8,2.9-8.5,8.4-8.5h104c5.4,0,8.4,2.7,8.4,8.5v14.9H30.5V-71.7z M143,9.9H75.6 l30.7-53.2h45.1V1.4C151.4,7.2,148.4,9.9,143,9.9z"/>
 </g>
 <g id="Semibold-L" transform="translate(1952.64 1556)">
  <path d="M36.6,23.6h108c13.4,0,20.6-7.1,20.6-20.4v-76.7c0-13.3-7.1-20.4-20.6-20.4h-108c-13.4,0-20.6,7.1-20.6,20.4V3.2 C16.1,16.6,23.2,23.6,36.6,23.6z M28.4-72.3c0-6.2,3.2-9.3,9.2-9.3h106.1c5.9,0,9.2,3.1,9.2,9.3v15.6H28.4V-72.3z M143.7,11.3 H74.3l32.6-56.4h45.9V2C152.8,8.2,149.5,11.3,143.7,11.3z"/>
 </g>
 <g id="Medium-L" transform="translate(1656.2 1556)">
  <path d="M35.9,23h108.8c13.1,0,19.9-6.8,19.9-19.7v-76.9c0-12.9-6.8-19.7-19.9-19.7H35.9c-13,0-19.9,6.7-19.9,19.7V3.3 C16.1,16.3,22.9,23,35.9,23z M26.8-72.7c0-6.6,3.4-9.9,9.8-9.9h107.6c6.2,0,9.8,3.3,9.8,9.9v16.1H26.8V-72.7z M144.1,12.3H73.4 l33.9-58.8h46.6V2.4C153.9,9,150.4,12.3,144.1,12.3z"/>
 </g>
 <g id="Regular-L" transform="translate(1359.81 1556)">
  <path d="M35.1,22.2H145c12.6,0,19-6.3,19-18.8v-77.1c0-12.5-6.4-18.8-19-18.8H35.1c-12.6,0-19,6.3-19,18.8V3.4 C16.1,15.9,22.5,22.2,35.1,22.2z M24.7-73.3c0-7,3.7-10.6,10.5-10.6h109.6c6.7,0,10.5,3.6,10.5,10.6v16.7H24.7V-73.3z M144.8,13.6 H72.2l35.8-62h47.4V3C155.3,10,151.5,13.6,144.8,13.6z"/>
 </g>
 <g id="Light-L" transform="translate(1063.56 1556)">
  <path d="M34,21.4h111.1c11.9,0,18-6.2,18-17.9v-77.4c0-11.7-6.1-17.9-18-17.9H34c-11.9,0-18,6.1-18,17.9V3.6 C16.1,15.4,22.2,21.4,34,21.4z M22.7-73.5c0-7.7,4-11.6,11.5-11.6H145c7.3,0,11.5,3.9,11.5,11.6v16.4H22.7V-73.5z M145,14.8H70.6 l37.9-65.6h48V3.2C156.5,10.8,152.3,14.8,145,14.8z"/>
 </g>
 <g id="Thin-L" transform="translate(767.433 1556)">
  <path d="M32.7,20.4h112.6c10.9,0,16.6-5.9,16.6-16.6V-74c0-10.7-5.7-16.6-16.6-16.6H32.7c-10.9,0-16.6,5.7-16.6,16.6V3.8 C16.1,14.6,21.8,20.4,32.7,20.4z M20-73.8c0-8.5,4.4-12.9,12.8-12.9h112.4c8.2,0,12.8,4.4,12.8,12.9v15.9H20V-73.8z M145.2,16.4 H68.6l40.7-70.5H158V3.6C158,12,153.3,16.4,145.2,16.4z"/>
 </g>
 <g id="Ultralight-L" transform="translate(471.015 1556)">
  <path d="M32,19.8h113.4c10.4,0,15.9-5.7,15.9-15.9v-77.9c0-10.2-5.5-15.9-15.9-15.9H32c-10.4,0-15.9,5.5-15.9,15.9V3.9 C16.1,14.3,21.6,19.8,32,19.8z M18.6-73.9c0-8.9,4.6-13.5,13.5-13.5h113.1c8.6,0,13.5,4.6,13.5,13.5v15.6H18.6V-73.9z M145.3,17.2 H67.6l42.1-72.9h49V3.8C158.8,12.6,153.9,17.2,145.3,17.2z"/>
 </g>
 <g id="Black-M" transform="translate(2861.84 1126)">
  <path d="M32,13.6h79.2c12.3,0,19.5-7.3,19.5-19.5v-58.4c0-12.3-7.3-19.5-19.5-19.5H32c-12.3,0-19.5,7.3-19.5,19.5V-6 C12.5,6.3,19.7,13.6,32,13.6z M30.8-61.5c0-3.1,1.3-4.2,4.2-4.2h73.3c2.8,0,4.2,1.1,4.2,4.2v8.8H30.8V-61.5z M108.2-4.7H62.6 l17.8-30.9h31.9v26.8C112.4-5.8,111-4.7,108.2-4.7z"/>
 </g>
 <g id="Heavy-M" transform="translate(2565.5 1126)">
  <path d="M31,12.6h80.4c11.8,0,18.5-6.7,18.5-18.5v-58.7c0-11.7-6.7-18.5-18.5-18.5H31c-11.8,0-18.6,6.7-18.6,18.5v58.7 C12.5,5.9,19.2,12.6,31,12.6z M28.3-62.2c0-3.6,1.7-5,5-5h75.9c3.3,0,5,1.5,5,5v9.8H28.3V-62.2z M109.1-3.2H61.2l19.9-34.5h33 v29.5C114.1-4.6,112.5-3.2,109.1-3.2z"/>
 </g>
 <g id="Bold-M" transform="translate(2269.18 1126)">
  <path d="M29.9,11.7h81.8c11.2,0,17.4-6.2,17.4-17.3v-59c0-11.2-6.2-17.3-17.4-17.3H29.9c-11.2,0-17.4,6.2-17.4,17.3v59 C12.5,5.5,18.7,11.7,29.9,11.7z M25.5-63c0-4.1,2-5.9,5.9-5.9h78.8c3.8,0,5.9,1.8,5.9,5.9v11H25.5V-63z M110.2-1.4H59.7l22.2-38.4 h34.2v32.5C116.1-3.3,114-1.4,110.2-1.4z"/>
 </g>
 <g id="Semibold-M" transform="translate(1972.76 1126)">
  <path d="M29.1,11h82.8c10.9,0,16.6-5.8,16.6-16.6v-59.3c0-10.7-5.8-16.5-16.6-16.5H29.1c-10.8,0-16.7,5.8-16.7,16.5v59.3 C12.5,5.2,18.3,11,29.1,11z M23.6-63.6c0-4.4,2.2-6.5,6.5-6.5h80.8c4.2,0,6.5,2.1,6.5,6.5v11.8H23.6V-63.6z M110.9-0.2H58.6 l23.8-41.2h35v34.6C117.4-2.3,115.1-0.2,110.9-0.2z"/>
 </g>
 <g id="Medium-M" transform="translate(1676.24 1126)">
  <path d="M28.5,10.4h83.5c10.6,0,16.1-5.5,16.1-15.9v-59.4c0-10.4-5.5-15.9-16.1-15.9H28.5c-10.5,0-16.1,5.4-16.1,15.9v59.4 C12.5,5,18,10.4,28.5,10.4z M22.2-64c0-4.7,2.5-7.1,7-7.1h82.3c4.5,0,7,2.3,7,7.1v12.4H22.2V-64z M111.4,0.7H57.8l25-43.3h35.6 v36.2C118.4-1.6,115.9,0.7,111.4,0.7z"/>
 </g>
 <g id="Regular-M" transform="translate(1379.82 1126)">
  <path d="M27.8,9.8h84.5c10.3,0,15.3-5.1,15.3-15.1V-65c0-10.1-5.1-15.1-15.3-15.1H27.8c-10.2,0-15.3,5-15.3,15.1v59.6 C12.5,4.7,17.6,9.8,27.8,9.8z M20.3-64.6c0-5.1,2.7-7.7,7.6-7.7h84.3c4.8,0,7.6,2.6,7.6,7.7v13.2H20.3V-64.6z M112.2,1.9H56.8 L83.3-44h36.4v38.3C119.7-0.7,117,1.9,112.2,1.9z"/>
 </g>
 <g id="Light-M" transform="translate(1083.5 1126)">
  <path d="M26.9,9h85.5c9.6,0,14.4-4.9,14.4-14.3v-59.9c0-9.4-4.8-14.3-14.4-14.3H26.9c-9.5,0-14.4,4.8-14.4,14.3v59.9 C12.5,4.2,17.3,9,26.9,9z M18.5-64.8c0-5.6,3-8.5,8.4-8.5h85.4c5.4,0,8.4,2.9,8.4,8.5V-52H18.5V-64.8z M112.3,3H55.4l28.4-49.2 h36.9v40.6C120.8,0.1,117.7,3,112.3,3z"/>
 </g>
 <g id="Thin-M" transform="translate(787.33 1126)">
  <path d="M25.6,8.1h87c8.6,0,13.1-4.6,13.1-13.1v-60.2c0-8.5-4.5-13.1-13.1-13.1h-87c-8.6,0-13.2,4.5-13.2,13.1V-5 C12.5,3.6,17,8.1,25.6,8.1z M16.1-65c0-6.4,3.3-9.7,9.7-9.7h86.7c6.2,0,9.7,3.3,9.7,9.7v12.4H16.1V-65z M112.5,4.4H53.6l30.9-53.6 h37.6v43.9C122.1,1.1,118.6,4.4,112.5,4.4z"/>
 </g>
 <g id="Ultralight-M" transform="translate(490.888 1126)">
  <path d="M25,7.6h87.7c8.2,0,12.5-4.4,12.5-12.5v-60.3c0-8.1-4.3-12.5-12.5-12.5H25c-8.2,0-12.5,4.3-12.5,12.5V-5 C12.5,3.2,16.8,7.6,25,7.6z M14.8-65.2c0-6.8,3.5-10.3,10.3-10.3h87.5c6.5,0,10.3,3.5,10.3,10.3V-53h-108V-65.2z M112.5,5.2H52.7 l32.2-55.8h37.9v45.5C122.8,1.7,119,5.2,112.5,5.2z"/>
 </g>
 <g id="Black-S" transform="translate(2877.35 696)">
  <path d="M25,2.9h62.1c9.6,0,15.2-5.7,15.2-15.2v-45.8c0-9.6-5.7-15.2-15.2-15.2H25c-9.6,0-15.2,5.7-15.2,15.2v45.8 C9.8-2.7,15.4,2.9,25,2.9z M23.9-55.9c0-2.4,1.1-3.3,3.3-3.3h57.6c2.2,0,3.3,0.9,3.3,3.3v7H23.9V-55.9z M84.9-11.2H49l14.1-24.5 h25.1v21.1C88.2-12.1,87.1-11.2,84.9-11.2z"/>
 </g>
 <g id="Heavy-S" transform="translate(2580.88 696)">
  <path d="M24.4,2.3h62.9c9.3,0,14.6-5.3,14.6-14.6v-46c0-9.2-5.3-14.6-14.6-14.6H24.4c-9.3,0-14.6,5.3-14.6,14.6v46 C9.8-3,15.1,2.3,24.4,2.3z M22.3-56.4c0-2.7,1.3-3.9,3.8-3.9h59.5c2.5,0,3.9,1.1,3.9,3.9v7.8H22.3V-56.4z M85.5-10.2H48.1L63.5-37 h25.9V-14C89.4-11.3,88.1-10.2,85.5-10.2z"/>
 </g>
 <g id="Bold-S" transform="translate(2284.41 696)">
  <path d="M23.6,1.7h63.9c9,0,13.9-4.9,13.9-13.8v-46.2c0-8.9-4.9-13.8-13.9-13.8H23.6c-8.9,0-13.9,4.9-13.9,13.8v46.2 C9.8-3.2,14.7,1.7,23.6,1.7z M20.4-57c0-3.1,1.6-4.5,4.4-4.5h61.5c2.9,0,4.4,1.4,4.4,4.5v8.7H20.4V-57z M86.3-8.9H47.1l17-29.4 h26.7v25C90.8-10.4,89.2-8.9,86.3-8.9z"/>
 </g>
 <g id="Semibold-S" transform="translate(1987.9 696)">
  <path d="M23.1,1.2h64.6C96.4,1.2,101-3.4,101-12v-46.4c0-8.6-4.6-13.2-13.3-13.2H23.1c-8.7,0-13.3,4.5-13.3,13.2V-12 C9.8-3.4,14.4,1.2,23.1,1.2z M19.1-57.4c0-3.3,1.7-4.9,4.8-4.9h63c3.1,0,4.8,1.6,4.8,4.9v9.4H19.1V-57.4z M86.9-8.1H46.4l18-31.3 h27.3V-13C91.7-9.7,90-8.1,86.9-8.1z"/>
 </g>
 <g id="Medium-S" transform="translate(1691.31 696)">
  <path d="M22.7,0.8h65c8.6,0,13-4.3,13-12.8v-46.5c0-8.4-4.4-12.8-13-12.8h-65c-8.5,0-12.9,4.3-12.9,12.8V-12 C9.8-3.5,14.2,0.8,22.7,0.8z M18.1-57.7c0-3.5,1.9-5.2,5.1-5.2h64.1c3.3,0,5.1,1.8,5.1,5.2v9.9H18.1V-57.7z M87.3-7.5H45.8 l18.8-32.6h27.7v27.4C92.4-9.2,90.6-7.5,87.3-7.5z"/>
 </g>
 <g id="Regular-S" transform="translate(1394.79 696)">
  <path d="M22.2,0.4h65.7c8.3,0,12.5-4.1,12.5-12.3v-46.6c0-8.2-4.1-12.3-12.5-12.3H22.2c-8.3,0-12.5,4.1-12.5,12.3v46.6 C9.8-3.7,13.9,0.4,22.2,0.4z M16.8-58.2c0-3.7,2-5.6,5.5-5.6h65.5c3.5,0,5.5,1.9,5.5,5.6v10.5H16.8V-58.2z M87.8-6.7H45.1L65-41.1 h28.3v28.8C93.3-8.5,91.3-6.7,87.8-6.7z"/>
 </g>
 <g id="Light-S" transform="translate(1098.42 696)">
  <path d="M21.4-0.3H88c7.7,0,11.6-3.9,11.6-11.5v-46.8c0-7.6-3.9-11.5-11.6-11.5H21.4c-7.7,0-11.6,3.9-11.6,11.5v46.8 C9.8-4.2,13.7-0.3,21.4-0.3z M15.2-58.3c0-4.2,2.2-6.4,6.3-6.4h66.5c4,0,6.3,2.2,6.3,6.4v10.2H15.2V-58.3z M87.9-5.7h-44L65.5-43 h28.8v31C94.2-7.9,91.9-5.7,87.9-5.7z"/>
 </g>
 <g id="Thin-S" transform="translate(802.174 696)">
  <path d="M20.3-1.1h67.9c6.9,0,10.5-3.7,10.5-10.5v-47.1c0-6.9-3.6-10.5-10.5-10.5H20.3c-6.9,0-10.5,3.6-10.5,10.5v47.1 C9.8-4.7,13.4-1.1,20.3-1.1z M13.1-58.5c0-4.8,2.5-7.4,7.3-7.4h67.7c4.6,0,7.3,2.5,7.3,7.4v9.8H13.1V-58.5z M88.1-4.4H42.4 l23.7-41.1h29.3v33.7C95.4-6.9,92.7-4.4,88.1-4.4z"/>
 </g>
 <g id="Ultralight-S" transform="translate(505.707 696)">
  <path d="M19.8-1.6h68.5c6.5,0,10-3.6,10-10v-47.3c0-6.4-3.4-10-10-10H19.8c-6.5,0-10,3.5-10,10v47.3C9.8-5,13.2-1.6,19.8-1.6z  M12-58.6c0-5.2,2.7-7.9,7.9-7.9h68.3c5,0,7.9,2.7,7.9,7.9v9.6H12V-58.6z M88.2-3.8H41.6l24.9-43.1H96v35.2 C96-6.4,93.2-3.8,88.2-3.8z"/>
 </g>
</g>
</svg>
