<?xml version="1.0" encoding="utf-8"?>
<!DOCTYPE svg
PUBLIC "-//W3C//DTD SVG 1.1//EN"
       "http://www.w3.org/Graphics/SVG/1.1/DTD/svg11.dtd">
<svg version="1.1" xmlns="http://www.w3.org/2000/svg" xmlns:xlink="http://www.w3.org/1999/xlink" width="3300" height="2200">
 <!--glyph: "uni10068C.medium", point size: 100.0, font version: "18.0d12e2", template writer version: "101"-->
 
 <g id="Notes">
  <style>
   text { font-family: -apple-system, sans-serif; }
   .separator { fill: none; stroke: black; stroke-width: 0.5; }
  </style>
  
  <rect height="2200" id="artboard" style="fill:white" width="3300"/>
  
  <g title="header" transform="translate(263 292)">
   <line class="separator" x1="0" x2="2773"/>
   
   <g transform="translate(0 30)">
    <text style="font-weight:bold;">Weight/Scale Variations</text>
    
    <g style="text-anchor:middle;">
     <text x="296.711">Ultralight</text>
     <text x="593.422">Thin</text>
     <text x="890.13">Light</text>
     <text x="1186.84">Regular</text>
     <text x="1483.56">Medium</text>
     <text x="1780.27">Semibold</text>
     <text x="2076.98">Bold</text>
     <text x="2373.69">Heavy</text>
     <text x="2670.4">Black</text>
    </g>
   </g>
  </g>
  
  <g title="footer" transform="translate(263 1903)">
   <line class="separator" x1="0" x2="2773"/>
   
   <g transform="translate(2773 0)" style="text-anchor:end;">
    <text id="template-version" y="30">Template v.3.0</text>
    <text y="48">Requires Xcode 13 or greater</text>
    <text y="66">Generated from uiwindow.split.2x1</text>
    <text y="84">Typeset at 100 points</text>
   </g>
  </g>
  
  <g transform="translate(263 0)">
   <text y="726">Small</text>
   <text y="1156">Medium</text>
   <text y="1586">Large</text>
  </g>
 </g>
 
 <g id="Guides">
  <style>
   #H-reference      { fill:#27AAE1; stroke:none; }
   [id^="Baseline"],
   [id^="Capline"]   { fill:none; stroke:#27AAE1; stroke-width:0.5; }
   [id$="-margin"]   { fill:none; stroke:#00AEEF; stroke-width:0.5; }
  </style>
  
  <g id="H-reference" transform="matrix(1 0 0 1 339 696)">
   <path d="M0.993654 0L3.63775 0L29.3281-67.1323L30.0303-67.1323L30.0303-70.459L28.1226-70.459ZM11.6885-24.4799L46.9815-24.4799L46.2315-26.7285L12.4385-26.7285ZM55.1196 0L57.7637 0L30.6382-70.459L29.4326-70.459L29.4326-67.1323Z"/>
  </g>
  <line id="Baseline-S" x1="263" x2="3036" y1="696" y2="696"/>
  <line id="Capline-S" x1="263" x2="3036" y1="625.541" y2="625.541"/>
  <g id="H-reference" transform="matrix(1 0 0 1 339 1126)">
   <path d="M0.993654 0L3.63775 0L29.3281-67.1323L30.0303-67.1323L30.0303-70.459L28.1226-70.459ZM11.6885-24.4799L46.9815-24.4799L46.2315-26.7285L12.4385-26.7285ZM55.1196 0L57.7637 0L30.6382-70.459L29.4326-70.459L29.4326-67.1323Z"/>
  </g>
  <line id="Baseline-M" x1="263" x2="3036" y1="1126" y2="1126"/>
  <line id="Capline-M" x1="263" x2="3036" y1="1055.54" y2="1055.54"/>
  <g id="H-reference" transform="matrix(1 0 0 1 339 1556)">
   <path d="M0.993654 0L3.63775 0L29.3281-67.1323L30.0303-67.1323L30.0303-70.459L28.1226-70.459ZM11.6885-24.4799L46.9815-24.4799L46.2315-26.7285L12.4385-26.7285ZM55.1196 0L57.7637 0L30.6382-70.459L29.4326-70.459L29.4326-67.1323Z"/>
  </g>
  <line id="Baseline-L" x1="263" x2="3036" y1="1556" y2="1556"/>
  <line id="Capline-L" x1="263" x2="3036" y1="1485.54" y2="1485.54"/>
  <line id="left-margin-Ultralight-S" x1="505.702" x2="505.702" y1="600.785" y2="720.121"/>
  <line id="right-margin-Ultralight-S" x1="613.72" x2="613.72" y1="600.785" y2="720.121"/>
  <line id="left-margin-Regular-S" x1="1394.79" x2="1394.79" y1="600.785" y2="720.121"/>
  <line id="right-margin-Regular-S" x1="1504.9" x2="1504.9" y1="600.785" y2="720.121"/>
  <line id="left-margin-Black-S" x1="2877.35" x2="2877.35" y1="600.785" y2="720.121"/>
  <line id="right-margin-Black-S" x1="2989.45" x2="2989.45" y1="600.785" y2="720.121"/>
 </g>
 
 <g id="Symbols">
  <g id="Black-S" transform="translate(2877.35 696)">
   <path d="M25,2.9h62.1c9.6,0,15.2-5.7,15.2-15.2v-45.8c0-9.6-5.7-15.2-15.2-15.2H25c-9.6,0-15.2,5.7-15.2,15.2v45.8 C9.8-2.7,15.4,2.9,25,2.9z M23.9-55.9c0-2.4,1.1-3.3,3.3-3.3h57.6c2.2,0,3.3,0.9,3.3,3.3v7H23.9V-55.9z M84.9-11.2H49l14.1-24.5 h25.1v21.1C88.2-12.1,87.1-11.2,84.9-11.2z"/>
  </g>
  <g id="Regular-S" transform="translate(1394.79 696)">
   <path d="M22.2,0.4h65.7c8.3,0,12.5-4.1,12.5-12.3v-46.6c0-8.2-4.1-12.3-12.5-12.3H22.2c-8.3,0-12.5,4.1-12.5,12.3v46.6 C9.8-3.7,13.9,0.4,22.2,0.4z M16.8-58.2c0-3.7,2-5.6,5.5-5.6h65.5c3.5,0,5.5,1.9,5.5,5.6v10.5H16.8V-58.2z M87.8-6.7H45.1L65-41.1 h28.3v28.8C93.3-8.5,91.3-6.7,87.8-6.7z"/>
  </g>
  <g id="Ultralight-S" transform="translate(505.707 696)">
   <path d="M19.8-1.6h68.5c6.5,0,10-3.6,10-10v-47.3c0-6.4-3.4-10-10-10H19.8c-6.5,0-10,3.5-10,10v47.3C9.8-5,13.2-1.6,19.8-1.6z  M12-58.6c0-5.2,2.7-7.9,7.9-7.9h68.3c5,0,7.9,2.7,7.9,7.9v9.6H12V-58.6z M88.2-3.8H41.6l24.9-43.1H96v35.2 C96-6.4,93.2-3.8,88.2-3.8z"/>
  </g>
 </g>
</svg>
